<?xml version="1.0" encoding="utf-8" standalone="no"?>
<!DOCTYPE svg PUBLIC "-//W3C//DTD SVG 1.1//EN"
  "http://www.w3.org/Graphics/SVG/1.1/DTD/svg11.dtd">
<!-- Created with matplotlib (https://matplotlib.org/) -->
<svg height="360pt" version="1.1" viewBox="0 0 576 360" width="576pt" xmlns="http://www.w3.org/2000/svg" xmlns:xlink="http://www.w3.org/1999/xlink">
 <metadata>
  <rdf:RDF xmlns:cc="http://creativecommons.org/ns#" xmlns:dc="http://purl.org/dc/elements/1.1/" xmlns:rdf="http://www.w3.org/1999/02/22-rdf-syntax-ns#">
   <cc:Work>
    <dc:type rdf:resource="http://purl.org/dc/dcmitype/StillImage"/>
    <dc:date>2021-03-04T19:48:05.268550</dc:date>
    <dc:format>image/svg+xml</dc:format>
    <dc:creator>
     <cc:Agent>
      <dc:title>Matplotlib v3.3.3, https://matplotlib.org/</dc:title>
     </cc:Agent>
    </dc:creator>
   </cc:Work>
  </rdf:RDF>
 </metadata>
 <defs>
  <style type="text/css">*{stroke-linecap:butt;stroke-linejoin:round;}</style>
 </defs>
 <g id="figure_1">
  <g id="patch_1">
   <path d="M 0 360 
L 576 360 
L 576 0 
L 0 0 
z
" style="fill:#ffffff;"/>
  </g>
  <g id="axes_1">
   <g id="patch_2">
    <path d="M 72 315 
L 518.4 315 
L 518.4 43.2 
L 72 43.2 
z
" style="fill:#ffffff;"/>
   </g>
   <g id="matplotlib.axis_1">
    <g id="xtick_1">
     <g id="line2d_1">
      <defs>
       <path d="M 0 0 
L 0 3.5 
" id="m752cf8bba4" style="stroke:#000000;stroke-width:0.8;"/>
      </defs>
      <g>
       <use style="stroke:#000000;stroke-width:0.8;" x="82.095599" xlink:href="#m752cf8bba4" y="315"/>
      </g>
     </g>
     <g id="text_1">
      <!-- 0 -->
      <g transform="translate(78.914349 329.598437)scale(0.1 -0.1)">
       <defs>
        <path d="M 31.78125 66.40625 
Q 24.171875 66.40625 20.328125 58.90625 
Q 16.5 51.421875 16.5 36.375 
Q 16.5 21.390625 20.328125 13.890625 
Q 24.171875 6.390625 31.78125 6.390625 
Q 39.453125 6.390625 43.28125 13.890625 
Q 47.125 21.390625 47.125 36.375 
Q 47.125 51.421875 43.28125 58.90625 
Q 39.453125 66.40625 31.78125 66.40625 
z
M 31.78125 74.21875 
Q 44.046875 74.21875 50.515625 64.515625 
Q 56.984375 54.828125 56.984375 36.375 
Q 56.984375 17.96875 50.515625 8.265625 
Q 44.046875 -1.421875 31.78125 -1.421875 
Q 19.53125 -1.421875 13.0625 8.265625 
Q 6.59375 17.96875 6.59375 36.375 
Q 6.59375 54.828125 13.0625 64.515625 
Q 19.53125 74.21875 31.78125 74.21875 
z
" id="DejaVuSans-48"/>
       </defs>
       <use xlink:href="#DejaVuSans-48"/>
      </g>
     </g>
    </g>
    <g id="xtick_2">
     <g id="line2d_2">
      <g>
       <use style="stroke:#000000;stroke-width:0.8;" x="130.573866" xlink:href="#m752cf8bba4" y="315"/>
      </g>
     </g>
     <g id="text_2">
      <!-- 200 -->
      <g transform="translate(121.030116 329.598437)scale(0.1 -0.1)">
       <defs>
        <path d="M 19.1875 8.296875 
L 53.609375 8.296875 
L 53.609375 0 
L 7.328125 0 
L 7.328125 8.296875 
Q 12.9375 14.109375 22.625 23.890625 
Q 32.328125 33.6875 34.8125 36.53125 
Q 39.546875 41.84375 41.421875 45.53125 
Q 43.3125 49.21875 43.3125 52.78125 
Q 43.3125 58.59375 39.234375 62.25 
Q 35.15625 65.921875 28.609375 65.921875 
Q 23.96875 65.921875 18.8125 64.3125 
Q 13.671875 62.703125 7.8125 59.421875 
L 7.8125 69.390625 
Q 13.765625 71.78125 18.9375 73 
Q 24.125 74.21875 28.421875 74.21875 
Q 39.75 74.21875 46.484375 68.546875 
Q 53.21875 62.890625 53.21875 53.421875 
Q 53.21875 48.921875 51.53125 44.890625 
Q 49.859375 40.875 45.40625 35.40625 
Q 44.1875 33.984375 37.640625 27.21875 
Q 31.109375 20.453125 19.1875 8.296875 
z
" id="DejaVuSans-50"/>
       </defs>
       <use xlink:href="#DejaVuSans-50"/>
       <use x="63.623047" xlink:href="#DejaVuSans-48"/>
       <use x="127.246094" xlink:href="#DejaVuSans-48"/>
      </g>
     </g>
    </g>
    <g id="xtick_3">
     <g id="line2d_3">
      <g>
       <use style="stroke:#000000;stroke-width:0.8;" x="179.052133" xlink:href="#m752cf8bba4" y="315"/>
      </g>
     </g>
     <g id="text_3">
      <!-- 400 -->
      <g transform="translate(169.508383 329.598437)scale(0.1 -0.1)">
       <defs>
        <path d="M 37.796875 64.3125 
L 12.890625 25.390625 
L 37.796875 25.390625 
z
M 35.203125 72.90625 
L 47.609375 72.90625 
L 47.609375 25.390625 
L 58.015625 25.390625 
L 58.015625 17.1875 
L 47.609375 17.1875 
L 47.609375 0 
L 37.796875 0 
L 37.796875 17.1875 
L 4.890625 17.1875 
L 4.890625 26.703125 
z
" id="DejaVuSans-52"/>
       </defs>
       <use xlink:href="#DejaVuSans-52"/>
       <use x="63.623047" xlink:href="#DejaVuSans-48"/>
       <use x="127.246094" xlink:href="#DejaVuSans-48"/>
      </g>
     </g>
    </g>
    <g id="xtick_4">
     <g id="line2d_4">
      <g>
       <use style="stroke:#000000;stroke-width:0.8;" x="227.530399" xlink:href="#m752cf8bba4" y="315"/>
      </g>
     </g>
     <g id="text_4">
      <!-- 600 -->
      <g transform="translate(217.986649 329.598437)scale(0.1 -0.1)">
       <defs>
        <path d="M 33.015625 40.375 
Q 26.375 40.375 22.484375 35.828125 
Q 18.609375 31.296875 18.609375 23.390625 
Q 18.609375 15.53125 22.484375 10.953125 
Q 26.375 6.390625 33.015625 6.390625 
Q 39.65625 6.390625 43.53125 10.953125 
Q 47.40625 15.53125 47.40625 23.390625 
Q 47.40625 31.296875 43.53125 35.828125 
Q 39.65625 40.375 33.015625 40.375 
z
M 52.59375 71.296875 
L 52.59375 62.3125 
Q 48.875 64.0625 45.09375 64.984375 
Q 41.3125 65.921875 37.59375 65.921875 
Q 27.828125 65.921875 22.671875 59.328125 
Q 17.53125 52.734375 16.796875 39.40625 
Q 19.671875 43.65625 24.015625 45.921875 
Q 28.375 48.1875 33.59375 48.1875 
Q 44.578125 48.1875 50.953125 41.515625 
Q 57.328125 34.859375 57.328125 23.390625 
Q 57.328125 12.15625 50.6875 5.359375 
Q 44.046875 -1.421875 33.015625 -1.421875 
Q 20.359375 -1.421875 13.671875 8.265625 
Q 6.984375 17.96875 6.984375 36.375 
Q 6.984375 53.65625 15.1875 63.9375 
Q 23.390625 74.21875 37.203125 74.21875 
Q 40.921875 74.21875 44.703125 73.484375 
Q 48.484375 72.75 52.59375 71.296875 
z
" id="DejaVuSans-54"/>
       </defs>
       <use xlink:href="#DejaVuSans-54"/>
       <use x="63.623047" xlink:href="#DejaVuSans-48"/>
       <use x="127.246094" xlink:href="#DejaVuSans-48"/>
      </g>
     </g>
    </g>
    <g id="xtick_5">
     <g id="line2d_5">
      <g>
       <use style="stroke:#000000;stroke-width:0.8;" x="276.008666" xlink:href="#m752cf8bba4" y="315"/>
      </g>
     </g>
     <g id="text_5">
      <!-- 800 -->
      <g transform="translate(266.464916 329.598437)scale(0.1 -0.1)">
       <defs>
        <path d="M 31.78125 34.625 
Q 24.75 34.625 20.71875 30.859375 
Q 16.703125 27.09375 16.703125 20.515625 
Q 16.703125 13.921875 20.71875 10.15625 
Q 24.75 6.390625 31.78125 6.390625 
Q 38.8125 6.390625 42.859375 10.171875 
Q 46.921875 13.96875 46.921875 20.515625 
Q 46.921875 27.09375 42.890625 30.859375 
Q 38.875 34.625 31.78125 34.625 
z
M 21.921875 38.8125 
Q 15.578125 40.375 12.03125 44.71875 
Q 8.5 49.078125 8.5 55.328125 
Q 8.5 64.0625 14.71875 69.140625 
Q 20.953125 74.21875 31.78125 74.21875 
Q 42.671875 74.21875 48.875 69.140625 
Q 55.078125 64.0625 55.078125 55.328125 
Q 55.078125 49.078125 51.53125 44.71875 
Q 48 40.375 41.703125 38.8125 
Q 48.828125 37.15625 52.796875 32.3125 
Q 56.78125 27.484375 56.78125 20.515625 
Q 56.78125 9.90625 50.3125 4.234375 
Q 43.84375 -1.421875 31.78125 -1.421875 
Q 19.734375 -1.421875 13.25 4.234375 
Q 6.78125 9.90625 6.78125 20.515625 
Q 6.78125 27.484375 10.78125 32.3125 
Q 14.796875 37.15625 21.921875 38.8125 
z
M 18.3125 54.390625 
Q 18.3125 48.734375 21.84375 45.5625 
Q 25.390625 42.390625 31.78125 42.390625 
Q 38.140625 42.390625 41.71875 45.5625 
Q 45.3125 48.734375 45.3125 54.390625 
Q 45.3125 60.0625 41.71875 63.234375 
Q 38.140625 66.40625 31.78125 66.40625 
Q 25.390625 66.40625 21.84375 63.234375 
Q 18.3125 60.0625 18.3125 54.390625 
z
" id="DejaVuSans-56"/>
       </defs>
       <use xlink:href="#DejaVuSans-56"/>
       <use x="63.623047" xlink:href="#DejaVuSans-48"/>
       <use x="127.246094" xlink:href="#DejaVuSans-48"/>
      </g>
     </g>
    </g>
    <g id="xtick_6">
     <g id="line2d_6">
      <g>
       <use style="stroke:#000000;stroke-width:0.8;" x="324.486933" xlink:href="#m752cf8bba4" y="315"/>
      </g>
     </g>
     <g id="text_6">
      <!-- 1000 -->
      <g transform="translate(311.761933 329.598437)scale(0.1 -0.1)">
       <defs>
        <path d="M 12.40625 8.296875 
L 28.515625 8.296875 
L 28.515625 63.921875 
L 10.984375 60.40625 
L 10.984375 69.390625 
L 28.421875 72.90625 
L 38.28125 72.90625 
L 38.28125 8.296875 
L 54.390625 8.296875 
L 54.390625 0 
L 12.40625 0 
z
" id="DejaVuSans-49"/>
       </defs>
       <use xlink:href="#DejaVuSans-49"/>
       <use x="63.623047" xlink:href="#DejaVuSans-48"/>
       <use x="127.246094" xlink:href="#DejaVuSans-48"/>
       <use x="190.869141" xlink:href="#DejaVuSans-48"/>
      </g>
     </g>
    </g>
    <g id="xtick_7">
     <g id="line2d_7">
      <g>
       <use style="stroke:#000000;stroke-width:0.8;" x="372.9652" xlink:href="#m752cf8bba4" y="315"/>
      </g>
     </g>
     <g id="text_7">
      <!-- 1200 -->
      <g transform="translate(360.2402 329.598437)scale(0.1 -0.1)">
       <use xlink:href="#DejaVuSans-49"/>
       <use x="63.623047" xlink:href="#DejaVuSans-50"/>
       <use x="127.246094" xlink:href="#DejaVuSans-48"/>
       <use x="190.869141" xlink:href="#DejaVuSans-48"/>
      </g>
     </g>
    </g>
    <g id="xtick_8">
     <g id="line2d_8">
      <g>
       <use style="stroke:#000000;stroke-width:0.8;" x="421.443466" xlink:href="#m752cf8bba4" y="315"/>
      </g>
     </g>
     <g id="text_8">
      <!-- 1400 -->
      <g transform="translate(408.718466 329.598437)scale(0.1 -0.1)">
       <use xlink:href="#DejaVuSans-49"/>
       <use x="63.623047" xlink:href="#DejaVuSans-52"/>
       <use x="127.246094" xlink:href="#DejaVuSans-48"/>
       <use x="190.869141" xlink:href="#DejaVuSans-48"/>
      </g>
     </g>
    </g>
    <g id="xtick_9">
     <g id="line2d_9">
      <g>
       <use style="stroke:#000000;stroke-width:0.8;" x="469.921733" xlink:href="#m752cf8bba4" y="315"/>
      </g>
     </g>
     <g id="text_9">
      <!-- 1600 -->
      <g transform="translate(457.196733 329.598437)scale(0.1 -0.1)">
       <use xlink:href="#DejaVuSans-49"/>
       <use x="63.623047" xlink:href="#DejaVuSans-54"/>
       <use x="127.246094" xlink:href="#DejaVuSans-48"/>
       <use x="190.869141" xlink:href="#DejaVuSans-48"/>
      </g>
     </g>
    </g>
    <g id="xtick_10">
     <g id="line2d_10">
      <g>
       <use style="stroke:#000000;stroke-width:0.8;" x="518.4" xlink:href="#m752cf8bba4" y="315"/>
      </g>
     </g>
     <g id="text_10">
      <!-- 1800 -->
      <g transform="translate(505.675 329.598437)scale(0.1 -0.1)">
       <use xlink:href="#DejaVuSans-49"/>
       <use x="63.623047" xlink:href="#DejaVuSans-56"/>
       <use x="127.246094" xlink:href="#DejaVuSans-48"/>
       <use x="190.869141" xlink:href="#DejaVuSans-48"/>
      </g>
     </g>
    </g>
    <g id="text_11">
     <!-- generation -->
     <g transform="translate(268.007031 343.276563)scale(0.1 -0.1)">
      <defs>
       <path d="M 45.40625 27.984375 
Q 45.40625 37.75 41.375 43.109375 
Q 37.359375 48.484375 30.078125 48.484375 
Q 22.859375 48.484375 18.828125 43.109375 
Q 14.796875 37.75 14.796875 27.984375 
Q 14.796875 18.265625 18.828125 12.890625 
Q 22.859375 7.515625 30.078125 7.515625 
Q 37.359375 7.515625 41.375 12.890625 
Q 45.40625 18.265625 45.40625 27.984375 
z
M 54.390625 6.78125 
Q 54.390625 -7.171875 48.1875 -13.984375 
Q 42 -20.796875 29.203125 -20.796875 
Q 24.46875 -20.796875 20.265625 -20.09375 
Q 16.0625 -19.390625 12.109375 -17.921875 
L 12.109375 -9.1875 
Q 16.0625 -11.328125 19.921875 -12.34375 
Q 23.78125 -13.375 27.78125 -13.375 
Q 36.625 -13.375 41.015625 -8.765625 
Q 45.40625 -4.15625 45.40625 5.171875 
L 45.40625 9.625 
Q 42.625 4.78125 38.28125 2.390625 
Q 33.9375 0 27.875 0 
Q 17.828125 0 11.671875 7.65625 
Q 5.515625 15.328125 5.515625 27.984375 
Q 5.515625 40.671875 11.671875 48.328125 
Q 17.828125 56 27.875 56 
Q 33.9375 56 38.28125 53.609375 
Q 42.625 51.21875 45.40625 46.390625 
L 45.40625 54.6875 
L 54.390625 54.6875 
z
" id="DejaVuSans-103"/>
       <path d="M 56.203125 29.59375 
L 56.203125 25.203125 
L 14.890625 25.203125 
Q 15.484375 15.921875 20.484375 11.0625 
Q 25.484375 6.203125 34.421875 6.203125 
Q 39.59375 6.203125 44.453125 7.46875 
Q 49.3125 8.734375 54.109375 11.28125 
L 54.109375 2.78125 
Q 49.265625 0.734375 44.1875 -0.34375 
Q 39.109375 -1.421875 33.890625 -1.421875 
Q 20.796875 -1.421875 13.15625 6.1875 
Q 5.515625 13.8125 5.515625 26.8125 
Q 5.515625 40.234375 12.765625 48.109375 
Q 20.015625 56 32.328125 56 
Q 43.359375 56 49.78125 48.890625 
Q 56.203125 41.796875 56.203125 29.59375 
z
M 47.21875 32.234375 
Q 47.125 39.59375 43.09375 43.984375 
Q 39.0625 48.390625 32.421875 48.390625 
Q 24.90625 48.390625 20.390625 44.140625 
Q 15.875 39.890625 15.1875 32.171875 
z
" id="DejaVuSans-101"/>
       <path d="M 54.890625 33.015625 
L 54.890625 0 
L 45.90625 0 
L 45.90625 32.71875 
Q 45.90625 40.484375 42.875 44.328125 
Q 39.84375 48.1875 33.796875 48.1875 
Q 26.515625 48.1875 22.3125 43.546875 
Q 18.109375 38.921875 18.109375 30.90625 
L 18.109375 0 
L 9.078125 0 
L 9.078125 54.6875 
L 18.109375 54.6875 
L 18.109375 46.1875 
Q 21.34375 51.125 25.703125 53.5625 
Q 30.078125 56 35.796875 56 
Q 45.21875 56 50.046875 50.171875 
Q 54.890625 44.34375 54.890625 33.015625 
z
" id="DejaVuSans-110"/>
       <path d="M 41.109375 46.296875 
Q 39.59375 47.171875 37.8125 47.578125 
Q 36.03125 48 33.890625 48 
Q 26.265625 48 22.1875 43.046875 
Q 18.109375 38.09375 18.109375 28.8125 
L 18.109375 0 
L 9.078125 0 
L 9.078125 54.6875 
L 18.109375 54.6875 
L 18.109375 46.1875 
Q 20.953125 51.171875 25.484375 53.578125 
Q 30.03125 56 36.53125 56 
Q 37.453125 56 38.578125 55.875 
Q 39.703125 55.765625 41.0625 55.515625 
z
" id="DejaVuSans-114"/>
       <path d="M 34.28125 27.484375 
Q 23.390625 27.484375 19.1875 25 
Q 14.984375 22.515625 14.984375 16.5 
Q 14.984375 11.71875 18.140625 8.90625 
Q 21.296875 6.109375 26.703125 6.109375 
Q 34.1875 6.109375 38.703125 11.40625 
Q 43.21875 16.703125 43.21875 25.484375 
L 43.21875 27.484375 
z
M 52.203125 31.203125 
L 52.203125 0 
L 43.21875 0 
L 43.21875 8.296875 
Q 40.140625 3.328125 35.546875 0.953125 
Q 30.953125 -1.421875 24.3125 -1.421875 
Q 15.921875 -1.421875 10.953125 3.296875 
Q 6 8.015625 6 15.921875 
Q 6 25.140625 12.171875 29.828125 
Q 18.359375 34.515625 30.609375 34.515625 
L 43.21875 34.515625 
L 43.21875 35.40625 
Q 43.21875 41.609375 39.140625 45 
Q 35.0625 48.390625 27.6875 48.390625 
Q 23 48.390625 18.546875 47.265625 
Q 14.109375 46.140625 10.015625 43.890625 
L 10.015625 52.203125 
Q 14.9375 54.109375 19.578125 55.046875 
Q 24.21875 56 28.609375 56 
Q 40.484375 56 46.34375 49.84375 
Q 52.203125 43.703125 52.203125 31.203125 
z
" id="DejaVuSans-97"/>
       <path d="M 18.3125 70.21875 
L 18.3125 54.6875 
L 36.8125 54.6875 
L 36.8125 47.703125 
L 18.3125 47.703125 
L 18.3125 18.015625 
Q 18.3125 11.328125 20.140625 9.421875 
Q 21.96875 7.515625 27.59375 7.515625 
L 36.8125 7.515625 
L 36.8125 0 
L 27.59375 0 
Q 17.1875 0 13.234375 3.875 
Q 9.28125 7.765625 9.28125 18.015625 
L 9.28125 47.703125 
L 2.6875 47.703125 
L 2.6875 54.6875 
L 9.28125 54.6875 
L 9.28125 70.21875 
z
" id="DejaVuSans-116"/>
       <path d="M 9.421875 54.6875 
L 18.40625 54.6875 
L 18.40625 0 
L 9.421875 0 
z
M 9.421875 75.984375 
L 18.40625 75.984375 
L 18.40625 64.59375 
L 9.421875 64.59375 
z
" id="DejaVuSans-105"/>
       <path d="M 30.609375 48.390625 
Q 23.390625 48.390625 19.1875 42.75 
Q 14.984375 37.109375 14.984375 27.296875 
Q 14.984375 17.484375 19.15625 11.84375 
Q 23.34375 6.203125 30.609375 6.203125 
Q 37.796875 6.203125 41.984375 11.859375 
Q 46.1875 17.53125 46.1875 27.296875 
Q 46.1875 37.015625 41.984375 42.703125 
Q 37.796875 48.390625 30.609375 48.390625 
z
M 30.609375 56 
Q 42.328125 56 49.015625 48.375 
Q 55.71875 40.765625 55.71875 27.296875 
Q 55.71875 13.875 49.015625 6.21875 
Q 42.328125 -1.421875 30.609375 -1.421875 
Q 18.84375 -1.421875 12.171875 6.21875 
Q 5.515625 13.875 5.515625 27.296875 
Q 5.515625 40.765625 12.171875 48.375 
Q 18.84375 56 30.609375 56 
z
" id="DejaVuSans-111"/>
      </defs>
      <use xlink:href="#DejaVuSans-103"/>
      <use x="63.476562" xlink:href="#DejaVuSans-101"/>
      <use x="125" xlink:href="#DejaVuSans-110"/>
      <use x="188.378906" xlink:href="#DejaVuSans-101"/>
      <use x="249.902344" xlink:href="#DejaVuSans-114"/>
      <use x="291.015625" xlink:href="#DejaVuSans-97"/>
      <use x="352.294922" xlink:href="#DejaVuSans-116"/>
      <use x="391.503906" xlink:href="#DejaVuSans-105"/>
      <use x="419.287109" xlink:href="#DejaVuSans-111"/>
      <use x="480.46875" xlink:href="#DejaVuSans-110"/>
     </g>
    </g>
   </g>
   <g id="matplotlib.axis_2">
    <g id="ytick_1">
     <g id="line2d_11">
      <defs>
       <path d="M 0 0 
L -3.5 0 
" id="m8e008f4e1a" style="stroke:#000000;stroke-width:0.8;"/>
      </defs>
      <g>
       <use style="stroke:#000000;stroke-width:0.8;" x="72" xlink:href="#m8e008f4e1a" y="304.303783"/>
      </g>
     </g>
     <g id="text_12">
      <!-- −50 -->
      <g transform="translate(43.895313 308.103002)scale(0.1 -0.1)">
       <defs>
        <path d="M 10.59375 35.5 
L 73.1875 35.5 
L 73.1875 27.203125 
L 10.59375 27.203125 
z
" id="DejaVuSans-8722"/>
        <path d="M 10.796875 72.90625 
L 49.515625 72.90625 
L 49.515625 64.59375 
L 19.828125 64.59375 
L 19.828125 46.734375 
Q 21.96875 47.46875 24.109375 47.828125 
Q 26.265625 48.1875 28.421875 48.1875 
Q 40.625 48.1875 47.75 41.5 
Q 54.890625 34.8125 54.890625 23.390625 
Q 54.890625 11.625 47.5625 5.09375 
Q 40.234375 -1.421875 26.90625 -1.421875 
Q 22.3125 -1.421875 17.546875 -0.640625 
Q 12.796875 0.140625 7.71875 1.703125 
L 7.71875 11.625 
Q 12.109375 9.234375 16.796875 8.0625 
Q 21.484375 6.890625 26.703125 6.890625 
Q 35.15625 6.890625 40.078125 11.328125 
Q 45.015625 15.765625 45.015625 23.390625 
Q 45.015625 31 40.078125 35.4375 
Q 35.15625 39.890625 26.703125 39.890625 
Q 22.75 39.890625 18.8125 39.015625 
Q 14.890625 38.140625 10.796875 36.28125 
z
" id="DejaVuSans-53"/>
       </defs>
       <use xlink:href="#DejaVuSans-8722"/>
       <use x="83.789062" xlink:href="#DejaVuSans-53"/>
       <use x="147.412109" xlink:href="#DejaVuSans-48"/>
      </g>
     </g>
    </g>
    <g id="ytick_2">
     <g id="line2d_12">
      <g>
       <use style="stroke:#000000;stroke-width:0.8;" x="72" xlink:href="#m8e008f4e1a" y="262.845577"/>
      </g>
     </g>
     <g id="text_13">
      <!-- −25 -->
      <g transform="translate(43.895313 266.644795)scale(0.1 -0.1)">
       <use xlink:href="#DejaVuSans-8722"/>
       <use x="83.789062" xlink:href="#DejaVuSans-50"/>
       <use x="147.412109" xlink:href="#DejaVuSans-53"/>
      </g>
     </g>
    </g>
    <g id="ytick_3">
     <g id="line2d_13">
      <g>
       <use style="stroke:#000000;stroke-width:0.8;" x="72" xlink:href="#m8e008f4e1a" y="221.38737"/>
      </g>
     </g>
     <g id="text_14">
      <!-- 0 -->
      <g transform="translate(58.6375 225.186589)scale(0.1 -0.1)">
       <use xlink:href="#DejaVuSans-48"/>
      </g>
     </g>
    </g>
    <g id="ytick_4">
     <g id="line2d_14">
      <g>
       <use style="stroke:#000000;stroke-width:0.8;" x="72" xlink:href="#m8e008f4e1a" y="179.929164"/>
      </g>
     </g>
     <g id="text_15">
      <!-- 25 -->
      <g transform="translate(52.275 183.728383)scale(0.1 -0.1)">
       <use xlink:href="#DejaVuSans-50"/>
       <use x="63.623047" xlink:href="#DejaVuSans-53"/>
      </g>
     </g>
    </g>
    <g id="ytick_5">
     <g id="line2d_15">
      <g>
       <use style="stroke:#000000;stroke-width:0.8;" x="72" xlink:href="#m8e008f4e1a" y="138.470958"/>
      </g>
     </g>
     <g id="text_16">
      <!-- 50 -->
      <g transform="translate(52.275 142.270177)scale(0.1 -0.1)">
       <use xlink:href="#DejaVuSans-53"/>
       <use x="63.623047" xlink:href="#DejaVuSans-48"/>
      </g>
     </g>
    </g>
    <g id="ytick_6">
     <g id="line2d_16">
      <g>
       <use style="stroke:#000000;stroke-width:0.8;" x="72" xlink:href="#m8e008f4e1a" y="97.012752"/>
      </g>
     </g>
     <g id="text_17">
      <!-- 75 -->
      <g transform="translate(52.275 100.81197)scale(0.1 -0.1)">
       <defs>
        <path d="M 8.203125 72.90625 
L 55.078125 72.90625 
L 55.078125 68.703125 
L 28.609375 0 
L 18.3125 0 
L 43.21875 64.59375 
L 8.203125 64.59375 
z
" id="DejaVuSans-55"/>
       </defs>
       <use xlink:href="#DejaVuSans-55"/>
       <use x="63.623047" xlink:href="#DejaVuSans-53"/>
      </g>
     </g>
    </g>
    <g id="ytick_7">
     <g id="line2d_17">
      <g>
       <use style="stroke:#000000;stroke-width:0.8;" x="72" xlink:href="#m8e008f4e1a" y="55.554545"/>
      </g>
     </g>
     <g id="text_18">
      <!-- 100 -->
      <g transform="translate(45.9125 59.353764)scale(0.1 -0.1)">
       <use xlink:href="#DejaVuSans-49"/>
       <use x="63.623047" xlink:href="#DejaVuSans-48"/>
       <use x="127.246094" xlink:href="#DejaVuSans-48"/>
      </g>
     </g>
    </g>
    <g id="text_19">
     <!-- cumulative reward -->
     <g transform="translate(37.815625 225.799219)rotate(-90)scale(0.1 -0.1)">
      <defs>
       <path d="M 48.78125 52.59375 
L 48.78125 44.1875 
Q 44.96875 46.296875 41.140625 47.34375 
Q 37.3125 48.390625 33.40625 48.390625 
Q 24.65625 48.390625 19.8125 42.84375 
Q 14.984375 37.3125 14.984375 27.296875 
Q 14.984375 17.28125 19.8125 11.734375 
Q 24.65625 6.203125 33.40625 6.203125 
Q 37.3125 6.203125 41.140625 7.25 
Q 44.96875 8.296875 48.78125 10.40625 
L 48.78125 2.09375 
Q 45.015625 0.34375 40.984375 -0.53125 
Q 36.96875 -1.421875 32.421875 -1.421875 
Q 20.0625 -1.421875 12.78125 6.34375 
Q 5.515625 14.109375 5.515625 27.296875 
Q 5.515625 40.671875 12.859375 48.328125 
Q 20.21875 56 33.015625 56 
Q 37.15625 56 41.109375 55.140625 
Q 45.0625 54.296875 48.78125 52.59375 
z
" id="DejaVuSans-99"/>
       <path d="M 8.5 21.578125 
L 8.5 54.6875 
L 17.484375 54.6875 
L 17.484375 21.921875 
Q 17.484375 14.15625 20.5 10.265625 
Q 23.53125 6.390625 29.59375 6.390625 
Q 36.859375 6.390625 41.078125 11.03125 
Q 45.3125 15.671875 45.3125 23.6875 
L 45.3125 54.6875 
L 54.296875 54.6875 
L 54.296875 0 
L 45.3125 0 
L 45.3125 8.40625 
Q 42.046875 3.421875 37.71875 1 
Q 33.40625 -1.421875 27.6875 -1.421875 
Q 18.265625 -1.421875 13.375 4.4375 
Q 8.5 10.296875 8.5 21.578125 
z
M 31.109375 56 
z
" id="DejaVuSans-117"/>
       <path d="M 52 44.1875 
Q 55.375 50.25 60.0625 53.125 
Q 64.75 56 71.09375 56 
Q 79.640625 56 84.28125 50.015625 
Q 88.921875 44.046875 88.921875 33.015625 
L 88.921875 0 
L 79.890625 0 
L 79.890625 32.71875 
Q 79.890625 40.578125 77.09375 44.375 
Q 74.3125 48.1875 68.609375 48.1875 
Q 61.625 48.1875 57.5625 43.546875 
Q 53.515625 38.921875 53.515625 30.90625 
L 53.515625 0 
L 44.484375 0 
L 44.484375 32.71875 
Q 44.484375 40.625 41.703125 44.40625 
Q 38.921875 48.1875 33.109375 48.1875 
Q 26.21875 48.1875 22.15625 43.53125 
Q 18.109375 38.875 18.109375 30.90625 
L 18.109375 0 
L 9.078125 0 
L 9.078125 54.6875 
L 18.109375 54.6875 
L 18.109375 46.1875 
Q 21.1875 51.21875 25.484375 53.609375 
Q 29.78125 56 35.6875 56 
Q 41.65625 56 45.828125 52.96875 
Q 50 49.953125 52 44.1875 
z
" id="DejaVuSans-109"/>
       <path d="M 9.421875 75.984375 
L 18.40625 75.984375 
L 18.40625 0 
L 9.421875 0 
z
" id="DejaVuSans-108"/>
       <path d="M 2.984375 54.6875 
L 12.5 54.6875 
L 29.59375 8.796875 
L 46.6875 54.6875 
L 56.203125 54.6875 
L 35.6875 0 
L 23.484375 0 
z
" id="DejaVuSans-118"/>
       <path id="DejaVuSans-32"/>
       <path d="M 4.203125 54.6875 
L 13.1875 54.6875 
L 24.421875 12.015625 
L 35.59375 54.6875 
L 46.1875 54.6875 
L 57.421875 12.015625 
L 68.609375 54.6875 
L 77.59375 54.6875 
L 63.28125 0 
L 52.6875 0 
L 40.921875 44.828125 
L 29.109375 0 
L 18.5 0 
z
" id="DejaVuSans-119"/>
       <path d="M 45.40625 46.390625 
L 45.40625 75.984375 
L 54.390625 75.984375 
L 54.390625 0 
L 45.40625 0 
L 45.40625 8.203125 
Q 42.578125 3.328125 38.25 0.953125 
Q 33.9375 -1.421875 27.875 -1.421875 
Q 17.96875 -1.421875 11.734375 6.484375 
Q 5.515625 14.40625 5.515625 27.296875 
Q 5.515625 40.1875 11.734375 48.09375 
Q 17.96875 56 27.875 56 
Q 33.9375 56 38.25 53.625 
Q 42.578125 51.265625 45.40625 46.390625 
z
M 14.796875 27.296875 
Q 14.796875 17.390625 18.875 11.75 
Q 22.953125 6.109375 30.078125 6.109375 
Q 37.203125 6.109375 41.296875 11.75 
Q 45.40625 17.390625 45.40625 27.296875 
Q 45.40625 37.203125 41.296875 42.84375 
Q 37.203125 48.484375 30.078125 48.484375 
Q 22.953125 48.484375 18.875 42.84375 
Q 14.796875 37.203125 14.796875 27.296875 
z
" id="DejaVuSans-100"/>
      </defs>
      <use xlink:href="#DejaVuSans-99"/>
      <use x="54.980469" xlink:href="#DejaVuSans-117"/>
      <use x="118.359375" xlink:href="#DejaVuSans-109"/>
      <use x="215.771484" xlink:href="#DejaVuSans-117"/>
      <use x="279.150391" xlink:href="#DejaVuSans-108"/>
      <use x="306.933594" xlink:href="#DejaVuSans-97"/>
      <use x="368.212891" xlink:href="#DejaVuSans-116"/>
      <use x="407.421875" xlink:href="#DejaVuSans-105"/>
      <use x="435.205078" xlink:href="#DejaVuSans-118"/>
      <use x="494.384766" xlink:href="#DejaVuSans-101"/>
      <use x="555.908203" xlink:href="#DejaVuSans-32"/>
      <use x="587.695312" xlink:href="#DejaVuSans-114"/>
      <use x="626.558594" xlink:href="#DejaVuSans-101"/>
      <use x="688.082031" xlink:href="#DejaVuSans-119"/>
      <use x="769.869141" xlink:href="#DejaVuSans-97"/>
      <use x="831.148438" xlink:href="#DejaVuSans-114"/>
      <use x="870.511719" xlink:href="#DejaVuSans-100"/>
     </g>
    </g>
   </g>
   <g id="line2d_18">
    <path clip-path="url(#p54ce264f73)" d="M 82.095599 226.660854 
L 82.33799 231.171507 
L 82.580382 222.100451 
L 82.822773 221.138621 
L 83.065164 221.254704 
L 83.307556 221.785369 
L 83.549947 224.604527 
L 83.792338 221.53662 
L 84.03473 222.382367 
L 84.277121 221.088871 
L 84.519512 222.830116 
L 84.761904 223.244698 
L 85.004295 222.796949 
L 85.246686 221.967785 
L 85.489078 221.735619 
L 85.731469 221.934619 
L 85.97386 221.221538 
L 86.216252 221.204954 
L 86.458643 220.408957 
L 86.701034 221.63612 
L 86.943426 221.005955 
L 87.185817 221.669286 
L 87.428208 222.000952 
L 87.6706 221.53662 
L 87.912991 221.38737 
L 88.155382 221.58637 
L 88.397774 220.972788 
L 88.640165 221.055705 
L 88.882556 222.034118 
L 89.124948 220.442123 
L 89.60973 221.470287 
L 89.852122 221.403954 
L 90.094513 222.398951 
L 90.336904 225.284442 
L 90.579296 222.067285 
L 91.064078 225.019109 
L 91.30647 221.337621 
L 91.791252 224.422111 
L 92.033644 221.719036 
L 92.518426 221.072288 
L 93.003209 222.730616 
L 93.2456 222.59795 
L 93.487992 222.067285 
L 93.730383 222.183368 
L 93.972774 224.637694 
L 94.457557 221.38737 
L 94.699948 223.078865 
L 94.94234 221.719036 
L 95.184731 221.520037 
L 95.427122 223.128615 
L 95.669514 222.846699 
L 95.911905 222.183368 
L 96.154296 225.665857 
L 96.396688 223.327614 
L 96.639079 223.70903 
L 96.88147 223.095448 
L 97.123862 224.140195 
L 97.366253 222.531617 
L 97.608644 222.233118 
L 98.093427 223.908029 
L 98.335818 223.858279 
L 98.57821 224.836693 
L 98.820601 224.952776 
L 99.062992 223.360781 
L 99.305384 224.306028 
L 99.547775 224.140195 
L 99.790166 223.327614 
L 100.032558 224.786943 
L 100.274949 223.841696 
L 100.759732 226.528188 
L 101.002123 223.841696 
L 101.244514 224.72061 
L 101.486906 227.257852 
L 101.729297 224.604527 
L 101.971688 223.576364 
L 102.21408 224.306028 
L 102.456471 221.304454 
L 102.698862 224.471861 
L 102.941254 225.251275 
L 103.183645 224.936193 
L 103.426036 223.493447 
L 103.668428 226.677437 
L 103.910819 224.554777 
L 104.15321 224.704027 
L 104.637993 222.846699 
L 104.880384 223.211531 
L 105.122776 225.035692 
L 105.365167 223.957779 
L 105.607558 224.024112 
L 105.84995 223.576364 
L 106.092341 222.398951 
L 106.334732 223.908029 
L 106.577124 224.62111 
L 106.819515 226.727187 
L 107.304298 223.642697 
L 107.546689 223.178365 
L 107.78908 223.874863 
L 108.273863 222.69745 
L 108.516254 223.60953 
L 108.758646 223.178365 
L 109.243428 223.924613 
L 109.48582 225.914606 
L 109.728211 223.858279 
L 109.970602 224.62111 
L 110.212994 224.189945 
L 110.455385 224.156779 
L 110.697776 224.339195 
L 110.940168 223.957779 
L 111.182559 226.461855 
L 111.42495 225.73219 
L 111.667342 223.493447 
L 112.152124 226.577938 
L 112.394516 223.493447 
L 112.636907 224.471861 
L 112.879298 226.362355 
L 113.364081 223.592947 
L 113.606472 224.306028 
L 113.848864 226.047273 
L 114.091255 225.83169 
L 114.333646 228.136766 
L 114.576038 226.876437 
L 114.818429 226.627688 
L 115.06082 224.571361 
L 115.303212 226.213106 
L 115.787994 227.224686 
L 116.030386 226.760354 
L 116.272777 225.533191 
L 116.515168 225.533191 
L 116.999951 223.626113 
L 117.242342 225.002526 
L 117.484734 224.952776 
L 117.727125 224.173362 
L 117.969516 226.312605 
L 118.211908 224.803527 
L 118.454299 225.383941 
L 118.69669 225.599524 
L 118.939082 226.710604 
L 119.181473 227.04227 
L 119.423864 226.876437 
L 119.666256 225.699024 
L 119.908647 227.539768 
L 120.151038 226.99252 
L 120.39343 225.383941 
L 120.635821 224.936193 
L 120.878212 224.969359 
L 121.120604 226.810104 
L 121.605386 226.014106 
L 121.847778 226.213106 
L 122.090169 226.229689 
L 122.33256 227.04227 
L 122.574952 226.345772 
L 122.817343 227.937767 
L 123.059734 226.826687 
L 123.302126 227.622685 
L 123.544517 227.09202 
L 123.786908 227.058853 
L 124.271691 228.468432 
L 124.514082 226.611104 
L 124.756474 227.970933 
L 124.998865 227.606101 
L 125.241256 226.428688 
L 125.483648 225.83169 
L 125.726039 227.473435 
L 125.96843 227.158353 
L 126.210822 228.766931 
L 126.937996 226.959353 
L 127.180387 227.224686 
L 127.422778 227.224686 
L 127.66517 226.014106 
L 128.149952 228.037267 
L 128.392344 227.04227 
L 128.877126 226.296022 
L 129.119518 226.047273 
L 129.6043 226.959353 
L 129.846692 226.063856 
L 130.089083 224.704027 
L 130.331474 224.853276 
L 130.573866 226.196522 
L 130.816257 224.704027 
L 131.058648 225.533191 
L 131.30104 225.798523 
L 131.543431 226.478438 
L 131.785822 226.577938 
L 132.028214 225.798523 
L 132.270605 225.88144 
L 132.512996 226.577938 
L 132.755388 225.400525 
L 132.997779 225.88144 
L 133.24017 226.097023 
L 133.482562 226.677437 
L 133.724953 228.816681 
L 133.967345 225.748774 
L 134.209736 225.73219 
L 134.452127 224.388944 
L 134.694519 227.058853 
L 134.93691 226.080439 
L 135.179301 226.229689 
L 135.421693 225.93119 
L 135.664084 226.246272 
L 135.906475 227.539768 
L 136.148867 226.959353 
L 136.391258 227.539768 
L 136.633649 226.776937 
L 137.118432 223.791946 
L 137.360823 224.82011 
L 137.603215 227.440268 
L 137.845606 226.047273 
L 138.087997 225.83169 
L 138.330389 224.554777 
L 138.57278 226.694021 
L 138.815171 226.84327 
L 139.057563 225.78194 
L 139.299954 225.367358 
L 139.784737 225.201525 
L 140.027128 224.654277 
L 140.269519 227.009103 
L 140.511911 224.505027 
L 140.754302 225.184942 
L 140.996693 227.473435 
L 141.239085 226.694021 
L 141.481476 227.075436 
L 141.723867 225.251275 
L 141.966259 226.710604 
L 142.20865 226.89302 
L 142.451041 225.93119 
L 142.693433 227.556351 
L 142.935824 225.383941 
L 143.420607 226.577938 
L 143.662998 225.73219 
L 143.905389 226.146772 
L 144.147781 225.234692 
L 144.390172 225.533191 
L 144.632563 227.672434 
L 144.874955 227.95435 
L 145.359737 226.113606 
L 145.602129 227.324185 
L 146.086911 225.649274 
L 146.814085 225.798523 
L 147.298868 227.058853 
L 147.541259 227.490018 
L 147.783651 226.395522 
L 148.026042 227.291019 
L 148.268433 227.456852 
L 148.510825 228.916181 
L 148.753216 226.611104 
L 148.995607 227.95435 
L 149.237999 226.727187 
L 149.48039 227.788517 
L 149.722781 227.805101 
L 150.207564 226.279439 
L 150.449955 226.710604 
L 150.934738 226.495021 
L 151.177129 226.528188 
L 151.661912 227.506602 
L 151.904303 227.95435 
L 152.389086 226.660854 
L 152.631477 227.871434 
L 152.873869 228.501599 
L 153.11626 227.04227 
L 153.358651 227.871434 
L 153.601043 226.660854 
L 153.843434 226.229689 
L 154.085825 227.357352 
L 154.570608 227.224686 
L 154.812999 226.876437 
L 155.297782 227.838267 
L 155.540173 229.131763 
L 156.024956 226.743771 
L 156.267347 229.297596 
L 156.509739 226.760354 
L 156.75213 228.485015 
L 156.994521 227.141769 
L 157.236913 226.975937 
L 157.479304 226.246272 
L 158.206478 227.622685 
L 158.448869 226.561354 
L 158.691261 226.644271 
L 158.933652 226.080439 
L 159.176043 226.644271 
L 159.418435 226.213106 
L 159.660826 226.99252 
L 159.903217 225.898023 
L 160.145609 225.798523 
L 160.630391 226.544771 
L 160.872783 227.108603 
L 161.115174 226.611104 
L 161.357565 226.909603 
L 161.599957 226.014106 
L 161.842348 226.428688 
L 162.084739 228.203099 
L 162.327131 225.616107 
L 162.569522 227.257852 
L 162.811913 226.362355 
L 163.054305 227.373935 
L 163.296696 226.163356 
L 163.539087 226.677437 
L 163.781479 225.367358 
L 164.02387 226.727187 
L 164.266261 227.191519 
L 164.508653 228.783514 
L 164.751044 226.544771 
L 165.235827 227.738768 
L 165.478218 227.888017 
L 165.720609 227.174936 
L 165.963001 230.27601 
L 166.932566 226.296022 
L 167.174957 226.528188 
L 167.417349 228.385516 
L 167.902131 227.241269 
L 168.144523 228.020683 
L 168.386914 227.09202 
L 168.629305 226.909603 
L 169.114088 228.402099 
L 169.356479 228.0041 
L 169.598871 227.125186 
L 169.841262 227.506602 
L 170.083653 227.523185 
L 170.326045 228.96593 
L 170.568436 228.319182 
L 171.053219 229.131763 
L 171.29561 228.766931 
L 171.538001 229.26443 
L 171.780393 227.158353 
L 172.022784 227.407102 
L 172.265175 227.821684 
L 172.507567 227.821684 
L 172.749958 226.975937 
L 172.992349 229.032264 
L 173.234741 228.700598 
L 173.477132 228.584515 
L 173.719523 229.596095 
L 173.961915 227.987517 
L 174.204306 227.440268 
L 174.689089 228.766931 
L 175.416263 229.131763 
L 175.658654 229.811678 
L 175.901045 227.921184 
L 176.143437 227.9046 
L 176.628219 229.198096 
L 176.870611 228.800098 
L 177.113002 227.871434 
L 177.355393 229.994094 
L 177.840176 228.236266 
L 178.082567 229.26443 
L 178.324959 229.513179 
L 178.56735 228.567932 
L 178.809741 228.700598 
L 179.052133 228.319182 
L 179.294524 229.06543 
L 179.536915 228.800098 
L 179.779307 229.11518 
L 180.264089 228.883014 
L 180.506481 229.994094 
L 180.748872 227.539768 
L 180.991263 229.529762 
L 181.233655 230.358926 
L 181.476046 230.22626 
L 181.718437 229.562929 
L 181.960829 230.159927 
L 182.445611 229.281013 
L 182.688003 229.911178 
L 182.930394 229.198096 
L 183.172785 229.596095 
L 183.415177 230.690592 
L 183.657568 230.259426 
L 183.899959 228.335766 
L 184.142351 228.352349 
L 184.627133 229.032264 
L 184.869525 227.854851 
L 185.111916 229.679012 
L 185.354307 228.567932 
L 185.596699 230.32576 
L 185.83909 230.159927 
L 186.323873 228.717181 
L 186.566264 230.607675 
L 186.808655 227.854851 
L 187.051047 229.347346 
L 187.293438 229.728761 
L 187.535829 230.408676 
L 187.778221 230.674009 
L 188.020612 229.529762 
L 188.263003 229.363929 
L 188.505395 228.385516 
L 188.747786 228.949347 
L 188.990177 229.11518 
L 189.232569 228.634265 
L 189.47496 229.977511 
L 189.959743 229.861428 
L 190.202134 228.883014 
L 190.444525 231.353923 
L 190.686917 226.727187 
L 190.929308 229.927761 
L 191.656482 228.717181 
L 191.898873 229.960927 
L 192.141265 229.380513 
L 192.383656 229.894594 
L 192.626047 229.082013 
L 192.868439 229.612678 
L 193.11083 228.567932 
L 193.353221 228.335766 
L 193.595613 228.634265 
L 193.838004 227.456852 
L 194.080395 229.745345 
L 194.322787 229.198096 
L 194.565178 229.26443 
L 194.807569 228.352349 
L 195.049961 228.584515 
L 195.292352 228.485015 
L 195.534743 229.446846 
L 195.777135 230.889591 
L 196.019526 230.624259 
L 196.261917 228.15335 
L 196.504309 230.607675 
L 196.7467 230.889591 
L 196.989091 229.347346 
L 197.231483 230.242843 
L 197.473874 229.380513 
L 197.716265 229.513179 
L 198.201048 230.093594 
L 198.685831 231.768505 
L 198.928222 229.363929 
L 199.413005 230.922758 
L 199.655396 228.567932 
L 199.897787 229.098597 
L 200.140179 231.503173 
L 200.38257 229.695595 
L 200.624961 232.597669 
L 200.867353 231.072007 
L 201.109744 231.204674 
L 201.352135 230.873008 
L 201.594527 228.650848 
L 201.836918 229.413679 
L 202.079309 231.486589 
L 202.321701 230.043844 
L 202.564092 231.38709 
L 202.806483 231.204674 
L 203.048875 231.751922 
L 203.291266 230.358926 
L 203.533657 231.635839 
L 203.776049 231.23784 
L 204.260831 230.22626 
L 204.503223 231.055424 
L 204.745614 230.889591 
L 204.988005 230.889591 
L 205.230397 231.38709 
L 205.472788 230.093594 
L 205.715179 231.055424 
L 205.957571 230.159927 
L 206.199962 229.811678 
L 206.442353 231.171507 
L 206.684745 230.209677 
L 206.927136 232.564503 
L 207.169527 231.486589 
L 207.65431 230.806675 
L 207.896701 230.043844 
L 208.139093 230.375509 
L 208.381484 232.995668 
L 208.623875 230.17651 
L 209.108658 232.829835 
L 209.351049 230.392093 
L 209.593441 231.055424 
L 209.835832 230.209677 
L 210.078223 230.27601 
L 210.320615 232.465003 
L 210.563006 231.13834 
L 210.805397 234.173081 
L 211.047789 232.647419 
L 211.29018 232.017254 
L 211.774963 233.343917 
L 212.017354 232.564503 
L 212.259745 232.232837 
L 212.502137 230.17651 
L 212.744528 230.159927 
L 212.986919 231.602672 
L 213.229311 231.917755 
L 213.471702 232.547919 
L 213.714093 230.839841 
L 213.956485 230.010677 
L 214.198876 231.751922 
L 214.441267 230.22626 
L 214.683659 230.823258 
L 214.92605 230.27601 
L 215.168441 232.24942 
L 215.410833 231.320757 
L 215.653224 231.851422 
L 215.895615 231.453423 
L 216.138007 233.542916 
L 216.622789 231.38709 
L 216.865181 233.675583 
L 217.107572 232.116754 
L 217.349963 233.144918 
L 217.592355 233.5595 
L 218.077137 232.514753 
L 218.56192 234.173081 
L 218.804311 232.382087 
L 219.046703 232.29917 
L 219.289094 234.156498 
L 219.531485 231.818255 
L 219.773877 233.178084 
L 220.016268 231.503173 
L 220.258659 231.702172 
L 220.501051 231.33734 
L 220.985833 233.261001 
L 221.228225 231.519756 
L 221.470616 231.602672 
L 221.713007 232.879585 
L 221.955399 231.884588 
L 222.19779 233.907749 
L 222.440181 233.50975 
L 222.682573 232.896168 
L 222.924964 235.499744 
L 223.167355 232.581086 
L 223.409747 232.896168 
L 223.652138 232.581086 
L 223.894529 234.62083 
L 224.136921 231.470006 
L 224.379312 230.475009 
L 224.621703 233.062001 
L 224.864095 231.13834 
L 225.106486 232.332337 
L 225.591269 233.078585 
L 225.83366 231.917755 
L 226.076051 232.680586 
L 226.318443 232.216254 
L 226.560834 231.154924 
L 226.803225 234.355497 
L 227.045617 232.746919 
L 227.288008 232.116754 
L 227.530399 230.773508 
L 227.772791 231.552923 
L 228.015182 229.446846 
L 228.257573 231.38709 
L 228.499965 231.685589 
L 228.742356 232.746919 
L 228.984747 230.939341 
L 229.227139 232.846419 
L 229.46953 231.005674 
L 229.711921 230.607675 
L 229.954313 231.917755 
L 230.196704 231.353923 
L 230.439095 232.39867 
L 230.923878 230.508176 
L 231.166269 231.934338 
L 231.408661 229.828261 
L 231.651052 231.950921 
L 231.893443 231.403673 
L 232.135835 231.353923 
L 232.378226 233.261001 
L 232.620617 231.370506 
L 233.1054 233.642416 
L 233.347791 230.790092 
L 233.590183 233.012251 
L 234.074965 232.000671 
L 234.317357 232.050421 
L 234.802139 233.592666 
L 235.044531 232.067004 
L 235.286922 232.780085 
L 235.771705 234.852996 
L 236.014096 232.664002 
L 236.256487 232.846419 
L 236.498879 231.602672 
L 236.74127 232.166504 
L 236.983661 231.735339 
L 237.226053 233.161501 
L 237.468444 232.896168 
L 237.710835 231.221257 
L 237.953227 231.569506 
L 238.438009 233.493167 
L 238.680401 232.100171 
L 238.922792 232.630836 
L 239.165183 234.040415 
L 239.407575 234.537913 
L 239.649966 234.239414 
L 239.892357 233.443417 
L 240.134749 233.062001 
L 240.37714 234.653996 
L 240.619531 232.945918 
L 240.861923 233.012251 
L 241.104314 231.785088 
L 241.346705 232.929335 
L 241.589097 233.393667 
L 241.831488 233.443417 
L 242.073879 232.780085 
L 242.316271 232.630836 
L 242.801053 231.984088 
L 243.043445 231.851422 
L 243.285836 233.990665 
L 243.528227 231.403673 
L 244.01301 232.813252 
L 244.255401 232.929335 
L 244.740184 232.531336 
L 244.982575 231.735339 
L 245.224967 231.884588 
L 245.467358 233.028835 
L 245.709749 231.602672 
L 245.952141 231.005674 
L 246.194532 231.652422 
L 246.436923 231.18809 
L 246.679315 232.547919 
L 246.921706 232.44842 
L 247.164097 231.23784 
L 247.406489 231.13834 
L 247.64888 229.26443 
L 247.891271 231.751922 
L 248.133663 231.751922 
L 248.376054 231.635839 
L 248.618445 231.868005 
L 248.860837 232.995668 
L 249.345619 232.050421 
L 249.588011 233.725333 
L 249.830402 234.305747 
L 250.072793 234.189664 
L 250.315185 232.315754 
L 250.557576 234.388664 
L 250.799967 235.035412 
L 251.28475 232.813252 
L 251.527141 233.476583 
L 251.769533 230.010677 
L 252.011924 233.824832 
L 252.254315 230.375509 
L 252.739098 234.139915 
L 253.223881 231.751922 
L 253.466272 233.41025 
L 253.708663 232.597669 
L 253.951055 233.227834 
L 254.193446 231.569506 
L 254.678229 233.46 
L 254.92062 233.41025 
L 255.163011 233.542916 
L 255.405403 233.211251 
L 255.647794 234.239414 
L 255.890185 232.664002 
L 256.132577 232.597669 
L 256.374968 232.796669 
L 256.617359 231.785088 
L 256.859751 231.470006 
L 257.102142 234.090165 
L 257.344533 231.735339 
L 257.586925 234.305747 
L 258.071707 232.680586 
L 258.314099 231.088591 
L 258.798881 234.454997 
L 259.041273 232.266004 
L 259.283664 233.443417 
L 259.526055 233.41025 
L 259.768447 233.194667 
L 260.010838 232.547919 
L 260.253229 231.23784 
L 260.495621 233.50975 
L 260.738012 233.708749 
L 260.980403 233.526333 
L 261.707577 235.499744 
L 261.949969 234.388664 
L 262.434751 235.383661 
L 262.677143 236.826406 
L 262.919534 235.63241 
L 263.161925 236.013826 
L 263.646708 235.035412 
L 263.889099 237.357071 
L 264.131491 233.891165 
L 264.373882 234.869579 
L 264.616273 237.80482 
L 264.858665 236.710323 
L 265.101056 236.295741 
L 265.343447 233.907749 
L 265.585839 234.454997 
L 265.82823 238.418401 
L 266.070621 236.577657 
L 266.313013 237.058572 
L 266.555404 236.328908 
L 266.797795 237.672154 
L 267.040187 234.969079 
L 267.767361 239.347065 
L 268.009752 236.826406 
L 268.252143 237.041989 
L 268.494535 235.964076 
L 268.736926 236.64399 
L 268.979317 236.826406 
L 269.221709 235.201245 
L 269.4641 235.53291 
L 269.706491 236.362074 
L 269.948883 235.748493 
L 270.191274 235.765076 
L 270.676057 235.051995 
L 270.918448 238.302318 
L 271.160839 235.599243 
L 271.403231 235.416827 
L 271.645622 234.305747 
L 271.888013 234.62083 
L 272.130405 236.063575 
L 272.372796 236.212825 
L 272.615187 235.73191 
L 272.857579 234.604246 
L 273.09997 236.279158 
L 273.342361 236.411824 
L 273.584753 236.69374 
L 273.827144 234.604246 
L 274.069535 236.295741 
L 274.311927 235.964076 
L 274.554318 235.234411 
L 274.796709 235.63241 
L 275.281492 235.814826 
L 275.523883 234.869579 
L 275.766275 235.035412 
L 276.008666 236.295741 
L 276.251057 235.73191 
L 276.493449 235.615827 
L 276.73584 234.073581 
L 276.978231 235.715326 
L 277.463014 234.438414 
L 277.705405 235.58266 
L 277.947797 234.919329 
L 278.190188 235.48316 
L 278.432579 234.604246 
L 278.674971 235.648993 
L 278.917362 233.261001 
L 279.159753 232.664002 
L 279.644536 234.123331 
L 279.886927 235.184661 
L 280.129319 234.156498 
L 280.37171 235.118328 
L 280.614101 234.819829 
L 280.856493 232.547919 
L 281.098884 232.780085 
L 281.583667 234.454997 
L 281.826058 234.189664 
L 282.068449 235.184661 
L 282.310841 233.576083 
L 282.553232 233.592666 
L 283.038015 232.945918 
L 283.280406 231.851422 
L 283.522797 233.493167 
L 283.765189 231.967505 
L 284.00758 232.713752 
L 284.00758 232.713752 
" style="fill:none;stroke:#1f77b4;stroke-linecap:square;stroke-width:1.5;"/>
   </g>
   <g id="line2d_19">
    <path clip-path="url(#p54ce264f73)" d="M 82.095599 264.503905 
L 82.33799 302.645455 
L 82.580382 244.603966 
L 82.822773 254.553935 
L 83.065164 236.312325 
L 83.307556 259.52892 
L 83.549947 262.845577 
L 83.792338 241.287309 
L 84.03473 239.628981 
L 84.277121 241.287309 
L 84.519512 252.895607 
L 84.761904 279.428859 
L 85.004295 259.52892 
L 85.246686 249.578951 
L 85.489078 251.237279 
L 85.731469 256.212264 
L 85.97386 257.870592 
L 86.216252 244.603966 
L 86.458643 239.628981 
L 86.701034 242.945638 
L 86.943426 237.970653 
L 87.185817 242.945638 
L 87.428208 242.945638 
L 87.912991 249.578951 
L 88.155382 246.262294 
L 88.397774 239.628981 
L 88.640165 241.287309 
L 89.124948 252.895607 
L 89.367339 239.628981 
L 89.60973 252.895607 
L 89.852122 239.628981 
L 90.336904 271.137218 
L 90.579296 251.237279 
L 90.821687 251.237279 
L 91.064078 269.47889 
L 91.30647 249.578951 
L 91.548861 247.920622 
L 91.791252 261.187248 
L 92.033644 266.162233 
L 92.276035 249.578951 
L 92.518426 244.603966 
L 92.760818 249.578951 
L 93.003209 264.503905 
L 93.2456 242.945638 
L 93.487992 256.212264 
L 93.730383 246.262294 
L 93.972774 251.237279 
L 94.215166 262.845577 
L 94.457557 241.287309 
L 94.699948 262.845577 
L 94.94234 246.262294 
L 95.184731 237.970653 
L 95.427122 244.603966 
L 95.669514 271.137218 
L 95.911905 237.970653 
L 96.396688 261.187248 
L 96.639079 244.603966 
L 97.123862 244.603966 
L 97.366253 239.628981 
L 97.851036 247.920622 
L 98.093427 242.945638 
L 98.335818 252.895607 
L 98.57821 247.920622 
L 99.062992 247.920622 
L 99.305384 252.895607 
L 99.547775 247.920622 
L 99.790166 246.262294 
L 100.032558 254.553935 
L 100.274949 254.553935 
L 100.51734 261.187248 
L 100.759732 262.845577 
L 101.002123 251.237279 
L 101.244514 247.920622 
L 101.486906 272.795546 
L 101.729297 269.47889 
L 101.971688 241.287309 
L 102.21408 244.603966 
L 102.456471 237.970653 
L 102.698862 251.237279 
L 103.183645 257.870592 
L 103.426036 251.237279 
L 103.668428 272.795546 
L 103.910819 246.262294 
L 104.15321 247.920622 
L 104.395602 247.920622 
L 104.637993 244.603966 
L 104.880384 244.603966 
L 105.122776 249.578951 
L 105.365167 251.237279 
L 105.607558 261.187248 
L 105.84995 247.920622 
L 106.092341 249.578951 
L 106.334732 246.262294 
L 106.577124 262.845577 
L 106.819515 266.162233 
L 107.061906 262.845577 
L 107.304298 246.262294 
L 107.546689 241.287309 
L 107.78908 239.628981 
L 108.031472 252.895607 
L 108.273863 256.212264 
L 108.516254 242.945638 
L 108.758646 256.212264 
L 109.001037 242.945638 
L 109.243428 247.920622 
L 109.48582 274.453874 
L 109.728211 251.237279 
L 109.970602 254.553935 
L 110.212994 244.603966 
L 110.455385 271.137218 
L 110.697776 247.920622 
L 110.940168 247.920622 
L 111.182559 264.503905 
L 111.42495 264.503905 
L 111.667342 259.52892 
L 111.909733 261.187248 
L 112.152124 254.553935 
L 112.394516 251.237279 
L 112.636907 244.603966 
L 112.879298 252.895607 
L 113.12169 252.895607 
L 113.364081 249.578951 
L 113.606472 247.920622 
L 113.848864 252.895607 
L 114.091255 252.895607 
L 114.333646 261.187248 
L 114.576038 251.237279 
L 114.818429 256.212264 
L 115.06082 249.578951 
L 115.303212 254.553935 
L 115.545603 267.820561 
L 115.787994 261.187248 
L 116.030386 271.137218 
L 116.272777 252.895607 
L 116.515168 269.47889 
L 116.75756 247.920622 
L 116.999951 241.287309 
L 117.242342 256.212264 
L 117.484734 244.603966 
L 117.727125 246.262294 
L 117.969516 251.237279 
L 118.211908 239.628981 
L 118.454299 247.920622 
L 118.69669 262.845577 
L 118.939082 249.578951 
L 119.181473 259.52892 
L 119.423864 277.770531 
L 119.666256 242.945638 
L 119.908647 281.087187 
L 120.151038 251.237279 
L 120.39343 246.262294 
L 120.635821 246.262294 
L 120.878212 254.553935 
L 121.120604 252.895607 
L 121.362995 274.453874 
L 121.847778 249.578951 
L 122.090169 247.920622 
L 122.33256 254.553935 
L 122.574952 267.820561 
L 122.817343 251.237279 
L 123.059734 252.895607 
L 123.302126 252.895607 
L 123.544517 264.503905 
L 123.786908 254.553935 
L 124.0293 256.212264 
L 124.271691 254.553935 
L 124.514082 251.237279 
L 124.756474 256.212264 
L 124.998865 251.237279 
L 125.241256 256.212264 
L 125.483648 247.920622 
L 125.726039 251.237279 
L 126.210822 261.187248 
L 126.453213 257.870592 
L 126.695604 261.187248 
L 127.180387 252.895607 
L 127.422778 256.212264 
L 127.66517 257.870592 
L 127.907561 254.553935 
L 128.149952 252.895607 
L 128.392344 249.578951 
L 128.634735 249.578951 
L 128.877126 254.553935 
L 129.119518 252.895607 
L 129.6043 252.895607 
L 129.846692 271.137218 
L 130.089083 244.603966 
L 130.331474 256.212264 
L 130.573866 256.212264 
L 130.816257 247.920622 
L 131.058648 247.920622 
L 131.30104 259.52892 
L 131.543431 244.603966 
L 131.785822 256.212264 
L 132.028214 249.578951 
L 132.270605 252.895607 
L 132.512996 251.237279 
L 132.755388 256.212264 
L 132.997779 251.237279 
L 133.24017 251.237279 
L 133.482562 262.845577 
L 133.724953 296.012142 
L 133.967345 251.237279 
L 134.209736 256.212264 
L 134.452127 256.212264 
L 134.694519 251.237279 
L 134.93691 264.503905 
L 135.179301 261.187248 
L 135.421693 251.237279 
L 135.664084 251.237279 
L 135.906475 254.553935 
L 136.148867 256.212264 
L 136.391258 266.162233 
L 136.633649 246.262294 
L 136.876041 242.945638 
L 137.118432 244.603966 
L 137.360823 241.287309 
L 137.603215 267.820561 
L 137.845606 249.578951 
L 138.330389 276.112203 
L 138.57278 272.795546 
L 138.815171 254.553935 
L 139.057563 266.162233 
L 139.542345 244.603966 
L 139.784737 249.578951 
L 140.027128 249.578951 
L 140.269519 251.237279 
L 140.511911 257.870592 
L 140.754302 274.453874 
L 140.996693 257.870592 
L 141.239085 249.578951 
L 141.481476 257.870592 
L 141.723867 249.578951 
L 141.966259 254.553935 
L 142.20865 256.212264 
L 142.451041 247.920622 
L 142.693433 256.212264 
L 142.935824 247.920622 
L 143.178215 247.920622 
L 143.420607 249.578951 
L 143.662998 261.187248 
L 143.905389 252.895607 
L 144.147781 249.578951 
L 144.390172 256.212264 
L 144.632563 257.870592 
L 144.874955 249.578951 
L 145.359737 262.845577 
L 145.602129 262.845577 
L 145.84452 252.895607 
L 146.086911 247.920622 
L 146.329303 249.578951 
L 146.571694 254.553935 
L 147.056477 254.553935 
L 147.298868 267.820561 
L 147.541259 262.845577 
L 147.783651 249.578951 
L 148.026042 249.578951 
L 148.268433 261.187248 
L 148.753216 252.895607 
L 148.995607 251.237279 
L 149.237999 256.212264 
L 149.48039 252.895607 
L 149.722781 262.845577 
L 149.965173 246.262294 
L 150.207564 247.920622 
L 150.449955 252.895607 
L 150.692347 254.553935 
L 150.934738 246.262294 
L 151.419521 249.578951 
L 151.661912 257.870592 
L 151.904303 272.795546 
L 152.146695 256.212264 
L 152.389086 251.237279 
L 152.631477 254.553935 
L 152.873869 264.503905 
L 153.11626 251.237279 
L 153.358651 247.920622 
L 153.601043 251.237279 
L 153.843434 247.920622 
L 154.085825 251.237279 
L 154.328217 267.820561 
L 154.570608 251.237279 
L 154.812999 256.212264 
L 155.055391 269.47889 
L 155.297782 247.920622 
L 155.540173 266.162233 
L 155.782565 254.553935 
L 156.267347 254.553935 
L 156.509739 257.870592 
L 156.75213 254.553935 
L 156.994521 259.52892 
L 157.479304 251.237279 
L 157.721695 259.52892 
L 157.964087 254.553935 
L 158.206478 264.503905 
L 158.448869 242.945638 
L 158.691261 247.920622 
L 158.933652 267.820561 
L 159.176043 249.578951 
L 159.418435 266.162233 
L 159.660826 252.895607 
L 159.903217 246.262294 
L 160.145609 249.578951 
L 160.388 261.187248 
L 160.630391 247.920622 
L 160.872783 249.578951 
L 161.115174 252.895607 
L 161.357565 254.553935 
L 161.599957 249.578951 
L 161.842348 252.895607 
L 162.084739 251.237279 
L 162.327131 257.870592 
L 162.811913 246.262294 
L 163.054305 264.503905 
L 163.296696 251.237279 
L 163.539087 254.553935 
L 163.781479 246.262294 
L 164.02387 277.770531 
L 164.266261 249.578951 
L 164.508653 261.187248 
L 164.751044 257.870592 
L 164.993435 247.920622 
L 165.235827 256.212264 
L 165.478218 252.895607 
L 165.720609 247.920622 
L 165.963001 256.212264 
L 166.205392 254.553935 
L 166.447783 251.237279 
L 166.690175 242.945638 
L 166.932566 247.920622 
L 167.174957 247.920622 
L 167.417349 272.795546 
L 167.65974 267.820561 
L 167.902131 242.945638 
L 168.144523 251.237279 
L 168.386914 246.262294 
L 168.629305 252.895607 
L 168.871697 244.603966 
L 169.356479 256.212264 
L 169.598871 251.237279 
L 169.841262 256.212264 
L 170.083653 254.553935 
L 170.568436 264.503905 
L 170.810827 257.870592 
L 171.053219 256.212264 
L 171.29561 257.870592 
L 171.538001 261.187248 
L 171.780393 251.237279 
L 172.022784 247.920622 
L 172.265175 247.920622 
L 172.507567 257.870592 
L 172.749958 257.870592 
L 172.992349 259.52892 
L 173.234741 259.52892 
L 173.719523 256.212264 
L 173.961915 247.920622 
L 174.204306 247.920622 
L 174.446697 257.870592 
L 174.689089 259.52892 
L 174.93148 257.870592 
L 175.173871 254.553935 
L 175.416263 261.187248 
L 175.901045 249.578951 
L 176.143437 249.578951 
L 176.385828 252.895607 
L 176.628219 294.353813 
L 176.870611 259.52892 
L 177.113002 251.237279 
L 177.355393 256.212264 
L 177.597785 257.870592 
L 177.840176 247.920622 
L 178.082567 257.870592 
L 178.324959 254.553935 
L 178.56735 261.187248 
L 178.809741 259.52892 
L 179.052133 252.895607 
L 179.294524 252.895607 
L 179.536915 249.578951 
L 179.779307 249.578951 
L 180.021698 266.162233 
L 180.264089 262.845577 
L 180.506481 257.870592 
L 180.748872 244.603966 
L 180.991263 269.47889 
L 181.233655 259.52892 
L 181.476046 264.503905 
L 181.718437 264.503905 
L 181.960829 256.212264 
L 182.20322 262.845577 
L 182.445611 254.553935 
L 182.688003 264.503905 
L 182.930394 251.237279 
L 183.172785 256.212264 
L 183.415177 257.870592 
L 183.657568 262.845577 
L 183.899959 256.212264 
L 184.142351 257.870592 
L 184.384742 254.553935 
L 184.627133 267.820561 
L 184.869525 252.895607 
L 185.111916 266.162233 
L 185.354307 249.578951 
L 185.596699 262.845577 
L 185.83909 254.553935 
L 186.323873 247.920622 
L 186.566264 254.553935 
L 186.808655 247.920622 
L 187.051047 252.895607 
L 187.293438 261.187248 
L 187.535829 259.52892 
L 187.778221 254.553935 
L 188.020612 259.52892 
L 188.263003 251.237279 
L 188.505395 249.578951 
L 188.747786 261.187248 
L 188.990177 256.212264 
L 189.232569 272.795546 
L 189.717351 257.870592 
L 189.959743 276.112203 
L 190.202134 251.237279 
L 190.444525 254.553935 
L 190.686917 254.553935 
L 190.929308 257.870592 
L 191.171699 262.845577 
L 191.414091 254.553935 
L 191.656482 252.895607 
L 191.898873 259.52892 
L 192.141265 249.578951 
L 192.383656 269.47889 
L 192.626047 252.895607 
L 192.868439 259.52892 
L 193.11083 261.187248 
L 193.353221 251.237279 
L 193.595613 254.553935 
L 193.838004 252.895607 
L 194.080395 256.212264 
L 194.322787 249.578951 
L 194.565178 261.187248 
L 194.807569 249.578951 
L 195.534743 259.52892 
L 195.777135 266.162233 
L 196.261917 249.578951 
L 196.7467 262.845577 
L 197.231483 254.553935 
L 197.473874 257.870592 
L 197.958657 257.870592 
L 198.201048 259.52892 
L 198.443439 266.162233 
L 198.685831 277.770531 
L 198.928222 264.503905 
L 199.413005 261.187248 
L 199.655396 251.237279 
L 199.897787 257.870592 
L 200.140179 259.52892 
L 200.38257 252.895607 
L 200.624961 269.47889 
L 200.867353 259.52892 
L 201.109744 276.112203 
L 201.594527 251.237279 
L 201.836918 266.162233 
L 202.079309 271.137218 
L 202.321701 252.895607 
L 202.564092 254.553935 
L 203.048875 262.845577 
L 203.291266 261.187248 
L 203.533657 269.47889 
L 203.776049 257.870592 
L 204.01844 256.212264 
L 204.260831 259.52892 
L 204.503223 267.820561 
L 204.745614 257.870592 
L 204.988005 252.895607 
L 205.230397 261.187248 
L 205.472788 256.212264 
L 205.715179 256.212264 
L 205.957571 271.137218 
L 206.199962 254.553935 
L 206.442353 256.212264 
L 206.684745 251.237279 
L 206.927136 262.845577 
L 207.169527 266.162233 
L 207.411919 262.845577 
L 207.65431 267.820561 
L 207.896701 256.212264 
L 208.139093 262.845577 
L 208.381484 257.870592 
L 208.623875 264.503905 
L 208.866267 256.212264 
L 209.108658 259.52892 
L 209.351049 261.187248 
L 209.593441 267.820561 
L 209.835832 252.895607 
L 210.078223 272.795546 
L 210.320615 264.503905 
L 210.563006 262.845577 
L 210.805397 269.47889 
L 211.047789 252.895607 
L 211.29018 261.187248 
L 211.532571 262.845577 
L 211.774963 256.212264 
L 212.017354 257.870592 
L 212.259745 261.187248 
L 212.502137 257.870592 
L 212.744528 257.870592 
L 212.986919 272.795546 
L 213.229311 266.162233 
L 213.471702 271.137218 
L 213.714093 259.52892 
L 213.956485 256.212264 
L 214.198876 264.503905 
L 214.441267 261.187248 
L 214.92605 261.187248 
L 215.168441 266.162233 
L 215.410833 254.553935 
L 215.653224 261.187248 
L 215.895615 257.870592 
L 216.138007 259.52892 
L 216.380398 262.845577 
L 216.622789 256.212264 
L 216.865181 264.503905 
L 217.107572 262.845577 
L 217.349963 289.378829 
L 217.592355 269.47889 
L 217.834746 267.820561 
L 218.077137 261.187248 
L 218.319529 267.820561 
L 218.56192 267.820561 
L 218.804311 269.47889 
L 219.046703 269.47889 
L 219.289094 267.820561 
L 219.531485 259.52892 
L 219.773877 261.187248 
L 220.016268 274.453874 
L 220.258659 269.47889 
L 220.501051 256.212264 
L 220.743442 259.52892 
L 220.985833 269.47889 
L 221.228225 259.52892 
L 221.470616 267.820561 
L 221.713007 271.137218 
L 221.955399 259.52892 
L 222.440181 271.137218 
L 222.682573 264.503905 
L 222.924964 271.137218 
L 223.167355 261.187248 
L 223.409747 261.187248 
L 223.652138 266.162233 
L 223.894529 261.187248 
L 224.136921 262.845577 
L 224.379312 259.52892 
L 224.621703 264.503905 
L 224.864095 262.845577 
L 225.106486 279.428859 
L 225.83366 259.52892 
L 226.076051 257.870592 
L 226.318443 261.187248 
L 226.560834 269.47889 
L 226.803225 259.52892 
L 227.045617 262.845577 
L 227.288008 262.845577 
L 227.530399 261.187248 
L 227.772791 264.503905 
L 228.015182 256.212264 
L 228.257573 257.870592 
L 228.499965 252.895607 
L 228.984747 272.795546 
L 229.227139 256.212264 
L 229.46953 276.112203 
L 229.711921 251.237279 
L 229.954313 257.870592 
L 230.196704 261.187248 
L 230.439095 256.212264 
L 230.681487 257.870592 
L 230.923878 257.870592 
L 231.166269 259.52892 
L 231.408661 264.503905 
L 231.651052 262.845577 
L 231.893443 254.553935 
L 232.135835 262.845577 
L 232.378226 261.187248 
L 232.863009 261.187248 
L 233.1054 252.895607 
L 233.347791 262.845577 
L 233.590183 262.845577 
L 234.074965 249.578951 
L 234.317357 261.187248 
L 234.559748 264.503905 
L 234.802139 269.47889 
L 235.044531 269.47889 
L 235.286922 262.845577 
L 235.529313 259.52892 
L 235.771705 266.162233 
L 236.014096 259.52892 
L 236.256487 269.47889 
L 236.498879 257.870592 
L 236.74127 261.187248 
L 237.226053 271.137218 
L 237.468444 259.52892 
L 237.710835 266.162233 
L 237.953227 261.187248 
L 238.195618 259.52892 
L 238.438009 261.187248 
L 238.680401 267.820561 
L 238.922792 261.187248 
L 239.165183 277.770531 
L 239.407575 257.870592 
L 239.892357 254.553935 
L 240.134749 266.162233 
L 240.37714 267.820561 
L 240.619531 266.162233 
L 240.861923 261.187248 
L 241.104314 267.820561 
L 241.346705 267.820561 
L 241.589097 259.52892 
L 241.831488 259.52892 
L 242.073879 254.553935 
L 242.316271 259.52892 
L 242.558662 269.47889 
L 242.801053 267.820561 
L 243.043445 254.553935 
L 243.285836 279.428859 
L 243.528227 254.553935 
L 243.770619 257.870592 
L 244.01301 264.503905 
L 244.255401 264.503905 
L 244.497793 262.845577 
L 244.740184 256.212264 
L 244.982575 262.845577 
L 245.224967 276.112203 
L 245.467358 262.845577 
L 245.709749 261.187248 
L 245.952141 254.553935 
L 246.194532 252.895607 
L 246.436923 252.895607 
L 246.679315 262.845577 
L 246.921706 261.187248 
L 247.164097 269.47889 
L 247.406489 261.187248 
L 247.64888 269.47889 
L 247.891271 266.162233 
L 248.133663 256.212264 
L 248.376054 272.795546 
L 248.618445 257.870592 
L 248.860837 261.187248 
L 249.103228 269.47889 
L 249.345619 261.187248 
L 249.588011 264.503905 
L 249.830402 276.112203 
L 250.072793 271.137218 
L 250.315185 272.795546 
L 250.557576 267.820561 
L 250.799967 259.52892 
L 251.042359 257.870592 
L 251.28475 261.187248 
L 251.527141 262.845577 
L 251.769533 252.895607 
L 252.011924 252.895607 
L 252.254315 266.162233 
L 252.496707 254.553935 
L 252.739098 254.553935 
L 252.981489 271.137218 
L 253.223881 257.870592 
L 253.466272 267.820561 
L 253.708663 251.237279 
L 253.951055 266.162233 
L 254.193446 264.503905 
L 254.435837 282.745516 
L 254.92062 256.212264 
L 255.163011 259.52892 
L 255.405403 266.162233 
L 255.647794 291.037157 
L 255.890185 254.553935 
L 256.132577 261.187248 
L 256.374968 257.870592 
L 256.617359 256.212264 
L 256.859751 281.087187 
L 257.102142 276.112203 
L 257.344533 257.870592 
L 257.586925 264.503905 
L 257.829316 257.870592 
L 258.071707 264.503905 
L 258.314099 262.845577 
L 258.55649 262.845577 
L 258.798881 276.112203 
L 259.041273 256.212264 
L 259.283664 269.47889 
L 259.526055 269.47889 
L 259.768447 266.162233 
L 260.010838 256.212264 
L 260.253229 254.553935 
L 260.495621 257.870592 
L 260.738012 264.503905 
L 260.980403 274.453874 
L 261.222795 257.870592 
L 261.465186 257.870592 
L 261.707577 279.428859 
L 261.949969 269.47889 
L 262.19236 269.47889 
L 262.434751 266.162233 
L 262.677143 286.062172 
L 262.919534 262.845577 
L 263.161925 261.187248 
L 263.404317 261.187248 
L 263.646708 264.503905 
L 263.889099 269.47889 
L 264.131491 257.870592 
L 264.373882 266.162233 
L 264.616273 281.087187 
L 264.858665 266.162233 
L 265.101056 282.745516 
L 265.343447 252.895607 
L 265.585839 269.47889 
L 265.82823 276.112203 
L 266.070621 269.47889 
L 266.313013 284.403844 
L 266.797795 269.47889 
L 267.040187 271.137218 
L 267.282578 264.503905 
L 267.524969 284.403844 
L 267.767361 271.137218 
L 268.009752 264.503905 
L 268.252143 279.428859 
L 268.494535 262.845577 
L 268.736926 271.137218 
L 268.979317 272.795546 
L 269.221709 266.162233 
L 269.706491 262.845577 
L 269.948883 269.47889 
L 270.191274 272.795546 
L 270.433665 271.137218 
L 270.676057 267.820561 
L 270.918448 262.845577 
L 271.403231 276.112203 
L 271.645622 266.162233 
L 271.888013 261.187248 
L 272.130405 262.845577 
L 272.372796 262.845577 
L 272.615187 266.162233 
L 272.857579 264.503905 
L 273.09997 276.112203 
L 273.342361 264.503905 
L 273.584753 277.770531 
L 273.827144 259.52892 
L 274.069535 262.845577 
L 274.311927 281.087187 
L 274.554318 267.820561 
L 274.796709 269.47889 
L 275.039101 264.503905 
L 275.281492 269.47889 
L 275.523883 264.503905 
L 275.766275 267.820561 
L 276.008666 262.845577 
L 276.251057 272.795546 
L 276.493449 262.845577 
L 276.73584 262.845577 
L 276.978231 264.503905 
L 277.220623 257.870592 
L 277.463014 259.52892 
L 277.705405 256.212264 
L 278.190188 272.795546 
L 278.432579 261.187248 
L 278.917362 281.087187 
L 279.159753 256.212264 
L 279.402145 269.47889 
L 279.644536 272.795546 
L 279.886927 262.845577 
L 280.129319 262.845577 
L 280.37171 269.47889 
L 280.856493 252.895607 
L 281.341275 264.503905 
L 281.583667 261.187248 
L 281.826058 272.795546 
L 282.068449 267.820561 
L 282.310841 256.212264 
L 282.553232 262.845577 
L 282.795623 256.212264 
L 283.038015 257.870592 
L 283.280406 257.870592 
L 283.522797 261.187248 
L 283.765189 256.212264 
L 284.00758 264.503905 
L 284.00758 264.503905 
" style="fill:none;stroke:#ff7f0e;stroke-linecap:square;stroke-width:1.5;"/>
   </g>
   <g id="line2d_20">
    <path clip-path="url(#p54ce264f73)" d="M 82.095599 199.829103 
L 82.33799 203.14576 
L 82.580382 198.170775 
L 82.822773 198.170775 
L 83.065164 208.120744 
L 83.307556 209.779073 
L 83.549947 199.829103 
L 83.792338 201.487431 
L 84.03473 201.487431 
L 84.277121 203.14576 
L 84.519512 203.14576 
L 84.761904 206.462416 
L 85.004295 206.462416 
L 85.246686 203.14576 
L 85.489078 196.512447 
L 85.731469 198.170775 
L 85.97386 196.512447 
L 86.216252 193.19579 
L 86.458643 198.170775 
L 86.701034 194.854118 
L 86.943426 201.487431 
L 87.185817 203.14576 
L 87.428208 194.854118 
L 87.6706 203.14576 
L 87.912991 191.537462 
L 88.155382 203.14576 
L 88.397774 203.14576 
L 88.640165 198.170775 
L 88.882556 204.804088 
L 89.124948 179.929164 
L 89.367339 201.487431 
L 89.60973 203.14576 
L 89.852122 196.512447 
L 90.094513 204.804088 
L 90.821687 204.804088 
L 91.064078 209.779073 
L 91.30647 208.120744 
L 91.548861 198.170775 
L 91.791252 199.829103 
L 92.033644 198.170775 
L 92.276035 203.14576 
L 92.518426 203.14576 
L 92.760818 198.170775 
L 93.003209 201.487431 
L 93.2456 208.120744 
L 93.487992 203.14576 
L 93.730383 204.804088 
L 93.972774 209.779073 
L 94.215166 208.120744 
L 94.457557 203.14576 
L 94.699948 206.462416 
L 95.184731 203.14576 
L 95.427122 204.804088 
L 95.669514 204.804088 
L 95.911905 199.829103 
L 96.154296 211.437401 
L 96.396688 196.512447 
L 96.88147 208.120744 
L 97.123862 201.487431 
L 97.366253 204.804088 
L 97.608644 201.487431 
L 97.851036 204.804088 
L 98.093427 209.779073 
L 98.820601 209.779073 
L 99.062992 201.487431 
L 99.305384 209.779073 
L 99.547775 198.170775 
L 99.790166 209.779073 
L 100.032558 208.120744 
L 100.274949 201.487431 
L 100.51734 201.487431 
L 100.759732 208.120744 
L 101.002123 209.779073 
L 101.244514 204.804088 
L 101.486906 209.779073 
L 101.729297 211.437401 
L 101.971688 204.804088 
L 102.21408 204.804088 
L 102.456471 203.14576 
L 102.698862 213.095729 
L 102.941254 209.779073 
L 103.183645 211.437401 
L 103.426036 196.512447 
L 103.668428 199.829103 
L 103.910819 204.804088 
L 104.15321 204.804088 
L 104.395602 203.14576 
L 104.637993 199.829103 
L 104.880384 209.779073 
L 105.122776 199.829103 
L 105.607558 208.120744 
L 105.84995 206.462416 
L 106.092341 206.462416 
L 106.334732 208.120744 
L 106.577124 201.487431 
L 106.819515 211.437401 
L 107.061906 199.829103 
L 107.304298 203.14576 
L 107.546689 208.120744 
L 107.78908 203.14576 
L 108.031472 204.804088 
L 108.273863 203.14576 
L 108.516254 209.779073 
L 108.758646 206.462416 
L 109.001037 209.779073 
L 109.243428 211.437401 
L 109.48582 206.462416 
L 109.728211 208.120744 
L 109.970602 213.095729 
L 110.455385 206.462416 
L 110.697776 209.779073 
L 110.940168 204.804088 
L 111.182559 203.14576 
L 111.42495 203.14576 
L 111.667342 206.462416 
L 111.909733 204.804088 
L 112.152124 209.779073 
L 112.636907 206.462416 
L 112.879298 214.754057 
L 113.364081 208.120744 
L 113.606472 211.437401 
L 113.848864 206.462416 
L 114.576038 211.437401 
L 114.818429 211.437401 
L 115.06082 208.120744 
L 115.303212 208.120744 
L 115.545603 209.779073 
L 115.787994 209.779073 
L 116.030386 214.754057 
L 116.515168 203.14576 
L 116.75756 213.095729 
L 116.999951 206.462416 
L 117.242342 203.14576 
L 117.484734 213.095729 
L 117.727125 206.462416 
L 117.969516 218.070714 
L 118.211908 209.779073 
L 118.454299 209.779073 
L 118.69669 208.120744 
L 118.939082 208.120744 
L 119.423864 204.804088 
L 119.666256 209.779073 
L 119.908647 209.779073 
L 120.151038 211.437401 
L 120.39343 208.120744 
L 120.635821 213.095729 
L 120.878212 204.804088 
L 121.120604 208.120744 
L 121.362995 213.095729 
L 121.605386 209.779073 
L 121.847778 208.120744 
L 122.090169 209.779073 
L 122.574952 209.779073 
L 122.817343 214.754057 
L 123.059734 203.14576 
L 123.302126 209.779073 
L 123.544517 203.14576 
L 123.786908 214.754057 
L 124.0293 209.779073 
L 124.271691 214.754057 
L 124.514082 211.437401 
L 124.756474 213.095729 
L 124.998865 211.437401 
L 125.241256 214.754057 
L 125.483648 209.779073 
L 125.726039 213.095729 
L 125.96843 206.462416 
L 126.210822 208.120744 
L 126.453213 213.095729 
L 126.695604 209.779073 
L 126.937996 214.754057 
L 127.180387 211.437401 
L 127.422778 211.437401 
L 127.66517 201.487431 
L 127.907561 209.779073 
L 128.149952 213.095729 
L 128.392344 213.095729 
L 128.634735 206.462416 
L 129.119518 216.412386 
L 129.361909 213.095729 
L 129.6043 213.095729 
L 129.846692 209.779073 
L 130.331474 199.829103 
L 130.573866 211.437401 
L 131.058648 208.120744 
L 131.30104 211.437401 
L 131.543431 211.437401 
L 131.785822 206.462416 
L 132.270605 214.754057 
L 132.512996 206.462416 
L 132.755388 211.437401 
L 132.997779 204.804088 
L 133.482562 214.754057 
L 133.724953 216.412386 
L 133.967345 204.804088 
L 134.209736 203.14576 
L 134.452127 206.462416 
L 134.694519 216.412386 
L 134.93691 204.804088 
L 135.179301 211.437401 
L 135.421693 211.437401 
L 135.664084 208.120744 
L 135.906475 203.14576 
L 136.391258 213.095729 
L 136.633649 213.095729 
L 136.876041 211.437401 
L 137.118432 211.437401 
L 137.360823 208.120744 
L 137.603215 214.754057 
L 137.845606 211.437401 
L 138.087997 206.462416 
L 138.330389 211.437401 
L 138.57278 206.462416 
L 138.815171 209.779073 
L 139.057563 209.779073 
L 139.299954 211.437401 
L 139.542345 209.779073 
L 139.784737 206.462416 
L 140.027128 214.754057 
L 140.511911 211.437401 
L 140.754302 211.437401 
L 140.996693 204.804088 
L 141.239085 209.779073 
L 141.481476 211.437401 
L 141.723867 211.437401 
L 141.966259 209.779073 
L 142.20865 211.437401 
L 142.451041 206.462416 
L 142.693433 213.095729 
L 142.935824 213.095729 
L 143.178215 206.462416 
L 143.420607 206.462416 
L 143.662998 208.120744 
L 143.905389 208.120744 
L 144.147781 211.437401 
L 144.390172 209.779073 
L 144.874955 213.095729 
L 145.117346 208.120744 
L 145.359737 206.462416 
L 145.602129 209.779073 
L 145.84452 206.462416 
L 146.086911 211.437401 
L 146.814085 206.462416 
L 147.056477 213.095729 
L 147.298868 209.779073 
L 147.541259 213.095729 
L 147.783651 214.754057 
L 148.268433 211.437401 
L 148.510825 208.120744 
L 148.753216 209.779073 
L 148.995607 214.754057 
L 149.237999 203.14576 
L 149.48039 211.437401 
L 149.722781 213.095729 
L 149.965173 206.462416 
L 150.207564 208.120744 
L 150.449955 213.095729 
L 150.692347 211.437401 
L 150.934738 206.462416 
L 151.419521 209.779073 
L 151.661912 213.095729 
L 151.904303 209.779073 
L 152.146695 204.804088 
L 152.631477 213.095729 
L 152.873869 211.437401 
L 153.11626 204.804088 
L 153.358651 208.120744 
L 153.601043 213.095729 
L 153.843434 209.779073 
L 154.085825 209.779073 
L 154.328217 206.462416 
L 154.570608 209.779073 
L 154.812999 206.462416 
L 155.055391 211.437401 
L 155.297782 208.120744 
L 155.540173 213.095729 
L 155.782565 206.462416 
L 156.267347 216.412386 
L 156.509739 211.437401 
L 156.75213 209.779073 
L 156.994521 211.437401 
L 157.236913 209.779073 
L 157.721695 209.779073 
L 158.206478 216.412386 
L 158.448869 203.14576 
L 158.691261 209.779073 
L 158.933652 206.462416 
L 159.176043 213.095729 
L 159.418435 214.754057 
L 159.660826 208.120744 
L 159.903217 213.095729 
L 160.145609 209.779073 
L 160.388 213.095729 
L 160.630391 206.462416 
L 160.872783 206.462416 
L 161.115174 208.120744 
L 161.357565 214.754057 
L 161.599957 208.120744 
L 161.842348 211.437401 
L 162.084739 213.095729 
L 162.327131 208.120744 
L 162.569522 209.779073 
L 162.811913 214.754057 
L 163.054305 213.095729 
L 163.296696 208.120744 
L 163.539087 209.779073 
L 163.781479 208.120744 
L 164.02387 208.120744 
L 164.266261 209.779073 
L 164.508653 216.412386 
L 164.751044 209.779073 
L 164.993435 213.095729 
L 165.235827 218.070714 
L 165.478218 211.437401 
L 165.963001 218.070714 
L 166.205392 211.437401 
L 166.447783 216.412386 
L 166.690175 214.754057 
L 166.932566 209.779073 
L 167.174957 213.095729 
L 167.65974 216.412386 
L 167.902131 214.754057 
L 168.144523 211.437401 
L 168.386914 213.095729 
L 168.629305 218.070714 
L 169.114088 214.754057 
L 169.356479 216.412386 
L 170.083653 216.412386 
L 170.326045 211.437401 
L 170.568436 211.437401 
L 170.810827 203.14576 
L 171.053219 216.412386 
L 171.29561 209.779073 
L 171.538001 213.095729 
L 171.780393 214.754057 
L 172.022784 211.437401 
L 172.265175 214.754057 
L 172.507567 213.095729 
L 172.749958 208.120744 
L 172.992349 214.754057 
L 173.234741 214.754057 
L 173.477132 211.437401 
L 173.719523 213.095729 
L 173.961915 211.437401 
L 174.446697 214.754057 
L 174.689089 213.095729 
L 174.93148 216.412386 
L 175.173871 206.462416 
L 175.416263 216.412386 
L 175.658654 211.437401 
L 175.901045 214.754057 
L 176.143437 216.412386 
L 176.385828 214.754057 
L 176.628219 211.437401 
L 176.870611 216.412386 
L 177.113002 214.754057 
L 177.355393 216.412386 
L 177.840176 213.095729 
L 178.082567 213.095729 
L 178.324959 208.120744 
L 178.56735 214.754057 
L 178.809741 208.120744 
L 179.294524 216.412386 
L 179.536915 213.095729 
L 179.779307 214.754057 
L 180.021698 214.754057 
L 180.264089 213.095729 
L 180.506481 209.779073 
L 180.748872 218.070714 
L 180.991263 211.437401 
L 181.233655 218.070714 
L 181.476046 209.779073 
L 181.960829 218.070714 
L 182.20322 218.070714 
L 182.445611 204.804088 
L 182.930394 216.412386 
L 183.172785 216.412386 
L 183.657568 213.095729 
L 183.899959 216.412386 
L 184.142351 209.779073 
L 184.384742 211.437401 
L 184.627133 216.412386 
L 185.111916 213.095729 
L 185.354307 218.070714 
L 185.596699 218.070714 
L 185.83909 216.412386 
L 186.081481 206.462416 
L 186.323873 216.412386 
L 186.566264 213.095729 
L 187.051047 216.412386 
L 187.293438 213.095729 
L 187.535829 211.437401 
L 188.020612 211.437401 
L 188.263003 218.070714 
L 188.505395 216.412386 
L 188.747786 213.095729 
L 188.990177 216.412386 
L 189.232569 213.095729 
L 189.47496 214.754057 
L 189.717351 214.754057 
L 189.959743 211.437401 
L 190.202134 209.779073 
L 190.444525 214.754057 
L 190.686917 206.462416 
L 190.929308 216.412386 
L 191.171699 211.437401 
L 191.414091 214.754057 
L 191.656482 211.437401 
L 191.898873 211.437401 
L 192.141265 214.754057 
L 192.383656 211.437401 
L 192.626047 216.412386 
L 192.868439 216.412386 
L 193.353221 209.779073 
L 193.595613 218.070714 
L 193.838004 213.095729 
L 194.322787 213.095729 
L 194.565178 218.070714 
L 194.807569 209.779073 
L 195.049961 214.754057 
L 195.292352 213.095729 
L 195.534743 213.095729 
L 195.777135 211.437401 
L 196.019526 214.754057 
L 196.261917 204.804088 
L 196.504309 213.095729 
L 196.7467 213.095729 
L 196.989091 214.754057 
L 197.231483 214.754057 
L 197.473874 213.095729 
L 197.716265 216.412386 
L 197.958657 211.437401 
L 198.201048 218.070714 
L 198.685831 218.070714 
L 198.928222 214.754057 
L 199.170613 216.412386 
L 199.413005 216.412386 
L 199.655396 213.095729 
L 199.897787 214.754057 
L 200.140179 218.070714 
L 200.38257 218.070714 
L 200.867353 214.754057 
L 201.109744 211.437401 
L 201.352135 216.412386 
L 201.594527 214.754057 
L 201.836918 218.070714 
L 202.079309 209.779073 
L 202.321701 216.412386 
L 202.806483 213.095729 
L 203.048875 216.412386 
L 203.291266 218.070714 
L 203.776049 211.437401 
L 204.01844 213.095729 
L 204.260831 213.095729 
L 204.503223 208.120744 
L 204.745614 219.729042 
L 205.230397 208.120744 
L 205.472788 218.070714 
L 205.715179 216.412386 
L 205.957571 216.412386 
L 206.199962 218.070714 
L 206.442353 214.754057 
L 206.684745 214.754057 
L 206.927136 213.095729 
L 207.169527 213.095729 
L 207.411919 208.120744 
L 207.65431 214.754057 
L 208.139093 218.070714 
L 208.381484 214.754057 
L 208.623875 216.412386 
L 208.866267 213.095729 
L 209.108658 216.412386 
L 209.351049 214.754057 
L 209.593441 216.412386 
L 209.835832 216.412386 
L 210.078223 213.095729 
L 210.320615 213.095729 
L 210.563006 218.070714 
L 210.805397 219.729042 
L 211.047789 213.095729 
L 211.29018 218.070714 
L 211.774963 214.754057 
L 212.017354 218.070714 
L 212.259745 219.729042 
L 212.502137 211.437401 
L 212.744528 216.412386 
L 212.986919 216.412386 
L 213.229311 218.070714 
L 213.471702 218.070714 
L 213.714093 216.412386 
L 213.956485 213.095729 
L 214.198876 208.120744 
L 214.441267 209.779073 
L 214.683659 218.070714 
L 214.92605 209.779073 
L 215.168441 218.070714 
L 215.410833 211.437401 
L 215.653224 216.412386 
L 215.895615 211.437401 
L 216.138007 214.754057 
L 216.380398 213.095729 
L 216.622789 213.095729 
L 216.865181 216.412386 
L 217.349963 208.120744 
L 217.834746 218.070714 
L 218.077137 211.437401 
L 218.319529 216.412386 
L 218.56192 218.070714 
L 218.804311 206.462416 
L 219.046703 216.412386 
L 219.289094 213.095729 
L 219.531485 213.095729 
L 219.773877 216.412386 
L 220.016268 218.070714 
L 220.258659 213.095729 
L 220.501051 218.070714 
L 220.743442 206.462416 
L 220.985833 219.729042 
L 221.228225 218.070714 
L 221.713007 218.070714 
L 221.955399 216.412386 
L 222.19779 213.095729 
L 222.440181 218.070714 
L 222.682573 216.412386 
L 222.924964 218.070714 
L 223.167355 208.120744 
L 223.409747 208.120744 
L 223.652138 218.070714 
L 223.894529 218.070714 
L 224.136921 213.095729 
L 224.379312 216.412386 
L 224.621703 216.412386 
L 224.864095 213.095729 
L 225.106486 218.070714 
L 225.348877 216.412386 
L 225.591269 211.437401 
L 225.83366 209.779073 
L 226.076051 218.070714 
L 226.318443 218.070714 
L 226.560834 213.095729 
L 226.803225 219.729042 
L 227.045617 211.437401 
L 227.288008 214.754057 
L 227.530399 211.437401 
L 227.772791 213.095729 
L 228.015182 209.779073 
L 228.257573 218.070714 
L 228.499965 213.095729 
L 228.742356 218.070714 
L 229.227139 218.070714 
L 229.46953 216.412386 
L 229.711921 216.412386 
L 229.954313 218.070714 
L 230.196704 211.437401 
L 230.439095 216.412386 
L 230.923878 213.095729 
L 231.166269 208.120744 
L 231.408661 211.437401 
L 231.651052 216.412386 
L 231.893443 209.779073 
L 232.135835 213.095729 
L 232.378226 218.070714 
L 232.620617 218.070714 
L 232.863009 214.754057 
L 233.1054 214.754057 
L 233.347791 216.412386 
L 233.590183 219.729042 
L 233.832574 216.412386 
L 234.074965 216.412386 
L 234.317357 218.070714 
L 234.559748 218.070714 
L 234.802139 214.754057 
L 235.044531 214.754057 
L 235.286922 211.437401 
L 235.529313 218.070714 
L 235.771705 216.412386 
L 236.014096 216.412386 
L 236.256487 211.437401 
L 236.498879 214.754057 
L 236.74127 216.412386 
L 237.226053 216.412386 
L 237.468444 219.729042 
L 237.710835 219.729042 
L 237.953227 213.095729 
L 238.195618 213.095729 
L 238.438009 214.754057 
L 238.680401 218.070714 
L 238.922792 216.412386 
L 239.165183 218.070714 
L 239.649966 218.070714 
L 239.892357 219.729042 
L 240.134749 213.095729 
L 240.619531 219.729042 
L 240.861923 206.462416 
L 241.104314 213.095729 
L 241.346705 216.412386 
L 241.589097 218.070714 
L 241.831488 216.412386 
L 242.073879 218.070714 
L 242.316271 218.070714 
L 242.558662 211.437401 
L 243.043445 218.070714 
L 243.528227 218.070714 
L 243.770619 213.095729 
L 244.01301 216.412386 
L 244.255401 218.070714 
L 244.497793 216.412386 
L 244.740184 216.412386 
L 244.982575 213.095729 
L 245.224967 216.412386 
L 245.709749 216.412386 
L 245.952141 211.437401 
L 246.194532 219.729042 
L 246.679315 216.412386 
L 246.921706 213.095729 
L 247.164097 216.412386 
L 247.406489 214.754057 
L 247.64888 214.754057 
L 248.133663 218.070714 
L 248.376054 203.14576 
L 248.618445 216.412386 
L 248.860837 218.070714 
L 249.103228 216.412386 
L 249.588011 219.729042 
L 249.830402 216.412386 
L 250.072793 218.070714 
L 250.315185 218.070714 
L 250.557576 216.412386 
L 250.799967 219.729042 
L 251.28475 219.729042 
L 251.527141 209.779073 
L 252.011924 218.070714 
L 252.254315 213.095729 
L 252.739098 219.729042 
L 252.981489 216.412386 
L 253.223881 209.779073 
L 253.466272 218.070714 
L 253.708663 218.070714 
L 253.951055 219.729042 
L 254.193446 218.070714 
L 254.435837 214.754057 
L 254.678229 219.729042 
L 254.92062 213.095729 
L 255.163011 218.070714 
L 255.647794 218.070714 
L 255.890185 214.754057 
L 256.132577 219.729042 
L 256.374968 221.38737 
L 256.617359 216.412386 
L 256.859751 218.070714 
L 257.102142 214.754057 
L 257.344533 219.729042 
L 257.829316 213.095729 
L 258.071707 214.754057 
L 258.314099 218.070714 
L 258.55649 219.729042 
L 258.798881 214.754057 
L 259.041273 216.412386 
L 259.283664 214.754057 
L 259.526055 218.070714 
L 259.768447 216.412386 
L 260.010838 216.412386 
L 260.253229 213.095729 
L 260.495621 208.120744 
L 260.738012 218.070714 
L 260.980403 213.095729 
L 261.222795 216.412386 
L 261.465186 216.412386 
L 261.707577 214.754057 
L 261.949969 214.754057 
L 262.19236 219.729042 
L 262.434751 218.070714 
L 262.677143 219.729042 
L 262.919534 219.729042 
L 263.161925 218.070714 
L 263.404317 208.120744 
L 263.646708 219.729042 
L 263.889099 216.412386 
L 264.131491 214.754057 
L 264.373882 211.437401 
L 264.616273 218.070714 
L 264.858665 213.095729 
L 265.101056 219.729042 
L 265.343447 216.412386 
L 265.585839 209.779073 
L 265.82823 209.779073 
L 266.070621 214.754057 
L 266.313013 216.412386 
L 266.555404 211.437401 
L 266.797795 214.754057 
L 267.040187 221.38737 
L 267.282578 216.412386 
L 267.524969 219.729042 
L 267.767361 219.729042 
L 268.009752 218.070714 
L 268.252143 218.070714 
L 268.494535 206.462416 
L 268.736926 218.070714 
L 268.979317 211.437401 
L 269.221709 213.095729 
L 269.4641 218.070714 
L 269.706491 214.754057 
L 269.948883 218.070714 
L 270.191274 213.095729 
L 270.433665 219.729042 
L 270.676057 218.070714 
L 270.918448 219.729042 
L 271.160839 214.754057 
L 271.403231 218.070714 
L 271.645622 219.729042 
L 272.130405 216.412386 
L 272.615187 219.729042 
L 272.857579 218.070714 
L 273.09997 219.729042 
L 273.342361 216.412386 
L 273.584753 211.437401 
L 273.827144 214.754057 
L 274.069535 219.729042 
L 274.311927 216.412386 
L 274.554318 219.729042 
L 274.796709 219.729042 
L 275.281492 216.412386 
L 275.523883 219.729042 
L 275.766275 218.070714 
L 276.008666 218.070714 
L 276.251057 214.754057 
L 276.493449 218.070714 
L 276.73584 218.070714 
L 276.978231 221.38737 
L 277.220623 216.412386 
L 277.463014 219.729042 
L 277.705405 218.070714 
L 277.947797 218.070714 
L 278.190188 216.412386 
L 278.432579 219.729042 
L 278.674971 209.779073 
L 278.917362 216.412386 
L 279.159753 218.070714 
L 279.402145 214.754057 
L 279.644536 214.754057 
L 279.886927 218.070714 
L 280.129319 218.070714 
L 280.37171 213.095729 
L 280.614101 216.412386 
L 281.098884 219.729042 
L 281.341275 214.754057 
L 281.583667 218.070714 
L 281.826058 214.754057 
L 282.068449 216.412386 
L 282.310841 216.412386 
L 282.553232 218.070714 
L 282.795623 213.095729 
L 283.038015 214.754057 
L 283.280406 214.754057 
L 283.522797 216.412386 
L 283.765189 213.095729 
L 284.00758 213.095729 
L 284.00758 213.095729 
" style="fill:none;stroke:#2ca02c;stroke-linecap:square;stroke-width:1.5;"/>
   </g>
   <g id="line2d_21">
    <path clip-path="url(#p54ce264f73)" d="M 82.095599 223.401055 
L 84.519512 221.032014 
L 86.943426 219.847494 
L 89.367339 222.690343 
L 91.791252 223.756411 
L 94.215166 222.690343 
L 96.639079 222.334986 
L 99.062992 221.742726 
L 101.486906 221.742726 
L 103.910819 220.439754 
L 106.334732 223.401055 
L 108.758646 221.505822 
L 111.182559 225.059383 
L 113.606472 225.533191 
L 116.030386 223.637959 
L 118.454299 226.954615 
L 120.878212 226.243903 
L 123.302126 224.585575 
L 125.726039 223.874863 
L 128.149952 227.783779 
L 130.573866 225.533191 
L 132.997779 225.651643 
L 135.421693 224.940931 
L 137.845606 227.191519 
L 140.269519 223.401055 
L 142.693433 222.690343 
L 145.117346 226.243903 
L 147.541259 227.428423 
L 149.965173 225.770095 
L 152.389086 224.348671 
L 154.812999 227.073067 
L 157.236913 230.034368 
L 159.660826 226.125451 
L 162.084739 227.665327 
L 164.508653 227.546875 
L 166.932566 228.731395 
L 169.356479 226.243903 
L 171.780393 229.797464 
L 174.204306 228.139135 
L 176.628219 225.059383 
L 179.052133 228.139135 
L 181.476046 233.824832 
L 183.899959 226.480807 
L 186.323873 228.376039 
L 188.747786 228.968299 
L 191.171699 230.15282 
L 193.595613 233.824832 
L 196.019526 228.968299 
L 198.443439 233.943284 
L 200.867353 225.296287 
L 203.291266 231.692696 
L 205.715179 232.52186 
L 208.139093 228.494491 
L 210.563006 233.70638 
L 212.986919 232.877216 
L 215.410833 228.376039 
L 217.834746 232.758764 
L 220.258659 228.612943 
L 222.682573 232.403408 
L 225.106486 227.902231 
L 227.530399 230.626628 
L 229.954313 232.284956 
L 232.378226 235.48316 
L 234.802139 231.574244 
L 237.226053 234.8909 
L 239.649966 233.824832 
L 242.073879 236.786133 
L 244.497793 233.943284 
L 246.921706 230.271272 
L 249.345619 233.824832 
L 251.769533 233.70638 
L 254.193446 235.48316 
L 256.617359 228.376039 
L 259.041273 225.651643 
L 261.465186 229.679012 
L 263.889099 237.141489 
L 266.313013 237.378393 
L 268.736926 237.615297 
L 271.160839 232.640312 
L 273.584753 241.168857 
L 276.008666 235.601612 
L 278.432579 236.430777 
L 280.856493 233.943284 
L 283.280406 228.257587 
" style="fill:none;stroke:#d62728;stroke-linecap:square;stroke-width:1.5;"/>
   </g>
   <g id="line2d_22">
    <path clip-path="url(#p54ce264f73)" d="M 82.095599 55.554545 
L 84.519512 55.554545 
L 86.943426 55.554545 
L 89.367339 55.554545 
L 91.791252 55.554545 
L 94.215166 55.554545 
L 96.639079 55.554545 
L 99.062992 55.554545 
L 101.486906 55.554545 
L 103.910819 55.554545 
L 106.334732 55.554545 
L 108.758646 55.554545 
L 111.182559 55.554545 
L 113.606472 55.554545 
L 116.030386 55.554545 
L 118.454299 55.554545 
L 120.878212 55.554545 
L 123.302126 55.554545 
L 125.726039 55.554545 
L 128.149952 55.554545 
L 130.573866 55.554545 
L 132.997779 55.554545 
L 135.421693 55.554545 
L 137.845606 55.554545 
L 140.269519 55.554545 
L 142.693433 55.554545 
L 145.117346 55.554545 
L 147.541259 55.554545 
L 149.965173 55.554545 
L 152.389086 55.554545 
L 154.812999 55.554545 
L 157.236913 55.554545 
L 159.660826 55.554545 
L 162.084739 55.554545 
L 164.508653 55.554545 
L 166.932566 55.554545 
L 169.356479 55.554545 
L 171.780393 55.554545 
L 174.204306 55.554545 
L 176.628219 55.554545 
L 179.052133 55.554545 
L 181.476046 55.554545 
L 183.899959 55.554545 
L 186.323873 55.554545 
L 188.747786 55.554545 
L 191.171699 55.554545 
L 193.595613 55.554545 
L 196.019526 55.554545 
L 198.443439 55.554545 
L 200.867353 55.554545 
L 203.291266 55.554545 
L 205.715179 55.554545 
L 208.139093 55.554545 
L 210.563006 55.554545 
L 212.986919 55.554545 
L 215.410833 55.554545 
L 217.834746 55.554545 
L 220.258659 55.554545 
L 222.682573 55.554545 
L 225.106486 55.554545 
L 227.530399 55.554545 
L 229.954313 55.554545 
L 232.378226 55.554545 
L 234.802139 55.554545 
L 237.226053 55.554545 
L 239.649966 55.554545 
L 242.073879 55.554545 
L 244.497793 55.554545 
L 246.921706 55.554545 
L 249.345619 55.554545 
L 251.769533 55.554545 
L 254.193446 55.554545 
L 256.617359 55.554545 
L 259.041273 55.554545 
L 261.465186 55.554545 
L 263.889099 55.554545 
L 266.313013 55.554545 
L 268.736926 55.554545 
L 271.160839 55.554545 
L 273.584753 55.554545 
L 276.008666 55.554545 
L 278.432579 55.554545 
L 280.856493 55.554545 
L 283.280406 55.554545 
" style="fill:none;stroke:#9467bd;stroke-linecap:square;stroke-width:1.5;"/>
   </g>
   <g id="patch_3">
    <path d="M 72 315 
L 72 43.2 
" style="fill:none;stroke:#000000;stroke-linecap:square;stroke-linejoin:miter;stroke-width:0.8;"/>
   </g>
   <g id="patch_4">
    <path d="M 518.4 315 
L 518.4 43.2 
" style="fill:none;stroke:#000000;stroke-linecap:square;stroke-linejoin:miter;stroke-width:0.8;"/>
   </g>
   <g id="patch_5">
    <path d="M 72 315 
L 518.4 315 
" style="fill:none;stroke:#000000;stroke-linecap:square;stroke-linejoin:miter;stroke-width:0.8;"/>
   </g>
   <g id="patch_6">
    <path d="M 72 43.2 
L 518.4 43.2 
" style="fill:none;stroke:#000000;stroke-linecap:square;stroke-linejoin:miter;stroke-width:0.8;"/>
   </g>
   <g id="text_20">
    <!-- Boxing-v0.cma.16.7 -->
    <g transform="translate(235.400625 37.2)scale(0.12 -0.12)">
     <defs>
      <path d="M 19.671875 34.8125 
L 19.671875 8.109375 
L 35.5 8.109375 
Q 43.453125 8.109375 47.28125 11.40625 
Q 51.125 14.703125 51.125 21.484375 
Q 51.125 28.328125 47.28125 31.5625 
Q 43.453125 34.8125 35.5 34.8125 
z
M 19.671875 64.796875 
L 19.671875 42.828125 
L 34.28125 42.828125 
Q 41.5 42.828125 45.03125 45.53125 
Q 48.578125 48.25 48.578125 53.8125 
Q 48.578125 59.328125 45.03125 62.0625 
Q 41.5 64.796875 34.28125 64.796875 
z
M 9.8125 72.90625 
L 35.015625 72.90625 
Q 46.296875 72.90625 52.390625 68.21875 
Q 58.5 63.53125 58.5 54.890625 
Q 58.5 48.1875 55.375 44.234375 
Q 52.25 40.28125 46.1875 39.3125 
Q 53.46875 37.75 57.5 32.78125 
Q 61.53125 27.828125 61.53125 20.40625 
Q 61.53125 10.640625 54.890625 5.3125 
Q 48.25 0 35.984375 0 
L 9.8125 0 
z
" id="DejaVuSans-66"/>
      <path d="M 54.890625 54.6875 
L 35.109375 28.078125 
L 55.90625 0 
L 45.3125 0 
L 29.390625 21.484375 
L 13.484375 0 
L 2.875 0 
L 24.125 28.609375 
L 4.6875 54.6875 
L 15.28125 54.6875 
L 29.78125 35.203125 
L 44.28125 54.6875 
z
" id="DejaVuSans-120"/>
      <path d="M 4.890625 31.390625 
L 31.203125 31.390625 
L 31.203125 23.390625 
L 4.890625 23.390625 
z
" id="DejaVuSans-45"/>
      <path d="M 10.6875 12.40625 
L 21 12.40625 
L 21 0 
L 10.6875 0 
z
" id="DejaVuSans-46"/>
     </defs>
     <use xlink:href="#DejaVuSans-66"/>
     <use x="68.603516" xlink:href="#DejaVuSans-111"/>
     <use x="126.660156" xlink:href="#DejaVuSans-120"/>
     <use x="185.839844" xlink:href="#DejaVuSans-105"/>
     <use x="213.623047" xlink:href="#DejaVuSans-110"/>
     <use x="277.001953" xlink:href="#DejaVuSans-103"/>
     <use x="340.478516" xlink:href="#DejaVuSans-45"/>
     <use x="373.9375" xlink:href="#DejaVuSans-118"/>
     <use x="433.117188" xlink:href="#DejaVuSans-48"/>
     <use x="496.740234" xlink:href="#DejaVuSans-46"/>
     <use x="528.527344" xlink:href="#DejaVuSans-99"/>
     <use x="583.507812" xlink:href="#DejaVuSans-109"/>
     <use x="680.919922" xlink:href="#DejaVuSans-97"/>
     <use x="742.199219" xlink:href="#DejaVuSans-46"/>
     <use x="773.986328" xlink:href="#DejaVuSans-49"/>
     <use x="837.609375" xlink:href="#DejaVuSans-54"/>
     <use x="901.232422" xlink:href="#DejaVuSans-46"/>
     <use x="933.019531" xlink:href="#DejaVuSans-55"/>
    </g>
   </g>
   <g id="legend_1">
    <g id="patch_7">
     <path d="M 406.151562 124.590625 
L 511.4 124.590625 
Q 513.4 124.590625 513.4 122.590625 
L 513.4 50.2 
Q 513.4 48.2 511.4 48.2 
L 406.151562 48.2 
Q 404.151562 48.2 404.151562 50.2 
L 404.151562 122.590625 
Q 404.151562 124.590625 406.151562 124.590625 
z
" style="fill:#ffffff;opacity:0.8;stroke:#cccccc;stroke-linejoin:miter;"/>
    </g>
    <g id="line2d_23">
     <path d="M 408.151562 56.298437 
L 428.151562 56.298437 
" style="fill:none;stroke:#1f77b4;stroke-linecap:square;stroke-width:1.5;"/>
    </g>
    <g id="line2d_24"/>
    <g id="text_21">
     <!-- mean -->
     <g transform="translate(436.151562 59.798437)scale(0.1 -0.1)">
      <use xlink:href="#DejaVuSans-109"/>
      <use x="97.412109" xlink:href="#DejaVuSans-101"/>
      <use x="158.935547" xlink:href="#DejaVuSans-97"/>
      <use x="220.214844" xlink:href="#DejaVuSans-110"/>
     </g>
    </g>
    <g id="line2d_25">
     <path d="M 408.151562 70.976562 
L 428.151562 70.976562 
" style="fill:none;stroke:#ff7f0e;stroke-linecap:square;stroke-width:1.5;"/>
    </g>
    <g id="line2d_26"/>
    <g id="text_22">
     <!-- min -->
     <g transform="translate(436.151562 74.476562)scale(0.1 -0.1)">
      <use xlink:href="#DejaVuSans-109"/>
      <use x="97.412109" xlink:href="#DejaVuSans-105"/>
      <use x="125.195312" xlink:href="#DejaVuSans-110"/>
     </g>
    </g>
    <g id="line2d_27">
     <path d="M 408.151562 85.654687 
L 428.151562 85.654687 
" style="fill:none;stroke:#2ca02c;stroke-linecap:square;stroke-width:1.5;"/>
    </g>
    <g id="line2d_28"/>
    <g id="text_23">
     <!-- max -->
     <g transform="translate(436.151562 89.154687)scale(0.1 -0.1)">
      <use xlink:href="#DejaVuSans-109"/>
      <use x="97.412109" xlink:href="#DejaVuSans-97"/>
      <use x="158.691406" xlink:href="#DejaVuSans-120"/>
     </g>
    </g>
    <g id="line2d_29">
     <path d="M 408.151562 100.332812 
L 428.151562 100.332812 
" style="fill:none;stroke:#9467bd;stroke-linecap:square;stroke-width:1.5;"/>
    </g>
    <g id="line2d_30"/>
    <g id="text_24">
     <!-- requirement -->
     <g transform="translate(436.151562 103.832812)scale(0.1 -0.1)">
      <defs>
       <path d="M 14.796875 27.296875 
Q 14.796875 17.390625 18.875 11.75 
Q 22.953125 6.109375 30.078125 6.109375 
Q 37.203125 6.109375 41.296875 11.75 
Q 45.40625 17.390625 45.40625 27.296875 
Q 45.40625 37.203125 41.296875 42.84375 
Q 37.203125 48.484375 30.078125 48.484375 
Q 22.953125 48.484375 18.875 42.84375 
Q 14.796875 37.203125 14.796875 27.296875 
z
M 45.40625 8.203125 
Q 42.578125 3.328125 38.25 0.953125 
Q 33.9375 -1.421875 27.875 -1.421875 
Q 17.96875 -1.421875 11.734375 6.484375 
Q 5.515625 14.40625 5.515625 27.296875 
Q 5.515625 40.1875 11.734375 48.09375 
Q 17.96875 56 27.875 56 
Q 33.9375 56 38.25 53.625 
Q 42.578125 51.265625 45.40625 46.390625 
L 45.40625 54.6875 
L 54.390625 54.6875 
L 54.390625 -20.796875 
L 45.40625 -20.796875 
z
" id="DejaVuSans-113"/>
      </defs>
      <use xlink:href="#DejaVuSans-114"/>
      <use x="38.863281" xlink:href="#DejaVuSans-101"/>
      <use x="100.386719" xlink:href="#DejaVuSans-113"/>
      <use x="163.863281" xlink:href="#DejaVuSans-117"/>
      <use x="227.242188" xlink:href="#DejaVuSans-105"/>
      <use x="255.025391" xlink:href="#DejaVuSans-114"/>
      <use x="293.888672" xlink:href="#DejaVuSans-101"/>
      <use x="355.412109" xlink:href="#DejaVuSans-109"/>
      <use x="452.824219" xlink:href="#DejaVuSans-101"/>
      <use x="514.347656" xlink:href="#DejaVuSans-110"/>
      <use x="577.726562" xlink:href="#DejaVuSans-116"/>
     </g>
    </g>
    <g id="line2d_31">
     <path d="M 408.151562 115.010937 
L 428.151562 115.010937 
" style="fill:none;stroke:#d62728;stroke-linecap:square;stroke-width:1.5;"/>
    </g>
    <g id="line2d_32"/>
    <g id="text_25">
     <!-- best avg score -->
     <g transform="translate(436.151562 118.510937)scale(0.1 -0.1)">
      <defs>
       <path d="M 48.6875 27.296875 
Q 48.6875 37.203125 44.609375 42.84375 
Q 40.53125 48.484375 33.40625 48.484375 
Q 26.265625 48.484375 22.1875 42.84375 
Q 18.109375 37.203125 18.109375 27.296875 
Q 18.109375 17.390625 22.1875 11.75 
Q 26.265625 6.109375 33.40625 6.109375 
Q 40.53125 6.109375 44.609375 11.75 
Q 48.6875 17.390625 48.6875 27.296875 
z
M 18.109375 46.390625 
Q 20.953125 51.265625 25.265625 53.625 
Q 29.59375 56 35.59375 56 
Q 45.5625 56 51.78125 48.09375 
Q 58.015625 40.1875 58.015625 27.296875 
Q 58.015625 14.40625 51.78125 6.484375 
Q 45.5625 -1.421875 35.59375 -1.421875 
Q 29.59375 -1.421875 25.265625 0.953125 
Q 20.953125 3.328125 18.109375 8.203125 
L 18.109375 0 
L 9.078125 0 
L 9.078125 75.984375 
L 18.109375 75.984375 
z
" id="DejaVuSans-98"/>
       <path d="M 44.28125 53.078125 
L 44.28125 44.578125 
Q 40.484375 46.53125 36.375 47.5 
Q 32.28125 48.484375 27.875 48.484375 
Q 21.1875 48.484375 17.84375 46.4375 
Q 14.5 44.390625 14.5 40.28125 
Q 14.5 37.15625 16.890625 35.375 
Q 19.28125 33.59375 26.515625 31.984375 
L 29.59375 31.296875 
Q 39.15625 29.25 43.1875 25.515625 
Q 47.21875 21.78125 47.21875 15.09375 
Q 47.21875 7.46875 41.1875 3.015625 
Q 35.15625 -1.421875 24.609375 -1.421875 
Q 20.21875 -1.421875 15.453125 -0.5625 
Q 10.6875 0.296875 5.421875 2 
L 5.421875 11.28125 
Q 10.40625 8.6875 15.234375 7.390625 
Q 20.0625 6.109375 24.8125 6.109375 
Q 31.15625 6.109375 34.5625 8.28125 
Q 37.984375 10.453125 37.984375 14.40625 
Q 37.984375 18.0625 35.515625 20.015625 
Q 33.0625 21.96875 24.703125 23.78125 
L 21.578125 24.515625 
Q 13.234375 26.265625 9.515625 29.90625 
Q 5.8125 33.546875 5.8125 39.890625 
Q 5.8125 47.609375 11.28125 51.796875 
Q 16.75 56 26.8125 56 
Q 31.78125 56 36.171875 55.265625 
Q 40.578125 54.546875 44.28125 53.078125 
z
" id="DejaVuSans-115"/>
      </defs>
      <use xlink:href="#DejaVuSans-98"/>
      <use x="63.476562" xlink:href="#DejaVuSans-101"/>
      <use x="125" xlink:href="#DejaVuSans-115"/>
      <use x="177.099609" xlink:href="#DejaVuSans-116"/>
      <use x="216.308594" xlink:href="#DejaVuSans-32"/>
      <use x="248.095703" xlink:href="#DejaVuSans-97"/>
      <use x="309.375" xlink:href="#DejaVuSans-118"/>
      <use x="368.554688" xlink:href="#DejaVuSans-103"/>
      <use x="432.03125" xlink:href="#DejaVuSans-32"/>
      <use x="463.818359" xlink:href="#DejaVuSans-115"/>
      <use x="515.917969" xlink:href="#DejaVuSans-99"/>
      <use x="570.898438" xlink:href="#DejaVuSans-111"/>
      <use x="632.080078" xlink:href="#DejaVuSans-114"/>
      <use x="670.943359" xlink:href="#DejaVuSans-101"/>
     </g>
    </g>
   </g>
  </g>
 </g>
 <defs>
  <clipPath id="p54ce264f73">
   <rect height="271.8" width="446.4" x="72" y="43.2"/>
  </clipPath>
 </defs>
</svg>
