<?xml version="1.0" encoding="utf-8" standalone="no"?>
<!DOCTYPE svg PUBLIC "-//W3C//DTD SVG 1.1//EN"
  "http://www.w3.org/Graphics/SVG/1.1/DTD/svg11.dtd">
<!-- Created with matplotlib (https://matplotlib.org/) -->
<svg height="720pt" version="1.1" viewBox="0 0 1152 720" width="1152pt" xmlns="http://www.w3.org/2000/svg" xmlns:xlink="http://www.w3.org/1999/xlink">
 <metadata>
  <rdf:RDF xmlns:cc="http://creativecommons.org/ns#" xmlns:dc="http://purl.org/dc/elements/1.1/" xmlns:rdf="http://www.w3.org/1999/02/22-rdf-syntax-ns#">
   <cc:Work>
    <dc:type rdf:resource="http://purl.org/dc/dcmitype/StillImage"/>
    <dc:date>2021-03-02T22:11:22.179233</dc:date>
    <dc:format>image/svg+xml</dc:format>
    <dc:creator>
     <cc:Agent>
      <dc:title>Matplotlib v3.3.3, https://matplotlib.org/</dc:title>
     </cc:Agent>
    </dc:creator>
   </cc:Work>
  </rdf:RDF>
 </metadata>
 <defs>
  <style type="text/css">*{stroke-linecap:butt;stroke-linejoin:round;}</style>
 </defs>
 <g id="figure_1">
  <g id="patch_1">
   <path d="M 0 720 
L 1152 720 
L 1152 0 
L 0 0 
z
" style="fill:#ffffff;"/>
  </g>
  <g id="axes_1">
   <g id="patch_2">
    <path d="M 144 630 
L 1036.8 630 
L 1036.8 86.4 
L 144 86.4 
z
" style="fill:#ffffff;"/>
   </g>
   <g id="matplotlib.axis_1">
    <g id="xtick_1">
     <g id="line2d_1">
      <defs>
       <path d="M 0 0 
L 0 3.5 
" id="maa83551c7e" style="stroke:#000000;stroke-width:0.8;"/>
      </defs>
      <g>
       <use style="stroke:#000000;stroke-width:0.8;" x="145.503856" xlink:href="#maa83551c7e" y="630"/>
      </g>
     </g>
     <g id="text_1">
      <!-- 0 -->
      <g transform="translate(142.322606 644.598438)scale(0.1 -0.1)">
       <defs>
        <path d="M 31.78125 66.40625 
Q 24.171875 66.40625 20.328125 58.90625 
Q 16.5 51.421875 16.5 36.375 
Q 16.5 21.390625 20.328125 13.890625 
Q 24.171875 6.390625 31.78125 6.390625 
Q 39.453125 6.390625 43.28125 13.890625 
Q 47.125 21.390625 47.125 36.375 
Q 47.125 51.421875 43.28125 58.90625 
Q 39.453125 66.40625 31.78125 66.40625 
z
M 31.78125 74.21875 
Q 44.046875 74.21875 50.515625 64.515625 
Q 56.984375 54.828125 56.984375 36.375 
Q 56.984375 17.96875 50.515625 8.265625 
Q 44.046875 -1.421875 31.78125 -1.421875 
Q 19.53125 -1.421875 13.0625 8.265625 
Q 6.59375 17.96875 6.59375 36.375 
Q 6.59375 54.828125 13.0625 64.515625 
Q 19.53125 74.21875 31.78125 74.21875 
z
" id="DejaVuSans-48"/>
       </defs>
       <use xlink:href="#DejaVuSans-48"/>
      </g>
     </g>
    </g>
    <g id="xtick_2">
     <g id="line2d_2">
      <g>
       <use style="stroke:#000000;stroke-width:0.8;" x="244.536761" xlink:href="#maa83551c7e" y="630"/>
      </g>
     </g>
     <g id="text_2">
      <!-- 5 -->
      <g transform="translate(241.355511 644.598438)scale(0.1 -0.1)">
       <defs>
        <path d="M 10.796875 72.90625 
L 49.515625 72.90625 
L 49.515625 64.59375 
L 19.828125 64.59375 
L 19.828125 46.734375 
Q 21.96875 47.46875 24.109375 47.828125 
Q 26.265625 48.1875 28.421875 48.1875 
Q 40.625 48.1875 47.75 41.5 
Q 54.890625 34.8125 54.890625 23.390625 
Q 54.890625 11.625 47.5625 5.09375 
Q 40.234375 -1.421875 26.90625 -1.421875 
Q 22.3125 -1.421875 17.546875 -0.640625 
Q 12.796875 0.140625 7.71875 1.703125 
L 7.71875 11.625 
Q 12.109375 9.234375 16.796875 8.0625 
Q 21.484375 6.890625 26.703125 6.890625 
Q 35.15625 6.890625 40.078125 11.328125 
Q 45.015625 15.765625 45.015625 23.390625 
Q 45.015625 31 40.078125 35.4375 
Q 35.15625 39.890625 26.703125 39.890625 
Q 22.75 39.890625 18.8125 39.015625 
Q 14.890625 38.140625 10.796875 36.28125 
z
" id="DejaVuSans-53"/>
       </defs>
       <use xlink:href="#DejaVuSans-53"/>
      </g>
     </g>
    </g>
    <g id="xtick_3">
     <g id="line2d_3">
      <g>
       <use style="stroke:#000000;stroke-width:0.8;" x="343.569666" xlink:href="#maa83551c7e" y="630"/>
      </g>
     </g>
     <g id="text_3">
      <!-- 10 -->
      <g transform="translate(337.207166 644.598438)scale(0.1 -0.1)">
       <defs>
        <path d="M 12.40625 8.296875 
L 28.515625 8.296875 
L 28.515625 63.921875 
L 10.984375 60.40625 
L 10.984375 69.390625 
L 28.421875 72.90625 
L 38.28125 72.90625 
L 38.28125 8.296875 
L 54.390625 8.296875 
L 54.390625 0 
L 12.40625 0 
z
" id="DejaVuSans-49"/>
       </defs>
       <use xlink:href="#DejaVuSans-49"/>
       <use x="63.623047" xlink:href="#DejaVuSans-48"/>
      </g>
     </g>
    </g>
    <g id="xtick_4">
     <g id="line2d_4">
      <g>
       <use style="stroke:#000000;stroke-width:0.8;" x="442.602571" xlink:href="#maa83551c7e" y="630"/>
      </g>
     </g>
     <g id="text_4">
      <!-- 15 -->
      <g transform="translate(436.240071 644.598438)scale(0.1 -0.1)">
       <use xlink:href="#DejaVuSans-49"/>
       <use x="63.623047" xlink:href="#DejaVuSans-53"/>
      </g>
     </g>
    </g>
    <g id="xtick_5">
     <g id="line2d_5">
      <g>
       <use style="stroke:#000000;stroke-width:0.8;" x="541.635476" xlink:href="#maa83551c7e" y="630"/>
      </g>
     </g>
     <g id="text_5">
      <!-- 20 -->
      <g transform="translate(535.272976 644.598438)scale(0.1 -0.1)">
       <defs>
        <path d="M 19.1875 8.296875 
L 53.609375 8.296875 
L 53.609375 0 
L 7.328125 0 
L 7.328125 8.296875 
Q 12.9375 14.109375 22.625 23.890625 
Q 32.328125 33.6875 34.8125 36.53125 
Q 39.546875 41.84375 41.421875 45.53125 
Q 43.3125 49.21875 43.3125 52.78125 
Q 43.3125 58.59375 39.234375 62.25 
Q 35.15625 65.921875 28.609375 65.921875 
Q 23.96875 65.921875 18.8125 64.3125 
Q 13.671875 62.703125 7.8125 59.421875 
L 7.8125 69.390625 
Q 13.765625 71.78125 18.9375 73 
Q 24.125 74.21875 28.421875 74.21875 
Q 39.75 74.21875 46.484375 68.546875 
Q 53.21875 62.890625 53.21875 53.421875 
Q 53.21875 48.921875 51.53125 44.890625 
Q 49.859375 40.875 45.40625 35.40625 
Q 44.1875 33.984375 37.640625 27.21875 
Q 31.109375 20.453125 19.1875 8.296875 
z
" id="DejaVuSans-50"/>
       </defs>
       <use xlink:href="#DejaVuSans-50"/>
       <use x="63.623047" xlink:href="#DejaVuSans-48"/>
      </g>
     </g>
    </g>
    <g id="xtick_6">
     <g id="line2d_6">
      <g>
       <use style="stroke:#000000;stroke-width:0.8;" x="640.66838" xlink:href="#maa83551c7e" y="630"/>
      </g>
     </g>
     <g id="text_6">
      <!-- 25 -->
      <g transform="translate(634.30588 644.598438)scale(0.1 -0.1)">
       <use xlink:href="#DejaVuSans-50"/>
       <use x="63.623047" xlink:href="#DejaVuSans-53"/>
      </g>
     </g>
    </g>
    <g id="xtick_7">
     <g id="line2d_7">
      <g>
       <use style="stroke:#000000;stroke-width:0.8;" x="739.701285" xlink:href="#maa83551c7e" y="630"/>
      </g>
     </g>
     <g id="text_7">
      <!-- 30 -->
      <g transform="translate(733.338785 644.598438)scale(0.1 -0.1)">
       <defs>
        <path d="M 40.578125 39.3125 
Q 47.65625 37.796875 51.625 33 
Q 55.609375 28.21875 55.609375 21.1875 
Q 55.609375 10.40625 48.1875 4.484375 
Q 40.765625 -1.421875 27.09375 -1.421875 
Q 22.515625 -1.421875 17.65625 -0.515625 
Q 12.796875 0.390625 7.625 2.203125 
L 7.625 11.71875 
Q 11.71875 9.328125 16.59375 8.109375 
Q 21.484375 6.890625 26.8125 6.890625 
Q 36.078125 6.890625 40.9375 10.546875 
Q 45.796875 14.203125 45.796875 21.1875 
Q 45.796875 27.640625 41.28125 31.265625 
Q 36.765625 34.90625 28.71875 34.90625 
L 20.21875 34.90625 
L 20.21875 43.015625 
L 29.109375 43.015625 
Q 36.375 43.015625 40.234375 45.921875 
Q 44.09375 48.828125 44.09375 54.296875 
Q 44.09375 59.90625 40.109375 62.90625 
Q 36.140625 65.921875 28.71875 65.921875 
Q 24.65625 65.921875 20.015625 65.03125 
Q 15.375 64.15625 9.8125 62.3125 
L 9.8125 71.09375 
Q 15.4375 72.65625 20.34375 73.4375 
Q 25.25 74.21875 29.59375 74.21875 
Q 40.828125 74.21875 47.359375 69.109375 
Q 53.90625 64.015625 53.90625 55.328125 
Q 53.90625 49.265625 50.4375 45.09375 
Q 46.96875 40.921875 40.578125 39.3125 
z
" id="DejaVuSans-51"/>
       </defs>
       <use xlink:href="#DejaVuSans-51"/>
       <use x="63.623047" xlink:href="#DejaVuSans-48"/>
      </g>
     </g>
    </g>
    <g id="xtick_8">
     <g id="line2d_8">
      <g>
       <use style="stroke:#000000;stroke-width:0.8;" x="838.73419" xlink:href="#maa83551c7e" y="630"/>
      </g>
     </g>
     <g id="text_8">
      <!-- 35 -->
      <g transform="translate(832.37169 644.598438)scale(0.1 -0.1)">
       <use xlink:href="#DejaVuSans-51"/>
       <use x="63.623047" xlink:href="#DejaVuSans-53"/>
      </g>
     </g>
    </g>
    <g id="xtick_9">
     <g id="line2d_9">
      <g>
       <use style="stroke:#000000;stroke-width:0.8;" x="937.767095" xlink:href="#maa83551c7e" y="630"/>
      </g>
     </g>
     <g id="text_9">
      <!-- 40 -->
      <g transform="translate(931.404595 644.598438)scale(0.1 -0.1)">
       <defs>
        <path d="M 37.796875 64.3125 
L 12.890625 25.390625 
L 37.796875 25.390625 
z
M 35.203125 72.90625 
L 47.609375 72.90625 
L 47.609375 25.390625 
L 58.015625 25.390625 
L 58.015625 17.1875 
L 47.609375 17.1875 
L 47.609375 0 
L 37.796875 0 
L 37.796875 17.1875 
L 4.890625 17.1875 
L 4.890625 26.703125 
z
" id="DejaVuSans-52"/>
       </defs>
       <use xlink:href="#DejaVuSans-52"/>
       <use x="63.623047" xlink:href="#DejaVuSans-48"/>
      </g>
     </g>
    </g>
    <g id="xtick_10">
     <g id="line2d_10">
      <g>
       <use style="stroke:#000000;stroke-width:0.8;" x="1036.8" xlink:href="#maa83551c7e" y="630"/>
      </g>
     </g>
     <g id="text_10">
      <!-- 45 -->
      <g transform="translate(1030.4375 644.598438)scale(0.1 -0.1)">
       <use xlink:href="#DejaVuSans-52"/>
       <use x="63.623047" xlink:href="#DejaVuSans-53"/>
      </g>
     </g>
    </g>
    <g id="text_11">
     <!-- wall-clock time (days) -->
     <g transform="translate(535.644531 658.276562)scale(0.1 -0.1)">
      <defs>
       <path d="M 4.203125 54.6875 
L 13.1875 54.6875 
L 24.421875 12.015625 
L 35.59375 54.6875 
L 46.1875 54.6875 
L 57.421875 12.015625 
L 68.609375 54.6875 
L 77.59375 54.6875 
L 63.28125 0 
L 52.6875 0 
L 40.921875 44.828125 
L 29.109375 0 
L 18.5 0 
z
" id="DejaVuSans-119"/>
       <path d="M 34.28125 27.484375 
Q 23.390625 27.484375 19.1875 25 
Q 14.984375 22.515625 14.984375 16.5 
Q 14.984375 11.71875 18.140625 8.90625 
Q 21.296875 6.109375 26.703125 6.109375 
Q 34.1875 6.109375 38.703125 11.40625 
Q 43.21875 16.703125 43.21875 25.484375 
L 43.21875 27.484375 
z
M 52.203125 31.203125 
L 52.203125 0 
L 43.21875 0 
L 43.21875 8.296875 
Q 40.140625 3.328125 35.546875 0.953125 
Q 30.953125 -1.421875 24.3125 -1.421875 
Q 15.921875 -1.421875 10.953125 3.296875 
Q 6 8.015625 6 15.921875 
Q 6 25.140625 12.171875 29.828125 
Q 18.359375 34.515625 30.609375 34.515625 
L 43.21875 34.515625 
L 43.21875 35.40625 
Q 43.21875 41.609375 39.140625 45 
Q 35.0625 48.390625 27.6875 48.390625 
Q 23 48.390625 18.546875 47.265625 
Q 14.109375 46.140625 10.015625 43.890625 
L 10.015625 52.203125 
Q 14.9375 54.109375 19.578125 55.046875 
Q 24.21875 56 28.609375 56 
Q 40.484375 56 46.34375 49.84375 
Q 52.203125 43.703125 52.203125 31.203125 
z
" id="DejaVuSans-97"/>
       <path d="M 9.421875 75.984375 
L 18.40625 75.984375 
L 18.40625 0 
L 9.421875 0 
z
" id="DejaVuSans-108"/>
       <path d="M 4.890625 31.390625 
L 31.203125 31.390625 
L 31.203125 23.390625 
L 4.890625 23.390625 
z
" id="DejaVuSans-45"/>
       <path d="M 48.78125 52.59375 
L 48.78125 44.1875 
Q 44.96875 46.296875 41.140625 47.34375 
Q 37.3125 48.390625 33.40625 48.390625 
Q 24.65625 48.390625 19.8125 42.84375 
Q 14.984375 37.3125 14.984375 27.296875 
Q 14.984375 17.28125 19.8125 11.734375 
Q 24.65625 6.203125 33.40625 6.203125 
Q 37.3125 6.203125 41.140625 7.25 
Q 44.96875 8.296875 48.78125 10.40625 
L 48.78125 2.09375 
Q 45.015625 0.34375 40.984375 -0.53125 
Q 36.96875 -1.421875 32.421875 -1.421875 
Q 20.0625 -1.421875 12.78125 6.34375 
Q 5.515625 14.109375 5.515625 27.296875 
Q 5.515625 40.671875 12.859375 48.328125 
Q 20.21875 56 33.015625 56 
Q 37.15625 56 41.109375 55.140625 
Q 45.0625 54.296875 48.78125 52.59375 
z
" id="DejaVuSans-99"/>
       <path d="M 30.609375 48.390625 
Q 23.390625 48.390625 19.1875 42.75 
Q 14.984375 37.109375 14.984375 27.296875 
Q 14.984375 17.484375 19.15625 11.84375 
Q 23.34375 6.203125 30.609375 6.203125 
Q 37.796875 6.203125 41.984375 11.859375 
Q 46.1875 17.53125 46.1875 27.296875 
Q 46.1875 37.015625 41.984375 42.703125 
Q 37.796875 48.390625 30.609375 48.390625 
z
M 30.609375 56 
Q 42.328125 56 49.015625 48.375 
Q 55.71875 40.765625 55.71875 27.296875 
Q 55.71875 13.875 49.015625 6.21875 
Q 42.328125 -1.421875 30.609375 -1.421875 
Q 18.84375 -1.421875 12.171875 6.21875 
Q 5.515625 13.875 5.515625 27.296875 
Q 5.515625 40.765625 12.171875 48.375 
Q 18.84375 56 30.609375 56 
z
" id="DejaVuSans-111"/>
       <path d="M 9.078125 75.984375 
L 18.109375 75.984375 
L 18.109375 31.109375 
L 44.921875 54.6875 
L 56.390625 54.6875 
L 27.390625 29.109375 
L 57.625 0 
L 45.90625 0 
L 18.109375 26.703125 
L 18.109375 0 
L 9.078125 0 
z
" id="DejaVuSans-107"/>
       <path id="DejaVuSans-32"/>
       <path d="M 18.3125 70.21875 
L 18.3125 54.6875 
L 36.8125 54.6875 
L 36.8125 47.703125 
L 18.3125 47.703125 
L 18.3125 18.015625 
Q 18.3125 11.328125 20.140625 9.421875 
Q 21.96875 7.515625 27.59375 7.515625 
L 36.8125 7.515625 
L 36.8125 0 
L 27.59375 0 
Q 17.1875 0 13.234375 3.875 
Q 9.28125 7.765625 9.28125 18.015625 
L 9.28125 47.703125 
L 2.6875 47.703125 
L 2.6875 54.6875 
L 9.28125 54.6875 
L 9.28125 70.21875 
z
" id="DejaVuSans-116"/>
       <path d="M 9.421875 54.6875 
L 18.40625 54.6875 
L 18.40625 0 
L 9.421875 0 
z
M 9.421875 75.984375 
L 18.40625 75.984375 
L 18.40625 64.59375 
L 9.421875 64.59375 
z
" id="DejaVuSans-105"/>
       <path d="M 52 44.1875 
Q 55.375 50.25 60.0625 53.125 
Q 64.75 56 71.09375 56 
Q 79.640625 56 84.28125 50.015625 
Q 88.921875 44.046875 88.921875 33.015625 
L 88.921875 0 
L 79.890625 0 
L 79.890625 32.71875 
Q 79.890625 40.578125 77.09375 44.375 
Q 74.3125 48.1875 68.609375 48.1875 
Q 61.625 48.1875 57.5625 43.546875 
Q 53.515625 38.921875 53.515625 30.90625 
L 53.515625 0 
L 44.484375 0 
L 44.484375 32.71875 
Q 44.484375 40.625 41.703125 44.40625 
Q 38.921875 48.1875 33.109375 48.1875 
Q 26.21875 48.1875 22.15625 43.53125 
Q 18.109375 38.875 18.109375 30.90625 
L 18.109375 0 
L 9.078125 0 
L 9.078125 54.6875 
L 18.109375 54.6875 
L 18.109375 46.1875 
Q 21.1875 51.21875 25.484375 53.609375 
Q 29.78125 56 35.6875 56 
Q 41.65625 56 45.828125 52.96875 
Q 50 49.953125 52 44.1875 
z
" id="DejaVuSans-109"/>
       <path d="M 56.203125 29.59375 
L 56.203125 25.203125 
L 14.890625 25.203125 
Q 15.484375 15.921875 20.484375 11.0625 
Q 25.484375 6.203125 34.421875 6.203125 
Q 39.59375 6.203125 44.453125 7.46875 
Q 49.3125 8.734375 54.109375 11.28125 
L 54.109375 2.78125 
Q 49.265625 0.734375 44.1875 -0.34375 
Q 39.109375 -1.421875 33.890625 -1.421875 
Q 20.796875 -1.421875 13.15625 6.1875 
Q 5.515625 13.8125 5.515625 26.8125 
Q 5.515625 40.234375 12.765625 48.109375 
Q 20.015625 56 32.328125 56 
Q 43.359375 56 49.78125 48.890625 
Q 56.203125 41.796875 56.203125 29.59375 
z
M 47.21875 32.234375 
Q 47.125 39.59375 43.09375 43.984375 
Q 39.0625 48.390625 32.421875 48.390625 
Q 24.90625 48.390625 20.390625 44.140625 
Q 15.875 39.890625 15.1875 32.171875 
z
" id="DejaVuSans-101"/>
       <path d="M 31 75.875 
Q 24.46875 64.65625 21.28125 53.65625 
Q 18.109375 42.671875 18.109375 31.390625 
Q 18.109375 20.125 21.3125 9.0625 
Q 24.515625 -2 31 -13.1875 
L 23.1875 -13.1875 
Q 15.875 -1.703125 12.234375 9.375 
Q 8.59375 20.453125 8.59375 31.390625 
Q 8.59375 42.28125 12.203125 53.3125 
Q 15.828125 64.359375 23.1875 75.875 
z
" id="DejaVuSans-40"/>
       <path d="M 45.40625 46.390625 
L 45.40625 75.984375 
L 54.390625 75.984375 
L 54.390625 0 
L 45.40625 0 
L 45.40625 8.203125 
Q 42.578125 3.328125 38.25 0.953125 
Q 33.9375 -1.421875 27.875 -1.421875 
Q 17.96875 -1.421875 11.734375 6.484375 
Q 5.515625 14.40625 5.515625 27.296875 
Q 5.515625 40.1875 11.734375 48.09375 
Q 17.96875 56 27.875 56 
Q 33.9375 56 38.25 53.625 
Q 42.578125 51.265625 45.40625 46.390625 
z
M 14.796875 27.296875 
Q 14.796875 17.390625 18.875 11.75 
Q 22.953125 6.109375 30.078125 6.109375 
Q 37.203125 6.109375 41.296875 11.75 
Q 45.40625 17.390625 45.40625 27.296875 
Q 45.40625 37.203125 41.296875 42.84375 
Q 37.203125 48.484375 30.078125 48.484375 
Q 22.953125 48.484375 18.875 42.84375 
Q 14.796875 37.203125 14.796875 27.296875 
z
" id="DejaVuSans-100"/>
       <path d="M 32.171875 -5.078125 
Q 28.375 -14.84375 24.75 -17.8125 
Q 21.140625 -20.796875 15.09375 -20.796875 
L 7.90625 -20.796875 
L 7.90625 -13.28125 
L 13.1875 -13.28125 
Q 16.890625 -13.28125 18.9375 -11.515625 
Q 21 -9.765625 23.484375 -3.21875 
L 25.09375 0.875 
L 2.984375 54.6875 
L 12.5 54.6875 
L 29.59375 11.921875 
L 46.6875 54.6875 
L 56.203125 54.6875 
z
" id="DejaVuSans-121"/>
       <path d="M 44.28125 53.078125 
L 44.28125 44.578125 
Q 40.484375 46.53125 36.375 47.5 
Q 32.28125 48.484375 27.875 48.484375 
Q 21.1875 48.484375 17.84375 46.4375 
Q 14.5 44.390625 14.5 40.28125 
Q 14.5 37.15625 16.890625 35.375 
Q 19.28125 33.59375 26.515625 31.984375 
L 29.59375 31.296875 
Q 39.15625 29.25 43.1875 25.515625 
Q 47.21875 21.78125 47.21875 15.09375 
Q 47.21875 7.46875 41.1875 3.015625 
Q 35.15625 -1.421875 24.609375 -1.421875 
Q 20.21875 -1.421875 15.453125 -0.5625 
Q 10.6875 0.296875 5.421875 2 
L 5.421875 11.28125 
Q 10.40625 8.6875 15.234375 7.390625 
Q 20.0625 6.109375 24.8125 6.109375 
Q 31.15625 6.109375 34.5625 8.28125 
Q 37.984375 10.453125 37.984375 14.40625 
Q 37.984375 18.0625 35.515625 20.015625 
Q 33.0625 21.96875 24.703125 23.78125 
L 21.578125 24.515625 
Q 13.234375 26.265625 9.515625 29.90625 
Q 5.8125 33.546875 5.8125 39.890625 
Q 5.8125 47.609375 11.28125 51.796875 
Q 16.75 56 26.8125 56 
Q 31.78125 56 36.171875 55.265625 
Q 40.578125 54.546875 44.28125 53.078125 
z
" id="DejaVuSans-115"/>
       <path d="M 8.015625 75.875 
L 15.828125 75.875 
Q 23.140625 64.359375 26.78125 53.3125 
Q 30.421875 42.28125 30.421875 31.390625 
Q 30.421875 20.453125 26.78125 9.375 
Q 23.140625 -1.703125 15.828125 -13.1875 
L 8.015625 -13.1875 
Q 14.5 -2 17.703125 9.0625 
Q 20.90625 20.125 20.90625 31.390625 
Q 20.90625 42.671875 17.703125 53.65625 
Q 14.5 64.65625 8.015625 75.875 
z
" id="DejaVuSans-41"/>
      </defs>
      <use xlink:href="#DejaVuSans-119"/>
      <use x="81.787109" xlink:href="#DejaVuSans-97"/>
      <use x="143.066406" xlink:href="#DejaVuSans-108"/>
      <use x="170.849609" xlink:href="#DejaVuSans-108"/>
      <use x="198.632812" xlink:href="#DejaVuSans-45"/>
      <use x="234.716797" xlink:href="#DejaVuSans-99"/>
      <use x="289.697266" xlink:href="#DejaVuSans-108"/>
      <use x="317.480469" xlink:href="#DejaVuSans-111"/>
      <use x="378.662109" xlink:href="#DejaVuSans-99"/>
      <use x="433.642578" xlink:href="#DejaVuSans-107"/>
      <use x="491.552734" xlink:href="#DejaVuSans-32"/>
      <use x="523.339844" xlink:href="#DejaVuSans-116"/>
      <use x="562.548828" xlink:href="#DejaVuSans-105"/>
      <use x="590.332031" xlink:href="#DejaVuSans-109"/>
      <use x="687.744141" xlink:href="#DejaVuSans-101"/>
      <use x="749.267578" xlink:href="#DejaVuSans-32"/>
      <use x="781.054688" xlink:href="#DejaVuSans-40"/>
      <use x="820.068359" xlink:href="#DejaVuSans-100"/>
      <use x="883.544922" xlink:href="#DejaVuSans-97"/>
      <use x="944.824219" xlink:href="#DejaVuSans-121"/>
      <use x="1004.003906" xlink:href="#DejaVuSans-115"/>
      <use x="1056.103516" xlink:href="#DejaVuSans-41"/>
     </g>
    </g>
   </g>
   <g id="matplotlib.axis_2">
    <g id="ytick_1">
     <g id="line2d_11">
      <defs>
       <path d="M 0 0 
L -3.5 0 
" id="m123e41269b" style="stroke:#000000;stroke-width:0.8;"/>
      </defs>
      <g>
       <use style="stroke:#000000;stroke-width:0.8;" x="144" xlink:href="#m123e41269b" y="630"/>
      </g>
     </g>
     <g id="text_12">
      <!-- −100 -->
      <g transform="translate(109.532813 633.799219)scale(0.1 -0.1)">
       <defs>
        <path d="M 10.59375 35.5 
L 73.1875 35.5 
L 73.1875 27.203125 
L 10.59375 27.203125 
z
" id="DejaVuSans-8722"/>
       </defs>
       <use xlink:href="#DejaVuSans-8722"/>
       <use x="83.789062" xlink:href="#DejaVuSans-49"/>
       <use x="147.412109" xlink:href="#DejaVuSans-48"/>
       <use x="211.035156" xlink:href="#DejaVuSans-48"/>
      </g>
     </g>
    </g>
    <g id="ytick_2">
     <g id="line2d_12">
      <g>
       <use style="stroke:#000000;stroke-width:0.8;" x="144" xlink:href="#m123e41269b" y="521.28"/>
      </g>
     </g>
     <g id="text_13">
      <!-- −50 -->
      <g transform="translate(115.895313 525.079219)scale(0.1 -0.1)">
       <use xlink:href="#DejaVuSans-8722"/>
       <use x="83.789062" xlink:href="#DejaVuSans-53"/>
       <use x="147.412109" xlink:href="#DejaVuSans-48"/>
      </g>
     </g>
    </g>
    <g id="ytick_3">
     <g id="line2d_13">
      <g>
       <use style="stroke:#000000;stroke-width:0.8;" x="144" xlink:href="#m123e41269b" y="412.56"/>
      </g>
     </g>
     <g id="text_14">
      <!-- 0 -->
      <g transform="translate(130.6375 416.359219)scale(0.1 -0.1)">
       <use xlink:href="#DejaVuSans-48"/>
      </g>
     </g>
    </g>
    <g id="ytick_4">
     <g id="line2d_14">
      <g>
       <use style="stroke:#000000;stroke-width:0.8;" x="144" xlink:href="#m123e41269b" y="303.84"/>
      </g>
     </g>
     <g id="text_15">
      <!-- 50 -->
      <g transform="translate(124.275 307.639219)scale(0.1 -0.1)">
       <use xlink:href="#DejaVuSans-53"/>
       <use x="63.623047" xlink:href="#DejaVuSans-48"/>
      </g>
     </g>
    </g>
    <g id="ytick_5">
     <g id="line2d_15">
      <g>
       <use style="stroke:#000000;stroke-width:0.8;" x="144" xlink:href="#m123e41269b" y="195.12"/>
      </g>
     </g>
     <g id="text_16">
      <!-- 100 -->
      <g transform="translate(117.9125 198.919219)scale(0.1 -0.1)">
       <use xlink:href="#DejaVuSans-49"/>
       <use x="63.623047" xlink:href="#DejaVuSans-48"/>
       <use x="127.246094" xlink:href="#DejaVuSans-48"/>
      </g>
     </g>
    </g>
    <g id="ytick_6">
     <g id="line2d_16">
      <g>
       <use style="stroke:#000000;stroke-width:0.8;" x="144" xlink:href="#m123e41269b" y="86.4"/>
      </g>
     </g>
     <g id="text_17">
      <!-- 150 -->
      <g transform="translate(117.9125 90.199219)scale(0.1 -0.1)">
       <use xlink:href="#DejaVuSans-49"/>
       <use x="63.623047" xlink:href="#DejaVuSans-53"/>
       <use x="127.246094" xlink:href="#DejaVuSans-48"/>
      </g>
     </g>
    </g>
    <g id="text_18">
     <!-- cumulative reward -->
     <g transform="translate(103.453125 404.899219)rotate(-90)scale(0.1 -0.1)">
      <defs>
       <path d="M 8.5 21.578125 
L 8.5 54.6875 
L 17.484375 54.6875 
L 17.484375 21.921875 
Q 17.484375 14.15625 20.5 10.265625 
Q 23.53125 6.390625 29.59375 6.390625 
Q 36.859375 6.390625 41.078125 11.03125 
Q 45.3125 15.671875 45.3125 23.6875 
L 45.3125 54.6875 
L 54.296875 54.6875 
L 54.296875 0 
L 45.3125 0 
L 45.3125 8.40625 
Q 42.046875 3.421875 37.71875 1 
Q 33.40625 -1.421875 27.6875 -1.421875 
Q 18.265625 -1.421875 13.375 4.4375 
Q 8.5 10.296875 8.5 21.578125 
z
M 31.109375 56 
z
" id="DejaVuSans-117"/>
       <path d="M 2.984375 54.6875 
L 12.5 54.6875 
L 29.59375 8.796875 
L 46.6875 54.6875 
L 56.203125 54.6875 
L 35.6875 0 
L 23.484375 0 
z
" id="DejaVuSans-118"/>
       <path d="M 41.109375 46.296875 
Q 39.59375 47.171875 37.8125 47.578125 
Q 36.03125 48 33.890625 48 
Q 26.265625 48 22.1875 43.046875 
Q 18.109375 38.09375 18.109375 28.8125 
L 18.109375 0 
L 9.078125 0 
L 9.078125 54.6875 
L 18.109375 54.6875 
L 18.109375 46.1875 
Q 20.953125 51.171875 25.484375 53.578125 
Q 30.03125 56 36.53125 56 
Q 37.453125 56 38.578125 55.875 
Q 39.703125 55.765625 41.0625 55.515625 
z
" id="DejaVuSans-114"/>
      </defs>
      <use xlink:href="#DejaVuSans-99"/>
      <use x="54.980469" xlink:href="#DejaVuSans-117"/>
      <use x="118.359375" xlink:href="#DejaVuSans-109"/>
      <use x="215.771484" xlink:href="#DejaVuSans-117"/>
      <use x="279.150391" xlink:href="#DejaVuSans-108"/>
      <use x="306.933594" xlink:href="#DejaVuSans-97"/>
      <use x="368.212891" xlink:href="#DejaVuSans-116"/>
      <use x="407.421875" xlink:href="#DejaVuSans-105"/>
      <use x="435.205078" xlink:href="#DejaVuSans-118"/>
      <use x="494.384766" xlink:href="#DejaVuSans-101"/>
      <use x="555.908203" xlink:href="#DejaVuSans-32"/>
      <use x="587.695312" xlink:href="#DejaVuSans-114"/>
      <use x="626.558594" xlink:href="#DejaVuSans-101"/>
      <use x="688.082031" xlink:href="#DejaVuSans-119"/>
      <use x="769.869141" xlink:href="#DejaVuSans-97"/>
      <use x="831.148438" xlink:href="#DejaVuSans-114"/>
      <use x="870.511719" xlink:href="#DejaVuSans-100"/>
     </g>
    </g>
   </g>
   <g id="line2d_17">
    <path clip-path="url(#p550f88f0a9)" d="M 145.539618 423.605952 
L 145.578131 436.282704 
L 145.646445 426.758832 
L 145.680373 426.04128 
L 145.71453 421.779456 
L 145.782615 422.388288 
L 145.884858 426.497904 
L 145.923141 424.5192 
L 145.957298 424.584432 
L 145.991226 429.607296 
L 146.059311 426.36744 
L 146.195482 421.2576 
L 146.229639 422.931888 
L 146.267922 421.192368 
L 146.336007 418.97448 
L 146.370165 422.388288 
L 146.43825 419.84424 
L 146.540492 423.410256 
L 146.57442 422.410032 
L 146.612704 420.453072 
L 146.646861 423.366768 
L 146.680789 422.040384 
L 146.748874 423.301536 
L 146.783031 426.519648 
L 146.817188 424.540944 
L 146.885273 421.214112 
L 146.919201 423.127584 
L 146.957485 427.650336 
L 146.991871 423.062352 
L 147.025799 423.301536 
L 147.093884 422.214336 
L 147.127812 420.627024 
L 147.161969 422.757936 
L 147.196127 422.083872 
L 147.264212 421.648992 
L 147.302495 424.453968 
L 147.336423 420.27912 
L 147.404738 423.149328 
L 147.472823 425.780352 
L 147.540908 424.693152 
L 147.575065 424.475712 
L 147.608993 425.6064 
L 147.647506 422.823168 
L 147.681434 426.454416 
L 147.715591 424.345248 
L 147.783676 428.10696 
L 147.817604 423.845136 
L 147.919846 423.345024 
L 147.953774 422.01864 
L 148.025986 423.388512 
L 148.230241 430.368336 
L 148.298326 425.671632 
L 148.33661 427.041504 
L 148.370538 426.758832 
L 148.404695 427.171968 
L 148.506708 420.996672 
L 148.540865 423.54072 
L 148.642878 427.715568 
L 148.715319 426.563136 
L 148.851489 422.431776 
L 148.885417 423.9756 
L 148.919345 426.084768 
L 148.98743 425.301984 
L 149.025714 422.3448 
L 149.093799 422.975376 
L 149.22974 425.910816 
L 149.263897 425.193264 
L 149.370266 431.542512 
L 149.404194 424.19304 
L 149.472279 427.715568 
L 149.506436 429.259392 
L 149.608449 423.258048 
L 149.642377 423.410256 
L 149.676534 426.519648 
L 149.748746 423.845136 
L 149.850759 423.062352 
L 149.884687 423.518976 
L 149.918614 424.975824 
L 149.952772 424.453968 
L 149.9867 422.12736 
L 150.020857 424.019088 
L 150.093068 426.323952 
L 150.127225 424.62792 
L 150.161153 424.867104 
L 150.195311 426.889296 
L 150.229468 424.867104 
L 150.297553 424.127808 
L 150.33171 427.628592 
L 150.404151 426.084768 
L 150.438079 422.3448 
L 150.540321 423.171072 
L 150.676262 427.606848 
L 150.710419 423.21456 
L 150.748703 425.041056 
L 150.78286 428.259168 
L 150.816788 424.366992 
L 150.850945 423.605952 
L 150.884873 424.19304 
L 150.91903 428.54184 
L 150.953187 425.0628 
L 150.987345 421.8012 
L 151.05543 424.540944 
L 151.161798 422.823168 
L 151.229883 423.149328 
L 151.264041 425.889072 
L 151.332126 424.671408 
L 151.366054 424.127808 
L 151.400211 424.30176 
L 151.472422 427.541616 
L 151.50658 424.323504 
L 151.540508 424.540944 
L 151.574665 424.280016 
L 151.64275 426.323952 
L 151.710835 425.584656 
L 151.783046 426.15 
L 151.817204 424.975824 
L 151.885059 427.150224 
L 151.919217 425.867328 
L 151.953145 425.671632 
L 151.987073 425.93256 
L 152.055158 423.258048 
L 152.089315 426.845808 
L 152.127598 422.23608 
L 152.161526 423.018864 
L 152.263769 429.759504 
L 152.331854 427.12848 
L 152.400168 427.367664 
L 152.540694 424.19304 
L 152.574622 427.976496 
L 152.642707 427.585104 
L 152.711021 426.302208 
L 152.744949 428.019984 
L 152.778877 426.323952 
L 152.81739 425.128032 
L 152.920091 428.715792 
L 153.056261 424.910592 
L 153.230486 429.259392 
L 153.264643 427.585104 
L 153.332499 425.628144 
L 153.366656 427.585104 
L 153.400584 427.56336 
L 153.46844 424.62792 
L 153.506723 425.301984 
L 153.574808 429.215904 
L 153.642894 427.846032 
L 153.676821 425.367216 
L 153.744907 426.758832 
L 153.778835 430.651008 
L 153.851046 427.976496 
L 153.959936 429.476832 
L 154.03742 427.01976 
L 154.075475 429.19416 
L 154.112612 429.998688 
L 154.154334 427.541616 
L 154.196515 429.368112 
L 154.242593 431.955648 
L 154.283627 431.933904 
L 154.325579 426.867552 
L 154.409252 428.21568 
L 154.451662 430.520544 
L 154.493843 428.781024 
L 154.535565 428.97672 
L 154.614425 431.738208 
L 154.665087 430.93368 
L 154.709102 428.563584 
L 154.751741 429.9552 
L 154.7914 430.39008 
L 154.910377 429.19416 
L 154.950495 431.629488 
L 154.9913 430.781472 
L 155.033022 427.585104 
L 155.078412 428.454864 
L 155.19418 433.54296 
L 155.313157 429.563808 
L 155.273498 434.73888 
L 155.353045 429.672528 
L 155.477982 432.151344 
L 155.521309 431.825184 
L 155.679945 434.651904 
L 155.719834 430.520544 
L 155.796172 432.45576 
L 156.012347 436.108752 
L 156.053153 436.456656 
L 156.096021 437.804784 
L 156.140265 436.565376 
L 156.275748 433.586448 
L 156.327098 434.782368 
L 156.416961 432.6732 
L 156.461205 434.8476 
L 156.503156 433.847376 
L 156.539148 431.085888 
L 156.612964 433.064592 
L 156.649413 436.782816 
L 156.687468 432.694944 
L 156.731941 433.2168 
L 156.771141 431.846928 
L 156.809883 433.347264 
L 156.88347 435.28248 
L 156.921525 434.999808 
L 156.960267 433.2168 
L 156.998092 434.999808 
L 157.034771 435.260736 
L 157.278226 431.846928 
L 157.436404 435.304224 
L 157.592977 431.564256 
L 157.668856 435.739104 
L 157.704847 432.56448 
L 157.741985 433.673424 
L 157.821532 432.803664 
L 157.8644 433.716912 
L 157.908644 432.760176 
L 157.948303 432.042624 
L 157.987733 434.325744 
L 158.025787 433.629936 
L 158.099145 434.282256 
L 158.13995 432.02088 
L 158.219727 431.933904 
L 158.278642 437.174208 
L 158.480147 430.82496 
L 158.523015 432.1296 
L 158.5668 430.259616 
L 158.654371 431.194608 
L 158.707556 428.868 
L 158.749048 429.563808 
L 158.835932 433.956096 
L 158.875591 432.02088 
L 158.9909 428.97672 
L 159.024828 429.455088 
L 159.058985 432.325296 
L 159.12707 429.215904 
L 159.301065 433.455984 
L 159.368921 432.412272 
L 159.470934 429.998688 
L 159.509218 431.47728 
L 159.577074 430.60752 
L 159.611002 431.0424 
L 159.644929 428.911488 
L 159.678857 435.043296 
L 159.746943 433.390752 
L 159.78087 433.064592 
L 159.814798 430.585776 
L 159.88701 433.282032 
L 159.920938 430.60752 
L 159.954866 430.433568 
L 159.988794 426.497904 
L 160.022951 431.085888 
L 160.090807 432.6732 
L 160.124735 430.60752 
L 160.196946 432.803664 
L 160.230874 432.738432 
L 160.265031 431.455536 
L 160.332887 432.89064 
L 160.367044 432.955872 
L 160.400972 434.021328 
L 160.4349 432.107856 
L 160.468828 432.260064 
L 160.502756 429.433344 
L 160.54104 431.825184 
L 160.574968 433.673424 
L 160.642824 431.564256 
L 160.676981 430.129152 
L 160.710909 432.260064 
L 160.745066 431.216352 
L 160.778994 431.325072 
L 160.812922 432.260064 
L 160.84685 430.129152 
L 160.884904 432.520992 
L 160.919061 431.0424 
L 160.952989 430.998912 
L 160.986917 432.78192 
L 161.055002 430.672752 
L 161.08893 430.39008 
L 161.228997 434.390976 
L 161.262925 431.455536 
L 161.331011 432.99936 
L 161.364938 433.847376 
L 161.398866 432.412272 
L 161.433024 432.477504 
L 161.534807 431.977392 
L 161.572862 432.086112 
L 161.607019 430.216128 
L 161.640718 433.455984 
L 161.674646 433.412496 
L 161.742501 430.759728 
L 161.776429 430.93368 
L 161.810587 432.803664 
L 161.844514 431.564256 
L 161.878442 430.216128 
L 161.950883 430.39008 
L 161.98504 433.2168 
L 162.018968 429.041952 
L 162.052896 429.759504 
L 162.086824 429.976944 
L 162.154909 433.282032 
L 162.188837 431.977392 
L 162.261049 431.064144 
L 162.39676 432.412272 
L 162.464846 430.216128 
L 162.498774 431.194608 
L 162.532701 432.760176 
L 162.566629 432.303552 
L 162.638841 429.389856 
L 162.672769 430.93368 
L 162.774553 434.130048 
L 162.808481 429.237648 
L 162.910723 430.368336 
L 162.949006 429.08544 
L 162.982934 429.150672 
L 163.017092 433.260288 
L 163.119105 432.868896 
L 163.18719 430.82496 
L 163.221118 431.999136 
L 163.255275 431.955648 
L 163.327486 432.303552 
L 163.361414 429.19416 
L 163.497355 431.216352 
L 163.565211 433.7604 
L 163.637423 432.216576 
L 163.705508 432.477504 
L 163.739436 430.781472 
L 163.875377 434.325744 
L 163.909305 434.325744 
L 163.943462 435.304224 
L 164.015673 434.347488 
L 164.049601 431.999136 
L 164.083758 434.999808 
L 164.117686 432.260064 
L 164.185772 435.739104 
L 164.255691 434.564928 
L 164.292599 432.847152 
L 164.365269 434.325744 
L 164.399197 433.825632 
L 164.433354 437.304672 
L 164.501668 433.7604 
L 164.535825 434.999808 
L 164.569983 432.303552 
L 164.638068 433.738656 
L 164.676351 436.087008 
L 164.710508 433.97784 
L 164.744666 431.455536 
L 164.778823 432.825408 
L 164.846908 432.064368 
L 164.881065 438.348384 
L 164.914993 433.477728 
L 164.983078 434.260512 
L 165.021591 434.912832 
L 165.055748 438.522336 
L 165.123833 434.499696 
L 165.15799 433.2168 
L 165.192148 436.347936 
L 165.260233 434.8476 
L 165.366831 432.847152 
L 165.400759 433.629936 
L 165.50323 432.1296 
L 165.605472 431.80344 
L 165.63963 435.3912 
L 165.673787 431.629488 
L 165.780155 431.651232 
L 165.882398 435.130272 
L 165.916326 434.564928 
L 165.950712 431.933904 
L 165.984869 435.152016 
L 166.018797 435.3912 
L 166.159552 431.542512 
L 166.19348 432.434016 
L 166.227637 431.91216 
L 166.295723 430.17264 
L 166.32988 432.042624 
L 166.364037 434.108304 
L 166.436478 431.933904 
L 166.470635 431.390304 
L 166.504792 432.216576 
L 166.53872 431.47728 
L 166.641192 434.586672 
L 166.67512 431.846928 
L 166.74756 432.1296 
L 166.781488 432.934128 
L 166.816104 438.174432 
L 166.884418 435.043296 
L 166.918575 434.456208 
L 166.952503 436.652352 
L 166.986661 435.565152 
L 167.020818 433.673424 
L 167.054975 435.695616 
L 167.093258 434.869344 
L 167.127416 433.97784 
L 167.161573 435.760848 
L 167.19573 435.3912 
L 167.297972 432.520992 
L 167.400215 436.000032 
L 167.438498 435.565152 
L 167.54074 431.933904 
L 167.608826 432.542736 
L 167.745454 434.891088 
L 167.783738 434.304 
L 167.817895 434.651904 
L 167.954524 438.283152 
L 168.090923 435.60864 
L 168.129207 436.413168 
L 168.197521 432.434016 
L 168.231678 437.587344 
L 168.299993 436.36968 
L 168.402464 431.69472 
L 168.436392 437.022 
L 168.509062 435.60864 
L 168.611304 432.02088 
L 168.645462 433.97784 
L 168.679619 434.304 
L 168.713547 431.91216 
L 168.747704 436.608864 
L 168.781632 437.500368 
L 168.88823 434.064816 
L 168.956544 436.021776 
L 169.024629 435.49992 
L 169.092944 434.52144 
L 169.127101 438.826752 
L 169.233699 438.391872 
L 169.267627 438.022224 
L 169.438183 432.825408 
L 169.510624 438.391872 
L 169.578938 437.261184 
L 169.612866 435.152016 
L 169.681181 437.087232 
L 169.715338 439.935696 
L 169.783423 436.4784 
L 169.81758 435.456432 
L 169.855864 437.195952 
L 169.889792 440.131392 
L 169.92372 437.282928 
L 170.026191 435.260736 
L 170.201104 438.805008 
L 170.303117 434.064816 
L 170.337274 434.651904 
L 170.473903 439.566048 
L 170.580271 433.86912 
L 170.614428 437.5656 
L 170.716671 436.848048 
L 170.750828 436.630608 
L 170.818913 434.586672 
L 170.925511 438.283152 
L 170.959668 434.108304 
L 171.027753 436.021776 
L 171.061681 437.043744 
L 171.095838 435.021552 
L 171.163923 434.282256 
L 171.198081 434.673648 
L 171.236593 437.13072 
L 171.270751 432.847152 
L 171.304908 436.347936 
L 171.372993 433.173312 
L 171.40715 433.499472 
L 171.509392 438.783264 
L 171.54355 437.913504 
L 171.650148 434.869344 
L 171.786776 440.2836 
L 171.854861 439.566048 
L 171.889019 434.499696 
L 171.961459 437.630832 
L 171.995616 437.935248 
L 172.029544 435.804336 
L 172.063702 439.826976 
L 172.097859 436.848048 
L 172.132016 440.435808 
L 172.200101 436.80456 
L 172.234258 436.891536 
L 172.272542 436.391424 
L 172.306699 444.893328 
L 172.375013 438.565824 
L 172.409171 437.78304 
L 172.443098 440.414064 
L 172.511413 438.065712 
L 172.54557 438.739776 
L 172.579727 437.195952 
L 172.618698 439.392096 
L 172.652856 440.2836 
L 172.687242 435.3912 
L 172.721399 441.58824 
L 172.755327 437.478624 
L 172.85734 442.218816 
L 172.891497 441.544752 
L 172.925655 439.52256 
L 172.964167 441.718704 
L 172.998325 440.631504 
L 173.06641 442.849392 
L 173.134724 441.523008 
L 173.271124 437.761296 
L 173.377492 441.849168 
L 173.411649 437.609088 
L 173.48111 439.000704 
L 173.517101 439.065936 
L 173.555385 438.696288 
L 173.593898 436.543632 
L 173.63264 440.000928 
L 173.678717 436.826304 
L 173.719752 437.739552 
L 173.757348 436.326192 
L 173.836436 438.239664 
L 173.877471 437.630832 
L 173.914608 440.870688 
L 173.954038 437.195952 
L 173.991405 436.326192 
L 174.030376 436.826304 
L 174.154396 439.544304 
L 174.272915 436.108752 
L 174.310052 437.652576 
L 174.345814 440.087904 
L 174.383181 436.761072 
L 174.426966 438.957216 
L 174.585373 434.978064 
L 174.663086 436.456656 
L 174.703204 433.97784 
L 174.741716 436.347936 
L 174.780458 437.870016 
L 174.820117 436.674096 
L 174.95262 433.7604 
L 175.067241 438.6528 
L 175.106442 438.174432 
L 175.145413 433.7604 
L 175.183926 434.238768 
L 175.339352 439.218144 
L 175.38245 438.957216 
L 175.425319 441.15336 
L 175.511285 436.26096 
L 175.554382 436.935024 
L 175.654103 439.913952 
L 175.692845 438.565824 
L 175.883116 435.108528 
L 176.005761 439.479072 
L 175.965185 435.043296 
L 176.046337 438.957216 
L 176.127031 439.674768 
L 176.166002 436.717584 
L 176.248988 439.065936 
L 176.331974 436.282704 
L 176.331974 436.282704 
" style="fill:none;stroke:#1f77b4;stroke-linecap:square;stroke-width:1.5;"/>
   </g>
   <g id="line2d_18">
    <path clip-path="url(#p550f88f0a9)" d="M 145.539618 499.536 
L 145.612288 545.1984 
L 145.646445 508.2336 
L 145.782615 466.92 
L 145.884858 497.3616 
L 145.923141 471.2688 
L 145.991226 495.1872 
L 146.025383 479.9664 
L 146.059311 510.408 
L 146.30185 464.7456 
L 146.370165 493.0128 
L 146.43825 471.2688 
L 146.472407 471.2688 
L 146.57442 469.0944 
L 146.612704 490.8384 
L 146.646861 469.0944 
L 146.680789 456.048 
L 146.714946 466.92 
L 146.783031 501.7104 
L 146.817188 477.792 
L 146.885273 460.3968 
L 146.991871 486.4896 
L 147.093884 493.0128 
L 147.127812 456.048 
L 147.264212 497.3616 
L 147.302495 469.0944 
L 147.37058 473.4432 
L 147.472823 493.0128 
L 147.647506 460.3968 
L 147.749519 479.9664 
L 147.885689 458.2224 
L 147.919846 462.5712 
L 147.953774 482.1408 
L 147.992058 458.2224 
L 148.025986 456.048 
L 148.127999 484.3152 
L 148.162156 479.9664 
L 148.230241 488.664 
L 148.298326 462.5712 
L 148.370538 471.2688 
L 148.438623 482.1408 
L 148.506708 447.3504 
L 148.540865 462.5712 
L 148.642878 493.0128 
L 148.749247 466.92 
L 148.783404 486.4896 
L 148.817332 479.9664 
L 148.851489 458.2224 
L 148.919345 466.92 
L 148.953273 490.8384 
L 148.98743 466.92 
L 149.025714 451.6992 
L 149.093799 466.92 
L 149.127956 469.0944 
L 149.161884 458.2224 
L 149.195812 477.792 
L 149.22974 464.7456 
L 149.331753 503.8848 
L 149.370266 490.8384 
L 149.574521 458.2224 
L 149.608449 473.4432 
L 149.676534 469.0944 
L 149.782903 456.048 
L 149.918614 473.4432 
L 150.020857 458.2224 
L 150.05914 469.0944 
L 150.093068 469.0944 
L 150.127225 462.5712 
L 150.161153 469.0944 
L 150.229468 466.92 
L 150.297553 479.9664 
L 150.365867 486.4896 
L 150.438079 460.3968 
L 150.540321 479.9664 
L 150.574249 456.048 
L 150.642334 471.2688 
L 150.710419 464.7456 
L 150.78286 512.5824 
L 150.850945 464.7456 
L 150.884873 473.4432 
L 150.91903 501.7104 
L 150.953187 469.0944 
L 150.987345 471.2688 
L 151.021272 493.0128 
L 151.05543 462.5712 
L 151.093713 477.792 
L 151.12787 479.9664 
L 151.229883 464.7456 
L 151.297969 495.1872 
L 151.332126 456.048 
L 151.400211 486.4896 
L 151.540508 466.92 
L 151.608593 458.2224 
L 151.64275 486.4896 
L 151.710835 475.6176 
L 151.817204 462.5712 
L 151.851132 464.7456 
L 151.885059 497.3616 
L 151.953145 490.8384 
L 152.055158 449.5248 
L 152.127598 451.6992 
L 152.263769 488.664 
L 152.297926 471.2688 
L 152.366011 477.792 
L 152.400168 479.9664 
L 152.47238 462.5712 
L 152.540694 464.7456 
L 152.676864 482.1408 
L 152.711021 464.7456 
L 152.744949 490.8384 
L 152.778877 471.2688 
L 152.81739 497.3616 
L 152.885475 471.2688 
L 152.954248 484.3152 
L 152.988176 469.0944 
L 153.056261 473.4432 
L 153.090189 488.664 
L 153.162401 477.792 
L 153.264643 484.3152 
L 153.400584 462.5712 
L 153.46844 499.536 
L 153.506723 471.2688 
L 153.54088 466.92 
L 153.574808 484.3152 
L 153.642894 475.6176 
L 153.676821 453.8736 
L 153.744907 469.0944 
L 153.778835 471.2688 
L 153.884974 495.1872 
L 153.851046 462.5712 
L 153.923716 484.3152 
L 153.959936 466.92 
L 153.998908 473.4432 
L 154.075475 490.8384 
L 154.112612 477.792 
L 154.242593 471.2688 
L 154.283627 488.664 
L 154.325579 466.92 
L 154.451662 493.0128 
L 154.493843 479.9664 
L 154.535565 466.92 
L 154.574536 482.1408 
L 154.614425 475.6176 
L 154.665087 482.1408 
L 154.709102 464.7456 
L 154.751741 469.0944 
L 154.7914 479.9664 
L 154.831288 466.92 
L 154.871864 469.0944 
L 154.910377 490.8384 
L 154.950495 477.792 
L 154.9913 473.4432 
L 155.033022 475.6176 
L 155.078412 477.792 
L 155.153833 469.0944 
L 155.23361 506.0592 
L 155.313157 471.2688 
L 155.392246 475.6176 
L 155.431675 477.792 
L 155.477982 473.4432 
L 155.521309 475.6176 
L 155.601544 493.0128 
L 155.640516 488.664 
L 155.679945 477.792 
L 155.719834 501.7104 
L 155.796172 488.664 
L 155.836747 488.664 
L 155.882596 475.6176 
L 155.926381 490.8384 
L 156.012347 495.1872 
L 156.053153 516.9312 
L 156.096021 482.1408 
L 156.140265 477.792 
L 156.232879 488.664 
L 156.327098 477.792 
L 156.37501 486.4896 
L 156.416961 473.4432 
L 156.461205 475.6176 
L 156.503156 499.536 
L 156.539148 473.4432 
L 156.576285 486.4896 
L 156.612964 475.6176 
L 156.649413 497.3616 
L 156.687468 497.3616 
L 156.731941 477.792 
L 156.809883 484.3152 
L 156.921525 471.2688 
L 156.960267 475.6176 
L 156.998092 506.0592 
L 157.034771 484.3152 
L 157.076722 473.4432 
L 157.1228 484.3152 
L 157.160396 484.3152 
L 157.198679 493.0128 
L 157.237421 469.0944 
L 157.278226 482.1408 
L 157.319719 490.8384 
L 157.359837 486.4896 
L 157.399496 471.2688 
L 157.473083 477.792 
L 157.514117 482.1408 
L 157.553089 521.28 
L 157.592977 479.9664 
L 157.631031 493.0128 
L 157.779581 473.4432 
L 157.821532 475.6176 
L 157.8644 471.2688 
L 158.062008 501.7104 
L 158.099145 473.4432 
L 158.178463 479.9664 
L 158.278642 501.7104 
L 158.394181 460.3968 
L 158.435674 488.664 
L 158.523015 484.3152 
L 158.5668 464.7456 
L 158.610127 493.0128 
L 158.654371 484.3152 
L 158.749048 486.4896 
L 158.875591 475.6176 
L 158.914791 482.1408 
L 158.95445 464.7456 
L 159.024828 482.1408 
L 159.058985 493.0128 
L 159.093142 482.1408 
L 159.199281 458.2224 
L 159.334993 499.536 
L 159.368921 493.0128 
L 159.436777 475.6176 
L 159.470934 484.3152 
L 159.509218 495.1872 
L 159.543146 482.1408 
L 159.577074 479.9664 
L 159.611002 488.664 
L 159.678857 477.792 
L 159.712785 471.2688 
L 159.746943 493.0128 
L 159.814798 475.6176 
L 159.88701 490.8384 
L 159.920938 503.8848 
L 159.954866 471.2688 
L 160.022951 506.0592 
L 160.158663 473.4432 
L 160.298959 497.3616 
L 160.332887 495.1872 
L 160.502756 460.3968 
L 160.574968 488.664 
L 160.642824 484.3152 
L 160.676981 486.4896 
L 160.710909 497.3616 
L 160.745066 479.9664 
L 160.778994 471.2688 
L 160.812922 488.664 
L 160.84685 486.4896 
L 160.919061 479.9664 
L 160.952989 495.1872 
L 161.055002 469.0944 
L 161.08893 473.4432 
L 161.122858 464.7456 
L 161.228997 510.408 
L 161.296853 471.2688 
L 161.331011 475.6176 
L 161.433024 495.1872 
L 161.534807 475.6176 
L 161.572862 477.792 
L 161.607019 464.7456 
L 161.640718 482.1408 
L 161.674646 482.1408 
L 161.708573 477.792 
L 161.742501 493.0128 
L 161.776429 471.2688 
L 161.810587 490.8384 
L 161.844514 475.6176 
L 161.878442 495.1872 
L 161.916726 477.792 
L 161.950883 479.9664 
L 161.98504 493.0128 
L 162.018968 479.9664 
L 162.086824 475.6176 
L 162.188837 490.8384 
L 162.222765 488.664 
L 162.328905 475.6176 
L 162.362833 488.664 
L 162.39676 469.0944 
L 162.430918 475.6176 
L 162.464846 464.7456 
L 162.498774 473.4432 
L 162.532701 495.1872 
L 162.604913 484.3152 
L 162.672769 469.0944 
L 162.706697 475.6176 
L 162.740625 486.4896 
L 162.808481 477.792 
L 162.842638 473.4432 
L 162.876566 482.1408 
L 162.910723 477.792 
L 162.949006 479.9664 
L 162.982934 477.792 
L 163.017092 501.7104 
L 163.085177 473.4432 
L 163.221118 486.4896 
L 163.255275 471.2688 
L 163.293329 484.3152 
L 163.327486 512.5824 
L 163.361414 475.6176 
L 163.395342 471.2688 
L 163.497355 490.8384 
L 163.637423 466.92 
L 163.671351 469.0944 
L 163.773364 475.6176 
L 163.807521 471.2688 
L 163.875377 490.8384 
L 163.943462 484.3152 
L 163.981516 482.1408 
L 164.015673 488.664 
L 164.083758 473.4432 
L 164.117686 475.6176 
L 164.255691 490.8384 
L 164.365269 477.792 
L 164.467511 495.1872 
L 164.569983 469.0944 
L 164.60391 477.792 
L 164.676351 503.8848 
L 164.710508 462.5712 
L 164.778823 469.0944 
L 164.914993 508.2336 
L 164.983078 479.9664 
L 165.055748 493.0128 
L 165.15799 477.792 
L 165.226305 466.92 
L 165.260233 493.0128 
L 165.366831 477.792 
L 165.400759 493.0128 
L 165.434916 469.0944 
L 165.469073 479.9664 
L 165.537387 477.792 
L 165.571544 482.1408 
L 165.605472 462.5712 
L 165.673787 469.0944 
L 165.814083 479.9664 
L 165.882398 495.1872 
L 165.916326 484.3152 
L 165.950712 469.0944 
L 166.018797 479.9664 
L 166.05731 482.1408 
L 166.091238 469.0944 
L 166.125395 479.9664 
L 166.19348 493.0128 
L 166.295723 469.0944 
L 166.32988 499.536 
L 166.40255 484.3152 
L 166.436478 466.92 
L 166.470635 486.4896 
L 166.504792 471.2688 
L 166.641192 486.4896 
L 166.67512 460.3968 
L 166.709277 501.7104 
L 166.74756 488.664 
L 166.884418 479.9664 
L 166.918575 490.8384 
L 166.986661 488.664 
L 167.127416 471.2688 
L 167.161573 493.0128 
L 167.229658 471.2688 
L 167.400215 501.7104 
L 167.54074 471.2688 
L 167.67714 495.1872 
L 167.711297 490.8384 
L 167.745454 482.1408 
L 167.783738 495.1872 
L 167.817895 486.4896 
L 167.852052 490.8384 
L 167.886209 475.6176 
L 167.920137 512.5824 
L 167.988452 479.9664 
L 168.022609 482.1408 
L 168.056766 495.1872 
L 168.090923 475.6176 
L 168.129207 479.9664 
L 168.163364 466.92 
L 168.197521 473.4432 
L 168.231678 506.0592 
L 168.299993 493.0128 
L 168.402464 466.92 
L 168.436392 488.664 
L 168.509062 477.792 
L 168.679619 493.0128 
L 168.713547 482.1408 
L 168.747704 488.664 
L 168.781632 508.2336 
L 168.820145 475.6176 
L 168.854073 495.1872 
L 168.88823 469.0944 
L 168.956544 482.1408 
L 169.024629 506.0592 
L 169.092944 475.6176 
L 169.127101 503.8848 
L 169.335941 482.1408 
L 169.370098 488.664 
L 169.404026 495.1872 
L 169.438183 473.4432 
L 169.472341 484.3152 
L 169.510624 499.536 
L 169.544781 473.4432 
L 169.578938 475.6176 
L 169.612866 516.9312 
L 169.681181 503.8848 
L 169.715338 495.1872 
L 169.749266 516.9312 
L 169.783423 490.8384 
L 169.81758 466.92 
L 169.855864 469.0944 
L 169.889792 503.8848 
L 169.957877 486.4896 
L 169.992034 473.4432 
L 170.026191 475.6176 
L 170.094506 497.3616 
L 170.128434 477.792 
L 170.162591 466.92 
L 170.201104 486.4896 
L 170.235031 506.0592 
L 170.269189 473.4432 
L 170.303117 471.2688 
L 170.371431 501.7104 
L 170.405588 484.3152 
L 170.439745 482.1408 
L 170.50783 499.536 
L 170.546343 471.2688 
L 170.614428 482.1408 
L 170.648586 495.1872 
L 170.682743 479.9664 
L 170.716671 490.8384 
L 170.750828 479.9664 
L 170.784756 497.3616 
L 170.818913 488.664 
L 170.85307 497.3616 
L 170.959668 466.92 
L 170.993596 479.9664 
L 171.061681 475.6176 
L 171.129766 473.4432 
L 171.163923 488.664 
L 171.236593 475.6176 
L 171.270751 510.408 
L 171.338836 490.8384 
L 171.372993 464.7456 
L 171.441078 486.4896 
L 171.54355 510.408 
L 171.581833 508.2336 
L 171.61599 477.792 
L 171.684305 484.3152 
L 171.786776 510.408 
L 171.820704 495.1872 
L 171.854861 501.7104 
L 171.889019 497.3616 
L 171.927302 477.792 
L 171.961459 482.1408 
L 171.995616 506.0592 
L 172.063702 497.3616 
L 172.166173 499.536 
L 172.200101 477.792 
L 172.306699 503.8848 
L 172.340856 497.3616 
L 172.375013 493.0128 
L 172.409171 503.8848 
L 172.443098 486.4896 
L 172.477256 482.1408 
L 172.54557 506.0592 
L 172.579727 490.8384 
L 172.618698 484.3152 
L 172.652856 510.408 
L 172.687242 473.4432 
L 172.721399 508.2336 
L 172.755327 473.4432 
L 172.823412 516.9312 
L 172.891497 529.9776 
L 172.964167 490.8384 
L 173.134724 510.408 
L 173.236966 482.1408 
L 173.202809 519.1056 
L 173.271124 486.4896 
L 173.309407 503.8848 
L 173.377492 497.3616 
L 173.48111 486.4896 
L 173.517101 490.8384 
L 173.555385 486.4896 
L 173.593898 477.792 
L 173.678717 499.536 
L 173.79586 477.792 
L 173.836436 508.2336 
L 173.914608 503.8848 
L 173.991405 479.9664 
L 174.030376 486.4896 
L 174.154396 497.3616 
L 174.310052 488.664 
L 174.345814 493.0128 
L 174.383181 473.4432 
L 174.426966 488.664 
L 174.469605 503.8848 
L 174.507889 499.536 
L 174.585373 471.2688 
L 174.623886 486.4896 
L 174.703204 466.92 
L 174.741716 495.1872 
L 174.820117 482.1408 
L 174.866424 479.9664 
L 174.908376 482.1408 
L 174.95262 506.0592 
L 174.990674 493.0128 
L 175.028958 486.4896 
L 175.067241 490.8384 
L 175.106442 501.7104 
L 175.145413 475.6176 
L 175.183926 486.4896 
L 175.230233 516.9312 
L 175.295796 495.1872 
L 175.339352 486.4896 
L 175.38245 497.3616 
L 175.425319 495.1872 
L 175.511285 501.7104 
L 175.554382 482.1408 
L 175.602982 486.4896 
L 175.735713 512.5824 
L 175.771704 508.2336 
L 175.883116 479.9664 
L 175.923463 486.4896 
L 175.965185 479.9664 
L 176.005761 488.664 
L 176.127031 501.7104 
L 176.207724 484.3152 
L 176.248988 503.8848 
L 176.331974 495.1872 
" style="fill:none;stroke:#ff7f0e;stroke-linecap:square;stroke-width:1.5;"/>
   </g>
   <g id="line2d_19">
    <path clip-path="url(#p550f88f0a9)" d="M 145.539618 390.816 
L 145.612288 399.5136 
L 145.646445 388.6416 
L 145.71453 401.688 
L 145.748458 401.688 
L 145.85093 392.9904 
L 145.923141 395.1648 
L 146.025383 401.688 
L 146.093468 386.4672 
L 146.127626 401.688 
L 146.195482 401.688 
L 146.404093 386.4672 
L 146.43825 392.9904 
L 146.57442 401.688 
L 146.646861 392.9904 
L 146.680789 395.1648 
L 146.714946 403.8624 
L 146.783031 397.3392 
L 146.817188 397.3392 
L 146.851116 401.688 
L 146.919201 397.3392 
L 146.991871 388.6416 
L 147.025799 406.0368 
L 147.093884 399.5136 
L 147.127812 399.5136 
L 147.196127 397.3392 
L 147.230054 403.8624 
L 147.336423 375.5952 
L 147.438665 401.688 
L 147.472823 395.1648 
L 147.608993 406.0368 
L 147.681434 401.688 
L 147.715591 390.816 
L 147.749519 397.3392 
L 147.783676 406.0368 
L 147.851761 403.8624 
L 147.885689 397.3392 
L 147.953774 399.5136 
L 148.060143 401.688 
L 148.094071 399.5136 
L 148.127999 388.6416 
L 148.162156 397.3392 
L 148.264169 408.2112 
L 148.370538 399.5136 
L 148.404695 401.688 
L 148.438623 397.3392 
L 148.506708 397.3392 
L 148.540865 390.816 
L 148.575022 399.5136 
L 148.642878 406.0368 
L 148.681391 401.688 
L 148.715319 386.4672 
L 148.783404 401.688 
L 148.817332 401.688 
L 148.885417 395.1648 
L 148.953273 408.2112 
L 148.98743 397.3392 
L 149.025714 395.1648 
L 149.059871 399.5136 
L 149.093799 399.5136 
L 149.161884 406.0368 
L 149.195812 388.6416 
L 149.263897 406.0368 
L 149.404194 399.5136 
L 149.506436 408.2112 
L 149.642377 392.9904 
L 149.676534 406.0368 
L 149.748746 403.8624 
L 149.782903 395.1648 
L 149.850759 399.5136 
L 149.884687 406.0368 
L 149.952772 401.688 
L 149.9867 401.688 
L 150.05914 392.9904 
L 150.127225 408.2112 
L 150.195311 403.8624 
L 150.33171 399.5136 
L 150.365867 403.8624 
L 150.438079 399.5136 
L 150.472236 401.688 
L 150.506164 399.5136 
L 150.540321 395.1648 
L 150.608177 406.0368 
L 150.642334 390.816 
L 150.710419 395.1648 
L 150.78286 408.2112 
L 150.850945 401.688 
L 150.884873 401.688 
L 150.91903 384.2928 
L 150.987345 401.688 
L 151.021272 392.9904 
L 151.05543 406.0368 
L 151.229883 399.5136 
L 151.264041 403.8624 
L 151.297969 397.3392 
L 151.332126 392.9904 
L 151.366054 401.688 
L 151.400211 397.3392 
L 151.50658 406.0368 
L 151.574665 388.6416 
L 151.608593 406.0368 
L 151.710835 397.3392 
L 151.851132 406.0368 
L 151.885059 408.2112 
L 151.953145 395.1648 
L 151.987073 401.688 
L 152.127598 401.688 
L 152.229611 403.8624 
L 152.263769 399.5136 
L 152.297926 401.688 
L 152.331854 408.2112 
L 152.366011 401.688 
L 152.400168 399.5136 
L 152.434096 401.688 
L 152.540694 410.3856 
L 152.506537 399.5136 
L 152.574622 403.8624 
L 152.608779 403.8624 
L 152.642707 406.0368 
L 152.711021 397.3392 
L 152.744949 403.8624 
L 152.778877 403.8624 
L 152.81739 395.1648 
L 152.851318 401.688 
L 152.920091 406.0368 
L 152.954248 403.8624 
L 153.090189 399.5136 
L 153.124117 397.3392 
L 153.162401 399.5136 
L 153.264643 408.2112 
L 153.400584 399.5136 
L 153.434512 399.5136 
L 153.46844 408.2112 
L 153.506723 395.1648 
L 153.54088 399.5136 
L 153.608736 408.2112 
L 153.642894 390.816 
L 153.744907 395.1648 
L 153.778835 406.0368 
L 153.851046 401.688 
L 153.884974 388.6416 
L 153.923716 410.3856 
L 153.959936 408.2112 
L 153.998908 392.9904 
L 154.075475 406.0368 
L 154.112612 408.2112 
L 154.154334 403.8624 
L 154.196515 410.3856 
L 154.325579 399.5136 
L 154.409252 410.3856 
L 154.451662 397.3392 
L 154.535565 401.688 
L 154.574536 397.3392 
L 154.614425 403.8624 
L 154.709102 403.8624 
L 154.751741 401.688 
L 154.831288 412.56 
L 154.871864 408.2112 
L 154.910377 408.2112 
L 154.950495 410.3856 
L 154.9913 408.2112 
L 155.033022 408.2112 
L 155.078412 397.3392 
L 155.116008 410.3856 
L 155.153833 403.8624 
L 155.19418 401.688 
L 155.23361 408.2112 
L 155.313157 403.8624 
L 155.392246 408.2112 
L 155.521309 395.1648 
L 155.640516 410.3856 
L 155.756971 406.0368 
L 155.836747 412.56 
L 155.926381 406.0368 
L 155.972688 408.2112 
L 156.053153 406.0368 
L 156.096021 412.56 
L 156.140265 412.56 
L 156.327098 403.8624 
L 156.37501 412.56 
L 156.416961 410.3856 
L 156.461205 401.688 
L 156.503156 403.8624 
L 156.539148 410.3856 
L 156.576285 401.688 
L 156.612964 408.2112 
L 156.649413 408.2112 
L 156.731941 410.3856 
L 156.84725 403.8624 
L 156.88347 410.3856 
L 156.960267 408.2112 
L 156.998092 408.2112 
L 157.034771 414.7344 
L 157.076722 412.56 
L 157.160396 408.2112 
L 157.198679 410.3856 
L 157.278226 410.3856 
L 157.319719 408.2112 
L 157.359837 412.56 
L 157.399496 408.2112 
L 157.436404 408.2112 
L 157.473083 406.0368 
L 157.514117 412.56 
L 157.592977 408.2112 
L 157.668856 408.2112 
L 157.704847 403.8624 
L 157.779581 408.2112 
L 157.821532 408.2112 
L 157.8644 410.3856 
L 157.908644 408.2112 
L 157.948303 408.2112 
L 157.987733 406.0368 
L 158.025787 408.2112 
L 158.062008 408.2112 
L 158.13995 410.3856 
L 158.178463 406.0368 
L 158.219727 408.2112 
L 158.278642 408.2112 
L 158.394181 410.3856 
L 158.435674 401.688 
L 158.480147 410.3856 
L 158.523015 410.3856 
L 158.610127 403.8624 
L 158.654371 410.3856 
L 158.749048 408.2112 
L 158.835932 406.0368 
L 158.914791 410.3856 
L 159.024828 401.688 
L 159.165353 410.3856 
L 159.301065 403.8624 
L 159.334993 406.0368 
L 159.436777 408.2112 
L 159.470934 395.1648 
L 159.543146 406.0368 
L 159.577074 408.2112 
L 159.611002 397.3392 
L 159.644929 410.3856 
L 159.678857 408.2112 
L 159.712785 406.0368 
L 159.746943 410.3856 
L 159.78087 410.3856 
L 159.814798 403.8624 
L 159.88701 406.0368 
L 159.920938 406.0368 
L 160.056879 397.3392 
L 160.196946 408.2112 
L 160.265031 403.8624 
L 160.298959 408.2112 
L 160.4349 408.2112 
L 160.54104 401.688 
L 160.574968 406.0368 
L 160.608896 395.1648 
L 160.642824 410.3856 
L 160.676981 399.5136 
L 160.745066 410.3856 
L 160.778994 406.0368 
L 160.84685 408.2112 
L 160.952989 401.688 
L 161.08893 408.2112 
L 161.156786 410.3856 
L 161.190714 401.688 
L 161.296853 412.56 
L 161.331011 408.2112 
L 161.398866 412.56 
L 161.466952 410.3856 
L 161.607019 406.0368 
L 161.640718 412.56 
L 161.708573 410.3856 
L 161.742501 410.3856 
L 161.810587 403.8624 
L 161.844514 395.1648 
L 161.878442 410.3856 
L 162.052896 397.3392 
L 162.188837 410.3856 
L 162.294977 406.0368 
L 162.328905 408.2112 
L 162.362833 410.3856 
L 162.39676 401.688 
L 162.498774 403.8624 
L 162.532701 408.2112 
L 162.566629 397.3392 
L 162.638841 399.5136 
L 162.774553 412.56 
L 162.808481 406.0368 
L 162.876566 410.3856 
L 162.910723 410.3856 
L 163.017092 401.688 
L 163.085177 408.2112 
L 163.153033 406.0368 
L 163.18719 406.0368 
L 163.255275 408.2112 
L 163.293329 406.0368 
L 163.361414 395.1648 
L 163.395342 412.56 
L 163.463198 406.0368 
L 163.497355 406.0368 
L 163.531283 403.8624 
L 163.637423 412.56 
L 163.739436 406.0368 
L 163.773364 410.3856 
L 163.841449 406.0368 
L 163.875377 403.8624 
L 163.909305 412.56 
L 163.981516 408.2112 
L 164.015673 408.2112 
L 164.049601 412.56 
L 164.117686 408.2112 
L 164.185772 410.3856 
L 164.292599 401.688 
L 164.467511 410.3856 
L 164.60391 401.688 
L 164.744666 410.3856 
L 164.846908 403.8624 
L 164.881065 412.56 
L 164.94915 408.2112 
L 165.089676 403.8624 
L 165.260233 412.56 
L 165.29439 412.56 
L 165.434916 406.0368 
L 165.537387 410.3856 
L 165.571544 408.2112 
L 165.605472 408.2112 
L 165.71207 406.0368 
L 165.882398 410.3856 
L 165.916326 403.8624 
L 165.950712 412.56 
L 165.984869 410.3856 
L 166.018797 408.2112 
L 166.091238 410.3856 
L 166.125395 412.56 
L 166.159552 408.2112 
L 166.261565 403.8624 
L 166.40255 410.3856 
L 166.436478 410.3856 
L 166.53872 397.3392 
L 166.641192 410.3856 
L 166.67512 408.2112 
L 166.74756 401.688 
L 166.850261 403.8624 
L 166.918575 401.688 
L 166.952503 410.3856 
L 166.986661 403.8624 
L 167.020818 408.2112 
L 167.054975 412.56 
L 167.093258 399.5136 
L 167.19573 401.688 
L 167.229658 399.5136 
L 167.263815 410.3856 
L 167.366057 408.2112 
L 167.400215 412.56 
L 167.472655 410.3856 
L 167.54074 406.0368 
L 167.574898 410.3856 
L 167.608826 410.3856 
L 167.711297 406.0368 
L 167.745454 412.56 
L 167.783738 410.3856 
L 167.817895 399.5136 
L 167.886209 408.2112 
L 167.920137 406.0368 
L 168.022609 412.56 
L 168.056766 406.0368 
L 168.129207 412.56 
L 168.299993 403.8624 
L 168.436392 410.3856 
L 168.543219 401.688 
L 168.679619 410.3856 
L 168.747704 410.3856 
L 168.781632 403.8624 
L 168.854073 410.3856 
L 168.88823 412.56 
L 168.922387 408.2112 
L 168.956544 408.2112 
L 168.990701 403.8624 
L 169.024629 412.56 
L 169.199542 406.0368 
L 169.267627 410.3856 
L 169.301784 401.688 
L 169.370098 410.3856 
L 169.404026 406.0368 
L 169.472341 410.3856 
L 169.578938 414.7344 
L 169.715338 401.688 
L 169.855864 412.56 
L 169.992034 410.3856 
L 170.060348 408.2112 
L 170.094506 412.56 
L 170.269189 406.0368 
L 170.439745 414.7344 
L 170.473903 412.56 
L 170.580271 399.5136 
L 170.716671 410.3856 
L 170.750828 410.3856 
L 170.925511 397.3392 
L 170.993596 410.3856 
L 171.061681 408.2112 
L 171.095838 410.3856 
L 171.163923 412.56 
L 171.236593 401.688 
L 171.372993 412.56 
L 171.441078 403.8624 
L 171.54355 408.2112 
L 171.61599 408.2112 
L 171.684305 406.0368 
L 171.820704 414.7344 
L 171.889019 408.2112 
L 171.961459 410.3856 
L 172.029544 410.3856 
L 172.200101 401.688 
L 172.306699 410.3856 
L 172.340856 408.2112 
L 172.375013 408.2112 
L 172.409171 399.5136 
L 172.443098 414.7344 
L 172.477256 410.3856 
L 172.54557 410.3856 
L 172.579727 406.0368 
L 172.652856 408.2112 
L 172.687242 408.2112 
L 172.721399 410.3856 
L 172.755327 406.0368 
L 172.789255 408.2112 
L 172.823412 399.5136 
L 172.85734 410.3856 
L 172.891497 410.3856 
L 172.925655 410.3856 
L 172.964167 408.2112 
L 172.998325 412.56 
L 173.06641 408.2112 
L 173.100567 408.2112 
L 173.134724 414.7344 
L 173.202809 410.3856 
L 173.236966 412.56 
L 173.309407 410.3856 
L 173.411649 410.3856 
L 173.517101 401.688 
L 173.63264 412.56 
L 173.79586 403.8624 
L 173.877471 410.3856 
L 173.914608 408.2112 
L 173.954038 408.2112 
L 174.030376 406.0368 
L 174.115654 412.56 
L 174.154396 410.3856 
L 174.310052 410.3856 
L 174.345814 414.7344 
L 174.383181 410.3856 
L 174.426966 403.8624 
L 174.469605 412.56 
L 174.54686 408.2112 
L 174.585373 410.3856 
L 174.703204 412.56 
L 174.780458 399.5136 
L 174.820117 410.3856 
L 174.866424 410.3856 
L 174.908376 403.8624 
L 174.990674 408.2112 
L 175.028958 408.2112 
L 175.067241 406.0368 
L 175.106442 408.2112 
L 175.145413 408.2112 
L 175.183926 410.3856 
L 175.230233 406.0368 
L 175.339352 412.56 
L 175.38245 410.3856 
L 175.425319 412.56 
L 175.468416 410.3856 
L 175.511285 408.2112 
L 175.554382 412.56 
L 175.602982 408.2112 
L 175.654103 406.0368 
L 175.771704 412.56 
L 175.844833 410.3856 
L 175.883116 412.56 
L 175.923463 408.2112 
L 175.965185 412.56 
L 176.005761 412.56 
L 176.084162 410.3856 
L 176.127031 412.56 
L 176.207724 408.2112 
L 176.248988 410.3856 
L 176.331974 410.3856 
L 176.331974 410.3856 
" style="fill:none;stroke:#2ca02c;stroke-linecap:square;stroke-width:1.5;"/>
   </g>
   <g id="line2d_20">
    <path clip-path="url(#p550f88f0a9)" d="M 145.543973 421.412914 
L 145.889213 415.510971 
L 146.233994 419.238514 
L 146.578776 421.2576 
L 146.923557 418.617257 
L 147.268338 419.704457 
L 147.613348 423.432 
L 147.95813 418.927886 
L 148.302452 427.7808 
L 148.647234 419.704457 
L 148.991786 420.791657 
L 149.336108 424.363886 
L 149.68066 428.402057 
L 150.024983 423.742629 
L 150.370223 430.576457 
L 150.714546 428.868 
L 151.059556 426.6936 
L 151.404337 426.227657 
L 151.749118 425.451086 
L 152.093441 419.549143 
L 152.438452 420.325714 
L 152.783233 421.878857 
L 153.128473 424.053257 
L 153.472795 423.121371 
L 153.816889 429.799886 
L 154.201788 430.421143 
L 154.619927 434.304 
L 155.037836 428.868 
L 155.436719 434.148686 
L 155.841562 433.061486 
L 156.280791 432.906171 
L 156.692282 435.546514 
L 157.081765 440.982514 
L 157.477668 436.167771 
L 157.869444 436.789029 
L 158.288729 431.508343 
L 158.75455 434.925257 
L 159.131426 429.489257 
L 159.475061 426.072343 
L 159.819154 424.985143 
L 160.163018 425.761714 
L 160.507112 426.382971 
L 160.850976 427.314857 
L 161.19507 432.906171 
L 161.538934 431.0424 
L 161.882798 428.868 
L 162.227121 432.750857 
L 162.570985 426.227657 
L 162.914849 429.333943 
L 163.259401 433.682743 
L 163.603495 430.265829 
L 163.947588 436.012457 
L 164.296954 433.838057 
L 164.642423 436.4784 
L 164.987434 438.808114 
L 165.332673 431.818971 
L 165.677913 427.625486 
L 166.023153 434.459314 
L 166.368393 437.099657 
L 166.713632 433.372114 
L 167.05933 443.0016 
L 167.40457 428.402057 
L 167.74981 434.459314 
L 168.09505 440.8272 
L 168.440748 432.440229 
L 168.785988 430.887086 
L 169.131456 431.818971 
L 169.476696 435.080571 
L 169.821936 437.254971 
L 170.166946 430.887086 
L 170.512186 440.516571 
L 170.857197 433.993371 
L 171.202436 438.186857 
L 171.547676 436.4784 
L 171.893145 437.876229 
L 172.238614 436.4784 
L 172.583854 440.8272 
L 172.93001 440.671886 
L 173.27525 440.8272 
L 173.637683 443.156914 
L 174.03519 432.595543 
L 174.43178 433.061486 
L 174.82539 431.818971 
L 175.237798 432.284914 
L 175.697659 438.342171 
L 176.088977 439.74 
" style="fill:none;stroke:#d62728;stroke-linecap:square;stroke-width:1.5;"/>
   </g>
   <g id="line2d_21">
    <path clip-path="url(#p550f88f0a9)" d="M 145.543973 195.12 
L 145.889213 195.12 
L 146.233994 195.12 
L 146.578776 195.12 
L 146.923557 195.12 
L 147.268338 195.12 
L 147.613348 195.12 
L 147.95813 195.12 
L 148.302452 195.12 
L 148.647234 195.12 
L 148.991786 195.12 
L 149.336108 195.12 
L 149.68066 195.12 
L 150.024983 195.12 
L 150.370223 195.12 
L 150.714546 195.12 
L 151.059556 195.12 
L 151.404337 195.12 
L 151.749118 195.12 
L 152.093441 195.12 
L 152.438452 195.12 
L 152.783233 195.12 
L 153.128473 195.12 
L 153.472795 195.12 
L 153.816889 195.12 
L 154.201788 195.12 
L 154.619927 195.12 
L 155.037836 195.12 
L 155.436719 195.12 
L 155.841562 195.12 
L 156.280791 195.12 
L 156.692282 195.12 
L 157.081765 195.12 
L 157.477668 195.12 
L 157.869444 195.12 
L 158.288729 195.12 
L 158.75455 195.12 
L 159.131426 195.12 
L 159.475061 195.12 
L 159.819154 195.12 
L 160.163018 195.12 
L 160.507112 195.12 
L 160.850976 195.12 
L 161.19507 195.12 
L 161.538934 195.12 
L 161.882798 195.12 
L 162.227121 195.12 
L 162.570985 195.12 
L 162.914849 195.12 
L 163.259401 195.12 
L 163.603495 195.12 
L 163.947588 195.12 
L 164.296954 195.12 
L 164.642423 195.12 
L 164.987434 195.12 
L 165.332673 195.12 
L 165.677913 195.12 
L 166.023153 195.12 
L 166.368393 195.12 
L 166.713632 195.12 
L 167.05933 195.12 
L 167.40457 195.12 
L 167.74981 195.12 
L 168.09505 195.12 
L 168.440748 195.12 
L 168.785988 195.12 
L 169.131456 195.12 
L 169.476696 195.12 
L 169.821936 195.12 
L 170.166946 195.12 
L 170.512186 195.12 
L 170.857197 195.12 
L 171.202436 195.12 
L 171.547676 195.12 
L 171.893145 195.12 
L 172.238614 195.12 
L 172.583854 195.12 
L 172.93001 195.12 
L 173.27525 195.12 
L 173.637683 195.12 
L 174.03519 195.12 
L 174.43178 195.12 
L 174.82539 195.12 
L 175.237798 195.12 
L 175.697659 195.12 
L 176.088977 195.12 
" style="fill:none;stroke:#9467bd;stroke-linecap:square;stroke-width:1.5;"/>
   </g>
   <g id="patch_3">
    <path d="M 144 630 
L 144 86.4 
" style="fill:none;stroke:#000000;stroke-linecap:square;stroke-linejoin:miter;stroke-width:0.8;"/>
   </g>
   <g id="patch_4">
    <path d="M 1036.8 630 
L 1036.8 86.4 
" style="fill:none;stroke:#000000;stroke-linecap:square;stroke-linejoin:miter;stroke-width:0.8;"/>
   </g>
   <g id="patch_5">
    <path d="M 144 630 
L 1036.8 630 
" style="fill:none;stroke:#000000;stroke-linecap:square;stroke-linejoin:miter;stroke-width:0.8;"/>
   </g>
   <g id="patch_6">
    <path d="M 144 86.4 
L 1036.8 86.4 
" style="fill:none;stroke:#000000;stroke-linecap:square;stroke-linejoin:miter;stroke-width:0.8;"/>
   </g>
   <g id="text_19">
    <!-- Boxing-v0.cma.16.7 -->
    <g transform="translate(530.600625 80.4)scale(0.12 -0.12)">
     <defs>
      <path d="M 19.671875 34.8125 
L 19.671875 8.109375 
L 35.5 8.109375 
Q 43.453125 8.109375 47.28125 11.40625 
Q 51.125 14.703125 51.125 21.484375 
Q 51.125 28.328125 47.28125 31.5625 
Q 43.453125 34.8125 35.5 34.8125 
z
M 19.671875 64.796875 
L 19.671875 42.828125 
L 34.28125 42.828125 
Q 41.5 42.828125 45.03125 45.53125 
Q 48.578125 48.25 48.578125 53.8125 
Q 48.578125 59.328125 45.03125 62.0625 
Q 41.5 64.796875 34.28125 64.796875 
z
M 9.8125 72.90625 
L 35.015625 72.90625 
Q 46.296875 72.90625 52.390625 68.21875 
Q 58.5 63.53125 58.5 54.890625 
Q 58.5 48.1875 55.375 44.234375 
Q 52.25 40.28125 46.1875 39.3125 
Q 53.46875 37.75 57.5 32.78125 
Q 61.53125 27.828125 61.53125 20.40625 
Q 61.53125 10.640625 54.890625 5.3125 
Q 48.25 0 35.984375 0 
L 9.8125 0 
z
" id="DejaVuSans-66"/>
      <path d="M 54.890625 54.6875 
L 35.109375 28.078125 
L 55.90625 0 
L 45.3125 0 
L 29.390625 21.484375 
L 13.484375 0 
L 2.875 0 
L 24.125 28.609375 
L 4.6875 54.6875 
L 15.28125 54.6875 
L 29.78125 35.203125 
L 44.28125 54.6875 
z
" id="DejaVuSans-120"/>
      <path d="M 54.890625 33.015625 
L 54.890625 0 
L 45.90625 0 
L 45.90625 32.71875 
Q 45.90625 40.484375 42.875 44.328125 
Q 39.84375 48.1875 33.796875 48.1875 
Q 26.515625 48.1875 22.3125 43.546875 
Q 18.109375 38.921875 18.109375 30.90625 
L 18.109375 0 
L 9.078125 0 
L 9.078125 54.6875 
L 18.109375 54.6875 
L 18.109375 46.1875 
Q 21.34375 51.125 25.703125 53.5625 
Q 30.078125 56 35.796875 56 
Q 45.21875 56 50.046875 50.171875 
Q 54.890625 44.34375 54.890625 33.015625 
z
" id="DejaVuSans-110"/>
      <path d="M 45.40625 27.984375 
Q 45.40625 37.75 41.375 43.109375 
Q 37.359375 48.484375 30.078125 48.484375 
Q 22.859375 48.484375 18.828125 43.109375 
Q 14.796875 37.75 14.796875 27.984375 
Q 14.796875 18.265625 18.828125 12.890625 
Q 22.859375 7.515625 30.078125 7.515625 
Q 37.359375 7.515625 41.375 12.890625 
Q 45.40625 18.265625 45.40625 27.984375 
z
M 54.390625 6.78125 
Q 54.390625 -7.171875 48.1875 -13.984375 
Q 42 -20.796875 29.203125 -20.796875 
Q 24.46875 -20.796875 20.265625 -20.09375 
Q 16.0625 -19.390625 12.109375 -17.921875 
L 12.109375 -9.1875 
Q 16.0625 -11.328125 19.921875 -12.34375 
Q 23.78125 -13.375 27.78125 -13.375 
Q 36.625 -13.375 41.015625 -8.765625 
Q 45.40625 -4.15625 45.40625 5.171875 
L 45.40625 9.625 
Q 42.625 4.78125 38.28125 2.390625 
Q 33.9375 0 27.875 0 
Q 17.828125 0 11.671875 7.65625 
Q 5.515625 15.328125 5.515625 27.984375 
Q 5.515625 40.671875 11.671875 48.328125 
Q 17.828125 56 27.875 56 
Q 33.9375 56 38.28125 53.609375 
Q 42.625 51.21875 45.40625 46.390625 
L 45.40625 54.6875 
L 54.390625 54.6875 
z
" id="DejaVuSans-103"/>
      <path d="M 10.6875 12.40625 
L 21 12.40625 
L 21 0 
L 10.6875 0 
z
" id="DejaVuSans-46"/>
      <path d="M 33.015625 40.375 
Q 26.375 40.375 22.484375 35.828125 
Q 18.609375 31.296875 18.609375 23.390625 
Q 18.609375 15.53125 22.484375 10.953125 
Q 26.375 6.390625 33.015625 6.390625 
Q 39.65625 6.390625 43.53125 10.953125 
Q 47.40625 15.53125 47.40625 23.390625 
Q 47.40625 31.296875 43.53125 35.828125 
Q 39.65625 40.375 33.015625 40.375 
z
M 52.59375 71.296875 
L 52.59375 62.3125 
Q 48.875 64.0625 45.09375 64.984375 
Q 41.3125 65.921875 37.59375 65.921875 
Q 27.828125 65.921875 22.671875 59.328125 
Q 17.53125 52.734375 16.796875 39.40625 
Q 19.671875 43.65625 24.015625 45.921875 
Q 28.375 48.1875 33.59375 48.1875 
Q 44.578125 48.1875 50.953125 41.515625 
Q 57.328125 34.859375 57.328125 23.390625 
Q 57.328125 12.15625 50.6875 5.359375 
Q 44.046875 -1.421875 33.015625 -1.421875 
Q 20.359375 -1.421875 13.671875 8.265625 
Q 6.984375 17.96875 6.984375 36.375 
Q 6.984375 53.65625 15.1875 63.9375 
Q 23.390625 74.21875 37.203125 74.21875 
Q 40.921875 74.21875 44.703125 73.484375 
Q 48.484375 72.75 52.59375 71.296875 
z
" id="DejaVuSans-54"/>
      <path d="M 8.203125 72.90625 
L 55.078125 72.90625 
L 55.078125 68.703125 
L 28.609375 0 
L 18.3125 0 
L 43.21875 64.59375 
L 8.203125 64.59375 
z
" id="DejaVuSans-55"/>
     </defs>
     <use xlink:href="#DejaVuSans-66"/>
     <use x="68.603516" xlink:href="#DejaVuSans-111"/>
     <use x="126.660156" xlink:href="#DejaVuSans-120"/>
     <use x="185.839844" xlink:href="#DejaVuSans-105"/>
     <use x="213.623047" xlink:href="#DejaVuSans-110"/>
     <use x="277.001953" xlink:href="#DejaVuSans-103"/>
     <use x="340.478516" xlink:href="#DejaVuSans-45"/>
     <use x="373.9375" xlink:href="#DejaVuSans-118"/>
     <use x="433.117188" xlink:href="#DejaVuSans-48"/>
     <use x="496.740234" xlink:href="#DejaVuSans-46"/>
     <use x="528.527344" xlink:href="#DejaVuSans-99"/>
     <use x="583.507812" xlink:href="#DejaVuSans-109"/>
     <use x="680.919922" xlink:href="#DejaVuSans-97"/>
     <use x="742.199219" xlink:href="#DejaVuSans-46"/>
     <use x="773.986328" xlink:href="#DejaVuSans-49"/>
     <use x="837.609375" xlink:href="#DejaVuSans-54"/>
     <use x="901.232422" xlink:href="#DejaVuSans-46"/>
     <use x="933.019531" xlink:href="#DejaVuSans-55"/>
    </g>
   </g>
   <g id="legend_1">
    <g id="patch_7">
     <path d="M 924.551562 167.790625 
L 1029.8 167.790625 
Q 1031.8 167.790625 1031.8 165.790625 
L 1031.8 93.4 
Q 1031.8 91.4 1029.8 91.4 
L 924.551562 91.4 
Q 922.551562 91.4 922.551562 93.4 
L 922.551562 165.790625 
Q 922.551562 167.790625 924.551562 167.790625 
z
" style="fill:#ffffff;opacity:0.8;stroke:#cccccc;stroke-linejoin:miter;"/>
    </g>
    <g id="line2d_22">
     <path d="M 926.551562 99.498438 
L 946.551562 99.498438 
" style="fill:none;stroke:#1f77b4;stroke-linecap:square;stroke-width:1.5;"/>
    </g>
    <g id="line2d_23"/>
    <g id="text_20">
     <!-- mean -->
     <g transform="translate(954.551562 102.998438)scale(0.1 -0.1)">
      <use xlink:href="#DejaVuSans-109"/>
      <use x="97.412109" xlink:href="#DejaVuSans-101"/>
      <use x="158.935547" xlink:href="#DejaVuSans-97"/>
      <use x="220.214844" xlink:href="#DejaVuSans-110"/>
     </g>
    </g>
    <g id="line2d_24">
     <path d="M 926.551562 114.176563 
L 946.551562 114.176563 
" style="fill:none;stroke:#ff7f0e;stroke-linecap:square;stroke-width:1.5;"/>
    </g>
    <g id="line2d_25"/>
    <g id="text_21">
     <!-- min -->
     <g transform="translate(954.551562 117.676563)scale(0.1 -0.1)">
      <use xlink:href="#DejaVuSans-109"/>
      <use x="97.412109" xlink:href="#DejaVuSans-105"/>
      <use x="125.195312" xlink:href="#DejaVuSans-110"/>
     </g>
    </g>
    <g id="line2d_26">
     <path d="M 926.551562 128.854688 
L 946.551562 128.854688 
" style="fill:none;stroke:#2ca02c;stroke-linecap:square;stroke-width:1.5;"/>
    </g>
    <g id="line2d_27"/>
    <g id="text_22">
     <!-- max -->
     <g transform="translate(954.551562 132.354688)scale(0.1 -0.1)">
      <use xlink:href="#DejaVuSans-109"/>
      <use x="97.412109" xlink:href="#DejaVuSans-97"/>
      <use x="158.691406" xlink:href="#DejaVuSans-120"/>
     </g>
    </g>
    <g id="line2d_28">
     <path d="M 926.551562 143.532812 
L 946.551562 143.532812 
" style="fill:none;stroke:#9467bd;stroke-linecap:square;stroke-width:1.5;"/>
    </g>
    <g id="line2d_29"/>
    <g id="text_23">
     <!-- requirement -->
     <g transform="translate(954.551562 147.032812)scale(0.1 -0.1)">
      <defs>
       <path d="M 14.796875 27.296875 
Q 14.796875 17.390625 18.875 11.75 
Q 22.953125 6.109375 30.078125 6.109375 
Q 37.203125 6.109375 41.296875 11.75 
Q 45.40625 17.390625 45.40625 27.296875 
Q 45.40625 37.203125 41.296875 42.84375 
Q 37.203125 48.484375 30.078125 48.484375 
Q 22.953125 48.484375 18.875 42.84375 
Q 14.796875 37.203125 14.796875 27.296875 
z
M 45.40625 8.203125 
Q 42.578125 3.328125 38.25 0.953125 
Q 33.9375 -1.421875 27.875 -1.421875 
Q 17.96875 -1.421875 11.734375 6.484375 
Q 5.515625 14.40625 5.515625 27.296875 
Q 5.515625 40.1875 11.734375 48.09375 
Q 17.96875 56 27.875 56 
Q 33.9375 56 38.25 53.625 
Q 42.578125 51.265625 45.40625 46.390625 
L 45.40625 54.6875 
L 54.390625 54.6875 
L 54.390625 -20.796875 
L 45.40625 -20.796875 
z
" id="DejaVuSans-113"/>
      </defs>
      <use xlink:href="#DejaVuSans-114"/>
      <use x="38.863281" xlink:href="#DejaVuSans-101"/>
      <use x="100.386719" xlink:href="#DejaVuSans-113"/>
      <use x="163.863281" xlink:href="#DejaVuSans-117"/>
      <use x="227.242188" xlink:href="#DejaVuSans-105"/>
      <use x="255.025391" xlink:href="#DejaVuSans-114"/>
      <use x="293.888672" xlink:href="#DejaVuSans-101"/>
      <use x="355.412109" xlink:href="#DejaVuSans-109"/>
      <use x="452.824219" xlink:href="#DejaVuSans-101"/>
      <use x="514.347656" xlink:href="#DejaVuSans-110"/>
      <use x="577.726562" xlink:href="#DejaVuSans-116"/>
     </g>
    </g>
    <g id="line2d_30">
     <path d="M 926.551562 158.210938 
L 946.551562 158.210938 
" style="fill:none;stroke:#d62728;stroke-linecap:square;stroke-width:1.5;"/>
    </g>
    <g id="line2d_31"/>
    <g id="text_24">
     <!-- best avg score -->
     <g transform="translate(954.551562 161.710938)scale(0.1 -0.1)">
      <defs>
       <path d="M 48.6875 27.296875 
Q 48.6875 37.203125 44.609375 42.84375 
Q 40.53125 48.484375 33.40625 48.484375 
Q 26.265625 48.484375 22.1875 42.84375 
Q 18.109375 37.203125 18.109375 27.296875 
Q 18.109375 17.390625 22.1875 11.75 
Q 26.265625 6.109375 33.40625 6.109375 
Q 40.53125 6.109375 44.609375 11.75 
Q 48.6875 17.390625 48.6875 27.296875 
z
M 18.109375 46.390625 
Q 20.953125 51.265625 25.265625 53.625 
Q 29.59375 56 35.59375 56 
Q 45.5625 56 51.78125 48.09375 
Q 58.015625 40.1875 58.015625 27.296875 
Q 58.015625 14.40625 51.78125 6.484375 
Q 45.5625 -1.421875 35.59375 -1.421875 
Q 29.59375 -1.421875 25.265625 0.953125 
Q 20.953125 3.328125 18.109375 8.203125 
L 18.109375 0 
L 9.078125 0 
L 9.078125 75.984375 
L 18.109375 75.984375 
z
" id="DejaVuSans-98"/>
      </defs>
      <use xlink:href="#DejaVuSans-98"/>
      <use x="63.476562" xlink:href="#DejaVuSans-101"/>
      <use x="125" xlink:href="#DejaVuSans-115"/>
      <use x="177.099609" xlink:href="#DejaVuSans-116"/>
      <use x="216.308594" xlink:href="#DejaVuSans-32"/>
      <use x="248.095703" xlink:href="#DejaVuSans-97"/>
      <use x="309.375" xlink:href="#DejaVuSans-118"/>
      <use x="368.554688" xlink:href="#DejaVuSans-103"/>
      <use x="432.03125" xlink:href="#DejaVuSans-32"/>
      <use x="463.818359" xlink:href="#DejaVuSans-115"/>
      <use x="515.917969" xlink:href="#DejaVuSans-99"/>
      <use x="570.898438" xlink:href="#DejaVuSans-111"/>
      <use x="632.080078" xlink:href="#DejaVuSans-114"/>
      <use x="670.943359" xlink:href="#DejaVuSans-101"/>
     </g>
    </g>
   </g>
  </g>
 </g>
 <defs>
  <clipPath id="p550f88f0a9">
   <rect height="543.6" width="892.8" x="144" y="86.4"/>
  </clipPath>
 </defs>
</svg>
