<?xml version="1.0" encoding="utf-8" standalone="no"?>
<!DOCTYPE svg PUBLIC "-//W3C//DTD SVG 1.1//EN"
  "http://www.w3.org/Graphics/SVG/1.1/DTD/svg11.dtd">
<!-- Created with matplotlib (https://matplotlib.org/) -->
<svg height="360pt" version="1.1" viewBox="0 0 576 360" width="576pt" xmlns="http://www.w3.org/2000/svg" xmlns:xlink="http://www.w3.org/1999/xlink">
 <metadata>
  <rdf:RDF xmlns:cc="http://creativecommons.org/ns#" xmlns:dc="http://purl.org/dc/elements/1.1/" xmlns:rdf="http://www.w3.org/1999/02/22-rdf-syntax-ns#">
   <cc:Work>
    <dc:type rdf:resource="http://purl.org/dc/dcmitype/StillImage"/>
    <dc:date>2021-03-06T14:42:51.472221</dc:date>
    <dc:format>image/svg+xml</dc:format>
    <dc:creator>
     <cc:Agent>
      <dc:title>Matplotlib v3.3.3, https://matplotlib.org/</dc:title>
     </cc:Agent>
    </dc:creator>
   </cc:Work>
  </rdf:RDF>
 </metadata>
 <defs>
  <style type="text/css">*{stroke-linecap:butt;stroke-linejoin:round;}</style>
 </defs>
 <g id="figure_1">
  <g id="patch_1">
   <path d="M 0 360 
L 576 360 
L 576 0 
L 0 0 
z
" style="fill:#ffffff;"/>
  </g>
  <g id="axes_1">
   <g id="patch_2">
    <path d="M 72 315 
L 518.4 315 
L 518.4 43.2 
L 72 43.2 
z
" style="fill:#ffffff;"/>
   </g>
   <g id="matplotlib.axis_1">
    <g id="xtick_1">
     <g id="line2d_1">
      <defs>
       <path d="M 0 0 
L 0 3.5 
" id="m710ca173c8" style="stroke:#000000;stroke-width:0.8;"/>
      </defs>
      <g>
       <use style="stroke:#000000;stroke-width:0.8;" x="72.595833" xlink:href="#m710ca173c8" y="315"/>
      </g>
     </g>
     <g id="text_1">
      <!-- 0 -->
      <g transform="translate(69.414583 329.598437)scale(0.1 -0.1)">
       <defs>
        <path d="M 31.78125 66.40625 
Q 24.171875 66.40625 20.328125 58.90625 
Q 16.5 51.421875 16.5 36.375 
Q 16.5 21.390625 20.328125 13.890625 
Q 24.171875 6.390625 31.78125 6.390625 
Q 39.453125 6.390625 43.28125 13.890625 
Q 47.125 21.390625 47.125 36.375 
Q 47.125 51.421875 43.28125 58.90625 
Q 39.453125 66.40625 31.78125 66.40625 
z
M 31.78125 74.21875 
Q 44.046875 74.21875 50.515625 64.515625 
Q 56.984375 54.828125 56.984375 36.375 
Q 56.984375 17.96875 50.515625 8.265625 
Q 44.046875 -1.421875 31.78125 -1.421875 
Q 19.53125 -1.421875 13.0625 8.265625 
Q 6.59375 17.96875 6.59375 36.375 
Q 6.59375 54.828125 13.0625 64.515625 
Q 19.53125 74.21875 31.78125 74.21875 
z
" id="DejaVuSans-48"/>
       </defs>
       <use xlink:href="#DejaVuSans-48"/>
      </g>
     </g>
    </g>
    <g id="xtick_2">
     <g id="line2d_2">
      <g>
       <use style="stroke:#000000;stroke-width:0.8;" x="122.129629" xlink:href="#m710ca173c8" y="315"/>
      </g>
     </g>
     <g id="text_2">
      <!-- 5 -->
      <g transform="translate(118.948379 329.598437)scale(0.1 -0.1)">
       <defs>
        <path d="M 10.796875 72.90625 
L 49.515625 72.90625 
L 49.515625 64.59375 
L 19.828125 64.59375 
L 19.828125 46.734375 
Q 21.96875 47.46875 24.109375 47.828125 
Q 26.265625 48.1875 28.421875 48.1875 
Q 40.625 48.1875 47.75 41.5 
Q 54.890625 34.8125 54.890625 23.390625 
Q 54.890625 11.625 47.5625 5.09375 
Q 40.234375 -1.421875 26.90625 -1.421875 
Q 22.3125 -1.421875 17.546875 -0.640625 
Q 12.796875 0.140625 7.71875 1.703125 
L 7.71875 11.625 
Q 12.109375 9.234375 16.796875 8.0625 
Q 21.484375 6.890625 26.703125 6.890625 
Q 35.15625 6.890625 40.078125 11.328125 
Q 45.015625 15.765625 45.015625 23.390625 
Q 45.015625 31 40.078125 35.4375 
Q 35.15625 39.890625 26.703125 39.890625 
Q 22.75 39.890625 18.8125 39.015625 
Q 14.890625 38.140625 10.796875 36.28125 
z
" id="DejaVuSans-53"/>
       </defs>
       <use xlink:href="#DejaVuSans-53"/>
      </g>
     </g>
    </g>
    <g id="xtick_3">
     <g id="line2d_3">
      <g>
       <use style="stroke:#000000;stroke-width:0.8;" x="171.663426" xlink:href="#m710ca173c8" y="315"/>
      </g>
     </g>
     <g id="text_3">
      <!-- 10 -->
      <g transform="translate(165.300926 329.598437)scale(0.1 -0.1)">
       <defs>
        <path d="M 12.40625 8.296875 
L 28.515625 8.296875 
L 28.515625 63.921875 
L 10.984375 60.40625 
L 10.984375 69.390625 
L 28.421875 72.90625 
L 38.28125 72.90625 
L 38.28125 8.296875 
L 54.390625 8.296875 
L 54.390625 0 
L 12.40625 0 
z
" id="DejaVuSans-49"/>
       </defs>
       <use xlink:href="#DejaVuSans-49"/>
       <use x="63.623047" xlink:href="#DejaVuSans-48"/>
      </g>
     </g>
    </g>
    <g id="xtick_4">
     <g id="line2d_4">
      <g>
       <use style="stroke:#000000;stroke-width:0.8;" x="221.197222" xlink:href="#m710ca173c8" y="315"/>
      </g>
     </g>
     <g id="text_4">
      <!-- 15 -->
      <g transform="translate(214.834722 329.598437)scale(0.1 -0.1)">
       <use xlink:href="#DejaVuSans-49"/>
       <use x="63.623047" xlink:href="#DejaVuSans-53"/>
      </g>
     </g>
    </g>
    <g id="xtick_5">
     <g id="line2d_5">
      <g>
       <use style="stroke:#000000;stroke-width:0.8;" x="270.731018" xlink:href="#m710ca173c8" y="315"/>
      </g>
     </g>
     <g id="text_5">
      <!-- 20 -->
      <g transform="translate(264.368518 329.598437)scale(0.1 -0.1)">
       <defs>
        <path d="M 19.1875 8.296875 
L 53.609375 8.296875 
L 53.609375 0 
L 7.328125 0 
L 7.328125 8.296875 
Q 12.9375 14.109375 22.625 23.890625 
Q 32.328125 33.6875 34.8125 36.53125 
Q 39.546875 41.84375 41.421875 45.53125 
Q 43.3125 49.21875 43.3125 52.78125 
Q 43.3125 58.59375 39.234375 62.25 
Q 35.15625 65.921875 28.609375 65.921875 
Q 23.96875 65.921875 18.8125 64.3125 
Q 13.671875 62.703125 7.8125 59.421875 
L 7.8125 69.390625 
Q 13.765625 71.78125 18.9375 73 
Q 24.125 74.21875 28.421875 74.21875 
Q 39.75 74.21875 46.484375 68.546875 
Q 53.21875 62.890625 53.21875 53.421875 
Q 53.21875 48.921875 51.53125 44.890625 
Q 49.859375 40.875 45.40625 35.40625 
Q 44.1875 33.984375 37.640625 27.21875 
Q 31.109375 20.453125 19.1875 8.296875 
z
" id="DejaVuSans-50"/>
       </defs>
       <use xlink:href="#DejaVuSans-50"/>
       <use x="63.623047" xlink:href="#DejaVuSans-48"/>
      </g>
     </g>
    </g>
    <g id="xtick_6">
     <g id="line2d_6">
      <g>
       <use style="stroke:#000000;stroke-width:0.8;" x="320.264815" xlink:href="#m710ca173c8" y="315"/>
      </g>
     </g>
     <g id="text_6">
      <!-- 25 -->
      <g transform="translate(313.902315 329.598437)scale(0.1 -0.1)">
       <use xlink:href="#DejaVuSans-50"/>
       <use x="63.623047" xlink:href="#DejaVuSans-53"/>
      </g>
     </g>
    </g>
    <g id="xtick_7">
     <g id="line2d_7">
      <g>
       <use style="stroke:#000000;stroke-width:0.8;" x="369.798611" xlink:href="#m710ca173c8" y="315"/>
      </g>
     </g>
     <g id="text_7">
      <!-- 30 -->
      <g transform="translate(363.436111 329.598437)scale(0.1 -0.1)">
       <defs>
        <path d="M 40.578125 39.3125 
Q 47.65625 37.796875 51.625 33 
Q 55.609375 28.21875 55.609375 21.1875 
Q 55.609375 10.40625 48.1875 4.484375 
Q 40.765625 -1.421875 27.09375 -1.421875 
Q 22.515625 -1.421875 17.65625 -0.515625 
Q 12.796875 0.390625 7.625 2.203125 
L 7.625 11.71875 
Q 11.71875 9.328125 16.59375 8.109375 
Q 21.484375 6.890625 26.8125 6.890625 
Q 36.078125 6.890625 40.9375 10.546875 
Q 45.796875 14.203125 45.796875 21.1875 
Q 45.796875 27.640625 41.28125 31.265625 
Q 36.765625 34.90625 28.71875 34.90625 
L 20.21875 34.90625 
L 20.21875 43.015625 
L 29.109375 43.015625 
Q 36.375 43.015625 40.234375 45.921875 
Q 44.09375 48.828125 44.09375 54.296875 
Q 44.09375 59.90625 40.109375 62.90625 
Q 36.140625 65.921875 28.71875 65.921875 
Q 24.65625 65.921875 20.015625 65.03125 
Q 15.375 64.15625 9.8125 62.3125 
L 9.8125 71.09375 
Q 15.4375 72.65625 20.34375 73.4375 
Q 25.25 74.21875 29.59375 74.21875 
Q 40.828125 74.21875 47.359375 69.109375 
Q 53.90625 64.015625 53.90625 55.328125 
Q 53.90625 49.265625 50.4375 45.09375 
Q 46.96875 40.921875 40.578125 39.3125 
z
" id="DejaVuSans-51"/>
       </defs>
       <use xlink:href="#DejaVuSans-51"/>
       <use x="63.623047" xlink:href="#DejaVuSans-48"/>
      </g>
     </g>
    </g>
    <g id="xtick_8">
     <g id="line2d_8">
      <g>
       <use style="stroke:#000000;stroke-width:0.8;" x="419.332407" xlink:href="#m710ca173c8" y="315"/>
      </g>
     </g>
     <g id="text_8">
      <!-- 35 -->
      <g transform="translate(412.969907 329.598437)scale(0.1 -0.1)">
       <use xlink:href="#DejaVuSans-51"/>
       <use x="63.623047" xlink:href="#DejaVuSans-53"/>
      </g>
     </g>
    </g>
    <g id="xtick_9">
     <g id="line2d_9">
      <g>
       <use style="stroke:#000000;stroke-width:0.8;" x="468.866204" xlink:href="#m710ca173c8" y="315"/>
      </g>
     </g>
     <g id="text_9">
      <!-- 40 -->
      <g transform="translate(462.503704 329.598437)scale(0.1 -0.1)">
       <defs>
        <path d="M 37.796875 64.3125 
L 12.890625 25.390625 
L 37.796875 25.390625 
z
M 35.203125 72.90625 
L 47.609375 72.90625 
L 47.609375 25.390625 
L 58.015625 25.390625 
L 58.015625 17.1875 
L 47.609375 17.1875 
L 47.609375 0 
L 37.796875 0 
L 37.796875 17.1875 
L 4.890625 17.1875 
L 4.890625 26.703125 
z
" id="DejaVuSans-52"/>
       </defs>
       <use xlink:href="#DejaVuSans-52"/>
       <use x="63.623047" xlink:href="#DejaVuSans-48"/>
      </g>
     </g>
    </g>
    <g id="xtick_10">
     <g id="line2d_10">
      <g>
       <use style="stroke:#000000;stroke-width:0.8;" x="518.4" xlink:href="#m710ca173c8" y="315"/>
      </g>
     </g>
     <g id="text_10">
      <!-- 45 -->
      <g transform="translate(512.0375 329.598437)scale(0.1 -0.1)">
       <use xlink:href="#DejaVuSans-52"/>
       <use x="63.623047" xlink:href="#DejaVuSans-53"/>
      </g>
     </g>
    </g>
    <g id="text_11">
     <!-- wall-clock time (days) -->
     <g transform="translate(240.444531 343.276563)scale(0.1 -0.1)">
      <defs>
       <path d="M 4.203125 54.6875 
L 13.1875 54.6875 
L 24.421875 12.015625 
L 35.59375 54.6875 
L 46.1875 54.6875 
L 57.421875 12.015625 
L 68.609375 54.6875 
L 77.59375 54.6875 
L 63.28125 0 
L 52.6875 0 
L 40.921875 44.828125 
L 29.109375 0 
L 18.5 0 
z
" id="DejaVuSans-119"/>
       <path d="M 34.28125 27.484375 
Q 23.390625 27.484375 19.1875 25 
Q 14.984375 22.515625 14.984375 16.5 
Q 14.984375 11.71875 18.140625 8.90625 
Q 21.296875 6.109375 26.703125 6.109375 
Q 34.1875 6.109375 38.703125 11.40625 
Q 43.21875 16.703125 43.21875 25.484375 
L 43.21875 27.484375 
z
M 52.203125 31.203125 
L 52.203125 0 
L 43.21875 0 
L 43.21875 8.296875 
Q 40.140625 3.328125 35.546875 0.953125 
Q 30.953125 -1.421875 24.3125 -1.421875 
Q 15.921875 -1.421875 10.953125 3.296875 
Q 6 8.015625 6 15.921875 
Q 6 25.140625 12.171875 29.828125 
Q 18.359375 34.515625 30.609375 34.515625 
L 43.21875 34.515625 
L 43.21875 35.40625 
Q 43.21875 41.609375 39.140625 45 
Q 35.0625 48.390625 27.6875 48.390625 
Q 23 48.390625 18.546875 47.265625 
Q 14.109375 46.140625 10.015625 43.890625 
L 10.015625 52.203125 
Q 14.9375 54.109375 19.578125 55.046875 
Q 24.21875 56 28.609375 56 
Q 40.484375 56 46.34375 49.84375 
Q 52.203125 43.703125 52.203125 31.203125 
z
" id="DejaVuSans-97"/>
       <path d="M 9.421875 75.984375 
L 18.40625 75.984375 
L 18.40625 0 
L 9.421875 0 
z
" id="DejaVuSans-108"/>
       <path d="M 4.890625 31.390625 
L 31.203125 31.390625 
L 31.203125 23.390625 
L 4.890625 23.390625 
z
" id="DejaVuSans-45"/>
       <path d="M 48.78125 52.59375 
L 48.78125 44.1875 
Q 44.96875 46.296875 41.140625 47.34375 
Q 37.3125 48.390625 33.40625 48.390625 
Q 24.65625 48.390625 19.8125 42.84375 
Q 14.984375 37.3125 14.984375 27.296875 
Q 14.984375 17.28125 19.8125 11.734375 
Q 24.65625 6.203125 33.40625 6.203125 
Q 37.3125 6.203125 41.140625 7.25 
Q 44.96875 8.296875 48.78125 10.40625 
L 48.78125 2.09375 
Q 45.015625 0.34375 40.984375 -0.53125 
Q 36.96875 -1.421875 32.421875 -1.421875 
Q 20.0625 -1.421875 12.78125 6.34375 
Q 5.515625 14.109375 5.515625 27.296875 
Q 5.515625 40.671875 12.859375 48.328125 
Q 20.21875 56 33.015625 56 
Q 37.15625 56 41.109375 55.140625 
Q 45.0625 54.296875 48.78125 52.59375 
z
" id="DejaVuSans-99"/>
       <path d="M 30.609375 48.390625 
Q 23.390625 48.390625 19.1875 42.75 
Q 14.984375 37.109375 14.984375 27.296875 
Q 14.984375 17.484375 19.15625 11.84375 
Q 23.34375 6.203125 30.609375 6.203125 
Q 37.796875 6.203125 41.984375 11.859375 
Q 46.1875 17.53125 46.1875 27.296875 
Q 46.1875 37.015625 41.984375 42.703125 
Q 37.796875 48.390625 30.609375 48.390625 
z
M 30.609375 56 
Q 42.328125 56 49.015625 48.375 
Q 55.71875 40.765625 55.71875 27.296875 
Q 55.71875 13.875 49.015625 6.21875 
Q 42.328125 -1.421875 30.609375 -1.421875 
Q 18.84375 -1.421875 12.171875 6.21875 
Q 5.515625 13.875 5.515625 27.296875 
Q 5.515625 40.765625 12.171875 48.375 
Q 18.84375 56 30.609375 56 
z
" id="DejaVuSans-111"/>
       <path d="M 9.078125 75.984375 
L 18.109375 75.984375 
L 18.109375 31.109375 
L 44.921875 54.6875 
L 56.390625 54.6875 
L 27.390625 29.109375 
L 57.625 0 
L 45.90625 0 
L 18.109375 26.703125 
L 18.109375 0 
L 9.078125 0 
z
" id="DejaVuSans-107"/>
       <path id="DejaVuSans-32"/>
       <path d="M 18.3125 70.21875 
L 18.3125 54.6875 
L 36.8125 54.6875 
L 36.8125 47.703125 
L 18.3125 47.703125 
L 18.3125 18.015625 
Q 18.3125 11.328125 20.140625 9.421875 
Q 21.96875 7.515625 27.59375 7.515625 
L 36.8125 7.515625 
L 36.8125 0 
L 27.59375 0 
Q 17.1875 0 13.234375 3.875 
Q 9.28125 7.765625 9.28125 18.015625 
L 9.28125 47.703125 
L 2.6875 47.703125 
L 2.6875 54.6875 
L 9.28125 54.6875 
L 9.28125 70.21875 
z
" id="DejaVuSans-116"/>
       <path d="M 9.421875 54.6875 
L 18.40625 54.6875 
L 18.40625 0 
L 9.421875 0 
z
M 9.421875 75.984375 
L 18.40625 75.984375 
L 18.40625 64.59375 
L 9.421875 64.59375 
z
" id="DejaVuSans-105"/>
       <path d="M 52 44.1875 
Q 55.375 50.25 60.0625 53.125 
Q 64.75 56 71.09375 56 
Q 79.640625 56 84.28125 50.015625 
Q 88.921875 44.046875 88.921875 33.015625 
L 88.921875 0 
L 79.890625 0 
L 79.890625 32.71875 
Q 79.890625 40.578125 77.09375 44.375 
Q 74.3125 48.1875 68.609375 48.1875 
Q 61.625 48.1875 57.5625 43.546875 
Q 53.515625 38.921875 53.515625 30.90625 
L 53.515625 0 
L 44.484375 0 
L 44.484375 32.71875 
Q 44.484375 40.625 41.703125 44.40625 
Q 38.921875 48.1875 33.109375 48.1875 
Q 26.21875 48.1875 22.15625 43.53125 
Q 18.109375 38.875 18.109375 30.90625 
L 18.109375 0 
L 9.078125 0 
L 9.078125 54.6875 
L 18.109375 54.6875 
L 18.109375 46.1875 
Q 21.1875 51.21875 25.484375 53.609375 
Q 29.78125 56 35.6875 56 
Q 41.65625 56 45.828125 52.96875 
Q 50 49.953125 52 44.1875 
z
" id="DejaVuSans-109"/>
       <path d="M 56.203125 29.59375 
L 56.203125 25.203125 
L 14.890625 25.203125 
Q 15.484375 15.921875 20.484375 11.0625 
Q 25.484375 6.203125 34.421875 6.203125 
Q 39.59375 6.203125 44.453125 7.46875 
Q 49.3125 8.734375 54.109375 11.28125 
L 54.109375 2.78125 
Q 49.265625 0.734375 44.1875 -0.34375 
Q 39.109375 -1.421875 33.890625 -1.421875 
Q 20.796875 -1.421875 13.15625 6.1875 
Q 5.515625 13.8125 5.515625 26.8125 
Q 5.515625 40.234375 12.765625 48.109375 
Q 20.015625 56 32.328125 56 
Q 43.359375 56 49.78125 48.890625 
Q 56.203125 41.796875 56.203125 29.59375 
z
M 47.21875 32.234375 
Q 47.125 39.59375 43.09375 43.984375 
Q 39.0625 48.390625 32.421875 48.390625 
Q 24.90625 48.390625 20.390625 44.140625 
Q 15.875 39.890625 15.1875 32.171875 
z
" id="DejaVuSans-101"/>
       <path d="M 31 75.875 
Q 24.46875 64.65625 21.28125 53.65625 
Q 18.109375 42.671875 18.109375 31.390625 
Q 18.109375 20.125 21.3125 9.0625 
Q 24.515625 -2 31 -13.1875 
L 23.1875 -13.1875 
Q 15.875 -1.703125 12.234375 9.375 
Q 8.59375 20.453125 8.59375 31.390625 
Q 8.59375 42.28125 12.203125 53.3125 
Q 15.828125 64.359375 23.1875 75.875 
z
" id="DejaVuSans-40"/>
       <path d="M 45.40625 46.390625 
L 45.40625 75.984375 
L 54.390625 75.984375 
L 54.390625 0 
L 45.40625 0 
L 45.40625 8.203125 
Q 42.578125 3.328125 38.25 0.953125 
Q 33.9375 -1.421875 27.875 -1.421875 
Q 17.96875 -1.421875 11.734375 6.484375 
Q 5.515625 14.40625 5.515625 27.296875 
Q 5.515625 40.1875 11.734375 48.09375 
Q 17.96875 56 27.875 56 
Q 33.9375 56 38.25 53.625 
Q 42.578125 51.265625 45.40625 46.390625 
z
M 14.796875 27.296875 
Q 14.796875 17.390625 18.875 11.75 
Q 22.953125 6.109375 30.078125 6.109375 
Q 37.203125 6.109375 41.296875 11.75 
Q 45.40625 17.390625 45.40625 27.296875 
Q 45.40625 37.203125 41.296875 42.84375 
Q 37.203125 48.484375 30.078125 48.484375 
Q 22.953125 48.484375 18.875 42.84375 
Q 14.796875 37.203125 14.796875 27.296875 
z
" id="DejaVuSans-100"/>
       <path d="M 32.171875 -5.078125 
Q 28.375 -14.84375 24.75 -17.8125 
Q 21.140625 -20.796875 15.09375 -20.796875 
L 7.90625 -20.796875 
L 7.90625 -13.28125 
L 13.1875 -13.28125 
Q 16.890625 -13.28125 18.9375 -11.515625 
Q 21 -9.765625 23.484375 -3.21875 
L 25.09375 0.875 
L 2.984375 54.6875 
L 12.5 54.6875 
L 29.59375 11.921875 
L 46.6875 54.6875 
L 56.203125 54.6875 
z
" id="DejaVuSans-121"/>
       <path d="M 44.28125 53.078125 
L 44.28125 44.578125 
Q 40.484375 46.53125 36.375 47.5 
Q 32.28125 48.484375 27.875 48.484375 
Q 21.1875 48.484375 17.84375 46.4375 
Q 14.5 44.390625 14.5 40.28125 
Q 14.5 37.15625 16.890625 35.375 
Q 19.28125 33.59375 26.515625 31.984375 
L 29.59375 31.296875 
Q 39.15625 29.25 43.1875 25.515625 
Q 47.21875 21.78125 47.21875 15.09375 
Q 47.21875 7.46875 41.1875 3.015625 
Q 35.15625 -1.421875 24.609375 -1.421875 
Q 20.21875 -1.421875 15.453125 -0.5625 
Q 10.6875 0.296875 5.421875 2 
L 5.421875 11.28125 
Q 10.40625 8.6875 15.234375 7.390625 
Q 20.0625 6.109375 24.8125 6.109375 
Q 31.15625 6.109375 34.5625 8.28125 
Q 37.984375 10.453125 37.984375 14.40625 
Q 37.984375 18.0625 35.515625 20.015625 
Q 33.0625 21.96875 24.703125 23.78125 
L 21.578125 24.515625 
Q 13.234375 26.265625 9.515625 29.90625 
Q 5.8125 33.546875 5.8125 39.890625 
Q 5.8125 47.609375 11.28125 51.796875 
Q 16.75 56 26.8125 56 
Q 31.78125 56 36.171875 55.265625 
Q 40.578125 54.546875 44.28125 53.078125 
z
" id="DejaVuSans-115"/>
       <path d="M 8.015625 75.875 
L 15.828125 75.875 
Q 23.140625 64.359375 26.78125 53.3125 
Q 30.421875 42.28125 30.421875 31.390625 
Q 30.421875 20.453125 26.78125 9.375 
Q 23.140625 -1.703125 15.828125 -13.1875 
L 8.015625 -13.1875 
Q 14.5 -2 17.703125 9.0625 
Q 20.90625 20.125 20.90625 31.390625 
Q 20.90625 42.671875 17.703125 53.65625 
Q 14.5 64.65625 8.015625 75.875 
z
" id="DejaVuSans-41"/>
      </defs>
      <use xlink:href="#DejaVuSans-119"/>
      <use x="81.787109" xlink:href="#DejaVuSans-97"/>
      <use x="143.066406" xlink:href="#DejaVuSans-108"/>
      <use x="170.849609" xlink:href="#DejaVuSans-108"/>
      <use x="198.632812" xlink:href="#DejaVuSans-45"/>
      <use x="234.716797" xlink:href="#DejaVuSans-99"/>
      <use x="289.697266" xlink:href="#DejaVuSans-108"/>
      <use x="317.480469" xlink:href="#DejaVuSans-111"/>
      <use x="378.662109" xlink:href="#DejaVuSans-99"/>
      <use x="433.642578" xlink:href="#DejaVuSans-107"/>
      <use x="491.552734" xlink:href="#DejaVuSans-32"/>
      <use x="523.339844" xlink:href="#DejaVuSans-116"/>
      <use x="562.548828" xlink:href="#DejaVuSans-105"/>
      <use x="590.332031" xlink:href="#DejaVuSans-109"/>
      <use x="687.744141" xlink:href="#DejaVuSans-101"/>
      <use x="749.267578" xlink:href="#DejaVuSans-32"/>
      <use x="781.054688" xlink:href="#DejaVuSans-40"/>
      <use x="820.068359" xlink:href="#DejaVuSans-100"/>
      <use x="883.544922" xlink:href="#DejaVuSans-97"/>
      <use x="944.824219" xlink:href="#DejaVuSans-121"/>
      <use x="1004.003906" xlink:href="#DejaVuSans-115"/>
      <use x="1056.103516" xlink:href="#DejaVuSans-41"/>
     </g>
    </g>
   </g>
   <g id="matplotlib.axis_2">
    <g id="ytick_1">
     <g id="line2d_11">
      <defs>
       <path d="M 0 0 
L -3.5 0 
" id="m3d84667143" style="stroke:#000000;stroke-width:0.8;"/>
      </defs>
      <g>
       <use style="stroke:#000000;stroke-width:0.8;" x="72" xlink:href="#m3d84667143" y="284.342424"/>
      </g>
     </g>
     <g id="text_12">
      <!-- −50 -->
      <g transform="translate(43.895313 288.141643)scale(0.1 -0.1)">
       <defs>
        <path d="M 10.59375 35.5 
L 73.1875 35.5 
L 73.1875 27.203125 
L 10.59375 27.203125 
z
" id="DejaVuSans-8722"/>
       </defs>
       <use xlink:href="#DejaVuSans-8722"/>
       <use x="83.789062" xlink:href="#DejaVuSans-53"/>
       <use x="147.412109" xlink:href="#DejaVuSans-48"/>
      </g>
     </g>
    </g>
    <g id="ytick_2">
     <g id="line2d_12">
      <g>
       <use style="stroke:#000000;stroke-width:0.8;" x="72" xlink:href="#m3d84667143" y="246.211111"/>
      </g>
     </g>
     <g id="text_13">
      <!-- −25 -->
      <g transform="translate(43.895313 250.01033)scale(0.1 -0.1)">
       <use xlink:href="#DejaVuSans-8722"/>
       <use x="83.789062" xlink:href="#DejaVuSans-50"/>
       <use x="147.412109" xlink:href="#DejaVuSans-53"/>
      </g>
     </g>
    </g>
    <g id="ytick_3">
     <g id="line2d_13">
      <g>
       <use style="stroke:#000000;stroke-width:0.8;" x="72" xlink:href="#m3d84667143" y="208.079798"/>
      </g>
     </g>
     <g id="text_14">
      <!-- 0 -->
      <g transform="translate(58.6375 211.879017)scale(0.1 -0.1)">
       <use xlink:href="#DejaVuSans-48"/>
      </g>
     </g>
    </g>
    <g id="ytick_4">
     <g id="line2d_14">
      <g>
       <use style="stroke:#000000;stroke-width:0.8;" x="72" xlink:href="#m3d84667143" y="169.948485"/>
      </g>
     </g>
     <g id="text_15">
      <!-- 25 -->
      <g transform="translate(52.275 173.747704)scale(0.1 -0.1)">
       <use xlink:href="#DejaVuSans-50"/>
       <use x="63.623047" xlink:href="#DejaVuSans-53"/>
      </g>
     </g>
    </g>
    <g id="ytick_5">
     <g id="line2d_15">
      <g>
       <use style="stroke:#000000;stroke-width:0.8;" x="72" xlink:href="#m3d84667143" y="131.817172"/>
      </g>
     </g>
     <g id="text_16">
      <!-- 50 -->
      <g transform="translate(52.275 135.61639)scale(0.1 -0.1)">
       <use xlink:href="#DejaVuSans-53"/>
       <use x="63.623047" xlink:href="#DejaVuSans-48"/>
      </g>
     </g>
    </g>
    <g id="ytick_6">
     <g id="line2d_16">
      <g>
       <use style="stroke:#000000;stroke-width:0.8;" x="72" xlink:href="#m3d84667143" y="93.685859"/>
      </g>
     </g>
     <g id="text_17">
      <!-- 75 -->
      <g transform="translate(52.275 97.485077)scale(0.1 -0.1)">
       <defs>
        <path d="M 8.203125 72.90625 
L 55.078125 72.90625 
L 55.078125 68.703125 
L 28.609375 0 
L 18.3125 0 
L 43.21875 64.59375 
L 8.203125 64.59375 
z
" id="DejaVuSans-55"/>
       </defs>
       <use xlink:href="#DejaVuSans-55"/>
       <use x="63.623047" xlink:href="#DejaVuSans-53"/>
      </g>
     </g>
    </g>
    <g id="ytick_7">
     <g id="line2d_17">
      <g>
       <use style="stroke:#000000;stroke-width:0.8;" x="72" xlink:href="#m3d84667143" y="55.554545"/>
      </g>
     </g>
     <g id="text_18">
      <!-- 100 -->
      <g transform="translate(45.9125 59.353764)scale(0.1 -0.1)">
       <use xlink:href="#DejaVuSans-49"/>
       <use x="63.623047" xlink:href="#DejaVuSans-48"/>
       <use x="127.246094" xlink:href="#DejaVuSans-48"/>
      </g>
     </g>
    </g>
    <g id="text_19">
     <!-- cumulative reward -->
     <g transform="translate(37.815625 225.799219)rotate(-90)scale(0.1 -0.1)">
      <defs>
       <path d="M 8.5 21.578125 
L 8.5 54.6875 
L 17.484375 54.6875 
L 17.484375 21.921875 
Q 17.484375 14.15625 20.5 10.265625 
Q 23.53125 6.390625 29.59375 6.390625 
Q 36.859375 6.390625 41.078125 11.03125 
Q 45.3125 15.671875 45.3125 23.6875 
L 45.3125 54.6875 
L 54.296875 54.6875 
L 54.296875 0 
L 45.3125 0 
L 45.3125 8.40625 
Q 42.046875 3.421875 37.71875 1 
Q 33.40625 -1.421875 27.6875 -1.421875 
Q 18.265625 -1.421875 13.375 4.4375 
Q 8.5 10.296875 8.5 21.578125 
z
M 31.109375 56 
z
" id="DejaVuSans-117"/>
       <path d="M 2.984375 54.6875 
L 12.5 54.6875 
L 29.59375 8.796875 
L 46.6875 54.6875 
L 56.203125 54.6875 
L 35.6875 0 
L 23.484375 0 
z
" id="DejaVuSans-118"/>
       <path d="M 41.109375 46.296875 
Q 39.59375 47.171875 37.8125 47.578125 
Q 36.03125 48 33.890625 48 
Q 26.265625 48 22.1875 43.046875 
Q 18.109375 38.09375 18.109375 28.8125 
L 18.109375 0 
L 9.078125 0 
L 9.078125 54.6875 
L 18.109375 54.6875 
L 18.109375 46.1875 
Q 20.953125 51.171875 25.484375 53.578125 
Q 30.03125 56 36.53125 56 
Q 37.453125 56 38.578125 55.875 
Q 39.703125 55.765625 41.0625 55.515625 
z
" id="DejaVuSans-114"/>
      </defs>
      <use xlink:href="#DejaVuSans-99"/>
      <use x="54.980469" xlink:href="#DejaVuSans-117"/>
      <use x="118.359375" xlink:href="#DejaVuSans-109"/>
      <use x="215.771484" xlink:href="#DejaVuSans-117"/>
      <use x="279.150391" xlink:href="#DejaVuSans-108"/>
      <use x="306.933594" xlink:href="#DejaVuSans-97"/>
      <use x="368.212891" xlink:href="#DejaVuSans-116"/>
      <use x="407.421875" xlink:href="#DejaVuSans-105"/>
      <use x="435.205078" xlink:href="#DejaVuSans-118"/>
      <use x="494.384766" xlink:href="#DejaVuSans-101"/>
      <use x="555.908203" xlink:href="#DejaVuSans-32"/>
      <use x="587.695312" xlink:href="#DejaVuSans-114"/>
      <use x="626.558594" xlink:href="#DejaVuSans-101"/>
      <use x="688.082031" xlink:href="#DejaVuSans-119"/>
      <use x="769.869141" xlink:href="#DejaVuSans-97"/>
      <use x="831.148438" xlink:href="#DejaVuSans-114"/>
      <use x="870.511719" xlink:href="#DejaVuSans-100"/>
     </g>
    </g>
   </g>
   <g id="line2d_18">
    <path clip-path="url(#p4c517f13c6)" d="M 72.614638 217.139798 
L 72.635047 234.893737 
L 72.715884 211.969192 
L 72.775393 214.257071 
L 72.79351 218.161717 
L 72.850382 211.282828 
L 72.868842 212.640303 
L 72.88822 213.677475 
L 72.907713 210.642222 
L 73.020654 207.530707 
L 73.038656 209.696566 
L 73.128436 208.156061 
L 73.163637 209.269495 
L 73.180607 211.221818 
L 73.267635 208.537374 
L 73.28472 208.766162 
L 73.318774 208.323838 
L 73.422772 206.264747 
L 73.352714 208.933939 
L 73.439742 206.829091 
L 73.456827 211.298081 
L 73.524821 206.417273 
L 73.54397 207.988283 
L 73.629048 209.681313 
L 73.594994 207.164646 
L 73.663103 209.36101 
L 73.767101 210.108384 
L 73.716191 208.415354 
L 73.784071 209.849091 
L 73.801041 208.03404 
L 73.835095 209.864343 
L 73.905154 208.110303 
L 73.973262 206.493535 
L 74.041257 207.042626 
L 74.077375 206.173232 
L 74.179424 209.086465 
L 74.36036 204.64798 
L 74.469059 207.134141 
L 74.486717 207.012121 
L 74.539117 206.874848 
L 74.573172 207.591717 
L 74.711339 205.059798 
L 74.728424 206.646061 
L 74.745393 203.763333 
L 74.815566 206.112222 
L 74.866705 206.478283 
L 74.91773 204.602222 
L 75.02448 207.210404 
L 75.042138 207.195152 
L 75.059795 205.090303 
L 75.123662 207.225657 
L 75.147397 206.432525 
L 75.218258 207.042626 
L 75.241993 206.691818 
L 75.312968 205.364848 
L 75.336588 206.920606 
L 75.481406 204.907273 
L 75.626338 207.683232 
L 75.649959 205.730909 
L 75.72896 206.386768 
L 75.836054 208.156061 
L 75.781475 205.822424 
L 75.853483 207.317172 
L 75.923426 205.715657 
L 75.958398 206.844343 
L 75.978005 206.813838 
L 76.047949 205.959697 
L 76.03052 207.164646 
L 76.065492 206.295253 
L 76.082921 207.683232 
L 76.155043 206.203737 
L 76.172586 206.752828 
L 76.190015 206.859596 
L 76.260302 205.730909 
L 76.225216 208.400101 
L 76.295389 207.073131 
L 76.312932 207.195152 
L 76.332654 208.415354 
L 76.367625 204.159899 
L 76.385054 205.273333 
L 76.402482 204.678485 
L 76.437454 206.447778 
L 76.472426 205.974949 
L 76.489969 206.28 
L 76.562091 205.669899 
L 76.57952 206.066465 
L 76.632494 206.996869 
L 76.708743 204.724242 
L 76.808843 208.140808 
L 76.847943 206.432525 
L 76.867206 205.517374 
L 76.910892 207.72899 
L 76.930384 205.746162 
L 77.060296 207.576465 
L 77.164065 205.578384 
L 77.231944 205.563131 
L 77.284918 207.622222 
L 77.320234 205.349596 
L 77.376876 206.173232 
L 77.397057 207.622222 
L 77.454961 205.059798 
L 77.473421 206.21899 
L 77.509196 203.519293 
L 77.583153 205.395354 
L 77.603218 207.942525 
L 77.676716 204.70899 
L 77.727741 205.01404 
L 77.710771 204.64798 
L 77.744711 204.861515 
L 77.761681 204.236162 
L 77.797799 206.051212 
L 77.831853 205.578384 
L 77.899848 205.715657 
L 77.916818 205.090303 
L 77.970021 205.974949 
L 77.986991 204.495455 
L 78.038015 205.715657 
L 78.054985 205.761414 
L 78.106009 204.068384 
L 78.176182 204.419192 
L 78.227207 203.931111 
L 78.244176 204.800505 
L 78.348518 203.702323 
L 78.365488 203.748081 
L 78.382573 203.641313 
L 78.399543 203.854848 
L 78.416513 203.778586 
L 78.433483 206.173232 
L 78.467537 203.702323 
L 78.52074 204.739495 
L 78.554795 204.907273 
L 78.622904 205.624141 
L 78.588849 203.38202 
L 78.659022 204.77 
L 78.693077 204.983535 
L 78.778041 203.26 
L 78.795125 205.059798 
L 78.865413 202.253333 
L 78.933407 203.488788 
L 78.950377 204.800505 
L 79.020665 202.848182 
L 79.054604 204.52596 
L 79.105629 203.229495 
L 79.088659 205.654646 
L 79.156768 204.434444 
L 79.175802 204.312424 
L 79.260881 203.549798 
L 79.31202 205.883434 
L 79.399162 203.336263 
L 79.348138 206.005455 
L 79.416247 203.778586 
L 79.433217 205.166566 
L 79.484241 203.580303 
L 79.501326 203.702323 
L 79.520474 202.573636 
L 79.537444 204.510707 
L 79.588469 204.114141 
L 79.673662 203.732828 
L 79.692811 205.242828 
L 79.743835 203.122727 
L 79.811829 204.77 
L 79.845884 205.395354 
L 79.865032 204.205657 
L 79.882002 205.075051 
L 79.916057 203.38202 
L 80.001136 204.52596 
L 80.054224 203.702323 
L 80.071309 204.64798 
L 80.105363 204.373434 
L 80.122333 205.410606 
L 80.156387 203.305758 
L 80.20959 204.129394 
L 80.226675 203.290505 
L 80.243645 206.28 
L 80.294784 204.129394 
L 80.345808 203.641313 
L 80.399011 205.547879 
L 80.501175 203.305758 
L 80.518145 203.397273 
L 80.554263 205.166566 
L 80.622257 204.175152 
L 80.690366 202.497374 
L 80.707451 204.205657 
L 80.726599 204.022626 
L 80.743569 203.900606 
L 80.760654 202.954949 
L 80.777624 204.876768 
L 80.845733 204.175152 
L 80.915906 202.588889 
L 80.96693 203.915859 
L 81.018069 205.410606 
L 81.071272 204.358182 
L 81.088242 204.64798 
L 81.122296 204.022626 
L 81.139381 202.543131 
L 81.156351 204.95303 
L 81.224345 204.602222 
L 81.243494 204.861515 
L 81.260464 203.809091 
L 81.294633 204.541212 
L 81.311603 202.055051 
L 81.379712 206.203737 
L 81.396682 204.022626 
L 81.466969 206.188485 
L 81.535078 204.58697 
L 81.552048 204.098889 
L 81.569133 206.112222 
L 81.622336 204.449697 
L 81.707529 205.776667 
L 81.724499 205.685152 
L 81.794787 203.427778 
L 81.845926 203.610808 
L 81.87998 203.473535 
L 81.984207 206.417273 
L 82.091531 203.961616 
L 82.11194 204.663232 
L 82.129828 205.380101 
L 82.165717 203.336263 
L 82.20172 204.785253 
L 82.237724 204.236162 
L 82.255841 204.480202 
L 82.27625 205.807172 
L 82.316955 203.610808 
L 82.353647 205.288586 
L 82.373139 203.061717 
L 82.464639 203.122727 
L 82.48482 204.724242 
L 82.502707 202.954949 
L 82.557859 204.52596 
L 82.690752 202.512626 
L 82.727214 204.190404 
L 82.782825 202.543131 
L 82.858043 200.941616 
L 82.87616 202.131313 
L 82.930624 203.793838 
L 82.966628 203.290505 
L 83.002631 201.307677 
L 83.020633 203.397273 
L 83.05893 203.031212 
L 83.077047 204.205657 
L 83.113051 201.856768 
L 83.149054 202.832929 
L 83.259359 201.048384 
L 83.331251 204.114141 
L 83.385372 203.427778 
L 83.405667 204.449697 
L 83.445569 201.353434 
L 83.483637 203.824343 
L 83.58064 201.826263 
L 83.541311 204.480202 
L 83.602655 202.710909 
L 83.622607 204.64798 
L 83.698398 202.497374 
L 83.736924 202.863434 
L 83.757105 202.787172 
L 83.859727 201.002626 
L 83.838973 203.229495 
L 83.884608 201.399192 
L 83.904445 203.702323 
L 83.9604 200.941616 
L 83.978975 202.390606 
L 84.000416 201.93303 
L 84.020711 202.863434 
L 84.059467 202.207576 
L 84.120352 204.785253 
L 84.198896 204.403939 
L 84.217585 202.604141 
L 84.260698 204.617475 
L 84.308512 203.946364 
L 84.376392 204.632727 
L 84.468121 201.261919 
L 84.490251 203.26 
L 84.594019 202.848182 
L 84.616608 202.726162 
L 84.641719 203.214242 
L 84.662014 202.680404 
L 84.687468 201.856768 
L 84.748124 202.787172 
L 84.828044 203.900606 
L 84.788256 202.085556 
L 84.86829 203.275253 
L 84.907389 203.534545 
L 84.907389 203.534545 
" style="fill:none;stroke:#1f77b4;stroke-linecap:square;stroke-width:1.5;"/>
   </g>
   <g id="line2d_19">
    <path clip-path="url(#p4c517f13c6)" d="M 72.614638 256.887879 
L 72.635047 302.645455 
L 72.692034 250.786869 
L 72.715884 253.837374 
L 72.737555 250.786869 
L 72.757047 255.362626 
L 72.775393 253.837374 
L 72.832495 287.392929 
L 72.868842 240.110101 
L 72.94601 255.362626 
L 72.907713 230.958586 
L 72.964011 235.534343 
L 72.982357 224.857576 
L 73.000474 244.685859 
L 73.056543 235.534343 
L 73.07466 243.160606 
L 73.092547 234.009091 
L 73.163637 237.059596 
L 73.267635 226.382828 
L 73.352714 253.837374 
L 73.371748 238.584848 
L 73.422772 218.756566 
L 73.456827 255.362626 
L 73.473797 238.584848 
L 73.490881 238.584848 
L 73.507851 223.332323 
L 73.560939 240.110101 
L 73.594994 230.958586 
L 73.629048 246.211111 
L 73.680073 241.635354 
L 73.697043 224.857576 
L 73.733161 253.837374 
L 73.801041 230.958586 
L 73.818011 250.786869 
L 73.905154 237.059596 
L 73.939208 246.211111 
L 73.956178 229.433333 
L 73.973262 221.807071 
L 73.990232 243.160606 
L 74.041257 234.009091 
L 74.077375 244.685859 
L 74.094345 224.857576 
L 74.179424 241.635354 
L 74.251087 221.807071 
L 74.213364 249.261616 
L 74.36036 223.332323 
L 74.486717 262.988889 
L 74.59232 229.433333 
L 74.60929 235.534343 
L 74.62626 249.261616 
L 74.728424 243.160606 
L 74.745393 223.332323 
L 74.764542 281.291919 
L 74.832651 235.534343 
L 74.866705 241.635354 
L 74.883675 226.382828 
L 74.900645 230.958586 
L 74.91773 224.857576 
L 74.953848 240.110101 
L 74.988935 234.009091 
L 75.042138 241.635354 
L 75.059795 227.908081 
L 75.077453 227.908081 
L 75.123662 249.261616 
L 75.171017 238.584848 
L 75.194637 229.433333 
L 75.218258 244.685859 
L 75.241993 261.463636 
L 75.265613 235.534343 
L 75.312968 253.837374 
L 75.386696 227.908081 
L 75.410431 240.110101 
L 75.481406 227.908081 
L 75.505026 258.413131 
L 75.576002 224.857576 
L 75.626338 244.685859 
L 75.649959 250.786869 
L 75.673579 232.483838 
L 75.693989 241.635354 
L 75.711417 235.534343 
L 75.764047 253.837374 
L 75.801082 238.584848 
L 75.818511 237.059596 
L 75.836054 244.685859 
L 75.853483 264.514141 
L 75.870911 226.382828 
L 75.94097 238.584848 
L 75.958398 241.635354 
L 76.03052 240.110101 
L 76.047949 227.908081 
L 76.082921 246.211111 
L 76.135321 234.009091 
L 76.190015 244.685859 
L 76.242874 237.059596 
L 76.260302 234.009091 
L 76.277845 246.211111 
L 76.312932 241.635354 
L 76.332654 253.837374 
L 76.367625 229.433333 
L 76.402482 243.160606 
L 76.454997 223.332323 
L 76.437454 246.211111 
L 76.509576 232.483838 
L 76.562091 252.312121 
L 76.650839 244.685859 
L 76.668841 226.382828 
L 76.728007 249.261616 
L 76.749104 244.685859 
L 76.867206 235.534343 
L 76.78958 250.786869 
L 76.890023 237.059596 
L 76.910892 259.938384 
L 76.930384 235.534343 
L 77.009157 252.312121 
L 77.113155 227.908081 
L 77.130125 250.786869 
L 77.214974 234.009091 
L 77.231944 221.807071 
L 77.267948 243.160606 
L 77.320234 229.433333 
L 77.437074 261.463636 
L 77.473421 229.433333 
L 77.545544 262.988889 
L 77.676716 226.382828 
L 77.761681 223.332323 
L 77.814884 243.160606 
L 77.916818 221.807071 
L 77.899848 247.736364 
L 77.933788 230.958586 
L 77.970021 253.837374 
L 78.038015 226.382828 
L 78.072069 223.332323 
L 78.089039 232.483838 
L 78.210237 249.261616 
L 78.123094 223.332323 
L 78.227207 243.160606 
L 78.261261 224.857576 
L 78.348518 226.382828 
L 78.433483 249.261616 
L 78.382573 220.281818 
L 78.467537 243.160606 
L 78.588849 221.807071 
L 78.622904 249.261616 
L 78.710046 232.483838 
L 78.761071 223.332323 
L 78.778041 235.534343 
L 78.795125 250.786869 
L 78.831358 221.807071 
L 78.865413 232.483838 
L 78.882383 218.756566 
L 78.950377 237.059596 
L 78.967347 234.009091 
L 79.071689 217.231313 
L 79.105629 238.584848 
L 79.192886 230.958586 
L 79.226941 241.635354 
L 79.31202 224.857576 
L 79.365108 235.534343 
L 79.433217 227.908081 
L 79.467271 227.908081 
L 79.554414 221.807071 
L 79.537444 235.534343 
L 79.571499 227.908081 
L 79.605553 235.534343 
L 79.639608 221.807071 
L 79.692811 234.009091 
L 79.743835 217.231313 
L 79.726751 237.059596 
L 79.794859 226.382828 
L 79.811829 240.110101 
L 79.899087 229.433333 
L 79.967081 238.584848 
L 79.950111 227.908081 
L 79.984166 232.483838 
L 80.054224 215.706061 
L 80.018106 238.584848 
L 80.088278 221.807071 
L 80.122333 235.534343 
L 80.156387 218.756566 
L 80.190442 232.483838 
L 80.226675 217.231313 
L 80.277699 238.584848 
L 80.294784 232.483838 
L 80.311754 229.433333 
L 80.328724 241.635354 
L 80.382041 234.009091 
L 80.46712 238.584848 
L 80.433066 223.332323 
L 80.484205 232.483838 
L 80.571348 234.009091 
L 80.605287 217.231313 
L 80.690366 246.211111 
L 80.726599 227.908081 
L 80.743569 229.433333 
L 80.760654 223.332323 
L 80.811678 227.908081 
L 80.828648 226.382828 
L 80.845733 253.837374 
L 80.932876 230.958586 
L 80.96693 221.807071 
L 81.018069 235.534343 
L 81.052009 227.908081 
L 81.105327 224.857576 
L 81.156351 237.059596 
L 81.190405 220.281818 
L 81.207375 250.786869 
L 81.243494 226.382828 
L 81.260464 247.736364 
L 81.311603 218.756566 
L 81.345657 240.110101 
L 81.449885 230.958586 
L 81.466969 238.584848 
L 81.484054 224.857576 
L 81.535078 226.382828 
L 81.552048 223.332323 
L 81.622336 220.281818 
L 81.65639 246.211111 
L 81.724499 218.756566 
L 81.777702 224.857576 
L 81.811871 237.059596 
L 81.845926 221.807071 
L 81.862895 230.958586 
L 81.933183 220.281818 
L 81.967123 232.483838 
L 81.984207 234.009091 
L 82.001292 227.908081 
L 82.019294 226.382828 
L 82.037181 237.059596 
L 82.129828 227.908081 
L 82.165717 221.807071 
L 82.219722 237.059596 
L 82.335416 224.857576 
L 82.428177 255.362626 
L 82.391141 215.706061 
L 82.446179 238.584848 
L 82.520709 220.281818 
L 82.576549 226.382828 
L 82.633421 215.706061 
L 82.672406 237.059596 
L 82.764135 215.706061 
L 82.708983 238.584848 
L 82.800942 226.382828 
L 82.858043 214.180808 
L 82.87616 230.958586 
L 82.912622 215.706061 
L 82.966628 246.211111 
L 83.020633 221.807071 
L 83.113051 217.231313 
L 83.05893 230.958586 
L 83.131052 221.807071 
L 83.185058 223.332323 
L 83.223355 218.756566 
L 83.31325 229.433333 
L 83.331251 218.756566 
L 83.349368 218.756566 
L 83.405667 217.231313 
L 83.483637 240.110101 
L 83.52136 218.756566 
L 83.602655 232.483838 
L 83.622607 250.786869 
L 83.698398 220.281818 
L 83.736924 230.958586 
L 83.818792 227.908081 
L 83.838973 215.706061 
L 83.904445 230.958586 
L 83.922676 227.908081 
L 83.941595 230.958586 
L 84.039057 214.180808 
L 83.978975 243.160606 
L 84.059467 220.281818 
L 84.158191 247.736364 
L 84.177569 238.584848 
L 84.308512 223.332323 
L 84.398636 230.958586 
L 84.376392 220.281818 
L 84.423059 229.433333 
L 84.555493 214.180808 
L 84.616608 234.009091 
L 84.662014 221.807071 
L 84.687468 217.231313 
L 84.707534 229.433333 
L 84.748124 223.332323 
L 84.767617 240.110101 
L 84.788256 220.281818 
L 84.849027 223.332323 
L 84.86829 220.281818 
L 84.887553 227.908081 
L 84.907389 226.382828 
" style="fill:none;stroke:#ff7f0e;stroke-linecap:square;stroke-width:1.5;"/>
   </g>
   <g id="line2d_20">
    <path clip-path="url(#p4c517f13c6)" d="M 72.614638 197.40303 
L 72.692034 188.251515 
L 72.737555 192.827273 
L 72.757047 191.30202 
L 72.775393 195.877778 
L 72.79351 197.40303 
L 72.811397 195.877778 
L 72.850382 186.726263 
L 72.907713 197.40303 
L 72.927549 192.827273 
L 73.020654 188.251515 
L 72.964011 197.40303 
L 73.038656 191.30202 
L 73.056543 195.877778 
L 73.092547 188.251515 
L 73.128436 192.827273 
L 73.146323 189.776768 
L 73.163637 197.40303 
L 73.199756 192.827273 
L 73.216725 198.928283 
L 73.233695 186.726263 
L 73.318774 195.877778 
L 73.405688 174.524242 
L 73.439742 185.20101 
L 73.456827 194.352525 
L 73.524821 180.625253 
L 73.560939 191.30202 
L 73.578024 191.30202 
L 73.629048 180.625253 
L 73.646018 195.877778 
L 73.750131 189.776768 
L 73.801041 183.675758 
L 73.852065 192.827273 
L 73.939208 172.99899 
L 73.990232 183.675758 
L 74.1284 191.30202 
L 74.233315 185.20101 
L 74.162339 194.352525 
L 74.269089 188.251515 
L 74.286862 188.251515 
L 74.304634 177.574747 
L 74.39602 188.251515 
L 74.433629 182.150505 
L 74.451401 191.30202 
L 74.486717 185.20101 
L 74.50449 191.30202 
L 74.573172 188.251515 
L 74.60929 180.625253 
L 74.62626 191.30202 
L 74.694369 182.150505 
L 74.728424 192.827273 
L 74.815566 183.675758 
L 74.832651 180.625253 
L 74.866705 189.776768 
L 74.900645 182.150505 
L 75.042138 191.30202 
L 75.123662 185.20101 
L 75.147397 189.776768 
L 75.194637 183.675758 
L 75.241993 189.776768 
L 75.265613 191.30202 
L 75.336588 182.150505 
L 75.36319 185.20101 
L 75.457671 191.30202 
L 75.481406 188.251515 
L 75.505026 188.251515 
L 75.528647 191.30202 
L 75.576002 186.726263 
L 75.602718 186.726263 
L 75.693989 189.776768 
L 75.711417 186.726263 
L 75.72896 182.150505 
L 75.801082 191.30202 
L 75.818511 191.30202 
L 75.853483 192.827273 
L 75.94097 182.150505 
L 76.065492 191.30202 
L 76.082921 188.251515 
L 76.100464 188.251515 
L 76.190015 183.675758 
L 76.207443 186.726263 
L 76.295389 185.20101 
L 76.312932 191.30202 
L 76.420026 177.574747 
L 76.437454 179.1 
L 76.562091 188.251515 
L 76.57952 189.776768 
L 76.668841 174.524242 
L 76.689136 186.726263 
L 76.749104 188.251515 
L 76.78958 182.150505 
L 76.867206 189.776768 
L 76.890023 180.625253 
L 76.910892 185.20101 
L 76.950909 183.675758 
L 76.969369 188.251515 
L 76.989435 182.150505 
L 77.07933 183.675758 
L 77.181034 189.776768 
L 77.198004 188.251515 
L 77.267948 177.574747 
L 77.301773 186.726263 
L 77.338121 188.251515 
L 77.356352 185.20101 
L 77.376876 183.675758 
L 77.397057 191.30202 
L 77.415861 179.1 
L 77.454961 188.251515 
L 77.527198 189.776768 
L 77.583153 169.948485 
L 77.625577 191.30202 
L 77.710771 180.625253 
L 77.778765 191.30202 
L 77.744711 172.99899 
L 77.814884 189.776768 
L 77.831853 179.1 
L 77.916818 186.726263 
L 78.00396 172.99899 
L 77.970021 188.251515 
L 78.021045 186.726263 
L 78.038015 186.726263 
L 78.089039 185.20101 
L 78.106009 186.726263 
L 78.123094 189.776768 
L 78.159212 180.625253 
L 78.193152 186.726263 
L 78.261261 180.625253 
L 78.331434 182.150505 
L 78.365488 180.625253 
L 78.450567 189.776768 
L 78.588849 174.524242 
L 78.675992 188.251515 
L 78.693077 183.675758 
L 78.744101 176.049495 
L 78.778041 185.20101 
L 78.795125 185.20101 
L 78.831358 180.625253 
L 78.848328 186.726263 
L 78.882383 185.20101 
L 78.950377 188.251515 
L 78.933407 177.574747 
L 78.967347 183.675758 
L 79.054604 177.574747 
L 79.00358 185.20101 
L 79.122713 179.1 
L 79.209856 188.251515 
L 79.243911 183.675758 
L 79.260881 183.675758 
L 79.27785 182.150505 
L 79.31202 188.251515 
L 79.348138 188.251515 
L 79.416247 172.99899 
L 79.450187 189.776768 
L 79.554414 179.1 
L 79.571499 182.150505 
L 79.622523 186.726263 
L 79.656578 185.20101 
L 79.673662 180.625253 
L 79.726751 188.251515 
L 79.760805 182.150505 
L 79.845884 189.776768 
L 79.865032 182.150505 
L 79.899087 185.20101 
L 79.916057 177.574747 
L 79.950111 183.675758 
L 80.018106 179.1 
L 79.984166 185.20101 
L 80.054224 180.625253 
L 80.088278 179.1 
L 80.139417 183.675758 
L 80.260729 176.049495 
L 80.277699 188.251515 
L 80.362778 185.20101 
L 80.415981 177.574747 
L 80.450036 188.251515 
L 80.46712 183.675758 
L 80.484205 185.20101 
L 80.501175 183.675758 
L 80.518145 176.049495 
L 80.588318 188.251515 
L 80.605287 180.625253 
L 80.622257 185.20101 
L 80.656312 177.574747 
L 80.726599 183.675758 
L 80.777624 186.726263 
L 80.828648 177.574747 
L 80.932876 185.20101 
L 80.94996 176.049495 
L 81.035039 183.675758 
L 81.105327 174.524242 
L 81.139381 182.150505 
L 81.207375 180.625253 
L 81.243494 186.726263 
L 81.294633 174.524242 
L 81.362742 179.1 
L 81.379712 188.251515 
L 81.396682 177.574747 
L 81.466969 182.150505 
L 81.484054 177.574747 
L 81.552048 186.726263 
L 81.569133 182.150505 
L 81.605251 179.1 
L 81.65639 186.726263 
L 81.67336 180.625253 
L 81.707529 188.251515 
L 81.777702 182.150505 
L 81.89695 188.251515 
L 81.914035 177.574747 
L 82.001292 182.150505 
L 82.055642 189.776768 
L 82.091531 186.726263 
L 82.219722 172.99899 
L 82.255841 183.675758 
L 82.297463 188.251515 
L 82.316955 182.150505 
L 82.335416 174.524242 
L 82.353647 185.20101 
L 82.409716 182.150505 
L 82.428177 182.150505 
L 82.446179 179.1 
L 82.48482 186.726263 
L 82.520709 183.675758 
L 82.539628 186.726263 
L 82.557859 180.625253 
L 82.576549 166.89798 
L 82.59501 188.251515 
L 82.651538 172.99899 
L 82.745331 185.20101 
L 82.764135 180.625253 
L 82.819517 182.150505 
L 82.858043 174.524242 
L 82.912622 171.473737 
L 82.984515 185.20101 
L 83.002631 172.99899 
L 83.095049 182.150505 
L 83.167171 176.049495 
L 83.203175 180.625253 
L 83.223355 180.625253 
L 83.241471 171.473737 
L 83.259359 182.150505 
L 83.31325 177.574747 
L 83.331251 183.675758 
L 83.425733 179.1 
L 83.464718 177.574747 
L 83.483637 182.150505 
L 83.502671 180.625253 
L 83.52136 180.625253 
L 83.602655 185.20101 
L 83.640952 183.675758 
L 83.71789 171.473737 
L 83.757105 182.150505 
L 83.777056 183.675758 
L 83.838973 182.150505 
L 83.859727 174.524242 
L 83.922676 185.20101 
L 83.941595 179.1 
L 84.000416 176.049495 
L 84.039057 186.726263 
L 84.059467 177.574747 
L 84.13973 183.675758 
L 84.217585 180.625253 
L 84.237078 189.776768 
L 84.330183 177.574747 
L 84.376392 183.675758 
L 84.446106 185.20101 
L 84.575559 172.99899 
L 84.594019 177.574747 
L 84.727256 185.20101 
L 84.788256 186.726263 
L 84.828044 177.574747 
L 84.849027 185.20101 
L 84.907389 183.675758 
" style="fill:none;stroke:#2ca02c;stroke-linecap:square;stroke-width:1.5;"/>
   </g>
   <g id="line2d_21">
    <path clip-path="url(#p4c517f13c6)" d="M 72.616931 216.795527 
L 72.813805 213.527128 
L 73.002652 204.920346 
L 73.182786 207.099278 
L 73.354778 209.278211 
L 73.527 206.990332 
L 73.699107 205.465079 
L 73.871214 206.445599 
L 74.043321 206.990332 
L 74.215542 205.465079 
L 74.398198 208.733478 
L 74.575236 207.535065 
L 74.747572 206.118759 
L 74.919794 205.900866 
L 75.100042 211.23925 
L 75.33957 208.515584 
L 75.578983 204.266667 
L 75.783654 205.247186 
L 75.960577 205.574026 
L 76.137614 209.713997 
L 76.31511 207.317172 
L 76.492148 206.009812 
L 76.671134 208.079798 
L 76.869499 204.48456 
L 77.06236 206.663492 
L 77.234008 208.624531 
L 77.418269 202.959307 
L 77.60597 206.772439 
L 77.780829 203.286147 
L 77.952936 204.593506 
L 78.125158 203.83088 
L 78.297379 204.702453 
L 78.469716 205.247186 
L 78.642052 203.068254 
L 78.814274 202.632468 
L 78.986495 201.869841 
L 79.158832 204.15772 
L 79.331168 204.266667 
L 79.50339 202.414574 
L 79.675726 204.266667 
L 79.848062 204.593506 
L 80.020284 205.247186 
L 80.192506 203.612987 
L 80.364957 206.445599 
L 80.537293 200.017749 
L 80.709629 202.523521 
L 80.881851 203.50404 
L 81.054187 206.772439 
L 81.226524 205.682973 
L 81.39886 205.356133 
L 81.571196 202.305628 
L 81.743762 202.632468 
L 81.916098 203.395094 
L 82.093824 201.543001 
L 82.278544 206.663492 
L 82.466818 206.009812 
L 82.65429 200.017749 
L 82.839927 202.196681 
L 83.022812 203.068254 
L 83.205353 202.523521 
L 83.387665 200.671429 
L 83.583048 202.523521 
L 83.779464 206.009812 
L 83.981268 197.838817 
L 84.179976 204.15772 
L 84.401388 199.473016 
L 84.619245 204.15772 
L 84.830795 203.83088 
" style="fill:none;stroke:#d62728;stroke-linecap:square;stroke-width:1.5;"/>
   </g>
   <g id="line2d_22">
    <path clip-path="url(#p4c517f13c6)" d="M 72.616931 55.554545 
L 72.813805 55.554545 
L 73.002652 55.554545 
L 73.182786 55.554545 
L 73.354778 55.554545 
L 73.527 55.554545 
L 73.699107 55.554545 
L 73.871214 55.554545 
L 74.043321 55.554545 
L 74.215542 55.554545 
L 74.398198 55.554545 
L 74.575236 55.554545 
L 74.747572 55.554545 
L 74.919794 55.554545 
L 75.100042 55.554545 
L 75.33957 55.554545 
L 75.578983 55.554545 
L 75.783654 55.554545 
L 75.960577 55.554545 
L 76.137614 55.554545 
L 76.31511 55.554545 
L 76.492148 55.554545 
L 76.671134 55.554545 
L 76.869499 55.554545 
L 77.06236 55.554545 
L 77.234008 55.554545 
L 77.418269 55.554545 
L 77.60597 55.554545 
L 77.780829 55.554545 
L 77.952936 55.554545 
L 78.125158 55.554545 
L 78.297379 55.554545 
L 78.469716 55.554545 
L 78.642052 55.554545 
L 78.814274 55.554545 
L 78.986495 55.554545 
L 79.158832 55.554545 
L 79.331168 55.554545 
L 79.50339 55.554545 
L 79.675726 55.554545 
L 79.848062 55.554545 
L 80.020284 55.554545 
L 80.192506 55.554545 
L 80.364957 55.554545 
L 80.537293 55.554545 
L 80.709629 55.554545 
L 80.881851 55.554545 
L 81.054187 55.554545 
L 81.226524 55.554545 
L 81.39886 55.554545 
L 81.571196 55.554545 
L 81.743762 55.554545 
L 81.916098 55.554545 
L 82.093824 55.554545 
L 82.278544 55.554545 
L 82.466818 55.554545 
L 82.65429 55.554545 
L 82.839927 55.554545 
L 83.022812 55.554545 
L 83.205353 55.554545 
L 83.387665 55.554545 
L 83.583048 55.554545 
L 83.779464 55.554545 
L 83.981268 55.554545 
L 84.179976 55.554545 
L 84.401388 55.554545 
L 84.619245 55.554545 
L 84.830795 55.554545 
" style="fill:none;stroke:#9467bd;stroke-linecap:square;stroke-width:1.5;"/>
   </g>
   <g id="patch_3">
    <path d="M 72 315 
L 72 43.2 
" style="fill:none;stroke:#000000;stroke-linecap:square;stroke-linejoin:miter;stroke-width:0.8;"/>
   </g>
   <g id="patch_4">
    <path d="M 518.4 315 
L 518.4 43.2 
" style="fill:none;stroke:#000000;stroke-linecap:square;stroke-linejoin:miter;stroke-width:0.8;"/>
   </g>
   <g id="patch_5">
    <path d="M 72 315 
L 518.4 315 
" style="fill:none;stroke:#000000;stroke-linecap:square;stroke-linejoin:miter;stroke-width:0.8;"/>
   </g>
   <g id="patch_6">
    <path d="M 72 43.2 
L 518.4 43.2 
" style="fill:none;stroke:#000000;stroke-linecap:square;stroke-linejoin:miter;stroke-width:0.8;"/>
   </g>
   <g id="text_20">
    <!-- Boxing-v0.cma.16.7 -->
    <g transform="translate(235.400625 37.2)scale(0.12 -0.12)">
     <defs>
      <path d="M 19.671875 34.8125 
L 19.671875 8.109375 
L 35.5 8.109375 
Q 43.453125 8.109375 47.28125 11.40625 
Q 51.125 14.703125 51.125 21.484375 
Q 51.125 28.328125 47.28125 31.5625 
Q 43.453125 34.8125 35.5 34.8125 
z
M 19.671875 64.796875 
L 19.671875 42.828125 
L 34.28125 42.828125 
Q 41.5 42.828125 45.03125 45.53125 
Q 48.578125 48.25 48.578125 53.8125 
Q 48.578125 59.328125 45.03125 62.0625 
Q 41.5 64.796875 34.28125 64.796875 
z
M 9.8125 72.90625 
L 35.015625 72.90625 
Q 46.296875 72.90625 52.390625 68.21875 
Q 58.5 63.53125 58.5 54.890625 
Q 58.5 48.1875 55.375 44.234375 
Q 52.25 40.28125 46.1875 39.3125 
Q 53.46875 37.75 57.5 32.78125 
Q 61.53125 27.828125 61.53125 20.40625 
Q 61.53125 10.640625 54.890625 5.3125 
Q 48.25 0 35.984375 0 
L 9.8125 0 
z
" id="DejaVuSans-66"/>
      <path d="M 54.890625 54.6875 
L 35.109375 28.078125 
L 55.90625 0 
L 45.3125 0 
L 29.390625 21.484375 
L 13.484375 0 
L 2.875 0 
L 24.125 28.609375 
L 4.6875 54.6875 
L 15.28125 54.6875 
L 29.78125 35.203125 
L 44.28125 54.6875 
z
" id="DejaVuSans-120"/>
      <path d="M 54.890625 33.015625 
L 54.890625 0 
L 45.90625 0 
L 45.90625 32.71875 
Q 45.90625 40.484375 42.875 44.328125 
Q 39.84375 48.1875 33.796875 48.1875 
Q 26.515625 48.1875 22.3125 43.546875 
Q 18.109375 38.921875 18.109375 30.90625 
L 18.109375 0 
L 9.078125 0 
L 9.078125 54.6875 
L 18.109375 54.6875 
L 18.109375 46.1875 
Q 21.34375 51.125 25.703125 53.5625 
Q 30.078125 56 35.796875 56 
Q 45.21875 56 50.046875 50.171875 
Q 54.890625 44.34375 54.890625 33.015625 
z
" id="DejaVuSans-110"/>
      <path d="M 45.40625 27.984375 
Q 45.40625 37.75 41.375 43.109375 
Q 37.359375 48.484375 30.078125 48.484375 
Q 22.859375 48.484375 18.828125 43.109375 
Q 14.796875 37.75 14.796875 27.984375 
Q 14.796875 18.265625 18.828125 12.890625 
Q 22.859375 7.515625 30.078125 7.515625 
Q 37.359375 7.515625 41.375 12.890625 
Q 45.40625 18.265625 45.40625 27.984375 
z
M 54.390625 6.78125 
Q 54.390625 -7.171875 48.1875 -13.984375 
Q 42 -20.796875 29.203125 -20.796875 
Q 24.46875 -20.796875 20.265625 -20.09375 
Q 16.0625 -19.390625 12.109375 -17.921875 
L 12.109375 -9.1875 
Q 16.0625 -11.328125 19.921875 -12.34375 
Q 23.78125 -13.375 27.78125 -13.375 
Q 36.625 -13.375 41.015625 -8.765625 
Q 45.40625 -4.15625 45.40625 5.171875 
L 45.40625 9.625 
Q 42.625 4.78125 38.28125 2.390625 
Q 33.9375 0 27.875 0 
Q 17.828125 0 11.671875 7.65625 
Q 5.515625 15.328125 5.515625 27.984375 
Q 5.515625 40.671875 11.671875 48.328125 
Q 17.828125 56 27.875 56 
Q 33.9375 56 38.28125 53.609375 
Q 42.625 51.21875 45.40625 46.390625 
L 45.40625 54.6875 
L 54.390625 54.6875 
z
" id="DejaVuSans-103"/>
      <path d="M 10.6875 12.40625 
L 21 12.40625 
L 21 0 
L 10.6875 0 
z
" id="DejaVuSans-46"/>
      <path d="M 33.015625 40.375 
Q 26.375 40.375 22.484375 35.828125 
Q 18.609375 31.296875 18.609375 23.390625 
Q 18.609375 15.53125 22.484375 10.953125 
Q 26.375 6.390625 33.015625 6.390625 
Q 39.65625 6.390625 43.53125 10.953125 
Q 47.40625 15.53125 47.40625 23.390625 
Q 47.40625 31.296875 43.53125 35.828125 
Q 39.65625 40.375 33.015625 40.375 
z
M 52.59375 71.296875 
L 52.59375 62.3125 
Q 48.875 64.0625 45.09375 64.984375 
Q 41.3125 65.921875 37.59375 65.921875 
Q 27.828125 65.921875 22.671875 59.328125 
Q 17.53125 52.734375 16.796875 39.40625 
Q 19.671875 43.65625 24.015625 45.921875 
Q 28.375 48.1875 33.59375 48.1875 
Q 44.578125 48.1875 50.953125 41.515625 
Q 57.328125 34.859375 57.328125 23.390625 
Q 57.328125 12.15625 50.6875 5.359375 
Q 44.046875 -1.421875 33.015625 -1.421875 
Q 20.359375 -1.421875 13.671875 8.265625 
Q 6.984375 17.96875 6.984375 36.375 
Q 6.984375 53.65625 15.1875 63.9375 
Q 23.390625 74.21875 37.203125 74.21875 
Q 40.921875 74.21875 44.703125 73.484375 
Q 48.484375 72.75 52.59375 71.296875 
z
" id="DejaVuSans-54"/>
     </defs>
     <use xlink:href="#DejaVuSans-66"/>
     <use x="68.603516" xlink:href="#DejaVuSans-111"/>
     <use x="126.660156" xlink:href="#DejaVuSans-120"/>
     <use x="185.839844" xlink:href="#DejaVuSans-105"/>
     <use x="213.623047" xlink:href="#DejaVuSans-110"/>
     <use x="277.001953" xlink:href="#DejaVuSans-103"/>
     <use x="340.478516" xlink:href="#DejaVuSans-45"/>
     <use x="373.9375" xlink:href="#DejaVuSans-118"/>
     <use x="433.117188" xlink:href="#DejaVuSans-48"/>
     <use x="496.740234" xlink:href="#DejaVuSans-46"/>
     <use x="528.527344" xlink:href="#DejaVuSans-99"/>
     <use x="583.507812" xlink:href="#DejaVuSans-109"/>
     <use x="680.919922" xlink:href="#DejaVuSans-97"/>
     <use x="742.199219" xlink:href="#DejaVuSans-46"/>
     <use x="773.986328" xlink:href="#DejaVuSans-49"/>
     <use x="837.609375" xlink:href="#DejaVuSans-54"/>
     <use x="901.232422" xlink:href="#DejaVuSans-46"/>
     <use x="933.019531" xlink:href="#DejaVuSans-55"/>
    </g>
   </g>
   <g id="legend_1">
    <g id="patch_7">
     <path d="M 406.151562 124.590625 
L 511.4 124.590625 
Q 513.4 124.590625 513.4 122.590625 
L 513.4 50.2 
Q 513.4 48.2 511.4 48.2 
L 406.151562 48.2 
Q 404.151562 48.2 404.151562 50.2 
L 404.151562 122.590625 
Q 404.151562 124.590625 406.151562 124.590625 
z
" style="fill:#ffffff;opacity:0.8;stroke:#cccccc;stroke-linejoin:miter;"/>
    </g>
    <g id="line2d_23">
     <path d="M 408.151562 56.298437 
L 428.151562 56.298437 
" style="fill:none;stroke:#1f77b4;stroke-linecap:square;stroke-width:1.5;"/>
    </g>
    <g id="line2d_24"/>
    <g id="text_21">
     <!-- mean -->
     <g transform="translate(436.151562 59.798437)scale(0.1 -0.1)">
      <use xlink:href="#DejaVuSans-109"/>
      <use x="97.412109" xlink:href="#DejaVuSans-101"/>
      <use x="158.935547" xlink:href="#DejaVuSans-97"/>
      <use x="220.214844" xlink:href="#DejaVuSans-110"/>
     </g>
    </g>
    <g id="line2d_25">
     <path d="M 408.151562 70.976562 
L 428.151562 70.976562 
" style="fill:none;stroke:#ff7f0e;stroke-linecap:square;stroke-width:1.5;"/>
    </g>
    <g id="line2d_26"/>
    <g id="text_22">
     <!-- min -->
     <g transform="translate(436.151562 74.476562)scale(0.1 -0.1)">
      <use xlink:href="#DejaVuSans-109"/>
      <use x="97.412109" xlink:href="#DejaVuSans-105"/>
      <use x="125.195312" xlink:href="#DejaVuSans-110"/>
     </g>
    </g>
    <g id="line2d_27">
     <path d="M 408.151562 85.654687 
L 428.151562 85.654687 
" style="fill:none;stroke:#2ca02c;stroke-linecap:square;stroke-width:1.5;"/>
    </g>
    <g id="line2d_28"/>
    <g id="text_23">
     <!-- max -->
     <g transform="translate(436.151562 89.154687)scale(0.1 -0.1)">
      <use xlink:href="#DejaVuSans-109"/>
      <use x="97.412109" xlink:href="#DejaVuSans-97"/>
      <use x="158.691406" xlink:href="#DejaVuSans-120"/>
     </g>
    </g>
    <g id="line2d_29">
     <path d="M 408.151562 100.332812 
L 428.151562 100.332812 
" style="fill:none;stroke:#9467bd;stroke-linecap:square;stroke-width:1.5;"/>
    </g>
    <g id="line2d_30"/>
    <g id="text_24">
     <!-- requirement -->
     <g transform="translate(436.151562 103.832812)scale(0.1 -0.1)">
      <defs>
       <path d="M 14.796875 27.296875 
Q 14.796875 17.390625 18.875 11.75 
Q 22.953125 6.109375 30.078125 6.109375 
Q 37.203125 6.109375 41.296875 11.75 
Q 45.40625 17.390625 45.40625 27.296875 
Q 45.40625 37.203125 41.296875 42.84375 
Q 37.203125 48.484375 30.078125 48.484375 
Q 22.953125 48.484375 18.875 42.84375 
Q 14.796875 37.203125 14.796875 27.296875 
z
M 45.40625 8.203125 
Q 42.578125 3.328125 38.25 0.953125 
Q 33.9375 -1.421875 27.875 -1.421875 
Q 17.96875 -1.421875 11.734375 6.484375 
Q 5.515625 14.40625 5.515625 27.296875 
Q 5.515625 40.1875 11.734375 48.09375 
Q 17.96875 56 27.875 56 
Q 33.9375 56 38.25 53.625 
Q 42.578125 51.265625 45.40625 46.390625 
L 45.40625 54.6875 
L 54.390625 54.6875 
L 54.390625 -20.796875 
L 45.40625 -20.796875 
z
" id="DejaVuSans-113"/>
      </defs>
      <use xlink:href="#DejaVuSans-114"/>
      <use x="38.863281" xlink:href="#DejaVuSans-101"/>
      <use x="100.386719" xlink:href="#DejaVuSans-113"/>
      <use x="163.863281" xlink:href="#DejaVuSans-117"/>
      <use x="227.242188" xlink:href="#DejaVuSans-105"/>
      <use x="255.025391" xlink:href="#DejaVuSans-114"/>
      <use x="293.888672" xlink:href="#DejaVuSans-101"/>
      <use x="355.412109" xlink:href="#DejaVuSans-109"/>
      <use x="452.824219" xlink:href="#DejaVuSans-101"/>
      <use x="514.347656" xlink:href="#DejaVuSans-110"/>
      <use x="577.726562" xlink:href="#DejaVuSans-116"/>
     </g>
    </g>
    <g id="line2d_31">
     <path d="M 408.151562 115.010937 
L 428.151562 115.010937 
" style="fill:none;stroke:#d62728;stroke-linecap:square;stroke-width:1.5;"/>
    </g>
    <g id="line2d_32"/>
    <g id="text_25">
     <!-- best avg score -->
     <g transform="translate(436.151562 118.510937)scale(0.1 -0.1)">
      <defs>
       <path d="M 48.6875 27.296875 
Q 48.6875 37.203125 44.609375 42.84375 
Q 40.53125 48.484375 33.40625 48.484375 
Q 26.265625 48.484375 22.1875 42.84375 
Q 18.109375 37.203125 18.109375 27.296875 
Q 18.109375 17.390625 22.1875 11.75 
Q 26.265625 6.109375 33.40625 6.109375 
Q 40.53125 6.109375 44.609375 11.75 
Q 48.6875 17.390625 48.6875 27.296875 
z
M 18.109375 46.390625 
Q 20.953125 51.265625 25.265625 53.625 
Q 29.59375 56 35.59375 56 
Q 45.5625 56 51.78125 48.09375 
Q 58.015625 40.1875 58.015625 27.296875 
Q 58.015625 14.40625 51.78125 6.484375 
Q 45.5625 -1.421875 35.59375 -1.421875 
Q 29.59375 -1.421875 25.265625 0.953125 
Q 20.953125 3.328125 18.109375 8.203125 
L 18.109375 0 
L 9.078125 0 
L 9.078125 75.984375 
L 18.109375 75.984375 
z
" id="DejaVuSans-98"/>
      </defs>
      <use xlink:href="#DejaVuSans-98"/>
      <use x="63.476562" xlink:href="#DejaVuSans-101"/>
      <use x="125" xlink:href="#DejaVuSans-115"/>
      <use x="177.099609" xlink:href="#DejaVuSans-116"/>
      <use x="216.308594" xlink:href="#DejaVuSans-32"/>
      <use x="248.095703" xlink:href="#DejaVuSans-97"/>
      <use x="309.375" xlink:href="#DejaVuSans-118"/>
      <use x="368.554688" xlink:href="#DejaVuSans-103"/>
      <use x="432.03125" xlink:href="#DejaVuSans-32"/>
      <use x="463.818359" xlink:href="#DejaVuSans-115"/>
      <use x="515.917969" xlink:href="#DejaVuSans-99"/>
      <use x="570.898438" xlink:href="#DejaVuSans-111"/>
      <use x="632.080078" xlink:href="#DejaVuSans-114"/>
      <use x="670.943359" xlink:href="#DejaVuSans-101"/>
     </g>
    </g>
   </g>
  </g>
 </g>
 <defs>
  <clipPath id="p4c517f13c6">
   <rect height="271.8" width="446.4" x="72" y="43.2"/>
  </clipPath>
 </defs>
</svg>
