<?xml version="1.0" encoding="utf-8" standalone="no"?>
<!DOCTYPE svg PUBLIC "-//W3C//DTD SVG 1.1//EN"
  "http://www.w3.org/Graphics/SVG/1.1/DTD/svg11.dtd">
<!-- Created with matplotlib (https://matplotlib.org/) -->
<svg height="360pt" version="1.1" viewBox="0 0 576 360" width="576pt" xmlns="http://www.w3.org/2000/svg" xmlns:xlink="http://www.w3.org/1999/xlink">
 <metadata>
  <rdf:RDF xmlns:cc="http://creativecommons.org/ns#" xmlns:dc="http://purl.org/dc/elements/1.1/" xmlns:rdf="http://www.w3.org/1999/02/22-rdf-syntax-ns#">
   <cc:Work>
    <dc:type rdf:resource="http://purl.org/dc/dcmitype/StillImage"/>
    <dc:date>2021-03-04T19:49:08.659405</dc:date>
    <dc:format>image/svg+xml</dc:format>
    <dc:creator>
     <cc:Agent>
      <dc:title>Matplotlib v3.3.3, https://matplotlib.org/</dc:title>
     </cc:Agent>
    </dc:creator>
   </cc:Work>
  </rdf:RDF>
 </metadata>
 <defs>
  <style type="text/css">*{stroke-linecap:butt;stroke-linejoin:round;}</style>
 </defs>
 <g id="figure_1">
  <g id="patch_1">
   <path d="M 0 360 
L 576 360 
L 576 0 
L 0 0 
z
" style="fill:#ffffff;"/>
  </g>
  <g id="axes_1">
   <g id="patch_2">
    <path d="M 72 315 
L 518.4 315 
L 518.4 43.2 
L 72 43.2 
z
" style="fill:#ffffff;"/>
   </g>
   <g id="matplotlib.axis_1">
    <g id="xtick_1">
     <g id="line2d_1">
      <defs>
       <path d="M 0 0 
L 0 3.5 
" id="m827b33053b" style="stroke:#000000;stroke-width:0.8;"/>
      </defs>
      <g>
       <use style="stroke:#000000;stroke-width:0.8;" x="72.700818" xlink:href="#m827b33053b" y="315"/>
      </g>
     </g>
     <g id="text_1">
      <!-- 0 -->
      <g transform="translate(69.519568 329.598437)scale(0.1 -0.1)">
       <defs>
        <path d="M 31.78125 66.40625 
Q 24.171875 66.40625 20.328125 58.90625 
Q 16.5 51.421875 16.5 36.375 
Q 16.5 21.390625 20.328125 13.890625 
Q 24.171875 6.390625 31.78125 6.390625 
Q 39.453125 6.390625 43.28125 13.890625 
Q 47.125 21.390625 47.125 36.375 
Q 47.125 51.421875 43.28125 58.90625 
Q 39.453125 66.40625 31.78125 66.40625 
z
M 31.78125 74.21875 
Q 44.046875 74.21875 50.515625 64.515625 
Q 56.984375 54.828125 56.984375 36.375 
Q 56.984375 17.96875 50.515625 8.265625 
Q 44.046875 -1.421875 31.78125 -1.421875 
Q 19.53125 -1.421875 13.0625 8.265625 
Q 6.59375 17.96875 6.59375 36.375 
Q 6.59375 54.828125 13.0625 64.515625 
Q 19.53125 74.21875 31.78125 74.21875 
z
" id="DejaVuSans-48"/>
       </defs>
       <use xlink:href="#DejaVuSans-48"/>
      </g>
     </g>
    </g>
    <g id="xtick_2">
     <g id="line2d_2">
      <g>
       <use style="stroke:#000000;stroke-width:0.8;" x="122.22295" xlink:href="#m827b33053b" y="315"/>
      </g>
     </g>
     <g id="text_2">
      <!-- 5 -->
      <g transform="translate(119.0417 329.598437)scale(0.1 -0.1)">
       <defs>
        <path d="M 10.796875 72.90625 
L 49.515625 72.90625 
L 49.515625 64.59375 
L 19.828125 64.59375 
L 19.828125 46.734375 
Q 21.96875 47.46875 24.109375 47.828125 
Q 26.265625 48.1875 28.421875 48.1875 
Q 40.625 48.1875 47.75 41.5 
Q 54.890625 34.8125 54.890625 23.390625 
Q 54.890625 11.625 47.5625 5.09375 
Q 40.234375 -1.421875 26.90625 -1.421875 
Q 22.3125 -1.421875 17.546875 -0.640625 
Q 12.796875 0.140625 7.71875 1.703125 
L 7.71875 11.625 
Q 12.109375 9.234375 16.796875 8.0625 
Q 21.484375 6.890625 26.703125 6.890625 
Q 35.15625 6.890625 40.078125 11.328125 
Q 45.015625 15.765625 45.015625 23.390625 
Q 45.015625 31 40.078125 35.4375 
Q 35.15625 39.890625 26.703125 39.890625 
Q 22.75 39.890625 18.8125 39.015625 
Q 14.890625 38.140625 10.796875 36.28125 
z
" id="DejaVuSans-53"/>
       </defs>
       <use xlink:href="#DejaVuSans-53"/>
      </g>
     </g>
    </g>
    <g id="xtick_3">
     <g id="line2d_3">
      <g>
       <use style="stroke:#000000;stroke-width:0.8;" x="171.745081" xlink:href="#m827b33053b" y="315"/>
      </g>
     </g>
     <g id="text_3">
      <!-- 10 -->
      <g transform="translate(165.382581 329.598437)scale(0.1 -0.1)">
       <defs>
        <path d="M 12.40625 8.296875 
L 28.515625 8.296875 
L 28.515625 63.921875 
L 10.984375 60.40625 
L 10.984375 69.390625 
L 28.421875 72.90625 
L 38.28125 72.90625 
L 38.28125 8.296875 
L 54.390625 8.296875 
L 54.390625 0 
L 12.40625 0 
z
" id="DejaVuSans-49"/>
       </defs>
       <use xlink:href="#DejaVuSans-49"/>
       <use x="63.623047" xlink:href="#DejaVuSans-48"/>
      </g>
     </g>
    </g>
    <g id="xtick_4">
     <g id="line2d_4">
      <g>
       <use style="stroke:#000000;stroke-width:0.8;" x="221.267212" xlink:href="#m827b33053b" y="315"/>
      </g>
     </g>
     <g id="text_4">
      <!-- 15 -->
      <g transform="translate(214.904712 329.598437)scale(0.1 -0.1)">
       <use xlink:href="#DejaVuSans-49"/>
       <use x="63.623047" xlink:href="#DejaVuSans-53"/>
      </g>
     </g>
    </g>
    <g id="xtick_5">
     <g id="line2d_5">
      <g>
       <use style="stroke:#000000;stroke-width:0.8;" x="270.789344" xlink:href="#m827b33053b" y="315"/>
      </g>
     </g>
     <g id="text_5">
      <!-- 20 -->
      <g transform="translate(264.426844 329.598437)scale(0.1 -0.1)">
       <defs>
        <path d="M 19.1875 8.296875 
L 53.609375 8.296875 
L 53.609375 0 
L 7.328125 0 
L 7.328125 8.296875 
Q 12.9375 14.109375 22.625 23.890625 
Q 32.328125 33.6875 34.8125 36.53125 
Q 39.546875 41.84375 41.421875 45.53125 
Q 43.3125 49.21875 43.3125 52.78125 
Q 43.3125 58.59375 39.234375 62.25 
Q 35.15625 65.921875 28.609375 65.921875 
Q 23.96875 65.921875 18.8125 64.3125 
Q 13.671875 62.703125 7.8125 59.421875 
L 7.8125 69.390625 
Q 13.765625 71.78125 18.9375 73 
Q 24.125 74.21875 28.421875 74.21875 
Q 39.75 74.21875 46.484375 68.546875 
Q 53.21875 62.890625 53.21875 53.421875 
Q 53.21875 48.921875 51.53125 44.890625 
Q 49.859375 40.875 45.40625 35.40625 
Q 44.1875 33.984375 37.640625 27.21875 
Q 31.109375 20.453125 19.1875 8.296875 
z
" id="DejaVuSans-50"/>
       </defs>
       <use xlink:href="#DejaVuSans-50"/>
       <use x="63.623047" xlink:href="#DejaVuSans-48"/>
      </g>
     </g>
    </g>
    <g id="xtick_6">
     <g id="line2d_6">
      <g>
       <use style="stroke:#000000;stroke-width:0.8;" x="320.311475" xlink:href="#m827b33053b" y="315"/>
      </g>
     </g>
     <g id="text_6">
      <!-- 25 -->
      <g transform="translate(313.948975 329.598437)scale(0.1 -0.1)">
       <use xlink:href="#DejaVuSans-50"/>
       <use x="63.623047" xlink:href="#DejaVuSans-53"/>
      </g>
     </g>
    </g>
    <g id="xtick_7">
     <g id="line2d_7">
      <g>
       <use style="stroke:#000000;stroke-width:0.8;" x="369.833606" xlink:href="#m827b33053b" y="315"/>
      </g>
     </g>
     <g id="text_7">
      <!-- 30 -->
      <g transform="translate(363.471106 329.598437)scale(0.1 -0.1)">
       <defs>
        <path d="M 40.578125 39.3125 
Q 47.65625 37.796875 51.625 33 
Q 55.609375 28.21875 55.609375 21.1875 
Q 55.609375 10.40625 48.1875 4.484375 
Q 40.765625 -1.421875 27.09375 -1.421875 
Q 22.515625 -1.421875 17.65625 -0.515625 
Q 12.796875 0.390625 7.625 2.203125 
L 7.625 11.71875 
Q 11.71875 9.328125 16.59375 8.109375 
Q 21.484375 6.890625 26.8125 6.890625 
Q 36.078125 6.890625 40.9375 10.546875 
Q 45.796875 14.203125 45.796875 21.1875 
Q 45.796875 27.640625 41.28125 31.265625 
Q 36.765625 34.90625 28.71875 34.90625 
L 20.21875 34.90625 
L 20.21875 43.015625 
L 29.109375 43.015625 
Q 36.375 43.015625 40.234375 45.921875 
Q 44.09375 48.828125 44.09375 54.296875 
Q 44.09375 59.90625 40.109375 62.90625 
Q 36.140625 65.921875 28.71875 65.921875 
Q 24.65625 65.921875 20.015625 65.03125 
Q 15.375 64.15625 9.8125 62.3125 
L 9.8125 71.09375 
Q 15.4375 72.65625 20.34375 73.4375 
Q 25.25 74.21875 29.59375 74.21875 
Q 40.828125 74.21875 47.359375 69.109375 
Q 53.90625 64.015625 53.90625 55.328125 
Q 53.90625 49.265625 50.4375 45.09375 
Q 46.96875 40.921875 40.578125 39.3125 
z
" id="DejaVuSans-51"/>
       </defs>
       <use xlink:href="#DejaVuSans-51"/>
       <use x="63.623047" xlink:href="#DejaVuSans-48"/>
      </g>
     </g>
    </g>
    <g id="xtick_8">
     <g id="line2d_8">
      <g>
       <use style="stroke:#000000;stroke-width:0.8;" x="419.355737" xlink:href="#m827b33053b" y="315"/>
      </g>
     </g>
     <g id="text_8">
      <!-- 35 -->
      <g transform="translate(412.993237 329.598437)scale(0.1 -0.1)">
       <use xlink:href="#DejaVuSans-51"/>
       <use x="63.623047" xlink:href="#DejaVuSans-53"/>
      </g>
     </g>
    </g>
    <g id="xtick_9">
     <g id="line2d_9">
      <g>
       <use style="stroke:#000000;stroke-width:0.8;" x="468.877869" xlink:href="#m827b33053b" y="315"/>
      </g>
     </g>
     <g id="text_9">
      <!-- 40 -->
      <g transform="translate(462.515369 329.598437)scale(0.1 -0.1)">
       <defs>
        <path d="M 37.796875 64.3125 
L 12.890625 25.390625 
L 37.796875 25.390625 
z
M 35.203125 72.90625 
L 47.609375 72.90625 
L 47.609375 25.390625 
L 58.015625 25.390625 
L 58.015625 17.1875 
L 47.609375 17.1875 
L 47.609375 0 
L 37.796875 0 
L 37.796875 17.1875 
L 4.890625 17.1875 
L 4.890625 26.703125 
z
" id="DejaVuSans-52"/>
       </defs>
       <use xlink:href="#DejaVuSans-52"/>
       <use x="63.623047" xlink:href="#DejaVuSans-48"/>
      </g>
     </g>
    </g>
    <g id="xtick_10">
     <g id="line2d_10">
      <g>
       <use style="stroke:#000000;stroke-width:0.8;" x="518.4" xlink:href="#m827b33053b" y="315"/>
      </g>
     </g>
     <g id="text_10">
      <!-- 45 -->
      <g transform="translate(512.0375 329.598437)scale(0.1 -0.1)">
       <use xlink:href="#DejaVuSans-52"/>
       <use x="63.623047" xlink:href="#DejaVuSans-53"/>
      </g>
     </g>
    </g>
    <g id="text_11">
     <!-- wall-clock time (days) -->
     <g transform="translate(240.444531 343.276563)scale(0.1 -0.1)">
      <defs>
       <path d="M 4.203125 54.6875 
L 13.1875 54.6875 
L 24.421875 12.015625 
L 35.59375 54.6875 
L 46.1875 54.6875 
L 57.421875 12.015625 
L 68.609375 54.6875 
L 77.59375 54.6875 
L 63.28125 0 
L 52.6875 0 
L 40.921875 44.828125 
L 29.109375 0 
L 18.5 0 
z
" id="DejaVuSans-119"/>
       <path d="M 34.28125 27.484375 
Q 23.390625 27.484375 19.1875 25 
Q 14.984375 22.515625 14.984375 16.5 
Q 14.984375 11.71875 18.140625 8.90625 
Q 21.296875 6.109375 26.703125 6.109375 
Q 34.1875 6.109375 38.703125 11.40625 
Q 43.21875 16.703125 43.21875 25.484375 
L 43.21875 27.484375 
z
M 52.203125 31.203125 
L 52.203125 0 
L 43.21875 0 
L 43.21875 8.296875 
Q 40.140625 3.328125 35.546875 0.953125 
Q 30.953125 -1.421875 24.3125 -1.421875 
Q 15.921875 -1.421875 10.953125 3.296875 
Q 6 8.015625 6 15.921875 
Q 6 25.140625 12.171875 29.828125 
Q 18.359375 34.515625 30.609375 34.515625 
L 43.21875 34.515625 
L 43.21875 35.40625 
Q 43.21875 41.609375 39.140625 45 
Q 35.0625 48.390625 27.6875 48.390625 
Q 23 48.390625 18.546875 47.265625 
Q 14.109375 46.140625 10.015625 43.890625 
L 10.015625 52.203125 
Q 14.9375 54.109375 19.578125 55.046875 
Q 24.21875 56 28.609375 56 
Q 40.484375 56 46.34375 49.84375 
Q 52.203125 43.703125 52.203125 31.203125 
z
" id="DejaVuSans-97"/>
       <path d="M 9.421875 75.984375 
L 18.40625 75.984375 
L 18.40625 0 
L 9.421875 0 
z
" id="DejaVuSans-108"/>
       <path d="M 4.890625 31.390625 
L 31.203125 31.390625 
L 31.203125 23.390625 
L 4.890625 23.390625 
z
" id="DejaVuSans-45"/>
       <path d="M 48.78125 52.59375 
L 48.78125 44.1875 
Q 44.96875 46.296875 41.140625 47.34375 
Q 37.3125 48.390625 33.40625 48.390625 
Q 24.65625 48.390625 19.8125 42.84375 
Q 14.984375 37.3125 14.984375 27.296875 
Q 14.984375 17.28125 19.8125 11.734375 
Q 24.65625 6.203125 33.40625 6.203125 
Q 37.3125 6.203125 41.140625 7.25 
Q 44.96875 8.296875 48.78125 10.40625 
L 48.78125 2.09375 
Q 45.015625 0.34375 40.984375 -0.53125 
Q 36.96875 -1.421875 32.421875 -1.421875 
Q 20.0625 -1.421875 12.78125 6.34375 
Q 5.515625 14.109375 5.515625 27.296875 
Q 5.515625 40.671875 12.859375 48.328125 
Q 20.21875 56 33.015625 56 
Q 37.15625 56 41.109375 55.140625 
Q 45.0625 54.296875 48.78125 52.59375 
z
" id="DejaVuSans-99"/>
       <path d="M 30.609375 48.390625 
Q 23.390625 48.390625 19.1875 42.75 
Q 14.984375 37.109375 14.984375 27.296875 
Q 14.984375 17.484375 19.15625 11.84375 
Q 23.34375 6.203125 30.609375 6.203125 
Q 37.796875 6.203125 41.984375 11.859375 
Q 46.1875 17.53125 46.1875 27.296875 
Q 46.1875 37.015625 41.984375 42.703125 
Q 37.796875 48.390625 30.609375 48.390625 
z
M 30.609375 56 
Q 42.328125 56 49.015625 48.375 
Q 55.71875 40.765625 55.71875 27.296875 
Q 55.71875 13.875 49.015625 6.21875 
Q 42.328125 -1.421875 30.609375 -1.421875 
Q 18.84375 -1.421875 12.171875 6.21875 
Q 5.515625 13.875 5.515625 27.296875 
Q 5.515625 40.765625 12.171875 48.375 
Q 18.84375 56 30.609375 56 
z
" id="DejaVuSans-111"/>
       <path d="M 9.078125 75.984375 
L 18.109375 75.984375 
L 18.109375 31.109375 
L 44.921875 54.6875 
L 56.390625 54.6875 
L 27.390625 29.109375 
L 57.625 0 
L 45.90625 0 
L 18.109375 26.703125 
L 18.109375 0 
L 9.078125 0 
z
" id="DejaVuSans-107"/>
       <path id="DejaVuSans-32"/>
       <path d="M 18.3125 70.21875 
L 18.3125 54.6875 
L 36.8125 54.6875 
L 36.8125 47.703125 
L 18.3125 47.703125 
L 18.3125 18.015625 
Q 18.3125 11.328125 20.140625 9.421875 
Q 21.96875 7.515625 27.59375 7.515625 
L 36.8125 7.515625 
L 36.8125 0 
L 27.59375 0 
Q 17.1875 0 13.234375 3.875 
Q 9.28125 7.765625 9.28125 18.015625 
L 9.28125 47.703125 
L 2.6875 47.703125 
L 2.6875 54.6875 
L 9.28125 54.6875 
L 9.28125 70.21875 
z
" id="DejaVuSans-116"/>
       <path d="M 9.421875 54.6875 
L 18.40625 54.6875 
L 18.40625 0 
L 9.421875 0 
z
M 9.421875 75.984375 
L 18.40625 75.984375 
L 18.40625 64.59375 
L 9.421875 64.59375 
z
" id="DejaVuSans-105"/>
       <path d="M 52 44.1875 
Q 55.375 50.25 60.0625 53.125 
Q 64.75 56 71.09375 56 
Q 79.640625 56 84.28125 50.015625 
Q 88.921875 44.046875 88.921875 33.015625 
L 88.921875 0 
L 79.890625 0 
L 79.890625 32.71875 
Q 79.890625 40.578125 77.09375 44.375 
Q 74.3125 48.1875 68.609375 48.1875 
Q 61.625 48.1875 57.5625 43.546875 
Q 53.515625 38.921875 53.515625 30.90625 
L 53.515625 0 
L 44.484375 0 
L 44.484375 32.71875 
Q 44.484375 40.625 41.703125 44.40625 
Q 38.921875 48.1875 33.109375 48.1875 
Q 26.21875 48.1875 22.15625 43.53125 
Q 18.109375 38.875 18.109375 30.90625 
L 18.109375 0 
L 9.078125 0 
L 9.078125 54.6875 
L 18.109375 54.6875 
L 18.109375 46.1875 
Q 21.1875 51.21875 25.484375 53.609375 
Q 29.78125 56 35.6875 56 
Q 41.65625 56 45.828125 52.96875 
Q 50 49.953125 52 44.1875 
z
" id="DejaVuSans-109"/>
       <path d="M 56.203125 29.59375 
L 56.203125 25.203125 
L 14.890625 25.203125 
Q 15.484375 15.921875 20.484375 11.0625 
Q 25.484375 6.203125 34.421875 6.203125 
Q 39.59375 6.203125 44.453125 7.46875 
Q 49.3125 8.734375 54.109375 11.28125 
L 54.109375 2.78125 
Q 49.265625 0.734375 44.1875 -0.34375 
Q 39.109375 -1.421875 33.890625 -1.421875 
Q 20.796875 -1.421875 13.15625 6.1875 
Q 5.515625 13.8125 5.515625 26.8125 
Q 5.515625 40.234375 12.765625 48.109375 
Q 20.015625 56 32.328125 56 
Q 43.359375 56 49.78125 48.890625 
Q 56.203125 41.796875 56.203125 29.59375 
z
M 47.21875 32.234375 
Q 47.125 39.59375 43.09375 43.984375 
Q 39.0625 48.390625 32.421875 48.390625 
Q 24.90625 48.390625 20.390625 44.140625 
Q 15.875 39.890625 15.1875 32.171875 
z
" id="DejaVuSans-101"/>
       <path d="M 31 75.875 
Q 24.46875 64.65625 21.28125 53.65625 
Q 18.109375 42.671875 18.109375 31.390625 
Q 18.109375 20.125 21.3125 9.0625 
Q 24.515625 -2 31 -13.1875 
L 23.1875 -13.1875 
Q 15.875 -1.703125 12.234375 9.375 
Q 8.59375 20.453125 8.59375 31.390625 
Q 8.59375 42.28125 12.203125 53.3125 
Q 15.828125 64.359375 23.1875 75.875 
z
" id="DejaVuSans-40"/>
       <path d="M 45.40625 46.390625 
L 45.40625 75.984375 
L 54.390625 75.984375 
L 54.390625 0 
L 45.40625 0 
L 45.40625 8.203125 
Q 42.578125 3.328125 38.25 0.953125 
Q 33.9375 -1.421875 27.875 -1.421875 
Q 17.96875 -1.421875 11.734375 6.484375 
Q 5.515625 14.40625 5.515625 27.296875 
Q 5.515625 40.1875 11.734375 48.09375 
Q 17.96875 56 27.875 56 
Q 33.9375 56 38.25 53.625 
Q 42.578125 51.265625 45.40625 46.390625 
z
M 14.796875 27.296875 
Q 14.796875 17.390625 18.875 11.75 
Q 22.953125 6.109375 30.078125 6.109375 
Q 37.203125 6.109375 41.296875 11.75 
Q 45.40625 17.390625 45.40625 27.296875 
Q 45.40625 37.203125 41.296875 42.84375 
Q 37.203125 48.484375 30.078125 48.484375 
Q 22.953125 48.484375 18.875 42.84375 
Q 14.796875 37.203125 14.796875 27.296875 
z
" id="DejaVuSans-100"/>
       <path d="M 32.171875 -5.078125 
Q 28.375 -14.84375 24.75 -17.8125 
Q 21.140625 -20.796875 15.09375 -20.796875 
L 7.90625 -20.796875 
L 7.90625 -13.28125 
L 13.1875 -13.28125 
Q 16.890625 -13.28125 18.9375 -11.515625 
Q 21 -9.765625 23.484375 -3.21875 
L 25.09375 0.875 
L 2.984375 54.6875 
L 12.5 54.6875 
L 29.59375 11.921875 
L 46.6875 54.6875 
L 56.203125 54.6875 
z
" id="DejaVuSans-121"/>
       <path d="M 44.28125 53.078125 
L 44.28125 44.578125 
Q 40.484375 46.53125 36.375 47.5 
Q 32.28125 48.484375 27.875 48.484375 
Q 21.1875 48.484375 17.84375 46.4375 
Q 14.5 44.390625 14.5 40.28125 
Q 14.5 37.15625 16.890625 35.375 
Q 19.28125 33.59375 26.515625 31.984375 
L 29.59375 31.296875 
Q 39.15625 29.25 43.1875 25.515625 
Q 47.21875 21.78125 47.21875 15.09375 
Q 47.21875 7.46875 41.1875 3.015625 
Q 35.15625 -1.421875 24.609375 -1.421875 
Q 20.21875 -1.421875 15.453125 -0.5625 
Q 10.6875 0.296875 5.421875 2 
L 5.421875 11.28125 
Q 10.40625 8.6875 15.234375 7.390625 
Q 20.0625 6.109375 24.8125 6.109375 
Q 31.15625 6.109375 34.5625 8.28125 
Q 37.984375 10.453125 37.984375 14.40625 
Q 37.984375 18.0625 35.515625 20.015625 
Q 33.0625 21.96875 24.703125 23.78125 
L 21.578125 24.515625 
Q 13.234375 26.265625 9.515625 29.90625 
Q 5.8125 33.546875 5.8125 39.890625 
Q 5.8125 47.609375 11.28125 51.796875 
Q 16.75 56 26.8125 56 
Q 31.78125 56 36.171875 55.265625 
Q 40.578125 54.546875 44.28125 53.078125 
z
" id="DejaVuSans-115"/>
       <path d="M 8.015625 75.875 
L 15.828125 75.875 
Q 23.140625 64.359375 26.78125 53.3125 
Q 30.421875 42.28125 30.421875 31.390625 
Q 30.421875 20.453125 26.78125 9.375 
Q 23.140625 -1.703125 15.828125 -13.1875 
L 8.015625 -13.1875 
Q 14.5 -2 17.703125 9.0625 
Q 20.90625 20.125 20.90625 31.390625 
Q 20.90625 42.671875 17.703125 53.65625 
Q 14.5 64.65625 8.015625 75.875 
z
" id="DejaVuSans-41"/>
      </defs>
      <use xlink:href="#DejaVuSans-119"/>
      <use x="81.787109" xlink:href="#DejaVuSans-97"/>
      <use x="143.066406" xlink:href="#DejaVuSans-108"/>
      <use x="170.849609" xlink:href="#DejaVuSans-108"/>
      <use x="198.632812" xlink:href="#DejaVuSans-45"/>
      <use x="234.716797" xlink:href="#DejaVuSans-99"/>
      <use x="289.697266" xlink:href="#DejaVuSans-108"/>
      <use x="317.480469" xlink:href="#DejaVuSans-111"/>
      <use x="378.662109" xlink:href="#DejaVuSans-99"/>
      <use x="433.642578" xlink:href="#DejaVuSans-107"/>
      <use x="491.552734" xlink:href="#DejaVuSans-32"/>
      <use x="523.339844" xlink:href="#DejaVuSans-116"/>
      <use x="562.548828" xlink:href="#DejaVuSans-105"/>
      <use x="590.332031" xlink:href="#DejaVuSans-109"/>
      <use x="687.744141" xlink:href="#DejaVuSans-101"/>
      <use x="749.267578" xlink:href="#DejaVuSans-32"/>
      <use x="781.054688" xlink:href="#DejaVuSans-40"/>
      <use x="820.068359" xlink:href="#DejaVuSans-100"/>
      <use x="883.544922" xlink:href="#DejaVuSans-97"/>
      <use x="944.824219" xlink:href="#DejaVuSans-121"/>
      <use x="1004.003906" xlink:href="#DejaVuSans-115"/>
      <use x="1056.103516" xlink:href="#DejaVuSans-41"/>
     </g>
    </g>
   </g>
   <g id="matplotlib.axis_2">
    <g id="ytick_1">
     <g id="line2d_11">
      <defs>
       <path d="M 0 0 
L -3.5 0 
" id="m95feae21f7" style="stroke:#000000;stroke-width:0.8;"/>
      </defs>
      <g>
       <use style="stroke:#000000;stroke-width:0.8;" x="72" xlink:href="#m95feae21f7" y="304.303783"/>
      </g>
     </g>
     <g id="text_12">
      <!-- −50 -->
      <g transform="translate(43.895313 308.103002)scale(0.1 -0.1)">
       <defs>
        <path d="M 10.59375 35.5 
L 73.1875 35.5 
L 73.1875 27.203125 
L 10.59375 27.203125 
z
" id="DejaVuSans-8722"/>
       </defs>
       <use xlink:href="#DejaVuSans-8722"/>
       <use x="83.789062" xlink:href="#DejaVuSans-53"/>
       <use x="147.412109" xlink:href="#DejaVuSans-48"/>
      </g>
     </g>
    </g>
    <g id="ytick_2">
     <g id="line2d_12">
      <g>
       <use style="stroke:#000000;stroke-width:0.8;" x="72" xlink:href="#m95feae21f7" y="262.845577"/>
      </g>
     </g>
     <g id="text_13">
      <!-- −25 -->
      <g transform="translate(43.895313 266.644795)scale(0.1 -0.1)">
       <use xlink:href="#DejaVuSans-8722"/>
       <use x="83.789062" xlink:href="#DejaVuSans-50"/>
       <use x="147.412109" xlink:href="#DejaVuSans-53"/>
      </g>
     </g>
    </g>
    <g id="ytick_3">
     <g id="line2d_13">
      <g>
       <use style="stroke:#000000;stroke-width:0.8;" x="72" xlink:href="#m95feae21f7" y="221.38737"/>
      </g>
     </g>
     <g id="text_14">
      <!-- 0 -->
      <g transform="translate(58.6375 225.186589)scale(0.1 -0.1)">
       <use xlink:href="#DejaVuSans-48"/>
      </g>
     </g>
    </g>
    <g id="ytick_4">
     <g id="line2d_14">
      <g>
       <use style="stroke:#000000;stroke-width:0.8;" x="72" xlink:href="#m95feae21f7" y="179.929164"/>
      </g>
     </g>
     <g id="text_15">
      <!-- 25 -->
      <g transform="translate(52.275 183.728383)scale(0.1 -0.1)">
       <use xlink:href="#DejaVuSans-50"/>
       <use x="63.623047" xlink:href="#DejaVuSans-53"/>
      </g>
     </g>
    </g>
    <g id="ytick_5">
     <g id="line2d_15">
      <g>
       <use style="stroke:#000000;stroke-width:0.8;" x="72" xlink:href="#m95feae21f7" y="138.470958"/>
      </g>
     </g>
     <g id="text_16">
      <!-- 50 -->
      <g transform="translate(52.275 142.270177)scale(0.1 -0.1)">
       <use xlink:href="#DejaVuSans-53"/>
       <use x="63.623047" xlink:href="#DejaVuSans-48"/>
      </g>
     </g>
    </g>
    <g id="ytick_6">
     <g id="line2d_16">
      <g>
       <use style="stroke:#000000;stroke-width:0.8;" x="72" xlink:href="#m95feae21f7" y="97.012752"/>
      </g>
     </g>
     <g id="text_17">
      <!-- 75 -->
      <g transform="translate(52.275 100.81197)scale(0.1 -0.1)">
       <defs>
        <path d="M 8.203125 72.90625 
L 55.078125 72.90625 
L 55.078125 68.703125 
L 28.609375 0 
L 18.3125 0 
L 43.21875 64.59375 
L 8.203125 64.59375 
z
" id="DejaVuSans-55"/>
       </defs>
       <use xlink:href="#DejaVuSans-55"/>
       <use x="63.623047" xlink:href="#DejaVuSans-53"/>
      </g>
     </g>
    </g>
    <g id="ytick_7">
     <g id="line2d_17">
      <g>
       <use style="stroke:#000000;stroke-width:0.8;" x="72" xlink:href="#m95feae21f7" y="55.554545"/>
      </g>
     </g>
     <g id="text_18">
      <!-- 100 -->
      <g transform="translate(45.9125 59.353764)scale(0.1 -0.1)">
       <use xlink:href="#DejaVuSans-49"/>
       <use x="63.623047" xlink:href="#DejaVuSans-48"/>
       <use x="127.246094" xlink:href="#DejaVuSans-48"/>
      </g>
     </g>
    </g>
    <g id="text_19">
     <!-- cumulative reward -->
     <g transform="translate(37.815625 225.799219)rotate(-90)scale(0.1 -0.1)">
      <defs>
       <path d="M 8.5 21.578125 
L 8.5 54.6875 
L 17.484375 54.6875 
L 17.484375 21.921875 
Q 17.484375 14.15625 20.5 10.265625 
Q 23.53125 6.390625 29.59375 6.390625 
Q 36.859375 6.390625 41.078125 11.03125 
Q 45.3125 15.671875 45.3125 23.6875 
L 45.3125 54.6875 
L 54.296875 54.6875 
L 54.296875 0 
L 45.3125 0 
L 45.3125 8.40625 
Q 42.046875 3.421875 37.71875 1 
Q 33.40625 -1.421875 27.6875 -1.421875 
Q 18.265625 -1.421875 13.375 4.4375 
Q 8.5 10.296875 8.5 21.578125 
z
M 31.109375 56 
z
" id="DejaVuSans-117"/>
       <path d="M 2.984375 54.6875 
L 12.5 54.6875 
L 29.59375 8.796875 
L 46.6875 54.6875 
L 56.203125 54.6875 
L 35.6875 0 
L 23.484375 0 
z
" id="DejaVuSans-118"/>
       <path d="M 41.109375 46.296875 
Q 39.59375 47.171875 37.8125 47.578125 
Q 36.03125 48 33.890625 48 
Q 26.265625 48 22.1875 43.046875 
Q 18.109375 38.09375 18.109375 28.8125 
L 18.109375 0 
L 9.078125 0 
L 9.078125 54.6875 
L 18.109375 54.6875 
L 18.109375 46.1875 
Q 20.953125 51.171875 25.484375 53.578125 
Q 30.03125 56 36.53125 56 
Q 37.453125 56 38.578125 55.875 
Q 39.703125 55.765625 41.0625 55.515625 
z
" id="DejaVuSans-114"/>
      </defs>
      <use xlink:href="#DejaVuSans-99"/>
      <use x="54.980469" xlink:href="#DejaVuSans-117"/>
      <use x="118.359375" xlink:href="#DejaVuSans-109"/>
      <use x="215.771484" xlink:href="#DejaVuSans-117"/>
      <use x="279.150391" xlink:href="#DejaVuSans-108"/>
      <use x="306.933594" xlink:href="#DejaVuSans-97"/>
      <use x="368.212891" xlink:href="#DejaVuSans-116"/>
      <use x="407.421875" xlink:href="#DejaVuSans-105"/>
      <use x="435.205078" xlink:href="#DejaVuSans-118"/>
      <use x="494.384766" xlink:href="#DejaVuSans-101"/>
      <use x="555.908203" xlink:href="#DejaVuSans-32"/>
      <use x="587.695312" xlink:href="#DejaVuSans-114"/>
      <use x="626.558594" xlink:href="#DejaVuSans-101"/>
      <use x="688.082031" xlink:href="#DejaVuSans-119"/>
      <use x="769.869141" xlink:href="#DejaVuSans-97"/>
      <use x="831.148438" xlink:href="#DejaVuSans-114"/>
      <use x="870.511719" xlink:href="#DejaVuSans-100"/>
     </g>
    </g>
   </g>
   <g id="line2d_18">
    <path clip-path="url(#pfab3c872eb)" d="M 72.717899 226.660854 
L 72.73647 231.171507 
L 72.76937 221.138621 
L 72.818663 224.604527 
L 72.867956 221.088871 
L 72.935819 221.967785 
L 73.017898 220.408957 
L 73.050798 221.005955 
L 73.085761 222.000952 
L 73.151447 220.972788 
L 73.16784 221.055705 
L 73.20074 220.442123 
L 73.284882 225.284442 
L 73.350567 221.337621 
L 73.401923 221.719036 
L 73.434824 221.072288 
L 73.451216 221.785369 
L 73.533409 224.637694 
L 73.549802 222.863282 
L 73.568373 221.38737 
L 73.634173 223.128615 
L 73.666959 222.183368 
L 73.683351 225.665857 
L 73.767608 222.531617 
L 73.784 222.233118 
L 73.800393 223.228115 
L 73.866193 224.952776 
L 73.91755 224.140195 
L 73.933942 223.327614 
L 73.983235 225.566358 
L 74.049035 227.257852 
L 74.016135 223.841696 
L 74.067606 224.604527 
L 74.116785 221.304454 
L 74.149685 225.251275 
L 74.182585 223.493447 
L 74.198978 226.677437 
L 74.266727 222.846699 
L 74.299627 225.035692 
L 74.365312 222.398951 
L 74.400161 224.62111 
L 74.416669 226.727187 
L 74.465961 223.178365 
L 74.498862 223.244698 
L 74.515254 222.69745 
L 74.583118 223.924613 
L 74.599511 225.914606 
L 74.615903 223.858279 
L 74.681704 224.339195 
L 74.698211 223.957779 
L 74.782353 226.577938 
L 74.749567 223.493447 
L 74.79886 223.493447 
L 74.932295 228.136766 
L 74.948688 226.876437 
L 74.96508 226.627688 
L 74.981473 224.571361 
L 75.030766 227.224686 
L 75.082237 225.533191 
L 75.115137 223.626113 
L 75.180823 226.312605 
L 75.197215 224.803527 
L 75.314257 227.539768 
L 75.330765 226.99252 
L 75.36355 224.936193 
L 75.447692 226.213106 
L 75.464199 226.229689 
L 75.614256 228.468432 
L 75.696334 225.83169 
L 75.731298 227.158353 
L 75.74769 228.766931 
L 75.796983 226.959353 
L 75.829883 227.224686 
L 75.846276 226.014106 
L 75.879062 228.037267 
L 75.946811 226.047273 
L 75.979596 226.959353 
L 75.995989 226.063856 
L 76.063853 224.704027 
L 76.045282 226.196522 
L 76.096638 225.798523 
L 76.178831 226.577938 
L 76.195224 225.400525 
L 76.263087 228.816681 
L 76.295873 225.73219 
L 76.312266 224.388944 
L 76.328658 227.058853 
L 76.396522 226.246272 
L 76.44593 227.539768 
L 76.478715 224.952776 
L 76.495222 223.791946 
L 76.528008 227.440268 
L 76.579364 224.554777 
L 76.61364 226.84327 
L 76.685974 225.201525 
L 76.74226 224.505027 
L 76.722428 227.009103 
L 76.760258 225.184942 
L 76.777797 227.473435 
L 76.875695 226.89302 
L 76.934961 225.383941 
L 76.915243 227.556351 
L 76.987693 225.73219 
L 77.076649 227.95435 
L 77.022427 225.234692 
L 77.131559 227.324185 
L 77.166293 225.649274 
L 77.238513 226.495021 
L 77.299957 226.395522 
L 77.357045 228.916181 
L 77.379743 226.611104 
L 77.468126 227.805101 
L 77.511458 226.279439 
L 77.590556 226.528188 
L 77.728117 228.501599 
L 77.815239 226.229689 
L 77.851235 227.340769 
L 77.897089 226.876437 
L 77.922308 227.473435 
L 77.966213 229.131763 
L 77.989943 227.606101 
L 78.014818 226.743771 
L 78.03786 229.297596 
L 78.059182 226.760354 
L 78.083599 228.485015 
L 78.154672 226.246272 
L 78.223682 227.622685 
L 78.266326 226.644271 
L 78.361932 226.99252 
L 78.408129 225.798523 
L 78.565064 228.203099 
L 78.588679 225.616107 
L 78.672477 226.163356 
L 78.712943 225.367358 
L 78.777023 228.783514 
L 78.801211 226.544771 
L 78.888907 227.174936 
L 78.911719 230.27601 
L 78.990932 226.296022 
L 79.010993 226.528188 
L 79.028646 228.385516 
L 79.132391 227.655851 
L 79.233384 228.96593 
L 79.184091 227.125186 
L 79.266398 228.700598 
L 79.315806 229.26443 
L 79.400406 226.975937 
L 79.416914 229.032264 
L 79.499221 227.440268 
L 79.466321 229.596095 
L 79.534299 228.766931 
L 79.600214 229.811678 
L 79.701093 227.871434 
L 79.7176 229.994094 
L 79.81653 228.700598 
L 79.833037 228.319182 
L 79.884623 229.11518 
L 79.917523 228.883014 
L 79.983438 230.358926 
L 79.950423 227.539768 
L 80.035023 230.159927 
L 80.101053 229.198096 
L 80.117445 229.596095 
L 80.134067 230.690592 
L 80.166968 228.335766 
L 80.218553 229.032264 
L 80.234946 227.854851 
L 80.284468 230.32576 
L 80.333761 228.717181 
L 80.434868 230.674009 
L 80.368954 227.854851 
L 80.451376 229.529762 
L 80.484391 228.385516 
L 80.535976 228.634265 
L 80.618398 231.353923 
L 80.634906 226.727187 
L 80.735899 229.380513 
L 80.752521 229.894594 
L 80.801928 228.567932 
L 80.834943 228.634265 
L 80.853514 227.456852 
L 80.985458 230.889591 
L 81.001851 230.624259 
L 81.020422 228.15335 
L 81.053437 230.889591 
L 81.119466 229.513179 
L 81.187559 231.768505 
L 81.204066 229.363929 
L 81.236967 230.922758 
L 81.253474 228.567932 
L 81.319389 232.597669 
L 81.335782 231.072007 
L 81.354467 231.204674 
L 81.370974 230.873008 
L 81.387367 228.650848 
L 81.420382 231.486589 
L 81.469789 231.204674 
L 81.486297 231.751922 
L 81.502804 230.358926 
L 81.55439 230.591092 
L 81.570897 230.22626 
L 81.587404 231.055424 
L 81.620419 230.889591 
L 81.636927 231.38709 
L 81.653434 230.093594 
L 81.688627 230.159927 
L 81.705019 229.811678 
L 81.721641 231.171507 
L 81.738149 230.209677 
L 81.820571 230.043844 
L 81.855649 232.995668 
L 81.872157 230.17651 
L 81.971086 230.27601 
L 82.022901 234.173081 
L 82.088816 233.343917 
L 82.23956 230.010677 
L 82.322097 232.24942 
L 82.357978 231.851422 
L 82.390993 233.542916 
L 82.424007 231.38709 
L 82.440515 233.675583 
L 82.541737 233.50975 
L 82.558244 234.173081 
L 82.591259 232.29917 
L 82.607767 234.156498 
L 82.692482 231.33734 
L 82.708989 232.44842 
L 82.808033 233.907749 
L 82.742004 231.519756 
L 82.824541 233.50975 
L 82.859733 235.499744 
L 82.90937 232.581086 
L 82.925878 234.62083 
L 82.958892 230.475009 
L 83.008644 232.332337 
L 83.043836 233.078585 
L 83.060459 231.917755 
L 83.093473 232.216254 
L 83.126488 234.355497 
L 83.211203 229.446846 
L 83.29374 232.846419 
L 83.343262 231.917755 
L 83.378569 232.39867 
L 83.444484 229.828261 
L 83.562099 233.642416 
L 83.578607 230.790092 
L 83.661144 232.780085 
L 83.745973 234.852996 
L 83.696336 232.067004 
L 83.762366 232.664002 
L 83.778988 232.846419 
L 83.88021 231.221257 
L 83.845017 233.161501 
L 83.896718 231.569506 
L 83.995877 234.537913 
L 84.030955 233.443417 
L 84.113492 231.785088 
L 84.063969 234.653996 
L 84.129999 232.929335 
L 84.163128 233.443417 
L 84.214829 232.24942 
L 84.247843 231.851422 
L 84.264351 233.990665 
L 84.280858 231.403673 
L 84.346773 232.763502 
L 84.447995 231.005674 
L 84.414981 233.028835 
L 84.48101 231.18809 
L 84.497517 232.547919 
L 84.565725 229.26443 
L 84.59874 231.751922 
L 84.615247 231.635839 
L 84.631754 231.868005 
L 84.71796 234.305747 
L 84.73504 234.189664 
L 84.784562 235.035412 
L 84.850592 230.010677 
L 84.918685 234.139915 
L 84.968207 233.41025 
L 85.017729 231.569506 
L 85.052922 233.46 
L 85.069429 233.41025 
L 85.102559 233.211251 
L 85.118951 234.239414 
L 85.203666 231.470006 
L 85.236796 231.735339 
L 85.302711 231.088591 
L 85.335725 234.454997 
L 85.436833 231.23784 
L 85.45334 233.50975 
L 85.538055 235.499744 
L 85.587577 235.383661 
L 85.670114 235.035412 
L 85.686622 237.357071 
L 85.705307 233.891165 
L 85.738322 237.80482 
L 85.804351 234.454997 
L 85.820859 238.418401 
L 85.921966 236.312325 
L 85.954981 239.347065 
L 86.004389 235.964076 
L 86.020896 236.64399 
L 86.039582 236.826406 
L 86.155248 235.051995 
L 86.171755 238.302318 
L 86.223455 234.305747 
L 86.256585 236.063575 
L 86.273092 236.212825 
L 86.2896 235.73191 
L 86.3742 234.604246 
L 86.355514 236.69374 
L 86.390707 236.295741 
L 86.489637 234.869579 
L 86.506144 235.035412 
L 86.522652 236.295741 
L 86.574237 234.073581 
L 86.607252 235.002245 
L 86.623759 234.438414 
L 86.640267 235.58266 
L 86.690133 234.604246 
L 86.708703 235.648993 
L 86.741718 232.664002 
L 86.79124 235.184661 
L 86.85727 232.547919 
L 86.908741 234.454997 
L 87.024292 231.851422 
L 86.941756 235.184661 
L 87.075878 232.713752 
" style="fill:none;stroke:#1f77b4;stroke-linecap:square;stroke-width:1.5;"/>
   </g>
   <g id="line2d_19">
    <path clip-path="url(#pfab3c872eb)" d="M 72.717899 264.503905 
L 72.73647 302.645455 
L 72.785763 236.312325 
L 72.818663 262.845577 
L 72.851563 239.628981 
L 72.902919 279.428859 
L 72.935819 249.578951 
L 72.984997 257.870592 
L 73.050798 237.970653 
L 73.102154 246.262294 
L 73.151447 239.628981 
L 73.20074 252.895607 
L 73.252096 239.628981 
L 73.284882 271.137218 
L 73.301274 251.237279 
L 73.317667 251.237279 
L 73.334174 269.47889 
L 73.36696 247.920622 
L 73.418431 249.578951 
L 73.484116 242.945638 
L 73.467724 264.503905 
L 73.517016 246.262294 
L 73.58488 262.845577 
L 73.568373 241.287309 
L 73.601273 246.262294 
L 73.666959 237.970653 
L 73.650566 271.137218 
L 73.683351 251.237279 
L 73.699744 261.187248 
L 73.767608 239.628981 
L 73.901157 252.895607 
L 73.933942 246.262294 
L 73.983235 261.187248 
L 73.999743 262.845577 
L 74.049035 272.795546 
L 74.116785 237.970653 
L 74.198978 272.795546 
L 74.233941 247.920622 
L 74.250334 247.920622 
L 74.283234 244.603966 
L 74.316019 251.237279 
L 74.416669 266.162233 
L 74.381705 246.262294 
L 74.433061 262.845577 
L 74.482354 239.628981 
L 74.548154 256.212264 
L 74.566611 242.945638 
L 74.599511 274.453874 
L 74.648804 244.603966 
L 74.665311 271.137218 
L 74.76596 261.187248 
L 74.815253 244.603966 
L 74.880939 247.920622 
L 75.047273 271.137218 
L 75.115137 241.287309 
L 75.16443 246.262294 
L 75.197215 239.628981 
L 75.281472 277.770531 
L 75.297864 242.945638 
L 75.314257 281.087187 
L 75.398514 252.895607 
L 75.414906 274.453874 
L 75.464199 247.920622 
L 75.497099 267.820561 
L 75.513492 251.237279 
L 75.614256 254.553935 
L 75.696334 247.920622 
L 75.647156 256.212264 
L 75.712727 251.237279 
L 75.780591 261.187248 
L 75.846276 257.870592 
L 75.914025 249.578951 
L 75.979596 252.895607 
L 75.995989 271.137218 
L 76.012496 244.603966 
L 76.096638 259.52892 
L 76.113145 244.603966 
L 76.211731 251.237279 
L 76.230187 251.237279 
L 76.263087 296.012142 
L 76.345166 264.503905 
L 76.44593 266.162233 
L 76.511615 241.287309 
L 76.579364 276.112203 
L 76.631408 266.162233 
L 76.66706 244.603966 
L 76.74226 257.870592 
L 76.760258 274.453874 
L 76.798431 249.578951 
L 76.837292 249.578951 
L 76.915243 256.212264 
L 76.896443 247.920622 
L 76.934961 247.920622 
L 76.9525 247.920622 
L 77.131559 262.845577 
L 77.166293 247.920622 
L 77.238513 254.553935 
L 77.256511 267.820561 
L 77.299957 249.578951 
L 77.33836 261.187248 
L 77.402899 251.237279 
L 77.442448 252.895607 
L 77.468126 262.845577 
L 77.487614 246.262294 
L 77.551351 254.553935 
L 77.57038 246.262294 
L 77.631595 257.870592 
L 77.649707 272.795546 
L 77.686161 251.237279 
L 77.728117 264.503905 
L 77.815239 247.920622 
L 77.833237 251.237279 
L 77.922308 269.47889 
L 77.943516 247.920622 
L 78.03786 254.553935 
L 78.104921 259.52892 
L 78.127619 254.553935 
L 78.154672 251.237279 
L 78.178172 259.52892 
L 78.202016 254.553935 
L 78.244546 242.945638 
L 78.289368 267.820561 
L 78.387151 246.262294 
L 78.408129 249.578951 
L 78.431286 261.187248 
L 78.450773 247.920622 
L 78.511644 254.553935 
L 78.588679 257.870592 
L 78.629259 246.262294 
L 78.735067 277.770531 
L 78.82196 247.920622 
L 78.84569 256.212264 
L 78.973049 242.945638 
L 78.990932 247.920622 
L 79.010993 247.920622 
L 79.028646 272.795546 
L 79.063839 242.945638 
L 79.115883 252.895607 
L 79.132391 244.603966 
L 79.165405 256.212264 
L 79.216991 254.553935 
L 79.249891 264.503905 
L 79.315806 261.187248 
L 79.367391 247.920622 
L 79.416914 259.52892 
L 79.433421 259.52892 
L 79.499221 247.920622 
L 79.567314 254.553935 
L 79.666129 294.353813 
L 79.616722 249.578951 
L 79.6847 259.52892 
L 79.7505 247.920622 
L 79.783515 254.553935 
L 79.800022 261.187248 
L 79.868115 249.578951 
L 79.884623 249.578951 
L 79.96693 269.47889 
L 79.950423 244.603966 
L 79.99983 264.503905 
L 80.018516 264.503905 
L 80.101053 251.237279 
L 80.134067 257.870592 
L 80.202046 254.553935 
L 80.218553 267.820561 
L 80.333761 247.920622 
L 80.401968 261.187248 
L 80.451376 259.52892 
L 80.484391 249.578951 
L 80.535976 272.795546 
L 80.552369 264.503905 
L 80.601891 251.237279 
L 80.585384 276.112203 
L 80.651413 257.870592 
L 80.667921 262.845577 
L 80.702999 252.895607 
L 80.719506 259.52892 
L 80.735899 249.578951 
L 80.752521 269.47889 
L 80.834943 254.553935 
L 80.870021 256.212264 
L 80.886529 249.578951 
L 80.985458 266.162233 
L 81.001851 256.212264 
L 81.020422 249.578951 
L 81.053437 262.845577 
L 81.102959 257.870592 
L 81.135973 257.870592 
L 81.168988 266.162233 
L 81.187559 277.770531 
L 81.253474 251.237279 
L 81.354467 276.112203 
L 81.370974 264.503905 
L 81.387367 251.237279 
L 81.420382 271.137218 
L 81.469789 259.52892 
L 81.521489 269.47889 
L 81.55439 256.212264 
L 81.587404 267.820561 
L 81.620419 252.895607 
L 81.688627 271.137218 
L 81.705019 254.553935 
L 81.804064 267.820561 
L 81.738149 251.237279 
L 81.837078 262.845577 
L 81.888664 256.212264 
L 81.872157 264.503905 
L 81.921679 261.187248 
L 81.971086 272.795546 
L 81.954694 252.895607 
L 82.022901 269.47889 
L 82.039294 252.895607 
L 82.138338 257.870592 
L 82.154845 257.870592 
L 82.171353 272.795546 
L 82.23956 256.212264 
L 82.255953 264.503905 
L 82.339407 254.553935 
L 82.322097 266.162233 
L 82.390993 259.52892 
L 82.47353 289.378829 
L 82.424007 256.212264 
L 82.506544 267.820561 
L 82.574752 269.47889 
L 82.624389 259.52892 
L 82.640896 261.187248 
L 82.657289 274.453874 
L 82.692482 256.212264 
L 82.758511 267.820561 
L 82.791526 259.52892 
L 82.859733 271.137218 
L 82.958892 259.52892 
L 82.975514 264.503905 
L 82.992022 262.845577 
L 83.008644 279.428859 
L 83.076851 257.870592 
L 83.093473 261.187248 
L 83.109981 269.47889 
L 83.126488 259.52892 
L 83.194696 264.503905 
L 83.244218 252.895607 
L 83.277232 272.795546 
L 83.29374 256.212264 
L 83.310247 276.112203 
L 83.326755 251.237279 
L 83.394962 257.870592 
L 83.41147 257.870592 
L 83.444484 264.503905 
L 83.477614 254.553935 
L 83.545707 261.187248 
L 83.628129 249.578951 
L 83.578607 262.845577 
L 83.644636 261.187248 
L 83.696336 269.47889 
L 83.729351 259.52892 
L 83.745973 266.162233 
L 83.795495 257.870592 
L 83.778988 269.47889 
L 83.82851 266.162233 
L 83.845017 271.137218 
L 83.863703 259.52892 
L 83.913225 259.52892 
L 83.94624 267.820561 
L 83.962747 261.187248 
L 83.979255 277.770531 
L 84.030955 254.553935 
L 84.063969 267.820561 
L 84.179636 254.553935 
L 84.198321 259.52892 
L 84.264351 279.428859 
L 84.247843 254.553935 
L 84.313873 264.503905 
L 84.33038 264.503905 
L 84.365458 256.212264 
L 84.381966 262.845577 
L 84.398473 276.112203 
L 84.464503 252.895607 
L 84.48101 252.895607 
L 84.565725 269.47889 
L 84.582232 266.162233 
L 84.59874 256.212264 
L 84.615247 272.795546 
L 84.681735 261.187248 
L 84.71796 276.112203 
L 84.768055 267.820561 
L 84.869277 252.895607 
L 84.935192 271.137218 
L 84.968207 267.820561 
L 84.984714 251.237279 
L 85.036529 282.745516 
L 85.085937 259.52892 
L 85.118951 291.037157 
L 85.135459 254.553935 
L 85.220174 276.112203 
L 85.269696 257.870592 
L 85.319218 262.845577 
L 85.335725 276.112203 
L 85.352233 256.212264 
L 85.420326 256.212264 
L 85.436833 254.553935 
L 85.45334 257.870592 
L 85.538055 279.428859 
L 85.57107 269.47889 
L 85.587577 266.162233 
L 85.604085 286.062172 
L 85.6371 261.187248 
L 85.686622 269.47889 
L 85.771337 282.745516 
L 85.787844 252.895607 
L 85.853874 284.403844 
L 85.905459 271.137218 
L 85.938359 284.403844 
L 86.004389 262.845577 
L 86.122233 272.795546 
L 86.171755 262.845577 
L 86.188263 271.137218 
L 86.206948 276.112203 
L 86.239963 261.187248 
L 86.256585 262.845577 
L 86.273092 262.845577 
L 86.355514 277.770531 
L 86.3742 259.52892 
L 86.4071 281.087187 
L 86.473129 269.47889 
L 86.541222 272.795546 
L 86.607252 257.870592 
L 86.640267 256.212264 
L 86.708703 272.795546 
L 86.725211 281.087187 
L 86.741718 256.212264 
L 86.79124 262.845577 
L 86.807748 262.845577 
L 86.85727 252.895607 
L 86.925248 272.795546 
L 87.059371 256.212264 
L 87.075878 264.503905 
L 87.075878 264.503905 
" style="fill:none;stroke:#ff7f0e;stroke-linecap:square;stroke-width:1.5;"/>
   </g>
   <g id="line2d_20">
    <path clip-path="url(#pfab3c872eb)" d="M 72.717899 199.829103 
L 72.80227 209.779073 
L 72.752862 198.170775 
L 72.835055 201.487431 
L 72.851563 201.487431 
L 72.919312 206.462416 
L 72.935819 203.14576 
L 73.001505 193.19579 
L 73.050798 201.487431 
L 73.085761 194.854118 
L 73.102154 203.14576 
L 73.184232 204.804088 
L 73.20074 179.929164 
L 73.334174 209.779073 
L 73.451216 198.170775 
L 73.467724 201.487431 
L 73.533409 209.779073 
L 73.58488 206.462416 
L 73.666959 199.829103 
L 73.683351 211.437401 
L 73.699744 196.512447 
L 73.767608 204.804088 
L 73.784 201.487431 
L 73.816901 209.779073 
L 73.849801 209.779073 
L 73.866193 209.779073 
L 73.91755 198.170775 
L 73.983235 201.487431 
L 74.067606 211.437401 
L 74.100392 204.804088 
L 74.116785 203.14576 
L 74.133292 213.095729 
L 74.182585 196.512447 
L 74.21537 204.804088 
L 74.233941 204.804088 
L 74.299627 199.829103 
L 74.283234 209.779073 
L 74.316019 204.804088 
L 74.400161 201.487431 
L 74.416669 211.437401 
L 74.433061 199.829103 
L 74.515254 203.14576 
L 74.632411 213.095729 
L 74.733175 203.14576 
L 74.76596 204.804088 
L 74.83176 214.754057 
L 74.880939 211.437401 
L 74.899395 206.462416 
L 74.99798 208.120744 
L 75.047273 214.754057 
L 75.065844 209.779073 
L 75.13153 203.14576 
L 75.098744 213.095729 
L 75.16443 206.462416 
L 75.180823 218.070714 
L 75.264964 206.462416 
L 75.281472 204.804088 
L 75.297864 209.779073 
L 75.314257 209.779073 
L 75.347157 208.120744 
L 75.36355 213.095729 
L 75.380057 204.804088 
L 75.480707 209.779073 
L 75.497099 209.779073 
L 75.529999 203.14576 
L 75.614256 214.754057 
L 75.731298 206.462416 
L 75.74769 208.120744 
L 75.796983 214.754057 
L 75.829883 211.437401 
L 75.846276 201.487431 
L 75.879062 213.095729 
L 75.930418 211.437401 
L 75.946811 216.412386 
L 76.012496 204.804088 
L 76.028889 199.829103 
L 76.045282 211.437401 
L 76.096638 211.437401 
L 76.113145 211.437401 
L 76.162438 214.754057 
L 76.211731 204.804088 
L 76.295873 203.14576 
L 76.328658 216.412386 
L 76.412915 203.14576 
L 76.429422 208.120744 
L 76.528008 214.754057 
L 76.544515 211.437401 
L 76.596445 206.462416 
L 76.648947 211.437401 
L 76.685974 206.462416 
L 76.703743 214.754057 
L 76.74226 211.437401 
L 76.760258 211.437401 
L 76.777797 204.804088 
L 76.857124 209.779073 
L 76.896443 206.462416 
L 76.934961 213.095729 
L 76.96981 206.462416 
L 77.039851 209.779073 
L 77.076649 213.095729 
L 77.114134 206.462416 
L 77.131559 209.779073 
L 77.166293 211.437401 
L 77.219828 206.462416 
L 77.299957 214.754057 
L 77.33836 211.437401 
L 77.421814 203.14576 
L 77.402899 214.754057 
L 77.442448 211.437401 
L 77.468126 213.095729 
L 77.57038 206.462416 
L 77.590556 208.120744 
L 77.631595 213.095729 
L 77.649707 209.779073 
L 77.710349 213.095729 
L 77.746344 204.804088 
L 77.792313 213.095729 
L 77.874391 209.779073 
L 77.897089 206.462416 
L 77.922308 211.437401 
L 77.943516 208.120744 
L 78.03786 216.412386 
L 77.989943 206.462416 
L 78.059182 211.437401 
L 78.178172 209.779073 
L 78.223682 216.412386 
L 78.244546 203.14576 
L 78.336139 214.754057 
L 78.472325 206.462416 
L 78.629259 214.754057 
L 78.650467 213.095729 
L 78.735067 208.120744 
L 78.755472 209.779073 
L 78.84569 218.070714 
L 78.866897 211.437401 
L 78.911719 218.070714 
L 78.973049 214.754057 
L 78.990932 209.779073 
L 79.046529 216.412386 
L 79.081722 211.437401 
L 79.115883 218.070714 
L 79.216991 216.412386 
L 79.266398 203.14576 
L 79.332313 214.754057 
L 79.400406 208.120744 
L 79.449814 211.437401 
L 79.550807 216.412386 
L 79.567314 206.462416 
L 79.666129 211.437401 
L 79.7176 216.412386 
L 79.767008 213.095729 
L 79.81653 208.120744 
L 79.851608 216.412386 
L 79.868115 213.095729 
L 79.93403 209.779073 
L 79.950423 218.070714 
L 80.067923 204.804088 
L 80.166968 216.412386 
L 80.185538 209.779073 
L 80.284468 218.070714 
L 80.300861 216.412386 
L 80.317368 206.462416 
L 80.418361 211.437401 
L 80.451376 211.437401 
L 80.467883 218.070714 
L 80.568991 214.754057 
L 80.634906 206.462416 
L 80.651413 216.412386 
L 80.667921 211.437401 
L 80.785421 216.412386 
L 80.81855 209.779073 
L 80.834943 218.070714 
L 80.886529 213.095729 
L 80.903036 218.070714 
L 80.919543 209.779073 
L 81.001851 214.754057 
L 81.020422 204.804088 
L 81.102959 213.095729 
L 81.187559 218.070714 
L 81.135973 211.437401 
L 81.220574 216.412386 
L 81.236967 216.412386 
L 81.286374 218.070714 
L 81.354467 211.437401 
L 81.403874 218.070714 
L 81.420382 209.779073 
L 81.469789 213.095729 
L 81.502804 218.070714 
L 81.537997 211.437401 
L 81.570897 213.095729 
L 81.636927 208.120744 
L 81.604026 219.729042 
L 81.669941 216.412386 
L 81.688627 216.412386 
L 81.705019 218.070714 
L 81.754656 213.095729 
L 81.771049 213.095729 
L 81.787556 208.120744 
L 81.837078 218.070714 
L 81.855649 214.754057 
L 81.888664 213.095729 
L 81.954694 216.412386 
L 82.039294 213.095729 
L 82.022901 219.729042 
L 82.055801 218.070714 
L 82.138338 211.437401 
L 82.121831 219.729042 
L 82.171353 216.412386 
L 82.206431 218.070714 
L 82.23956 213.095729 
L 82.255953 208.120744 
L 82.289083 218.070714 
L 82.339407 211.437401 
L 82.440515 216.412386 
L 82.47353 208.120744 
L 82.506544 218.070714 
L 82.541737 216.412386 
L 82.558244 218.070714 
L 82.574752 206.462416 
L 82.673796 213.095729 
L 82.725496 219.729042 
L 82.708989 206.462416 
L 82.791526 216.412386 
L 82.824541 218.070714 
L 82.892748 208.120744 
L 83.008644 218.070714 
L 83.060459 209.779073 
L 83.109981 213.095729 
L 83.126488 219.729042 
L 83.211203 209.779073 
L 83.22771 218.070714 
L 83.244218 213.095729 
L 83.326755 216.412386 
L 83.343262 218.070714 
L 83.361947 211.437401 
L 83.394962 214.754057 
L 83.427977 208.120744 
L 83.460992 216.412386 
L 83.494121 213.095729 
L 83.595114 219.729042 
L 83.611621 216.412386 
L 83.628129 216.412386 
L 83.661144 218.070714 
L 83.677651 214.754057 
L 83.696336 214.754057 
L 83.778988 211.437401 
L 83.729351 218.070714 
L 83.795495 214.754057 
L 83.88021 219.729042 
L 83.913225 213.095729 
L 83.979255 218.070714 
L 84.012384 218.070714 
L 84.047462 213.095729 
L 84.080477 219.729042 
L 84.096984 206.462416 
L 84.179636 218.070714 
L 84.198321 218.070714 
L 84.214829 211.437401 
L 84.297365 213.095729 
L 84.33038 218.070714 
L 84.414981 216.412386 
L 84.431488 216.412386 
L 84.447995 211.437401 
L 84.464503 219.729042 
L 84.53271 216.412386 
L 84.615247 203.14576 
L 84.59874 218.070714 
L 84.631754 216.412386 
L 84.700879 219.729042 
L 84.751548 218.070714 
L 84.834199 209.779073 
L 84.784562 219.729042 
L 84.850592 214.754057 
L 84.918685 219.729042 
L 84.88567 213.095729 
L 84.935192 216.412386 
L 84.9517 209.779073 
L 85.001222 219.729042 
L 85.036529 214.754057 
L 85.069429 213.095729 
L 85.168588 221.38737 
L 85.269696 213.095729 
L 85.286203 214.754057 
L 85.319218 219.729042 
L 85.403818 216.412386 
L 85.420326 216.412386 
L 85.45334 208.120744 
L 85.469848 218.070714 
L 85.538055 214.754057 
L 85.554563 214.754057 
L 85.620592 219.729042 
L 85.6371 218.070714 
L 85.653607 208.120744 
L 85.670114 219.729042 
L 85.754829 213.095729 
L 85.771337 219.729042 
L 85.804351 209.779073 
L 85.853874 216.412386 
L 85.872444 211.437401 
L 85.905459 221.38737 
L 85.938359 219.729042 
L 85.954981 219.729042 
L 86.004389 206.462416 
L 86.089104 214.754057 
L 86.122233 213.095729 
L 86.223455 219.729042 
L 86.355514 211.437401 
L 86.3742 214.754057 
L 86.489637 219.729042 
L 86.541222 214.754057 
L 86.574237 218.070714 
L 86.590745 221.38737 
L 86.607252 216.412386 
L 86.690133 219.729042 
L 86.708703 209.779073 
L 86.79124 218.070714 
L 86.807748 218.070714 
L 86.824255 213.095729 
L 86.875841 219.729042 
L 86.925248 214.754057 
L 86.97477 218.070714 
L 86.991278 213.095729 
L 87.042863 216.412386 
L 87.075878 213.095729 
L 87.075878 213.095729 
" style="fill:none;stroke:#2ca02c;stroke-linecap:square;stroke-width:1.5;"/>
   </g>
   <g id="line2d_21">
    <path clip-path="url(#pfab3c872eb)" d="M 72.719962 223.401055 
L 72.886526 221.032014 
L 73.052861 219.847494 
L 73.219196 222.690343 
L 73.385531 223.756411 
L 73.55198 222.690343 
L 73.718315 222.334986 
L 73.884764 221.742726 
L 74.051099 221.742726 
L 74.217548 220.439754 
L 74.383768 223.401055 
L 74.550218 221.505822 
L 74.716667 225.059383 
L 74.883002 225.533191 
L 75.049337 223.637959 
L 75.215786 226.954615 
L 75.382121 226.243903 
L 75.548456 224.585575 
L 75.71479 223.874863 
L 75.881125 227.783779 
L 76.04746 225.533191 
L 76.213795 225.651643 
L 76.380129 224.940931 
L 76.546579 227.191519 
L 76.724721 223.401055 
L 76.917536 222.690343 
L 77.096251 226.243903 
L 77.278062 227.428423 
L 77.49025 225.770095 
L 77.689371 224.348671 
L 77.899954 227.073067 
L 78.13037 230.034368 
L 78.364454 226.125451 
L 78.567357 227.665327 
L 78.779889 227.546875 
L 78.993224 228.731395 
L 79.167583 226.243903 
L 79.334377 229.797464 
L 79.501399 228.139135 
L 79.668307 225.059383 
L 79.8351 228.139135 
L 80.002008 233.824832 
L 80.169146 226.480807 
L 80.335939 228.376039 
L 80.502961 228.968299 
L 80.669984 230.15282 
L 80.837121 233.824832 
L 81.004029 228.968299 
L 81.171052 233.943284 
L 81.33796 225.296287 
L 81.504982 231.692696 
L 81.672119 232.52186 
L 81.839142 228.494491 
L 82.006279 233.70638 
L 82.173416 232.877216 
L 82.341471 228.376039 
L 82.508722 232.758764 
L 82.675974 228.612943 
L 82.843226 232.403408 
L 83.010822 227.902231 
L 83.178188 230.626628 
L 83.34544 232.284956 
L 83.512692 235.48316 
L 83.679829 231.574244 
L 83.847196 234.8909 
L 84.014562 233.824832 
L 84.181699 236.786133 
L 84.348951 233.943284 
L 84.516203 230.271272 
L 84.683913 233.824832 
L 84.85277 233.70638 
L 85.019907 235.48316 
L 85.187159 228.376039 
L 85.354296 225.651643 
L 85.521548 229.679012 
L 85.6888 237.141489 
L 85.855937 237.378393 
L 86.023074 237.615297 
L 86.190441 232.640312 
L 86.357692 241.168857 
L 86.52483 235.601612 
L 86.692196 236.430777 
L 86.859333 233.943284 
L 87.026356 228.257587 
" style="fill:none;stroke:#d62728;stroke-linecap:square;stroke-width:1.5;"/>
   </g>
   <g id="line2d_22">
    <path clip-path="url(#pfab3c872eb)" d="M 72.719962 55.554545 
L 72.886526 55.554545 
L 73.052861 55.554545 
L 73.219196 55.554545 
L 73.385531 55.554545 
L 73.55198 55.554545 
L 73.718315 55.554545 
L 73.884764 55.554545 
L 74.051099 55.554545 
L 74.217548 55.554545 
L 74.383768 55.554545 
L 74.550218 55.554545 
L 74.716667 55.554545 
L 74.883002 55.554545 
L 75.049337 55.554545 
L 75.215786 55.554545 
L 75.382121 55.554545 
L 75.548456 55.554545 
L 75.71479 55.554545 
L 75.881125 55.554545 
L 76.04746 55.554545 
L 76.213795 55.554545 
L 76.380129 55.554545 
L 76.546579 55.554545 
L 76.724721 55.554545 
L 76.917536 55.554545 
L 77.096251 55.554545 
L 77.278062 55.554545 
L 77.49025 55.554545 
L 77.689371 55.554545 
L 77.899954 55.554545 
L 78.13037 55.554545 
L 78.364454 55.554545 
L 78.567357 55.554545 
L 78.779889 55.554545 
L 78.993224 55.554545 
L 79.167583 55.554545 
L 79.334377 55.554545 
L 79.501399 55.554545 
L 79.668307 55.554545 
L 79.8351 55.554545 
L 80.002008 55.554545 
L 80.169146 55.554545 
L 80.335939 55.554545 
L 80.502961 55.554545 
L 80.669984 55.554545 
L 80.837121 55.554545 
L 81.004029 55.554545 
L 81.171052 55.554545 
L 81.33796 55.554545 
L 81.504982 55.554545 
L 81.672119 55.554545 
L 81.839142 55.554545 
L 82.006279 55.554545 
L 82.173416 55.554545 
L 82.341471 55.554545 
L 82.508722 55.554545 
L 82.675974 55.554545 
L 82.843226 55.554545 
L 83.010822 55.554545 
L 83.178188 55.554545 
L 83.34544 55.554545 
L 83.512692 55.554545 
L 83.679829 55.554545 
L 83.847196 55.554545 
L 84.014562 55.554545 
L 84.181699 55.554545 
L 84.348951 55.554545 
L 84.516203 55.554545 
L 84.683913 55.554545 
L 84.85277 55.554545 
L 85.019907 55.554545 
L 85.187159 55.554545 
L 85.354296 55.554545 
L 85.521548 55.554545 
L 85.6888 55.554545 
L 85.855937 55.554545 
L 86.023074 55.554545 
L 86.190441 55.554545 
L 86.357692 55.554545 
L 86.52483 55.554545 
L 86.692196 55.554545 
L 86.859333 55.554545 
L 87.026356 55.554545 
" style="fill:none;stroke:#9467bd;stroke-linecap:square;stroke-width:1.5;"/>
   </g>
   <g id="patch_3">
    <path d="M 72 315 
L 72 43.2 
" style="fill:none;stroke:#000000;stroke-linecap:square;stroke-linejoin:miter;stroke-width:0.8;"/>
   </g>
   <g id="patch_4">
    <path d="M 518.4 315 
L 518.4 43.2 
" style="fill:none;stroke:#000000;stroke-linecap:square;stroke-linejoin:miter;stroke-width:0.8;"/>
   </g>
   <g id="patch_5">
    <path d="M 72 315 
L 518.4 315 
" style="fill:none;stroke:#000000;stroke-linecap:square;stroke-linejoin:miter;stroke-width:0.8;"/>
   </g>
   <g id="patch_6">
    <path d="M 72 43.2 
L 518.4 43.2 
" style="fill:none;stroke:#000000;stroke-linecap:square;stroke-linejoin:miter;stroke-width:0.8;"/>
   </g>
   <g id="text_20">
    <!-- Boxing-v0.cma.16.7 -->
    <g transform="translate(235.400625 37.2)scale(0.12 -0.12)">
     <defs>
      <path d="M 19.671875 34.8125 
L 19.671875 8.109375 
L 35.5 8.109375 
Q 43.453125 8.109375 47.28125 11.40625 
Q 51.125 14.703125 51.125 21.484375 
Q 51.125 28.328125 47.28125 31.5625 
Q 43.453125 34.8125 35.5 34.8125 
z
M 19.671875 64.796875 
L 19.671875 42.828125 
L 34.28125 42.828125 
Q 41.5 42.828125 45.03125 45.53125 
Q 48.578125 48.25 48.578125 53.8125 
Q 48.578125 59.328125 45.03125 62.0625 
Q 41.5 64.796875 34.28125 64.796875 
z
M 9.8125 72.90625 
L 35.015625 72.90625 
Q 46.296875 72.90625 52.390625 68.21875 
Q 58.5 63.53125 58.5 54.890625 
Q 58.5 48.1875 55.375 44.234375 
Q 52.25 40.28125 46.1875 39.3125 
Q 53.46875 37.75 57.5 32.78125 
Q 61.53125 27.828125 61.53125 20.40625 
Q 61.53125 10.640625 54.890625 5.3125 
Q 48.25 0 35.984375 0 
L 9.8125 0 
z
" id="DejaVuSans-66"/>
      <path d="M 54.890625 54.6875 
L 35.109375 28.078125 
L 55.90625 0 
L 45.3125 0 
L 29.390625 21.484375 
L 13.484375 0 
L 2.875 0 
L 24.125 28.609375 
L 4.6875 54.6875 
L 15.28125 54.6875 
L 29.78125 35.203125 
L 44.28125 54.6875 
z
" id="DejaVuSans-120"/>
      <path d="M 54.890625 33.015625 
L 54.890625 0 
L 45.90625 0 
L 45.90625 32.71875 
Q 45.90625 40.484375 42.875 44.328125 
Q 39.84375 48.1875 33.796875 48.1875 
Q 26.515625 48.1875 22.3125 43.546875 
Q 18.109375 38.921875 18.109375 30.90625 
L 18.109375 0 
L 9.078125 0 
L 9.078125 54.6875 
L 18.109375 54.6875 
L 18.109375 46.1875 
Q 21.34375 51.125 25.703125 53.5625 
Q 30.078125 56 35.796875 56 
Q 45.21875 56 50.046875 50.171875 
Q 54.890625 44.34375 54.890625 33.015625 
z
" id="DejaVuSans-110"/>
      <path d="M 45.40625 27.984375 
Q 45.40625 37.75 41.375 43.109375 
Q 37.359375 48.484375 30.078125 48.484375 
Q 22.859375 48.484375 18.828125 43.109375 
Q 14.796875 37.75 14.796875 27.984375 
Q 14.796875 18.265625 18.828125 12.890625 
Q 22.859375 7.515625 30.078125 7.515625 
Q 37.359375 7.515625 41.375 12.890625 
Q 45.40625 18.265625 45.40625 27.984375 
z
M 54.390625 6.78125 
Q 54.390625 -7.171875 48.1875 -13.984375 
Q 42 -20.796875 29.203125 -20.796875 
Q 24.46875 -20.796875 20.265625 -20.09375 
Q 16.0625 -19.390625 12.109375 -17.921875 
L 12.109375 -9.1875 
Q 16.0625 -11.328125 19.921875 -12.34375 
Q 23.78125 -13.375 27.78125 -13.375 
Q 36.625 -13.375 41.015625 -8.765625 
Q 45.40625 -4.15625 45.40625 5.171875 
L 45.40625 9.625 
Q 42.625 4.78125 38.28125 2.390625 
Q 33.9375 0 27.875 0 
Q 17.828125 0 11.671875 7.65625 
Q 5.515625 15.328125 5.515625 27.984375 
Q 5.515625 40.671875 11.671875 48.328125 
Q 17.828125 56 27.875 56 
Q 33.9375 56 38.28125 53.609375 
Q 42.625 51.21875 45.40625 46.390625 
L 45.40625 54.6875 
L 54.390625 54.6875 
z
" id="DejaVuSans-103"/>
      <path d="M 10.6875 12.40625 
L 21 12.40625 
L 21 0 
L 10.6875 0 
z
" id="DejaVuSans-46"/>
      <path d="M 33.015625 40.375 
Q 26.375 40.375 22.484375 35.828125 
Q 18.609375 31.296875 18.609375 23.390625 
Q 18.609375 15.53125 22.484375 10.953125 
Q 26.375 6.390625 33.015625 6.390625 
Q 39.65625 6.390625 43.53125 10.953125 
Q 47.40625 15.53125 47.40625 23.390625 
Q 47.40625 31.296875 43.53125 35.828125 
Q 39.65625 40.375 33.015625 40.375 
z
M 52.59375 71.296875 
L 52.59375 62.3125 
Q 48.875 64.0625 45.09375 64.984375 
Q 41.3125 65.921875 37.59375 65.921875 
Q 27.828125 65.921875 22.671875 59.328125 
Q 17.53125 52.734375 16.796875 39.40625 
Q 19.671875 43.65625 24.015625 45.921875 
Q 28.375 48.1875 33.59375 48.1875 
Q 44.578125 48.1875 50.953125 41.515625 
Q 57.328125 34.859375 57.328125 23.390625 
Q 57.328125 12.15625 50.6875 5.359375 
Q 44.046875 -1.421875 33.015625 -1.421875 
Q 20.359375 -1.421875 13.671875 8.265625 
Q 6.984375 17.96875 6.984375 36.375 
Q 6.984375 53.65625 15.1875 63.9375 
Q 23.390625 74.21875 37.203125 74.21875 
Q 40.921875 74.21875 44.703125 73.484375 
Q 48.484375 72.75 52.59375 71.296875 
z
" id="DejaVuSans-54"/>
     </defs>
     <use xlink:href="#DejaVuSans-66"/>
     <use x="68.603516" xlink:href="#DejaVuSans-111"/>
     <use x="126.660156" xlink:href="#DejaVuSans-120"/>
     <use x="185.839844" xlink:href="#DejaVuSans-105"/>
     <use x="213.623047" xlink:href="#DejaVuSans-110"/>
     <use x="277.001953" xlink:href="#DejaVuSans-103"/>
     <use x="340.478516" xlink:href="#DejaVuSans-45"/>
     <use x="373.9375" xlink:href="#DejaVuSans-118"/>
     <use x="433.117188" xlink:href="#DejaVuSans-48"/>
     <use x="496.740234" xlink:href="#DejaVuSans-46"/>
     <use x="528.527344" xlink:href="#DejaVuSans-99"/>
     <use x="583.507812" xlink:href="#DejaVuSans-109"/>
     <use x="680.919922" xlink:href="#DejaVuSans-97"/>
     <use x="742.199219" xlink:href="#DejaVuSans-46"/>
     <use x="773.986328" xlink:href="#DejaVuSans-49"/>
     <use x="837.609375" xlink:href="#DejaVuSans-54"/>
     <use x="901.232422" xlink:href="#DejaVuSans-46"/>
     <use x="933.019531" xlink:href="#DejaVuSans-55"/>
    </g>
   </g>
   <g id="legend_1">
    <g id="patch_7">
     <path d="M 406.151562 124.590625 
L 511.4 124.590625 
Q 513.4 124.590625 513.4 122.590625 
L 513.4 50.2 
Q 513.4 48.2 511.4 48.2 
L 406.151562 48.2 
Q 404.151562 48.2 404.151562 50.2 
L 404.151562 122.590625 
Q 404.151562 124.590625 406.151562 124.590625 
z
" style="fill:#ffffff;opacity:0.8;stroke:#cccccc;stroke-linejoin:miter;"/>
    </g>
    <g id="line2d_23">
     <path d="M 408.151562 56.298437 
L 428.151562 56.298437 
" style="fill:none;stroke:#1f77b4;stroke-linecap:square;stroke-width:1.5;"/>
    </g>
    <g id="line2d_24"/>
    <g id="text_21">
     <!-- mean -->
     <g transform="translate(436.151562 59.798437)scale(0.1 -0.1)">
      <use xlink:href="#DejaVuSans-109"/>
      <use x="97.412109" xlink:href="#DejaVuSans-101"/>
      <use x="158.935547" xlink:href="#DejaVuSans-97"/>
      <use x="220.214844" xlink:href="#DejaVuSans-110"/>
     </g>
    </g>
    <g id="line2d_25">
     <path d="M 408.151562 70.976562 
L 428.151562 70.976562 
" style="fill:none;stroke:#ff7f0e;stroke-linecap:square;stroke-width:1.5;"/>
    </g>
    <g id="line2d_26"/>
    <g id="text_22">
     <!-- min -->
     <g transform="translate(436.151562 74.476562)scale(0.1 -0.1)">
      <use xlink:href="#DejaVuSans-109"/>
      <use x="97.412109" xlink:href="#DejaVuSans-105"/>
      <use x="125.195312" xlink:href="#DejaVuSans-110"/>
     </g>
    </g>
    <g id="line2d_27">
     <path d="M 408.151562 85.654687 
L 428.151562 85.654687 
" style="fill:none;stroke:#2ca02c;stroke-linecap:square;stroke-width:1.5;"/>
    </g>
    <g id="line2d_28"/>
    <g id="text_23">
     <!-- max -->
     <g transform="translate(436.151562 89.154687)scale(0.1 -0.1)">
      <use xlink:href="#DejaVuSans-109"/>
      <use x="97.412109" xlink:href="#DejaVuSans-97"/>
      <use x="158.691406" xlink:href="#DejaVuSans-120"/>
     </g>
    </g>
    <g id="line2d_29">
     <path d="M 408.151562 100.332812 
L 428.151562 100.332812 
" style="fill:none;stroke:#9467bd;stroke-linecap:square;stroke-width:1.5;"/>
    </g>
    <g id="line2d_30"/>
    <g id="text_24">
     <!-- requirement -->
     <g transform="translate(436.151562 103.832812)scale(0.1 -0.1)">
      <defs>
       <path d="M 14.796875 27.296875 
Q 14.796875 17.390625 18.875 11.75 
Q 22.953125 6.109375 30.078125 6.109375 
Q 37.203125 6.109375 41.296875 11.75 
Q 45.40625 17.390625 45.40625 27.296875 
Q 45.40625 37.203125 41.296875 42.84375 
Q 37.203125 48.484375 30.078125 48.484375 
Q 22.953125 48.484375 18.875 42.84375 
Q 14.796875 37.203125 14.796875 27.296875 
z
M 45.40625 8.203125 
Q 42.578125 3.328125 38.25 0.953125 
Q 33.9375 -1.421875 27.875 -1.421875 
Q 17.96875 -1.421875 11.734375 6.484375 
Q 5.515625 14.40625 5.515625 27.296875 
Q 5.515625 40.1875 11.734375 48.09375 
Q 17.96875 56 27.875 56 
Q 33.9375 56 38.25 53.625 
Q 42.578125 51.265625 45.40625 46.390625 
L 45.40625 54.6875 
L 54.390625 54.6875 
L 54.390625 -20.796875 
L 45.40625 -20.796875 
z
" id="DejaVuSans-113"/>
      </defs>
      <use xlink:href="#DejaVuSans-114"/>
      <use x="38.863281" xlink:href="#DejaVuSans-101"/>
      <use x="100.386719" xlink:href="#DejaVuSans-113"/>
      <use x="163.863281" xlink:href="#DejaVuSans-117"/>
      <use x="227.242188" xlink:href="#DejaVuSans-105"/>
      <use x="255.025391" xlink:href="#DejaVuSans-114"/>
      <use x="293.888672" xlink:href="#DejaVuSans-101"/>
      <use x="355.412109" xlink:href="#DejaVuSans-109"/>
      <use x="452.824219" xlink:href="#DejaVuSans-101"/>
      <use x="514.347656" xlink:href="#DejaVuSans-110"/>
      <use x="577.726562" xlink:href="#DejaVuSans-116"/>
     </g>
    </g>
    <g id="line2d_31">
     <path d="M 408.151562 115.010937 
L 428.151562 115.010937 
" style="fill:none;stroke:#d62728;stroke-linecap:square;stroke-width:1.5;"/>
    </g>
    <g id="line2d_32"/>
    <g id="text_25">
     <!-- best avg score -->
     <g transform="translate(436.151562 118.510937)scale(0.1 -0.1)">
      <defs>
       <path d="M 48.6875 27.296875 
Q 48.6875 37.203125 44.609375 42.84375 
Q 40.53125 48.484375 33.40625 48.484375 
Q 26.265625 48.484375 22.1875 42.84375 
Q 18.109375 37.203125 18.109375 27.296875 
Q 18.109375 17.390625 22.1875 11.75 
Q 26.265625 6.109375 33.40625 6.109375 
Q 40.53125 6.109375 44.609375 11.75 
Q 48.6875 17.390625 48.6875 27.296875 
z
M 18.109375 46.390625 
Q 20.953125 51.265625 25.265625 53.625 
Q 29.59375 56 35.59375 56 
Q 45.5625 56 51.78125 48.09375 
Q 58.015625 40.1875 58.015625 27.296875 
Q 58.015625 14.40625 51.78125 6.484375 
Q 45.5625 -1.421875 35.59375 -1.421875 
Q 29.59375 -1.421875 25.265625 0.953125 
Q 20.953125 3.328125 18.109375 8.203125 
L 18.109375 0 
L 9.078125 0 
L 9.078125 75.984375 
L 18.109375 75.984375 
z
" id="DejaVuSans-98"/>
      </defs>
      <use xlink:href="#DejaVuSans-98"/>
      <use x="63.476562" xlink:href="#DejaVuSans-101"/>
      <use x="125" xlink:href="#DejaVuSans-115"/>
      <use x="177.099609" xlink:href="#DejaVuSans-116"/>
      <use x="216.308594" xlink:href="#DejaVuSans-32"/>
      <use x="248.095703" xlink:href="#DejaVuSans-97"/>
      <use x="309.375" xlink:href="#DejaVuSans-118"/>
      <use x="368.554688" xlink:href="#DejaVuSans-103"/>
      <use x="432.03125" xlink:href="#DejaVuSans-32"/>
      <use x="463.818359" xlink:href="#DejaVuSans-115"/>
      <use x="515.917969" xlink:href="#DejaVuSans-99"/>
      <use x="570.898438" xlink:href="#DejaVuSans-111"/>
      <use x="632.080078" xlink:href="#DejaVuSans-114"/>
      <use x="670.943359" xlink:href="#DejaVuSans-101"/>
     </g>
    </g>
   </g>
  </g>
 </g>
 <defs>
  <clipPath id="pfab3c872eb">
   <rect height="271.8" width="446.4" x="72" y="43.2"/>
  </clipPath>
 </defs>
</svg>
