<?xml version="1.0" encoding="utf-8" standalone="no"?>
<!DOCTYPE svg PUBLIC "-//W3C//DTD SVG 1.1//EN"
  "http://www.w3.org/Graphics/SVG/1.1/DTD/svg11.dtd">
<!-- Created with matplotlib (https://matplotlib.org/) -->
<svg height="360pt" version="1.1" viewBox="0 0 576 360" width="576pt" xmlns="http://www.w3.org/2000/svg" xmlns:xlink="http://www.w3.org/1999/xlink">
 <metadata>
  <rdf:RDF xmlns:cc="http://creativecommons.org/ns#" xmlns:dc="http://purl.org/dc/elements/1.1/" xmlns:rdf="http://www.w3.org/1999/02/22-rdf-syntax-ns#">
   <cc:Work>
    <dc:type rdf:resource="http://purl.org/dc/dcmitype/StillImage"/>
    <dc:date>2021-03-06T14:42:52.114046</dc:date>
    <dc:format>image/svg+xml</dc:format>
    <dc:creator>
     <cc:Agent>
      <dc:title>Matplotlib v3.3.3, https://matplotlib.org/</dc:title>
     </cc:Agent>
    </dc:creator>
   </cc:Work>
  </rdf:RDF>
 </metadata>
 <defs>
  <style type="text/css">*{stroke-linecap:butt;stroke-linejoin:round;}</style>
 </defs>
 <g id="figure_1">
  <g id="patch_1">
   <path d="M 0 360 
L 576 360 
L 576 0 
L 0 0 
z
" style="fill:#ffffff;"/>
  </g>
  <g id="axes_1">
   <g id="patch_2">
    <path d="M 72 315 
L 518.4 315 
L 518.4 43.2 
L 72 43.2 
z
" style="fill:#ffffff;"/>
   </g>
   <g id="matplotlib.axis_1">
    <g id="xtick_1">
     <g id="line2d_1">
      <defs>
       <path d="M 0 0 
L 0 3.5 
" id="m9365c744e0" style="stroke:#000000;stroke-width:0.8;"/>
      </defs>
      <g>
       <use style="stroke:#000000;stroke-width:0.8;" x="80.204003" xlink:href="#m9365c744e0" y="315"/>
      </g>
     </g>
     <g id="text_1">
      <!-- 0 -->
      <g transform="translate(77.022753 329.598437)scale(0.1 -0.1)">
       <defs>
        <path d="M 31.78125 66.40625 
Q 24.171875 66.40625 20.328125 58.90625 
Q 16.5 51.421875 16.5 36.375 
Q 16.5 21.390625 20.328125 13.890625 
Q 24.171875 6.390625 31.78125 6.390625 
Q 39.453125 6.390625 43.28125 13.890625 
Q 47.125 21.390625 47.125 36.375 
Q 47.125 51.421875 43.28125 58.90625 
Q 39.453125 66.40625 31.78125 66.40625 
z
M 31.78125 74.21875 
Q 44.046875 74.21875 50.515625 64.515625 
Q 56.984375 54.828125 56.984375 36.375 
Q 56.984375 17.96875 50.515625 8.265625 
Q 44.046875 -1.421875 31.78125 -1.421875 
Q 19.53125 -1.421875 13.0625 8.265625 
Q 6.59375 17.96875 6.59375 36.375 
Q 6.59375 54.828125 13.0625 64.515625 
Q 19.53125 74.21875 31.78125 74.21875 
z
" id="DejaVuSans-48"/>
       </defs>
       <use xlink:href="#DejaVuSans-48"/>
      </g>
     </g>
    </g>
    <g id="xtick_2">
     <g id="line2d_2">
      <g>
       <use style="stroke:#000000;stroke-width:0.8;" x="128.892447" xlink:href="#m9365c744e0" y="315"/>
      </g>
     </g>
     <g id="text_2">
      <!-- 200 -->
      <g transform="translate(119.348697 329.598437)scale(0.1 -0.1)">
       <defs>
        <path d="M 19.1875 8.296875 
L 53.609375 8.296875 
L 53.609375 0 
L 7.328125 0 
L 7.328125 8.296875 
Q 12.9375 14.109375 22.625 23.890625 
Q 32.328125 33.6875 34.8125 36.53125 
Q 39.546875 41.84375 41.421875 45.53125 
Q 43.3125 49.21875 43.3125 52.78125 
Q 43.3125 58.59375 39.234375 62.25 
Q 35.15625 65.921875 28.609375 65.921875 
Q 23.96875 65.921875 18.8125 64.3125 
Q 13.671875 62.703125 7.8125 59.421875 
L 7.8125 69.390625 
Q 13.765625 71.78125 18.9375 73 
Q 24.125 74.21875 28.421875 74.21875 
Q 39.75 74.21875 46.484375 68.546875 
Q 53.21875 62.890625 53.21875 53.421875 
Q 53.21875 48.921875 51.53125 44.890625 
Q 49.859375 40.875 45.40625 35.40625 
Q 44.1875 33.984375 37.640625 27.21875 
Q 31.109375 20.453125 19.1875 8.296875 
z
" id="DejaVuSans-50"/>
       </defs>
       <use xlink:href="#DejaVuSans-50"/>
       <use x="63.623047" xlink:href="#DejaVuSans-48"/>
       <use x="127.246094" xlink:href="#DejaVuSans-48"/>
      </g>
     </g>
    </g>
    <g id="xtick_3">
     <g id="line2d_3">
      <g>
       <use style="stroke:#000000;stroke-width:0.8;" x="177.580891" xlink:href="#m9365c744e0" y="315"/>
      </g>
     </g>
     <g id="text_3">
      <!-- 400 -->
      <g transform="translate(168.037141 329.598437)scale(0.1 -0.1)">
       <defs>
        <path d="M 37.796875 64.3125 
L 12.890625 25.390625 
L 37.796875 25.390625 
z
M 35.203125 72.90625 
L 47.609375 72.90625 
L 47.609375 25.390625 
L 58.015625 25.390625 
L 58.015625 17.1875 
L 47.609375 17.1875 
L 47.609375 0 
L 37.796875 0 
L 37.796875 17.1875 
L 4.890625 17.1875 
L 4.890625 26.703125 
z
" id="DejaVuSans-52"/>
       </defs>
       <use xlink:href="#DejaVuSans-52"/>
       <use x="63.623047" xlink:href="#DejaVuSans-48"/>
       <use x="127.246094" xlink:href="#DejaVuSans-48"/>
      </g>
     </g>
    </g>
    <g id="xtick_4">
     <g id="line2d_4">
      <g>
       <use style="stroke:#000000;stroke-width:0.8;" x="226.269335" xlink:href="#m9365c744e0" y="315"/>
      </g>
     </g>
     <g id="text_4">
      <!-- 600 -->
      <g transform="translate(216.725585 329.598437)scale(0.1 -0.1)">
       <defs>
        <path d="M 33.015625 40.375 
Q 26.375 40.375 22.484375 35.828125 
Q 18.609375 31.296875 18.609375 23.390625 
Q 18.609375 15.53125 22.484375 10.953125 
Q 26.375 6.390625 33.015625 6.390625 
Q 39.65625 6.390625 43.53125 10.953125 
Q 47.40625 15.53125 47.40625 23.390625 
Q 47.40625 31.296875 43.53125 35.828125 
Q 39.65625 40.375 33.015625 40.375 
z
M 52.59375 71.296875 
L 52.59375 62.3125 
Q 48.875 64.0625 45.09375 64.984375 
Q 41.3125 65.921875 37.59375 65.921875 
Q 27.828125 65.921875 22.671875 59.328125 
Q 17.53125 52.734375 16.796875 39.40625 
Q 19.671875 43.65625 24.015625 45.921875 
Q 28.375 48.1875 33.59375 48.1875 
Q 44.578125 48.1875 50.953125 41.515625 
Q 57.328125 34.859375 57.328125 23.390625 
Q 57.328125 12.15625 50.6875 5.359375 
Q 44.046875 -1.421875 33.015625 -1.421875 
Q 20.359375 -1.421875 13.671875 8.265625 
Q 6.984375 17.96875 6.984375 36.375 
Q 6.984375 53.65625 15.1875 63.9375 
Q 23.390625 74.21875 37.203125 74.21875 
Q 40.921875 74.21875 44.703125 73.484375 
Q 48.484375 72.75 52.59375 71.296875 
z
" id="DejaVuSans-54"/>
       </defs>
       <use xlink:href="#DejaVuSans-54"/>
       <use x="63.623047" xlink:href="#DejaVuSans-48"/>
       <use x="127.246094" xlink:href="#DejaVuSans-48"/>
      </g>
     </g>
    </g>
    <g id="xtick_5">
     <g id="line2d_5">
      <g>
       <use style="stroke:#000000;stroke-width:0.8;" x="274.957779" xlink:href="#m9365c744e0" y="315"/>
      </g>
     </g>
     <g id="text_5">
      <!-- 800 -->
      <g transform="translate(265.414029 329.598437)scale(0.1 -0.1)">
       <defs>
        <path d="M 31.78125 34.625 
Q 24.75 34.625 20.71875 30.859375 
Q 16.703125 27.09375 16.703125 20.515625 
Q 16.703125 13.921875 20.71875 10.15625 
Q 24.75 6.390625 31.78125 6.390625 
Q 38.8125 6.390625 42.859375 10.171875 
Q 46.921875 13.96875 46.921875 20.515625 
Q 46.921875 27.09375 42.890625 30.859375 
Q 38.875 34.625 31.78125 34.625 
z
M 21.921875 38.8125 
Q 15.578125 40.375 12.03125 44.71875 
Q 8.5 49.078125 8.5 55.328125 
Q 8.5 64.0625 14.71875 69.140625 
Q 20.953125 74.21875 31.78125 74.21875 
Q 42.671875 74.21875 48.875 69.140625 
Q 55.078125 64.0625 55.078125 55.328125 
Q 55.078125 49.078125 51.53125 44.71875 
Q 48 40.375 41.703125 38.8125 
Q 48.828125 37.15625 52.796875 32.3125 
Q 56.78125 27.484375 56.78125 20.515625 
Q 56.78125 9.90625 50.3125 4.234375 
Q 43.84375 -1.421875 31.78125 -1.421875 
Q 19.734375 -1.421875 13.25 4.234375 
Q 6.78125 9.90625 6.78125 20.515625 
Q 6.78125 27.484375 10.78125 32.3125 
Q 14.796875 37.15625 21.921875 38.8125 
z
M 18.3125 54.390625 
Q 18.3125 48.734375 21.84375 45.5625 
Q 25.390625 42.390625 31.78125 42.390625 
Q 38.140625 42.390625 41.71875 45.5625 
Q 45.3125 48.734375 45.3125 54.390625 
Q 45.3125 60.0625 41.71875 63.234375 
Q 38.140625 66.40625 31.78125 66.40625 
Q 25.390625 66.40625 21.84375 63.234375 
Q 18.3125 60.0625 18.3125 54.390625 
z
" id="DejaVuSans-56"/>
       </defs>
       <use xlink:href="#DejaVuSans-56"/>
       <use x="63.623047" xlink:href="#DejaVuSans-48"/>
       <use x="127.246094" xlink:href="#DejaVuSans-48"/>
      </g>
     </g>
    </g>
    <g id="xtick_6">
     <g id="line2d_6">
      <g>
       <use style="stroke:#000000;stroke-width:0.8;" x="323.646223" xlink:href="#m9365c744e0" y="315"/>
      </g>
     </g>
     <g id="text_6">
      <!-- 1000 -->
      <g transform="translate(310.921223 329.598437)scale(0.1 -0.1)">
       <defs>
        <path d="M 12.40625 8.296875 
L 28.515625 8.296875 
L 28.515625 63.921875 
L 10.984375 60.40625 
L 10.984375 69.390625 
L 28.421875 72.90625 
L 38.28125 72.90625 
L 38.28125 8.296875 
L 54.390625 8.296875 
L 54.390625 0 
L 12.40625 0 
z
" id="DejaVuSans-49"/>
       </defs>
       <use xlink:href="#DejaVuSans-49"/>
       <use x="63.623047" xlink:href="#DejaVuSans-48"/>
       <use x="127.246094" xlink:href="#DejaVuSans-48"/>
       <use x="190.869141" xlink:href="#DejaVuSans-48"/>
      </g>
     </g>
    </g>
    <g id="xtick_7">
     <g id="line2d_7">
      <g>
       <use style="stroke:#000000;stroke-width:0.8;" x="372.334668" xlink:href="#m9365c744e0" y="315"/>
      </g>
     </g>
     <g id="text_7">
      <!-- 1200 -->
      <g transform="translate(359.609668 329.598437)scale(0.1 -0.1)">
       <use xlink:href="#DejaVuSans-49"/>
       <use x="63.623047" xlink:href="#DejaVuSans-50"/>
       <use x="127.246094" xlink:href="#DejaVuSans-48"/>
       <use x="190.869141" xlink:href="#DejaVuSans-48"/>
      </g>
     </g>
    </g>
    <g id="xtick_8">
     <g id="line2d_8">
      <g>
       <use style="stroke:#000000;stroke-width:0.8;" x="421.023112" xlink:href="#m9365c744e0" y="315"/>
      </g>
     </g>
     <g id="text_8">
      <!-- 1400 -->
      <g transform="translate(408.298112 329.598437)scale(0.1 -0.1)">
       <use xlink:href="#DejaVuSans-49"/>
       <use x="63.623047" xlink:href="#DejaVuSans-52"/>
       <use x="127.246094" xlink:href="#DejaVuSans-48"/>
       <use x="190.869141" xlink:href="#DejaVuSans-48"/>
      </g>
     </g>
    </g>
    <g id="xtick_9">
     <g id="line2d_9">
      <g>
       <use style="stroke:#000000;stroke-width:0.8;" x="469.711556" xlink:href="#m9365c744e0" y="315"/>
      </g>
     </g>
     <g id="text_9">
      <!-- 1600 -->
      <g transform="translate(456.986556 329.598437)scale(0.1 -0.1)">
       <use xlink:href="#DejaVuSans-49"/>
       <use x="63.623047" xlink:href="#DejaVuSans-54"/>
       <use x="127.246094" xlink:href="#DejaVuSans-48"/>
       <use x="190.869141" xlink:href="#DejaVuSans-48"/>
      </g>
     </g>
    </g>
    <g id="xtick_10">
     <g id="line2d_10">
      <g>
       <use style="stroke:#000000;stroke-width:0.8;" x="518.4" xlink:href="#m9365c744e0" y="315"/>
      </g>
     </g>
     <g id="text_10">
      <!-- 1800 -->
      <g transform="translate(505.675 329.598437)scale(0.1 -0.1)">
       <use xlink:href="#DejaVuSans-49"/>
       <use x="63.623047" xlink:href="#DejaVuSans-56"/>
       <use x="127.246094" xlink:href="#DejaVuSans-48"/>
       <use x="190.869141" xlink:href="#DejaVuSans-48"/>
      </g>
     </g>
    </g>
    <g id="text_11">
     <!-- generation -->
     <g transform="translate(268.007031 343.276563)scale(0.1 -0.1)">
      <defs>
       <path d="M 45.40625 27.984375 
Q 45.40625 37.75 41.375 43.109375 
Q 37.359375 48.484375 30.078125 48.484375 
Q 22.859375 48.484375 18.828125 43.109375 
Q 14.796875 37.75 14.796875 27.984375 
Q 14.796875 18.265625 18.828125 12.890625 
Q 22.859375 7.515625 30.078125 7.515625 
Q 37.359375 7.515625 41.375 12.890625 
Q 45.40625 18.265625 45.40625 27.984375 
z
M 54.390625 6.78125 
Q 54.390625 -7.171875 48.1875 -13.984375 
Q 42 -20.796875 29.203125 -20.796875 
Q 24.46875 -20.796875 20.265625 -20.09375 
Q 16.0625 -19.390625 12.109375 -17.921875 
L 12.109375 -9.1875 
Q 16.0625 -11.328125 19.921875 -12.34375 
Q 23.78125 -13.375 27.78125 -13.375 
Q 36.625 -13.375 41.015625 -8.765625 
Q 45.40625 -4.15625 45.40625 5.171875 
L 45.40625 9.625 
Q 42.625 4.78125 38.28125 2.390625 
Q 33.9375 0 27.875 0 
Q 17.828125 0 11.671875 7.65625 
Q 5.515625 15.328125 5.515625 27.984375 
Q 5.515625 40.671875 11.671875 48.328125 
Q 17.828125 56 27.875 56 
Q 33.9375 56 38.28125 53.609375 
Q 42.625 51.21875 45.40625 46.390625 
L 45.40625 54.6875 
L 54.390625 54.6875 
z
" id="DejaVuSans-103"/>
       <path d="M 56.203125 29.59375 
L 56.203125 25.203125 
L 14.890625 25.203125 
Q 15.484375 15.921875 20.484375 11.0625 
Q 25.484375 6.203125 34.421875 6.203125 
Q 39.59375 6.203125 44.453125 7.46875 
Q 49.3125 8.734375 54.109375 11.28125 
L 54.109375 2.78125 
Q 49.265625 0.734375 44.1875 -0.34375 
Q 39.109375 -1.421875 33.890625 -1.421875 
Q 20.796875 -1.421875 13.15625 6.1875 
Q 5.515625 13.8125 5.515625 26.8125 
Q 5.515625 40.234375 12.765625 48.109375 
Q 20.015625 56 32.328125 56 
Q 43.359375 56 49.78125 48.890625 
Q 56.203125 41.796875 56.203125 29.59375 
z
M 47.21875 32.234375 
Q 47.125 39.59375 43.09375 43.984375 
Q 39.0625 48.390625 32.421875 48.390625 
Q 24.90625 48.390625 20.390625 44.140625 
Q 15.875 39.890625 15.1875 32.171875 
z
" id="DejaVuSans-101"/>
       <path d="M 54.890625 33.015625 
L 54.890625 0 
L 45.90625 0 
L 45.90625 32.71875 
Q 45.90625 40.484375 42.875 44.328125 
Q 39.84375 48.1875 33.796875 48.1875 
Q 26.515625 48.1875 22.3125 43.546875 
Q 18.109375 38.921875 18.109375 30.90625 
L 18.109375 0 
L 9.078125 0 
L 9.078125 54.6875 
L 18.109375 54.6875 
L 18.109375 46.1875 
Q 21.34375 51.125 25.703125 53.5625 
Q 30.078125 56 35.796875 56 
Q 45.21875 56 50.046875 50.171875 
Q 54.890625 44.34375 54.890625 33.015625 
z
" id="DejaVuSans-110"/>
       <path d="M 41.109375 46.296875 
Q 39.59375 47.171875 37.8125 47.578125 
Q 36.03125 48 33.890625 48 
Q 26.265625 48 22.1875 43.046875 
Q 18.109375 38.09375 18.109375 28.8125 
L 18.109375 0 
L 9.078125 0 
L 9.078125 54.6875 
L 18.109375 54.6875 
L 18.109375 46.1875 
Q 20.953125 51.171875 25.484375 53.578125 
Q 30.03125 56 36.53125 56 
Q 37.453125 56 38.578125 55.875 
Q 39.703125 55.765625 41.0625 55.515625 
z
" id="DejaVuSans-114"/>
       <path d="M 34.28125 27.484375 
Q 23.390625 27.484375 19.1875 25 
Q 14.984375 22.515625 14.984375 16.5 
Q 14.984375 11.71875 18.140625 8.90625 
Q 21.296875 6.109375 26.703125 6.109375 
Q 34.1875 6.109375 38.703125 11.40625 
Q 43.21875 16.703125 43.21875 25.484375 
L 43.21875 27.484375 
z
M 52.203125 31.203125 
L 52.203125 0 
L 43.21875 0 
L 43.21875 8.296875 
Q 40.140625 3.328125 35.546875 0.953125 
Q 30.953125 -1.421875 24.3125 -1.421875 
Q 15.921875 -1.421875 10.953125 3.296875 
Q 6 8.015625 6 15.921875 
Q 6 25.140625 12.171875 29.828125 
Q 18.359375 34.515625 30.609375 34.515625 
L 43.21875 34.515625 
L 43.21875 35.40625 
Q 43.21875 41.609375 39.140625 45 
Q 35.0625 48.390625 27.6875 48.390625 
Q 23 48.390625 18.546875 47.265625 
Q 14.109375 46.140625 10.015625 43.890625 
L 10.015625 52.203125 
Q 14.9375 54.109375 19.578125 55.046875 
Q 24.21875 56 28.609375 56 
Q 40.484375 56 46.34375 49.84375 
Q 52.203125 43.703125 52.203125 31.203125 
z
" id="DejaVuSans-97"/>
       <path d="M 18.3125 70.21875 
L 18.3125 54.6875 
L 36.8125 54.6875 
L 36.8125 47.703125 
L 18.3125 47.703125 
L 18.3125 18.015625 
Q 18.3125 11.328125 20.140625 9.421875 
Q 21.96875 7.515625 27.59375 7.515625 
L 36.8125 7.515625 
L 36.8125 0 
L 27.59375 0 
Q 17.1875 0 13.234375 3.875 
Q 9.28125 7.765625 9.28125 18.015625 
L 9.28125 47.703125 
L 2.6875 47.703125 
L 2.6875 54.6875 
L 9.28125 54.6875 
L 9.28125 70.21875 
z
" id="DejaVuSans-116"/>
       <path d="M 9.421875 54.6875 
L 18.40625 54.6875 
L 18.40625 0 
L 9.421875 0 
z
M 9.421875 75.984375 
L 18.40625 75.984375 
L 18.40625 64.59375 
L 9.421875 64.59375 
z
" id="DejaVuSans-105"/>
       <path d="M 30.609375 48.390625 
Q 23.390625 48.390625 19.1875 42.75 
Q 14.984375 37.109375 14.984375 27.296875 
Q 14.984375 17.484375 19.15625 11.84375 
Q 23.34375 6.203125 30.609375 6.203125 
Q 37.796875 6.203125 41.984375 11.859375 
Q 46.1875 17.53125 46.1875 27.296875 
Q 46.1875 37.015625 41.984375 42.703125 
Q 37.796875 48.390625 30.609375 48.390625 
z
M 30.609375 56 
Q 42.328125 56 49.015625 48.375 
Q 55.71875 40.765625 55.71875 27.296875 
Q 55.71875 13.875 49.015625 6.21875 
Q 42.328125 -1.421875 30.609375 -1.421875 
Q 18.84375 -1.421875 12.171875 6.21875 
Q 5.515625 13.875 5.515625 27.296875 
Q 5.515625 40.765625 12.171875 48.375 
Q 18.84375 56 30.609375 56 
z
" id="DejaVuSans-111"/>
      </defs>
      <use xlink:href="#DejaVuSans-103"/>
      <use x="63.476562" xlink:href="#DejaVuSans-101"/>
      <use x="125" xlink:href="#DejaVuSans-110"/>
      <use x="188.378906" xlink:href="#DejaVuSans-101"/>
      <use x="249.902344" xlink:href="#DejaVuSans-114"/>
      <use x="291.015625" xlink:href="#DejaVuSans-97"/>
      <use x="352.294922" xlink:href="#DejaVuSans-116"/>
      <use x="391.503906" xlink:href="#DejaVuSans-105"/>
      <use x="419.287109" xlink:href="#DejaVuSans-111"/>
      <use x="480.46875" xlink:href="#DejaVuSans-110"/>
     </g>
    </g>
   </g>
   <g id="matplotlib.axis_2">
    <g id="ytick_1">
     <g id="line2d_11">
      <defs>
       <path d="M 0 0 
L -3.5 0 
" id="m0010260313" style="stroke:#000000;stroke-width:0.8;"/>
      </defs>
      <g>
       <use style="stroke:#000000;stroke-width:0.8;" x="72" xlink:href="#m0010260313" y="284.342424"/>
      </g>
     </g>
     <g id="text_12">
      <!-- −50 -->
      <g transform="translate(43.895313 288.141643)scale(0.1 -0.1)">
       <defs>
        <path d="M 10.59375 35.5 
L 73.1875 35.5 
L 73.1875 27.203125 
L 10.59375 27.203125 
z
" id="DejaVuSans-8722"/>
        <path d="M 10.796875 72.90625 
L 49.515625 72.90625 
L 49.515625 64.59375 
L 19.828125 64.59375 
L 19.828125 46.734375 
Q 21.96875 47.46875 24.109375 47.828125 
Q 26.265625 48.1875 28.421875 48.1875 
Q 40.625 48.1875 47.75 41.5 
Q 54.890625 34.8125 54.890625 23.390625 
Q 54.890625 11.625 47.5625 5.09375 
Q 40.234375 -1.421875 26.90625 -1.421875 
Q 22.3125 -1.421875 17.546875 -0.640625 
Q 12.796875 0.140625 7.71875 1.703125 
L 7.71875 11.625 
Q 12.109375 9.234375 16.796875 8.0625 
Q 21.484375 6.890625 26.703125 6.890625 
Q 35.15625 6.890625 40.078125 11.328125 
Q 45.015625 15.765625 45.015625 23.390625 
Q 45.015625 31 40.078125 35.4375 
Q 35.15625 39.890625 26.703125 39.890625 
Q 22.75 39.890625 18.8125 39.015625 
Q 14.890625 38.140625 10.796875 36.28125 
z
" id="DejaVuSans-53"/>
       </defs>
       <use xlink:href="#DejaVuSans-8722"/>
       <use x="83.789062" xlink:href="#DejaVuSans-53"/>
       <use x="147.412109" xlink:href="#DejaVuSans-48"/>
      </g>
     </g>
    </g>
    <g id="ytick_2">
     <g id="line2d_12">
      <g>
       <use style="stroke:#000000;stroke-width:0.8;" x="72" xlink:href="#m0010260313" y="246.211111"/>
      </g>
     </g>
     <g id="text_13">
      <!-- −25 -->
      <g transform="translate(43.895313 250.01033)scale(0.1 -0.1)">
       <use xlink:href="#DejaVuSans-8722"/>
       <use x="83.789062" xlink:href="#DejaVuSans-50"/>
       <use x="147.412109" xlink:href="#DejaVuSans-53"/>
      </g>
     </g>
    </g>
    <g id="ytick_3">
     <g id="line2d_13">
      <g>
       <use style="stroke:#000000;stroke-width:0.8;" x="72" xlink:href="#m0010260313" y="208.079798"/>
      </g>
     </g>
     <g id="text_14">
      <!-- 0 -->
      <g transform="translate(58.6375 211.879017)scale(0.1 -0.1)">
       <use xlink:href="#DejaVuSans-48"/>
      </g>
     </g>
    </g>
    <g id="ytick_4">
     <g id="line2d_14">
      <g>
       <use style="stroke:#000000;stroke-width:0.8;" x="72" xlink:href="#m0010260313" y="169.948485"/>
      </g>
     </g>
     <g id="text_15">
      <!-- 25 -->
      <g transform="translate(52.275 173.747704)scale(0.1 -0.1)">
       <use xlink:href="#DejaVuSans-50"/>
       <use x="63.623047" xlink:href="#DejaVuSans-53"/>
      </g>
     </g>
    </g>
    <g id="ytick_5">
     <g id="line2d_15">
      <g>
       <use style="stroke:#000000;stroke-width:0.8;" x="72" xlink:href="#m0010260313" y="131.817172"/>
      </g>
     </g>
     <g id="text_16">
      <!-- 50 -->
      <g transform="translate(52.275 135.61639)scale(0.1 -0.1)">
       <use xlink:href="#DejaVuSans-53"/>
       <use x="63.623047" xlink:href="#DejaVuSans-48"/>
      </g>
     </g>
    </g>
    <g id="ytick_6">
     <g id="line2d_16">
      <g>
       <use style="stroke:#000000;stroke-width:0.8;" x="72" xlink:href="#m0010260313" y="93.685859"/>
      </g>
     </g>
     <g id="text_17">
      <!-- 75 -->
      <g transform="translate(52.275 97.485077)scale(0.1 -0.1)">
       <defs>
        <path d="M 8.203125 72.90625 
L 55.078125 72.90625 
L 55.078125 68.703125 
L 28.609375 0 
L 18.3125 0 
L 43.21875 64.59375 
L 8.203125 64.59375 
z
" id="DejaVuSans-55"/>
       </defs>
       <use xlink:href="#DejaVuSans-55"/>
       <use x="63.623047" xlink:href="#DejaVuSans-53"/>
      </g>
     </g>
    </g>
    <g id="ytick_7">
     <g id="line2d_17">
      <g>
       <use style="stroke:#000000;stroke-width:0.8;" x="72" xlink:href="#m0010260313" y="55.554545"/>
      </g>
     </g>
     <g id="text_18">
      <!-- 100 -->
      <g transform="translate(45.9125 59.353764)scale(0.1 -0.1)">
       <use xlink:href="#DejaVuSans-49"/>
       <use x="63.623047" xlink:href="#DejaVuSans-48"/>
       <use x="127.246094" xlink:href="#DejaVuSans-48"/>
      </g>
     </g>
    </g>
    <g id="text_19">
     <!-- cumulative reward -->
     <g transform="translate(37.815625 225.799219)rotate(-90)scale(0.1 -0.1)">
      <defs>
       <path d="M 48.78125 52.59375 
L 48.78125 44.1875 
Q 44.96875 46.296875 41.140625 47.34375 
Q 37.3125 48.390625 33.40625 48.390625 
Q 24.65625 48.390625 19.8125 42.84375 
Q 14.984375 37.3125 14.984375 27.296875 
Q 14.984375 17.28125 19.8125 11.734375 
Q 24.65625 6.203125 33.40625 6.203125 
Q 37.3125 6.203125 41.140625 7.25 
Q 44.96875 8.296875 48.78125 10.40625 
L 48.78125 2.09375 
Q 45.015625 0.34375 40.984375 -0.53125 
Q 36.96875 -1.421875 32.421875 -1.421875 
Q 20.0625 -1.421875 12.78125 6.34375 
Q 5.515625 14.109375 5.515625 27.296875 
Q 5.515625 40.671875 12.859375 48.328125 
Q 20.21875 56 33.015625 56 
Q 37.15625 56 41.109375 55.140625 
Q 45.0625 54.296875 48.78125 52.59375 
z
" id="DejaVuSans-99"/>
       <path d="M 8.5 21.578125 
L 8.5 54.6875 
L 17.484375 54.6875 
L 17.484375 21.921875 
Q 17.484375 14.15625 20.5 10.265625 
Q 23.53125 6.390625 29.59375 6.390625 
Q 36.859375 6.390625 41.078125 11.03125 
Q 45.3125 15.671875 45.3125 23.6875 
L 45.3125 54.6875 
L 54.296875 54.6875 
L 54.296875 0 
L 45.3125 0 
L 45.3125 8.40625 
Q 42.046875 3.421875 37.71875 1 
Q 33.40625 -1.421875 27.6875 -1.421875 
Q 18.265625 -1.421875 13.375 4.4375 
Q 8.5 10.296875 8.5 21.578125 
z
M 31.109375 56 
z
" id="DejaVuSans-117"/>
       <path d="M 52 44.1875 
Q 55.375 50.25 60.0625 53.125 
Q 64.75 56 71.09375 56 
Q 79.640625 56 84.28125 50.015625 
Q 88.921875 44.046875 88.921875 33.015625 
L 88.921875 0 
L 79.890625 0 
L 79.890625 32.71875 
Q 79.890625 40.578125 77.09375 44.375 
Q 74.3125 48.1875 68.609375 48.1875 
Q 61.625 48.1875 57.5625 43.546875 
Q 53.515625 38.921875 53.515625 30.90625 
L 53.515625 0 
L 44.484375 0 
L 44.484375 32.71875 
Q 44.484375 40.625 41.703125 44.40625 
Q 38.921875 48.1875 33.109375 48.1875 
Q 26.21875 48.1875 22.15625 43.53125 
Q 18.109375 38.875 18.109375 30.90625 
L 18.109375 0 
L 9.078125 0 
L 9.078125 54.6875 
L 18.109375 54.6875 
L 18.109375 46.1875 
Q 21.1875 51.21875 25.484375 53.609375 
Q 29.78125 56 35.6875 56 
Q 41.65625 56 45.828125 52.96875 
Q 50 49.953125 52 44.1875 
z
" id="DejaVuSans-109"/>
       <path d="M 9.421875 75.984375 
L 18.40625 75.984375 
L 18.40625 0 
L 9.421875 0 
z
" id="DejaVuSans-108"/>
       <path d="M 2.984375 54.6875 
L 12.5 54.6875 
L 29.59375 8.796875 
L 46.6875 54.6875 
L 56.203125 54.6875 
L 35.6875 0 
L 23.484375 0 
z
" id="DejaVuSans-118"/>
       <path id="DejaVuSans-32"/>
       <path d="M 4.203125 54.6875 
L 13.1875 54.6875 
L 24.421875 12.015625 
L 35.59375 54.6875 
L 46.1875 54.6875 
L 57.421875 12.015625 
L 68.609375 54.6875 
L 77.59375 54.6875 
L 63.28125 0 
L 52.6875 0 
L 40.921875 44.828125 
L 29.109375 0 
L 18.5 0 
z
" id="DejaVuSans-119"/>
       <path d="M 45.40625 46.390625 
L 45.40625 75.984375 
L 54.390625 75.984375 
L 54.390625 0 
L 45.40625 0 
L 45.40625 8.203125 
Q 42.578125 3.328125 38.25 0.953125 
Q 33.9375 -1.421875 27.875 -1.421875 
Q 17.96875 -1.421875 11.734375 6.484375 
Q 5.515625 14.40625 5.515625 27.296875 
Q 5.515625 40.1875 11.734375 48.09375 
Q 17.96875 56 27.875 56 
Q 33.9375 56 38.25 53.625 
Q 42.578125 51.265625 45.40625 46.390625 
z
M 14.796875 27.296875 
Q 14.796875 17.390625 18.875 11.75 
Q 22.953125 6.109375 30.078125 6.109375 
Q 37.203125 6.109375 41.296875 11.75 
Q 45.40625 17.390625 45.40625 27.296875 
Q 45.40625 37.203125 41.296875 42.84375 
Q 37.203125 48.484375 30.078125 48.484375 
Q 22.953125 48.484375 18.875 42.84375 
Q 14.796875 37.203125 14.796875 27.296875 
z
" id="DejaVuSans-100"/>
      </defs>
      <use xlink:href="#DejaVuSans-99"/>
      <use x="54.980469" xlink:href="#DejaVuSans-117"/>
      <use x="118.359375" xlink:href="#DejaVuSans-109"/>
      <use x="215.771484" xlink:href="#DejaVuSans-117"/>
      <use x="279.150391" xlink:href="#DejaVuSans-108"/>
      <use x="306.933594" xlink:href="#DejaVuSans-97"/>
      <use x="368.212891" xlink:href="#DejaVuSans-116"/>
      <use x="407.421875" xlink:href="#DejaVuSans-105"/>
      <use x="435.205078" xlink:href="#DejaVuSans-118"/>
      <use x="494.384766" xlink:href="#DejaVuSans-101"/>
      <use x="555.908203" xlink:href="#DejaVuSans-32"/>
      <use x="587.695312" xlink:href="#DejaVuSans-114"/>
      <use x="626.558594" xlink:href="#DejaVuSans-101"/>
      <use x="688.082031" xlink:href="#DejaVuSans-119"/>
      <use x="769.869141" xlink:href="#DejaVuSans-97"/>
      <use x="831.148438" xlink:href="#DejaVuSans-114"/>
      <use x="870.511719" xlink:href="#DejaVuSans-100"/>
     </g>
    </g>
   </g>
   <g id="line2d_18">
    <path clip-path="url(#pebe34ccda7)" d="M 80.204003 217.139798 
L 80.447445 234.893737 
L 80.690887 218.11596 
L 80.934329 213.631717 
L 81.177772 213.89101 
L 81.421214 211.969192 
L 81.908098 212.823333 
L 82.151541 214.257071 
L 82.394983 218.161717 
L 82.881867 213.036869 
L 83.125309 211.282828 
L 83.612194 213.677475 
L 83.855636 210.642222 
L 84.099078 209.284747 
L 84.342521 208.949192 
L 84.585963 209.376263 
L 84.829405 208.476364 
L 85.072847 210.077879 
L 85.316289 207.530707 
L 85.559732 209.696566 
L 85.803174 209.3 
L 86.046616 209.11697 
L 86.290058 208.095051 
L 86.533501 209.025455 
L 86.776943 208.156061 
L 87.020385 208.430606 
L 87.263827 209.269495 
L 87.507269 211.221818 
L 87.750712 210.260909 
L 87.994154 209.955859 
L 88.237596 208.979697 
L 88.724481 208.537374 
L 88.967923 208.766162 
L 89.454807 208.323838 
L 89.698249 207.576465 
L 89.941692 208.933939 
L 90.428576 207.256162 
L 90.672018 208.476364 
L 90.915461 206.264747 
L 91.158903 206.829091 
L 91.402345 211.298081 
L 91.645787 207.744242 
L 91.889229 207.500202 
L 92.132672 208.049293 
L 92.376114 206.417273 
L 92.862998 209.36101 
L 93.106441 207.835758 
L 93.349883 207.164646 
L 93.593325 207.271414 
L 93.836767 209.681313 
L 94.080209 209.666061 
L 94.323652 209.36101 
L 94.567094 209.650808 
L 94.810536 208.735657 
L 95.053978 208.415354 
L 95.297421 209.711818 
L 95.784305 210.108384 
L 96.027747 209.849091 
L 96.271189 208.03404 
L 96.514632 209.849091 
L 96.758074 209.864343 
L 97.244958 208.369596 
L 97.488401 208.156061 
L 97.731843 208.110303 
L 98.218727 207.073131 
L 98.462169 207.393434 
L 98.705612 206.493535 
L 98.949054 207.118889 
L 99.192496 207.088384 
L 99.435938 207.66798 
L 99.67938 207.042626 
L 99.922823 208.140808 
L 100.166265 206.173232 
L 100.409707 207.530707 
L 100.653149 206.890101 
L 100.896592 209.071212 
L 101.140034 207.91202 
L 101.383476 207.97303 
L 101.626918 209.086465 
L 102.113803 207.576465 
L 102.357245 205.883434 
L 102.844129 205.258081 
L 103.087572 205.685152 
L 103.331014 207.698485 
L 103.574456 205.258081 
L 103.817898 205.822424 
L 104.06134 204.64798 
L 104.304783 206.615556 
L 104.791667 206.371515 
L 105.035109 205.822424 
L 105.278552 207.088384 
L 105.521994 207.134141 
L 105.765436 207.012121 
L 106.008878 207.530707 
L 106.495763 206.874848 
L 106.739205 207.454444 
L 106.982647 207.591717 
L 107.469532 205.761414 
L 107.712974 205.974949 
L 107.956416 206.46303 
L 108.199858 206.142727 
L 108.4433 206.295253 
L 108.686743 205.929192 
L 108.930185 205.059798 
L 109.173627 206.646061 
L 109.417069 203.763333 
L 109.660512 206.234242 
L 109.903954 206.203737 
L 110.147396 206.493535 
L 110.63428 205.700404 
L 110.877723 205.837677 
L 111.121165 206.478283 
L 111.364607 205.059798 
L 111.608049 205.990202 
L 111.851492 204.602222 
L 112.094934 206.21899 
L 112.338376 205.700404 
L 112.82526 206.188485 
L 113.068703 207.057879 
L 113.312145 207.210404 
L 113.555587 207.195152 
L 113.799029 205.090303 
L 114.042472 206.874848 
L 114.285914 206.09697 
L 114.529356 207.225657 
L 114.772798 206.432525 
L 115.01624 206.966364 
L 115.259683 206.707071 
L 115.503125 207.042626 
L 115.746567 206.691818 
L 115.990009 206.051212 
L 116.233451 205.883434 
L 116.476894 205.364848 
L 116.720336 206.920606 
L 117.20722 206.249495 
L 117.450663 206.127475 
L 117.694105 206.325758 
L 117.937547 206.752828 
L 118.180989 204.907273 
L 118.667874 207.637475 
L 118.911316 205.029293 
L 119.154758 204.983535 
L 119.3982 207.195152 
L 119.641643 207.683232 
L 119.885085 205.730909 
L 120.128527 206.630808 
L 120.371969 206.920606 
L 120.615411 205.883434 
L 120.858854 206.386768 
L 121.102296 207.591717 
L 121.345738 207.713737 
L 121.58918 205.822424 
L 121.832623 208.049293 
L 122.076065 207.210404 
L 122.319507 208.156061 
L 122.806391 206.646061 
L 123.049834 206.264747 
L 123.293276 207.118889 
L 123.536718 205.715657 
L 124.023603 206.844343 
L 124.267045 206.813838 
L 124.510487 206.15798 
L 124.753929 207.012121 
L 124.997371 207.164646 
L 125.240814 205.959697 
L 125.484256 206.295253 
L 125.727698 207.683232 
L 125.97114 206.21899 
L 126.458025 207.012121 
L 126.701467 206.203737 
L 126.944909 206.752828 
L 127.188351 206.859596 
L 127.431794 205.791919 
L 127.675236 208.400101 
L 128.16212 205.730909 
L 128.405563 207.027374 
L 128.892447 207.195152 
L 129.135889 208.415354 
L 129.622774 204.159899 
L 129.866216 205.273333 
L 130.109658 204.678485 
L 130.3531 205.898687 
L 130.596543 206.447778 
L 130.839985 205.532626 
L 131.326869 206.28 
L 131.570311 206.203737 
L 131.813754 205.807172 
L 132.057196 205.929192 
L 132.300638 205.669899 
L 132.54408 206.066465 
L 132.787522 205.151313 
L 133.030965 205.136061 
L 133.274407 206.996869 
L 133.517849 206.554545 
L 133.761291 206.646061 
L 134.004734 205.883434 
L 134.248176 204.724242 
L 134.491618 205.807172 
L 134.73506 206.234242 
L 134.978502 207.134141 
L 135.221945 206.310505 
L 135.465387 208.140808 
L 135.708829 207.896768 
L 136.195714 205.517374 
L 136.439156 207.713737 
L 136.682598 207.72899 
L 136.92604 205.746162 
L 137.169482 207.042626 
L 137.412925 207.195152 
L 137.656367 206.051212 
L 137.899809 206.859596 
L 138.143251 205.822424 
L 138.386694 207.439192 
L 138.630136 207.576465 
L 138.873578 206.310505 
L 139.11702 205.761414 
L 139.360462 207.073131 
L 140.090789 205.578384 
L 140.334231 207.408687 
L 140.577674 207.60697 
L 140.821116 206.829091 
L 141.064558 205.563131 
L 141.794885 207.622222 
L 142.038327 206.112222 
L 142.281769 205.349596 
L 142.525211 206.020707 
L 142.768654 205.547879 
L 143.012096 206.173232 
L 143.255538 207.622222 
L 143.49898 205.075051 
L 143.742422 206.874848 
L 143.985865 205.059798 
L 144.229307 206.21899 
L 144.716191 203.519293 
L 144.959634 206.005455 
L 145.203076 205.471616 
L 145.446518 205.364848 
L 145.68996 205.395354 
L 145.933402 207.942525 
L 146.176845 205.776667 
L 146.420287 206.203737 
L 146.663729 205.730909 
L 146.907171 204.70899 
L 147.150614 204.922525 
L 147.394056 204.64798 
L 147.637498 205.01404 
L 147.88094 204.861515 
L 148.124382 204.236162 
L 148.367825 205.624141 
L 148.611267 206.051212 
L 148.854709 204.815758 
L 149.098151 205.578384 
L 149.341593 205.151313 
L 149.828478 205.669899 
L 150.07192 205.715657 
L 150.315362 205.090303 
L 150.558805 205.822424 
L 150.802247 204.52596 
L 151.045689 205.974949 
L 151.289131 204.495455 
L 151.532573 204.815758 
L 151.776016 204.876768 
L 152.019458 205.715657 
L 152.2629 205.761414 
L 152.506342 204.541212 
L 152.749785 204.998788 
L 152.993227 204.068384 
L 153.236669 205.181818 
L 153.480111 205.029293 
L 153.723553 205.669899 
L 153.966996 204.419192 
L 154.210438 204.77 
L 154.697322 203.931111 
L 154.940765 204.800505 
L 155.184207 203.870101 
L 155.427649 204.571717 
L 155.671091 204.754747 
L 155.914533 204.007374 
L 156.157976 204.114141 
L 156.401418 203.702323 
L 156.64486 203.748081 
L 156.888302 203.641313 
L 157.131745 203.854848 
L 157.375187 203.778586 
L 157.618629 206.173232 
L 158.105513 203.702323 
L 158.348956 203.824343 
L 158.592398 203.763333 
L 158.83584 204.739495 
L 159.322725 204.907273 
L 159.566167 205.471616 
L 159.809609 203.38202 
L 160.296493 205.624141 
L 160.539936 204.373434 
L 160.783378 204.77 
L 161.270262 204.983535 
L 161.513705 203.626061 
L 161.757147 204.449697 
L 162.000589 203.732828 
L 162.244031 204.007374 
L 162.487473 203.26 
L 162.730916 205.059798 
L 162.974358 204.617475 
L 163.2178 203.336263 
L 163.461242 204.663232 
L 163.704685 202.253333 
L 163.948127 203.885354 
L 164.435011 204.327677 
L 164.678453 203.488788 
L 164.921896 204.800505 
L 165.165338 204.342929 
L 165.40878 204.510707 
L 165.652222 204.266667 
L 165.895665 202.848182 
L 166.139107 204.663232 
L 166.382549 204.52596 
L 166.625991 203.824343 
L 166.869433 205.654646 
L 167.112876 203.229495 
L 167.59976 204.52596 
L 168.086644 204.312424 
L 168.330087 205.303838 
L 168.573529 205.197071 
L 168.816971 204.022626 
L 169.060413 204.77 
L 169.303856 203.549798 
L 169.547298 204.266667 
L 169.79074 205.563131 
L 170.034182 205.883434 
L 170.277624 203.976869 
L 170.521067 206.005455 
L 171.007951 203.534545 
L 171.251393 203.336263 
L 171.494836 203.778586 
L 171.738278 205.166566 
L 171.98172 204.144646 
L 172.225162 204.327677 
L 172.468604 203.580303 
L 172.712047 203.702323 
L 172.955489 202.573636 
L 173.198931 204.510707 
L 173.442373 204.312424 
L 173.685816 203.488788 
L 173.929258 204.114141 
L 174.1727 205.166566 
L 174.659584 204.053131 
L 174.903027 204.037879 
L 175.146469 203.732828 
L 175.389911 205.242828 
L 176.120238 203.122727 
L 176.36368 204.297172 
L 176.607122 203.748081 
L 177.094007 204.77 
L 177.337449 204.998788 
L 177.580891 205.395354 
L 177.824333 204.205657 
L 178.067776 205.075051 
L 178.55466 203.38202 
L 178.798102 204.220909 
L 179.041544 203.458283 
L 179.284987 204.007374 
L 179.528429 203.626061 
L 179.771871 204.52596 
L 180.015313 204.190404 
L 180.258756 204.114141 
L 180.502198 203.702323 
L 180.74564 204.64798 
L 180.989082 204.281919 
L 181.232524 204.373434 
L 181.475967 205.410606 
L 181.719409 204.785253 
L 181.962851 203.305758 
L 182.206293 204.907273 
L 182.449736 204.159899 
L 182.693178 204.129394 
L 182.93662 203.290505 
L 183.180062 206.28 
L 183.423504 203.32101 
L 183.666947 204.876768 
L 183.910389 204.129394 
L 184.153831 204.83101 
L 184.397273 204.724242 
L 184.640715 203.641313 
L 184.884158 204.58697 
L 185.1276 204.342929 
L 185.371042 205.547879 
L 185.614484 203.946364 
L 185.857927 204.556465 
L 186.101369 203.885354 
L 186.344811 203.992121 
L 186.588253 204.220909 
L 186.831695 203.305758 
L 187.075138 203.397273 
L 187.31858 203.778586 
L 187.562022 205.166566 
L 187.805464 204.464949 
L 188.048907 204.281919 
L 188.292349 203.824343 
L 188.535791 204.175152 
L 188.779233 203.519293 
L 189.022675 202.497374 
L 189.266118 203.839596 
L 189.50956 202.497374 
L 189.753002 204.205657 
L 190.239887 203.900606 
L 190.483329 202.954949 
L 190.726771 204.876768 
L 190.970213 204.266667 
L 191.213655 203.046465 
L 191.70054 204.175152 
L 191.943982 204.022626 
L 192.187424 204.144646 
L 192.430867 203.626061 
L 192.674309 202.588889 
L 192.917751 203.885354 
L 193.161193 203.26 
L 193.404635 203.915859 
L 193.648078 205.212323 
L 193.89152 203.946364 
L 194.134962 205.410606 
L 194.378404 204.89202 
L 194.621847 204.724242 
L 194.865289 204.358182 
L 195.108731 204.64798 
L 195.352173 204.617475 
L 195.595615 204.022626 
L 195.839058 202.543131 
L 196.0825 204.95303 
L 196.325942 204.70899 
L 196.569384 204.266667 
L 197.056269 204.602222 
L 197.299711 204.861515 
L 197.543153 203.809091 
L 198.030038 204.541212 
L 198.27348 202.055051 
L 198.516922 204.175152 
L 198.760364 204.281919 
L 199.003807 204.632727 
L 199.247249 206.203737 
L 199.490691 204.022626 
L 199.977575 204.754747 
L 200.221018 204.800505 
L 200.46446 206.188485 
L 200.707902 204.52596 
L 200.951344 205.654646 
L 201.194786 204.83101 
L 201.438229 204.58697 
L 201.681671 204.098889 
L 201.925113 206.112222 
L 202.168555 204.464949 
L 202.411998 205.151313 
L 202.65544 204.449697 
L 202.898882 204.907273 
L 203.142324 205.624141 
L 203.385766 204.739495 
L 203.629209 205.608889 
L 203.872651 205.776667 
L 204.116093 205.685152 
L 204.359535 204.358182 
L 204.602978 205.288586 
L 204.84642 205.029293 
L 205.089862 203.427778 
L 205.333304 205.151313 
L 205.576746 204.068384 
L 205.820189 203.610808 
L 206.063631 205.029293 
L 206.307073 203.473535 
L 206.793958 204.754747 
L 207.0374 203.687071 
L 207.280842 205.410606 
L 207.524284 205.761414 
L 207.767726 206.417273 
L 208.011169 205.898687 
L 208.254611 204.77 
L 208.741495 206.356263 
L 208.984938 204.114141 
L 209.22838 203.961616 
L 209.715264 205.380101 
L 209.958706 204.58697 
L 210.202149 203.336263 
L 210.689033 204.785253 
L 210.932475 204.388687 
L 211.175918 204.236162 
L 211.41936 204.480202 
L 211.662802 205.807172 
L 211.906244 205.669899 
L 212.149686 203.610808 
L 212.393129 203.671818 
L 212.636571 205.288586 
L 212.880013 203.061717 
L 213.123455 203.351515 
L 213.366898 204.190404 
L 213.61034 203.946364 
L 213.853782 205.01404 
L 214.097224 203.122727 
L 214.340666 204.724242 
L 214.584109 202.954949 
L 214.827551 203.870101 
L 215.070993 203.01596 
L 215.314435 204.52596 
L 215.557878 203.107475 
L 215.80132 204.098889 
L 216.044762 203.122727 
L 216.288204 203.397273 
L 216.531646 202.954949 
L 216.775089 202.954949 
L 217.018531 202.512626 
L 217.261973 204.144646 
L 217.505415 204.190404 
L 217.748858 203.702323 
L 217.9923 203.50404 
L 218.479184 201.734747 
L 218.722626 201.856768 
L 218.966069 201.56697 
L 219.209511 200.941616 
L 219.696395 203.366768 
L 219.939837 202.421111 
L 220.18328 203.793838 
L 220.426722 202.131313 
L 220.670164 203.290505 
L 220.913606 201.704242 
L 221.157049 201.307677 
L 221.400491 203.397273 
L 221.643933 202.893939 
L 221.887375 203.031212 
L 222.130817 204.205657 
L 222.37426 202.405859 
L 222.617702 201.856768 
L 222.861144 203.336263 
L 223.348029 202.161818 
L 223.591471 202.543131 
L 223.834913 202.238081 
L 224.078355 202.177071 
L 224.321797 202.573636 
L 224.56524 201.048384 
L 224.808682 203.778586 
L 225.052124 202.726162 
L 225.295566 204.022626 
L 225.539009 204.114141 
L 225.782451 202.299091 
L 226.025893 203.275253 
L 226.269335 203.427778 
L 226.512777 204.449697 
L 226.999662 201.353434 
L 227.243104 202.009293 
L 227.486546 203.824343 
L 227.729989 203.397273 
L 227.973431 202.649899 
L 228.216873 204.480202 
L 228.460315 203.626061 
L 228.703757 201.826263 
L 228.9472 202.710909 
L 229.190642 204.64798 
L 229.434084 203.671818 
L 229.920969 203.458283 
L 230.164411 202.497374 
L 230.651295 202.863434 
L 230.894737 202.787172 
L 231.13818 201.68899 
L 231.381622 202.436364 
L 231.625064 201.399192 
L 231.868506 203.229495 
L 232.111949 201.002626 
L 232.355391 201.399192 
L 232.598833 203.702323 
L 233.085717 203.244747 
L 233.32916 200.941616 
L 233.572602 202.390606 
L 233.816044 201.93303 
L 234.059486 202.863434 
L 234.302929 202.649899 
L 234.546371 202.207576 
L 234.789813 203.44303 
L 235.033255 203.38202 
L 235.276697 204.785253 
L 235.52014 203.046465 
L 235.763582 204.342929 
L 236.007024 204.129394 
L 236.250466 204.403939 
L 236.493908 202.604141 
L 236.737351 204.449697 
L 236.980793 204.617475 
L 237.224235 203.01596 
L 237.467677 203.946364 
L 237.71112 203.565051 
L 237.954562 202.466869 
L 238.198004 204.632727 
L 238.684888 202.802424 
L 238.928331 202.802424 
L 239.171773 201.261919 
L 239.415215 203.26 
L 239.658657 202.649899 
L 239.9021 202.466869 
L 240.145542 202.512626 
L 240.388984 201.658485 
L 240.632426 202.848182 
L 240.875868 202.726162 
L 241.119311 203.214242 
L 241.362753 202.680404 
L 241.606195 201.856768 
L 241.849637 202.741414 
L 242.09308 202.665152 
L 242.336522 202.787172 
L 242.579964 203.50404 
L 242.823406 202.085556 
L 243.066848 202.726162 
L 243.310291 203.900606 
L 243.553733 203.839596 
L 243.797175 203.275253 
L 244.28406 203.534545 
L 244.28406 203.534545 
" style="fill:none;stroke:#1f77b4;stroke-linecap:square;stroke-width:1.5;"/>
   </g>
   <g id="line2d_19">
    <path clip-path="url(#pebe34ccda7)" d="M 80.204003 256.887879 
L 80.447445 302.645455 
L 80.690887 259.938384 
L 80.934329 253.837374 
L 81.177772 250.786869 
L 81.421214 253.837374 
L 81.664656 250.786869 
L 81.908098 255.362626 
L 82.151541 253.837374 
L 82.394983 284.342424 
L 82.638425 255.362626 
L 82.881867 287.392929 
L 83.368752 240.110101 
L 83.612194 255.362626 
L 83.855636 230.958586 
L 84.099078 235.534343 
L 84.342521 255.362626 
L 84.585963 235.534343 
L 84.829405 224.857576 
L 85.072847 244.685859 
L 85.316289 227.908081 
L 86.046616 243.160606 
L 86.290058 234.009091 
L 86.533501 235.534343 
L 86.776943 235.534343 
L 87.020385 234.009091 
L 87.263827 237.059596 
L 87.507269 232.483838 
L 87.750712 235.534343 
L 87.994154 235.534343 
L 88.481038 232.483838 
L 88.724481 226.382828 
L 88.967923 238.584848 
L 89.211365 232.483838 
L 89.454807 229.433333 
L 89.698249 234.009091 
L 89.941692 253.837374 
L 90.428576 220.281818 
L 90.672018 250.786869 
L 90.915461 218.756566 
L 91.158903 229.433333 
L 91.402345 255.362626 
L 91.645787 238.584848 
L 91.889229 238.584848 
L 92.132672 223.332323 
L 92.376114 226.382828 
L 92.619556 226.382828 
L 92.862998 240.110101 
L 93.106441 229.433333 
L 93.349883 230.958586 
L 93.593325 234.009091 
L 93.836767 246.211111 
L 94.323652 235.534343 
L 94.567094 241.635354 
L 94.810536 224.857576 
L 95.297421 253.837374 
L 95.540863 241.635354 
L 95.784305 247.736364 
L 96.271189 230.958586 
L 96.514632 250.786869 
L 96.758074 237.059596 
L 97.001516 237.059596 
L 97.244958 230.958586 
L 97.488401 247.736364 
L 97.731843 237.059596 
L 97.975285 240.110101 
L 98.218727 246.211111 
L 98.462169 229.433333 
L 98.705612 221.807071 
L 98.949054 243.160606 
L 99.192496 235.534343 
L 99.435938 235.534343 
L 99.67938 234.009091 
L 99.922823 235.534343 
L 100.166265 244.685859 
L 100.409707 224.857576 
L 100.653149 229.433333 
L 100.896592 240.110101 
L 101.383476 226.382828 
L 101.626918 241.635354 
L 101.87036 238.584848 
L 102.113803 249.261616 
L 102.357245 238.584848 
L 102.600687 221.807071 
L 102.844129 227.908081 
L 103.087572 237.059596 
L 103.331014 238.584848 
L 104.06134 223.332323 
L 104.548225 261.463636 
L 104.791667 235.534343 
L 105.035109 230.958586 
L 105.278552 252.312121 
L 105.521994 261.463636 
L 105.765436 262.988889 
L 106.008878 246.211111 
L 106.495763 235.534343 
L 106.739205 243.160606 
L 106.982647 234.009091 
L 107.226089 229.433333 
L 107.469532 235.534343 
L 107.712974 249.261616 
L 107.956416 235.534343 
L 108.199858 243.160606 
L 108.4433 240.110101 
L 108.686743 244.685859 
L 108.930185 238.584848 
L 109.173627 243.160606 
L 109.417069 223.332323 
L 109.660512 281.291919 
L 110.147396 237.059596 
L 110.390838 238.584848 
L 110.63428 235.534343 
L 110.877723 240.110101 
L 111.121165 241.635354 
L 111.364607 226.382828 
L 111.608049 230.958586 
L 111.851492 224.857576 
L 112.094934 237.059596 
L 112.338376 240.110101 
L 112.581818 230.958586 
L 113.068703 237.059596 
L 113.312145 234.009091 
L 113.555587 241.635354 
L 113.799029 227.908081 
L 114.042472 227.908081 
L 114.285914 249.261616 
L 114.529356 249.261616 
L 114.772798 240.110101 
L 115.01624 238.584848 
L 115.259683 229.433333 
L 115.746567 261.463636 
L 115.990009 235.534343 
L 116.233451 240.110101 
L 116.476894 253.837374 
L 116.963778 230.958586 
L 117.20722 227.908081 
L 117.694105 250.786869 
L 117.937547 235.534343 
L 118.180989 227.908081 
L 118.424431 258.413131 
L 118.667874 241.635354 
L 118.911316 246.211111 
L 119.154758 224.857576 
L 119.3982 247.736364 
L 119.641643 244.685859 
L 119.885085 250.786869 
L 120.128527 232.483838 
L 120.371969 241.635354 
L 120.615411 235.534343 
L 120.858854 241.635354 
L 121.102296 244.685859 
L 121.345738 253.837374 
L 121.58918 243.160606 
L 121.832623 238.584848 
L 122.076065 237.059596 
L 122.319507 244.685859 
L 122.562949 264.514141 
L 122.806391 226.382828 
L 123.049834 240.110101 
L 123.293276 240.110101 
L 123.536718 229.433333 
L 123.78016 238.584848 
L 124.023603 241.635354 
L 124.267045 240.110101 
L 124.997371 240.110101 
L 125.240814 227.908081 
L 125.484256 234.009091 
L 125.727698 246.211111 
L 125.97114 237.059596 
L 126.214583 243.160606 
L 126.458025 234.009091 
L 126.701467 237.059596 
L 126.944909 238.584848 
L 127.188351 244.685859 
L 127.431794 238.584848 
L 127.675236 238.584848 
L 127.918678 237.059596 
L 128.16212 234.009091 
L 128.405563 246.211111 
L 128.649005 244.685859 
L 128.892447 241.635354 
L 129.135889 253.837374 
L 129.622774 229.433333 
L 130.109658 243.160606 
L 130.3531 234.009091 
L 130.596543 246.211111 
L 130.839985 223.332323 
L 131.083427 234.009091 
L 131.326869 237.059596 
L 131.570311 232.483838 
L 131.813754 238.584848 
L 132.057196 232.483838 
L 132.300638 252.312121 
L 132.54408 249.261616 
L 132.787522 234.009091 
L 133.030965 240.110101 
L 133.274407 240.110101 
L 133.517849 244.685859 
L 133.761291 226.382828 
L 134.004734 232.483838 
L 134.248176 235.534343 
L 134.491618 249.261616 
L 134.978502 240.110101 
L 135.221945 250.786869 
L 135.465387 246.211111 
L 135.708829 235.534343 
L 135.952271 240.110101 
L 136.195714 235.534343 
L 136.439156 237.059596 
L 136.682598 259.938384 
L 136.92604 235.534343 
L 137.169482 252.312121 
L 137.412925 252.312121 
L 137.656367 246.211111 
L 137.899809 252.312121 
L 138.143251 240.110101 
L 138.386694 250.786869 
L 138.873578 232.483838 
L 139.11702 252.312121 
L 139.360462 227.908081 
L 139.603905 250.786869 
L 139.847347 249.261616 
L 140.090789 243.160606 
L 140.334231 247.736364 
L 140.577674 249.261616 
L 141.064558 221.807071 
L 141.551442 243.160606 
L 142.038327 237.059596 
L 142.281769 229.433333 
L 142.525211 244.685859 
L 142.768654 229.433333 
L 143.012096 240.110101 
L 143.255538 232.483838 
L 143.49898 232.483838 
L 143.742422 261.463636 
L 143.985865 230.958586 
L 144.229307 229.433333 
L 144.472749 237.059596 
L 144.716191 238.584848 
L 144.959634 244.685859 
L 145.203076 262.988889 
L 145.446518 241.635354 
L 145.68996 234.009091 
L 145.933402 247.736364 
L 146.176845 247.736364 
L 146.420287 229.433333 
L 146.907171 226.382828 
L 147.150614 234.009091 
L 147.394056 230.958586 
L 147.637498 230.958586 
L 147.88094 241.635354 
L 148.124382 223.332323 
L 148.367825 240.110101 
L 148.611267 238.584848 
L 148.854709 243.160606 
L 149.098151 234.009091 
L 149.341593 229.433333 
L 149.585036 234.009091 
L 149.828478 229.433333 
L 150.07192 247.736364 
L 150.315362 221.807071 
L 150.558805 230.958586 
L 150.802247 250.786869 
L 151.045689 253.837374 
L 151.289131 234.009091 
L 151.532573 234.009091 
L 152.019458 226.382828 
L 152.2629 223.332323 
L 152.506342 223.332323 
L 152.749785 232.483838 
L 152.993227 235.534343 
L 153.236669 223.332323 
L 153.480111 235.534343 
L 153.723553 237.059596 
L 153.966996 243.160606 
L 154.210438 232.483838 
L 154.45388 249.261616 
L 154.697322 243.160606 
L 155.184207 224.857576 
L 155.427649 235.534343 
L 155.671091 235.534343 
L 155.914533 237.059596 
L 156.401418 226.382828 
L 156.64486 234.009091 
L 156.888302 220.281818 
L 157.131745 229.433333 
L 157.375187 234.009091 
L 157.618629 249.261616 
L 157.862071 241.635354 
L 158.105513 243.160606 
L 158.348956 224.857576 
L 158.592398 226.382828 
L 158.83584 234.009091 
L 159.079282 237.059596 
L 159.322725 238.584848 
L 159.566167 234.009091 
L 159.809609 221.807071 
L 160.296493 249.261616 
L 160.539936 235.534343 
L 160.783378 247.736364 
L 161.02682 227.908081 
L 161.270262 230.958586 
L 161.513705 232.483838 
L 161.757147 229.433333 
L 162.000589 229.433333 
L 162.244031 223.332323 
L 162.730916 250.786869 
L 163.2178 221.807071 
L 163.461242 229.433333 
L 163.704685 232.483838 
L 163.948127 218.756566 
L 164.191569 230.958586 
L 164.435011 229.433333 
L 164.921896 237.059596 
L 165.165338 234.009091 
L 165.652222 221.807071 
L 165.895665 223.332323 
L 166.382549 232.483838 
L 166.625991 217.231313 
L 166.869433 232.483838 
L 167.112876 238.584848 
L 167.59976 223.332323 
L 167.843202 229.433333 
L 168.086644 232.483838 
L 168.330087 230.958586 
L 168.573529 226.382828 
L 168.816971 241.635354 
L 169.303856 226.382828 
L 169.547298 235.534343 
L 169.79074 226.382828 
L 170.034182 224.857576 
L 170.277624 229.433333 
L 170.521067 230.958586 
L 170.764509 235.534343 
L 171.007951 224.857576 
L 171.251393 232.483838 
L 171.494836 232.483838 
L 171.738278 227.908081 
L 172.225162 227.908081 
L 172.468604 221.807071 
L 172.712047 224.857576 
L 172.955489 226.382828 
L 173.198931 235.534343 
L 173.442373 221.807071 
L 173.929258 234.009091 
L 174.1727 235.534343 
L 174.416142 226.382828 
L 174.659584 221.807071 
L 174.903027 230.958586 
L 175.146469 230.958586 
L 175.389911 234.009091 
L 175.633353 226.382828 
L 175.876796 237.059596 
L 176.120238 217.231313 
L 176.36368 230.958586 
L 176.607122 229.433333 
L 176.850564 226.382828 
L 177.094007 240.110101 
L 177.824333 227.908081 
L 178.067776 229.433333 
L 178.311218 229.433333 
L 178.55466 234.009091 
L 178.798102 235.534343 
L 179.041544 227.908081 
L 179.284987 238.584848 
L 179.771871 226.382828 
L 180.015313 238.584848 
L 180.258756 232.483838 
L 180.502198 215.706061 
L 180.74564 224.857576 
L 180.989082 221.807071 
L 181.232524 235.534343 
L 181.475967 235.534343 
L 181.962851 218.756566 
L 182.206293 220.281818 
L 182.449736 232.483838 
L 182.93662 217.231313 
L 183.423504 235.534343 
L 183.666947 238.584848 
L 183.910389 232.483838 
L 184.153831 229.433333 
L 184.397273 241.635354 
L 184.640715 232.483838 
L 184.884158 234.009091 
L 185.1276 234.009091 
L 185.371042 237.059596 
L 185.857927 223.332323 
L 186.101369 237.059596 
L 186.344811 238.584848 
L 186.831695 224.857576 
L 187.075138 232.483838 
L 187.31858 232.483838 
L 187.562022 221.807071 
L 187.805464 234.009091 
L 188.048907 229.433333 
L 188.292349 217.231313 
L 188.535791 230.958586 
L 188.779233 218.756566 
L 189.266118 229.433333 
L 189.50956 246.211111 
L 189.753002 220.281818 
L 189.996444 227.908081 
L 190.239887 229.433333 
L 190.483329 223.332323 
L 190.726771 226.382828 
L 190.970213 227.908081 
L 191.213655 227.908081 
L 191.457098 226.382828 
L 191.70054 253.837374 
L 191.943982 246.211111 
L 192.187424 230.958586 
L 192.430867 226.382828 
L 192.674309 229.433333 
L 192.917751 230.958586 
L 193.161193 227.908081 
L 193.404635 221.807071 
L 193.648078 230.958586 
L 193.89152 232.483838 
L 194.134962 235.534343 
L 194.378404 224.857576 
L 194.621847 227.908081 
L 195.108731 235.534343 
L 195.352173 224.857576 
L 195.595615 224.857576 
L 196.0825 237.059596 
L 196.569384 220.281818 
L 196.812827 250.786869 
L 197.056269 232.483838 
L 197.299711 226.382828 
L 197.543153 247.736364 
L 197.786595 232.483838 
L 198.030038 235.534343 
L 198.27348 218.756566 
L 198.516922 226.382828 
L 198.760364 240.110101 
L 199.247249 232.483838 
L 199.490691 238.584848 
L 199.734133 232.483838 
L 199.977575 230.958586 
L 200.221018 230.958586 
L 200.46446 238.584848 
L 200.707902 224.857576 
L 200.951344 234.009091 
L 201.194786 230.958586 
L 201.681671 223.332323 
L 201.925113 241.635354 
L 202.168555 223.332323 
L 202.411998 230.958586 
L 202.65544 220.281818 
L 202.898882 229.433333 
L 203.142324 246.211111 
L 203.385766 226.382828 
L 203.629209 227.908081 
L 203.872651 241.635354 
L 204.116093 218.756566 
L 204.359535 223.332323 
L 204.602978 232.483838 
L 204.84642 224.857576 
L 205.089862 226.382828 
L 205.333304 237.059596 
L 205.576746 232.483838 
L 205.820189 221.807071 
L 206.063631 230.958586 
L 206.307073 221.807071 
L 206.550515 221.807071 
L 206.793958 227.908081 
L 207.0374 220.281818 
L 207.280842 229.433333 
L 207.524284 232.483838 
L 207.767726 234.009091 
L 208.011169 227.908081 
L 208.254611 226.382828 
L 208.498053 237.059596 
L 208.984938 226.382828 
L 209.22838 229.433333 
L 209.471822 230.958586 
L 209.715264 227.908081 
L 209.958706 234.009091 
L 210.202149 221.807071 
L 210.445591 230.958586 
L 210.689033 227.908081 
L 210.932475 237.059596 
L 211.175918 224.857576 
L 211.41936 235.534343 
L 211.662802 224.857576 
L 211.906244 234.009091 
L 212.149686 234.009091 
L 212.393129 224.857576 
L 212.636571 235.534343 
L 213.123455 215.706061 
L 213.366898 227.908081 
L 213.61034 255.362626 
L 214.097224 227.908081 
L 214.340666 235.534343 
L 214.584109 234.009091 
L 214.827551 220.281818 
L 215.070993 232.483838 
L 215.314435 232.483838 
L 215.557878 226.382828 
L 215.80132 237.059596 
L 216.044762 230.958586 
L 216.288204 215.706061 
L 216.531646 218.756566 
L 216.775089 237.059596 
L 217.018531 226.382828 
L 217.261973 238.584848 
L 217.505415 234.009091 
L 217.748858 221.807071 
L 217.9923 215.706061 
L 218.235742 224.857576 
L 218.479184 226.382828 
L 218.722626 218.756566 
L 218.966069 227.908081 
L 219.209511 214.180808 
L 219.452953 230.958586 
L 219.696395 227.908081 
L 219.939837 215.706061 
L 220.18328 226.382828 
L 220.426722 227.908081 
L 220.670164 246.211111 
L 220.913606 223.332323 
L 221.157049 217.231313 
L 221.400491 221.807071 
L 221.643933 217.231313 
L 221.887375 230.958586 
L 222.130817 220.281818 
L 222.37426 223.332323 
L 222.617702 217.231313 
L 222.861144 221.807071 
L 223.348029 218.756566 
L 223.591471 223.332323 
L 223.834913 223.332323 
L 224.078355 218.756566 
L 224.321797 229.433333 
L 224.56524 226.382828 
L 224.808682 226.382828 
L 225.052124 218.756566 
L 225.295566 229.433333 
L 225.539009 218.756566 
L 225.782451 218.756566 
L 226.269335 227.908081 
L 226.512777 217.231313 
L 226.999662 224.857576 
L 227.243104 227.908081 
L 227.486546 240.110101 
L 227.729989 221.807071 
L 227.973431 218.756566 
L 228.216873 223.332323 
L 228.703757 220.281818 
L 228.9472 232.483838 
L 229.190642 250.786869 
L 229.434084 224.857576 
L 229.677526 230.958586 
L 230.164411 220.281818 
L 230.407853 223.332323 
L 230.651295 230.958586 
L 230.894737 220.281818 
L 231.13818 221.807071 
L 231.381622 226.382828 
L 231.625064 227.908081 
L 231.868506 215.706061 
L 232.111949 229.433333 
L 232.355391 221.807071 
L 232.598833 230.958586 
L 232.842275 227.908081 
L 233.085717 230.958586 
L 233.32916 215.706061 
L 233.572602 243.160606 
L 233.816044 223.332323 
L 234.302929 214.180808 
L 234.789813 227.908081 
L 235.033255 221.807071 
L 235.276697 237.059596 
L 235.52014 226.382828 
L 235.763582 247.736364 
L 236.250466 230.958586 
L 236.493908 234.009091 
L 236.737351 226.382828 
L 236.980793 229.433333 
L 237.224235 224.857576 
L 237.467677 223.332323 
L 237.71112 230.958586 
L 237.954562 230.958586 
L 238.198004 220.281818 
L 238.441446 230.958586 
L 238.684888 229.433333 
L 238.928331 218.756566 
L 239.171773 221.807071 
L 239.415215 229.433333 
L 239.658657 229.433333 
L 239.9021 224.857576 
L 240.145542 214.180808 
L 240.388984 221.807071 
L 240.632426 218.756566 
L 240.875868 234.009091 
L 241.119311 221.807071 
L 241.362753 221.807071 
L 241.606195 217.231313 
L 241.849637 229.433333 
L 242.09308 218.756566 
L 242.336522 223.332323 
L 242.579964 240.110101 
L 242.823406 220.281818 
L 243.066848 234.009091 
L 243.553733 223.332323 
L 243.797175 220.281818 
L 244.040617 227.908081 
L 244.28406 226.382828 
L 244.28406 226.382828 
" style="fill:none;stroke:#ff7f0e;stroke-linecap:square;stroke-width:1.5;"/>
   </g>
   <g id="line2d_20">
    <path clip-path="url(#pebe34ccda7)" d="M 80.204003 197.40303 
L 80.447445 192.827273 
L 80.690887 194.352525 
L 80.934329 192.827273 
L 81.177772 188.251515 
L 81.421214 189.776768 
L 81.664656 192.827273 
L 81.908098 191.30202 
L 82.151541 195.877778 
L 82.394983 197.40303 
L 82.638425 195.877778 
L 82.881867 189.776768 
L 83.125309 186.726263 
L 83.368752 194.352525 
L 83.612194 194.352525 
L 83.855636 197.40303 
L 84.342521 189.776768 
L 84.585963 197.40303 
L 84.829405 192.827273 
L 85.072847 195.877778 
L 85.316289 188.251515 
L 85.559732 191.30202 
L 85.803174 195.877778 
L 86.046616 192.827273 
L 86.290058 188.251515 
L 86.533501 191.30202 
L 86.776943 192.827273 
L 87.020385 189.776768 
L 87.263827 197.40303 
L 87.507269 192.827273 
L 87.750712 192.827273 
L 87.994154 198.928283 
L 88.237596 186.726263 
L 88.481038 194.352525 
L 88.724481 191.30202 
L 88.967923 189.776768 
L 89.211365 195.877778 
L 89.454807 195.877778 
L 89.698249 188.251515 
L 90.185134 191.30202 
L 90.428576 194.352525 
L 90.672018 174.524242 
L 90.915461 188.251515 
L 91.158903 185.20101 
L 91.402345 194.352525 
L 91.645787 191.30202 
L 91.889229 191.30202 
L 92.132672 192.827273 
L 92.376114 180.625253 
L 92.619556 191.30202 
L 93.106441 191.30202 
L 93.349883 189.776768 
L 93.836767 180.625253 
L 94.080209 195.877778 
L 94.323652 194.352525 
L 94.810536 188.251515 
L 95.053978 188.251515 
L 95.297421 189.776768 
L 95.540863 189.776768 
L 95.784305 192.827273 
L 96.027747 191.30202 
L 96.271189 183.675758 
L 96.514632 192.827273 
L 97.001516 192.827273 
L 97.244958 188.251515 
L 97.488401 186.726263 
L 97.731843 186.726263 
L 97.975285 192.827273 
L 98.218727 172.99899 
L 98.462169 189.776768 
L 98.705612 183.675758 
L 98.949054 183.675758 
L 99.435938 191.30202 
L 99.67938 189.776768 
L 99.922823 191.30202 
L 100.409707 183.675758 
L 100.653149 189.776768 
L 100.896592 191.30202 
L 101.140034 189.776768 
L 101.383476 194.352525 
L 101.626918 192.827273 
L 101.87036 188.251515 
L 102.113803 188.251515 
L 102.357245 185.20101 
L 102.600687 189.776768 
L 102.844129 188.251515 
L 103.087572 188.251515 
L 103.331014 177.574747 
L 103.817898 188.251515 
L 104.548225 188.251515 
L 104.791667 183.675758 
L 105.035109 182.150505 
L 105.278552 191.30202 
L 105.521994 191.30202 
L 105.765436 185.20101 
L 106.008878 191.30202 
L 106.25232 189.776768 
L 106.495763 189.776768 
L 106.739205 185.20101 
L 106.982647 188.251515 
L 107.226089 182.150505 
L 107.469532 180.625253 
L 107.712974 191.30202 
L 107.956416 186.726263 
L 108.199858 188.251515 
L 108.686743 182.150505 
L 108.930185 183.675758 
L 109.173627 192.827273 
L 109.417069 186.726263 
L 109.660512 186.726263 
L 109.903954 185.20101 
L 110.147396 185.20101 
L 110.390838 183.675758 
L 110.63428 180.625253 
L 110.877723 183.675758 
L 111.121165 189.776768 
L 111.364607 188.251515 
L 111.608049 182.150505 
L 111.851492 186.726263 
L 112.094934 186.726263 
L 112.338376 189.776768 
L 112.581818 183.675758 
L 112.82526 185.20101 
L 113.068703 188.251515 
L 113.555587 191.30202 
L 113.799029 186.726263 
L 114.042472 189.776768 
L 114.285914 189.776768 
L 114.529356 185.20101 
L 114.772798 189.776768 
L 115.259683 183.675758 
L 115.503125 189.776768 
L 115.746567 189.776768 
L 115.990009 191.30202 
L 116.233451 183.675758 
L 116.476894 185.20101 
L 116.720336 182.150505 
L 116.963778 185.20101 
L 117.20722 189.776768 
L 117.450663 185.20101 
L 117.694105 185.20101 
L 117.937547 191.30202 
L 118.180989 188.251515 
L 118.424431 188.251515 
L 118.667874 191.30202 
L 118.911316 189.776768 
L 119.154758 186.726263 
L 119.3982 186.726263 
L 119.885085 189.776768 
L 120.128527 186.726263 
L 120.371969 189.776768 
L 120.615411 186.726263 
L 120.858854 182.150505 
L 121.102296 185.20101 
L 121.345738 185.20101 
L 121.58918 186.726263 
L 121.832623 191.30202 
L 122.076065 191.30202 
L 122.319507 185.20101 
L 122.562949 192.827273 
L 123.049834 185.20101 
L 123.293276 189.776768 
L 123.536718 183.675758 
L 123.78016 182.150505 
L 124.510487 191.30202 
L 124.997371 185.20101 
L 125.240814 189.776768 
L 125.484256 191.30202 
L 125.727698 188.251515 
L 125.97114 188.251515 
L 126.214583 183.675758 
L 126.458025 186.726263 
L 126.701467 186.726263 
L 126.944909 183.675758 
L 127.188351 183.675758 
L 127.675236 189.776768 
L 128.16212 186.726263 
L 128.405563 186.726263 
L 128.649005 185.20101 
L 128.892447 191.30202 
L 129.135889 186.726263 
L 129.622774 186.726263 
L 129.866216 189.776768 
L 130.109658 186.726263 
L 130.3531 177.574747 
L 130.596543 179.1 
L 130.839985 185.20101 
L 131.083427 183.675758 
L 131.326869 188.251515 
L 131.570311 186.726263 
L 132.057196 186.726263 
L 132.54408 189.776768 
L 132.787522 179.1 
L 133.030965 180.625253 
L 133.274407 188.251515 
L 133.517849 189.776768 
L 133.761291 174.524242 
L 134.004734 186.726263 
L 134.248176 182.150505 
L 134.73506 188.251515 
L 134.978502 183.675758 
L 135.221945 182.150505 
L 135.708829 189.776768 
L 135.952271 188.251515 
L 136.195714 189.776768 
L 136.439156 180.625253 
L 136.682598 185.20101 
L 136.92604 186.726263 
L 137.169482 183.675758 
L 137.412925 188.251515 
L 137.656367 182.150505 
L 137.899809 186.726263 
L 138.143251 185.20101 
L 138.630136 188.251515 
L 138.873578 183.675758 
L 139.11702 188.251515 
L 139.360462 185.20101 
L 139.603905 188.251515 
L 139.847347 186.726263 
L 140.334231 189.776768 
L 140.577674 188.251515 
L 140.821116 182.150505 
L 141.064558 188.251515 
L 141.308 186.726263 
L 141.551442 177.574747 
L 141.794885 188.251515 
L 142.038327 186.726263 
L 142.281769 188.251515 
L 142.525211 188.251515 
L 142.768654 185.20101 
L 143.012096 183.675758 
L 143.255538 191.30202 
L 143.49898 179.1 
L 143.742422 186.726263 
L 143.985865 188.251515 
L 144.229307 176.049495 
L 144.472749 183.675758 
L 144.716191 182.150505 
L 144.959634 189.776768 
L 145.203076 182.150505 
L 145.446518 186.726263 
L 145.68996 169.948485 
L 146.176845 191.30202 
L 146.420287 189.776768 
L 146.663729 183.675758 
L 146.907171 188.251515 
L 147.150614 185.20101 
L 147.394056 180.625253 
L 147.637498 183.675758 
L 147.88094 172.99899 
L 148.367825 191.30202 
L 148.611267 189.776768 
L 148.854709 189.776768 
L 149.098151 179.1 
L 149.341593 188.251515 
L 149.585036 188.251515 
L 149.828478 183.675758 
L 150.07192 183.675758 
L 150.315362 186.726263 
L 150.802247 183.675758 
L 151.045689 188.251515 
L 151.289131 185.20101 
L 151.532573 172.99899 
L 151.776016 186.726263 
L 152.019458 186.726263 
L 152.2629 185.20101 
L 152.749785 185.20101 
L 152.993227 186.726263 
L 153.236669 189.776768 
L 153.723553 180.625253 
L 153.966996 185.20101 
L 154.210438 186.726263 
L 154.45388 185.20101 
L 154.697322 180.625253 
L 154.940765 182.150505 
L 155.184207 180.625253 
L 155.427649 182.150505 
L 155.671091 186.726263 
L 155.914533 182.150505 
L 156.157976 182.150505 
L 156.401418 186.726263 
L 156.64486 180.625253 
L 156.888302 182.150505 
L 157.131745 189.776768 
L 157.375187 185.20101 
L 157.618629 183.675758 
L 157.862071 189.776768 
L 158.105513 182.150505 
L 158.348956 185.20101 
L 158.592398 185.20101 
L 158.83584 180.625253 
L 159.079282 186.726263 
L 159.322725 180.625253 
L 159.566167 183.675758 
L 159.809609 174.524242 
L 160.053051 186.726263 
L 160.296493 179.1 
L 160.539936 183.675758 
L 160.783378 185.20101 
L 161.02682 188.251515 
L 161.270262 183.675758 
L 161.513705 176.049495 
L 161.757147 182.150505 
L 162.000589 176.049495 
L 162.244031 179.1 
L 162.487473 185.20101 
L 162.730916 185.20101 
L 162.974358 182.150505 
L 163.2178 180.625253 
L 163.461242 186.726263 
L 163.704685 182.150505 
L 164.191569 188.251515 
L 164.435011 186.726263 
L 164.678453 177.574747 
L 164.921896 188.251515 
L 165.165338 183.675758 
L 165.40878 182.150505 
L 165.652222 185.20101 
L 165.895665 185.20101 
L 166.382549 177.574747 
L 166.869433 180.625253 
L 167.112876 179.1 
L 167.356318 179.1 
L 167.59976 185.20101 
L 167.843202 182.150505 
L 168.086644 185.20101 
L 168.330087 179.1 
L 168.573529 188.251515 
L 168.816971 183.675758 
L 169.303856 183.675758 
L 169.547298 182.150505 
L 169.79074 186.726263 
L 170.034182 188.251515 
L 170.521067 188.251515 
L 170.764509 176.049495 
L 171.007951 180.625253 
L 171.251393 174.524242 
L 171.494836 172.99899 
L 171.738278 176.049495 
L 171.98172 189.776768 
L 172.468604 182.150505 
L 172.712047 182.150505 
L 172.955489 185.20101 
L 173.442373 179.1 
L 173.685816 182.150505 
L 173.929258 183.675758 
L 174.1727 183.675758 
L 174.416142 186.726263 
L 174.659584 185.20101 
L 174.903027 185.20101 
L 175.146469 180.625253 
L 175.389911 185.20101 
L 175.876796 188.251515 
L 176.120238 188.251515 
L 176.36368 182.150505 
L 176.607122 185.20101 
L 176.850564 183.675758 
L 177.094007 183.675758 
L 177.337449 188.251515 
L 177.580891 189.776768 
L 177.824333 182.150505 
L 178.311218 185.20101 
L 178.55466 177.574747 
L 178.798102 183.675758 
L 179.041544 183.675758 
L 179.284987 179.1 
L 179.528429 185.20101 
L 179.771871 185.20101 
L 180.015313 179.1 
L 180.258756 185.20101 
L 180.502198 180.625253 
L 180.74564 183.675758 
L 180.989082 179.1 
L 181.232524 183.675758 
L 181.719409 183.675758 
L 181.962851 176.049495 
L 182.206293 182.150505 
L 182.449736 183.675758 
L 182.693178 183.675758 
L 182.93662 182.150505 
L 183.180062 182.150505 
L 183.423504 176.049495 
L 183.666947 188.251515 
L 183.910389 186.726263 
L 184.153831 182.150505 
L 184.397273 180.625253 
L 184.640715 183.675758 
L 184.884158 185.20101 
L 185.1276 182.150505 
L 185.371042 180.625253 
L 185.614484 177.574747 
L 186.101369 188.251515 
L 186.344811 183.675758 
L 186.588253 185.20101 
L 186.831695 183.675758 
L 187.075138 176.049495 
L 187.31858 186.726263 
L 187.562022 183.675758 
L 187.805464 179.1 
L 188.048907 188.251515 
L 188.292349 180.625253 
L 188.535791 185.20101 
L 188.779233 182.150505 
L 189.022675 177.574747 
L 189.266118 183.675758 
L 189.996444 183.675758 
L 190.239887 180.625253 
L 190.483329 179.1 
L 190.726771 186.726263 
L 190.970213 182.150505 
L 191.213655 182.150505 
L 191.457098 177.574747 
L 191.70054 183.675758 
L 191.943982 177.574747 
L 192.187424 179.1 
L 192.430867 183.675758 
L 192.674309 185.20101 
L 192.917751 185.20101 
L 193.161193 176.049495 
L 193.648078 183.675758 
L 193.89152 180.625253 
L 194.134962 180.625253 
L 194.378404 183.675758 
L 194.621847 182.150505 
L 195.108731 182.150505 
L 195.352173 174.524242 
L 195.595615 183.675758 
L 195.839058 182.150505 
L 196.0825 185.20101 
L 196.325942 183.675758 
L 196.569384 186.726263 
L 196.812827 180.625253 
L 197.299711 186.726263 
L 197.543153 182.150505 
L 197.786595 183.675758 
L 198.030038 174.524242 
L 198.27348 177.574747 
L 198.516922 182.150505 
L 198.760364 182.150505 
L 199.003807 179.1 
L 199.247249 188.251515 
L 199.490691 177.574747 
L 199.734133 180.625253 
L 200.221018 180.625253 
L 200.46446 182.150505 
L 200.707902 177.574747 
L 200.951344 185.20101 
L 201.194786 182.150505 
L 201.438229 183.675758 
L 201.681671 186.726263 
L 201.925113 182.150505 
L 202.168555 185.20101 
L 202.411998 179.1 
L 202.65544 182.150505 
L 202.898882 180.625253 
L 203.142324 186.726263 
L 203.385766 180.625253 
L 203.629209 183.675758 
L 203.872651 188.251515 
L 204.84642 182.150505 
L 205.089862 183.675758 
L 205.333304 186.726263 
L 205.576746 183.675758 
L 205.820189 182.150505 
L 206.307073 185.20101 
L 206.550515 188.251515 
L 206.793958 177.574747 
L 207.0374 186.726263 
L 207.280842 183.675758 
L 207.524284 185.20101 
L 207.767726 180.625253 
L 208.254611 183.675758 
L 208.498053 189.776768 
L 208.741495 189.776768 
L 209.22838 186.726263 
L 209.471822 174.524242 
L 209.715264 186.726263 
L 209.958706 183.675758 
L 210.202149 174.524242 
L 210.445591 182.150505 
L 210.689033 180.625253 
L 210.932475 172.99899 
L 211.175918 174.524242 
L 211.41936 183.675758 
L 211.662802 188.251515 
L 211.906244 188.251515 
L 212.393129 174.524242 
L 212.636571 185.20101 
L 212.880013 179.1 
L 213.123455 179.1 
L 213.366898 182.150505 
L 213.61034 182.150505 
L 213.853782 179.1 
L 214.097224 180.625253 
L 214.340666 186.726263 
L 214.584109 182.150505 
L 214.827551 183.675758 
L 215.070993 186.726263 
L 215.314435 180.625253 
L 215.557878 166.89798 
L 215.80132 188.251515 
L 216.044762 182.150505 
L 216.288204 185.20101 
L 216.531646 172.99899 
L 216.775089 179.1 
L 217.018531 182.150505 
L 217.505415 185.20101 
L 217.748858 185.20101 
L 218.235742 176.049495 
L 218.479184 177.574747 
L 218.722626 182.150505 
L 218.966069 174.524242 
L 219.209511 174.524242 
L 219.696395 185.20101 
L 219.939837 171.473737 
L 220.18328 183.675758 
L 220.426722 182.150505 
L 220.913606 185.20101 
L 221.157049 172.99899 
L 221.400491 176.049495 
L 221.643933 177.574747 
L 221.887375 174.524242 
L 222.130817 183.675758 
L 222.37426 182.150505 
L 222.617702 177.574747 
L 222.861144 182.150505 
L 223.104586 177.574747 
L 223.348029 176.049495 
L 223.591471 179.1 
L 223.834913 180.625253 
L 224.078355 180.625253 
L 224.321797 171.473737 
L 224.56524 182.150505 
L 225.052124 182.150505 
L 225.295566 177.574747 
L 225.539009 183.675758 
L 225.782451 180.625253 
L 226.269335 180.625253 
L 226.512777 179.1 
L 226.75622 179.1 
L 226.999662 177.574747 
L 227.243104 177.574747 
L 227.486546 182.150505 
L 227.729989 180.625253 
L 227.973431 180.625253 
L 228.216873 182.150505 
L 228.460315 182.150505 
L 228.703757 185.20101 
L 228.9472 185.20101 
L 229.190642 180.625253 
L 229.434084 183.675758 
L 229.677526 180.625253 
L 229.920969 182.150505 
L 230.164411 179.1 
L 230.407853 171.473737 
L 230.651295 179.1 
L 230.894737 182.150505 
L 231.13818 183.675758 
L 231.381622 182.150505 
L 231.868506 182.150505 
L 232.111949 174.524242 
L 232.355391 179.1 
L 232.598833 180.625253 
L 232.842275 185.20101 
L 233.085717 179.1 
L 233.32916 182.150505 
L 233.572602 182.150505 
L 233.816044 176.049495 
L 234.059486 186.726263 
L 234.302929 186.726263 
L 234.546371 177.574747 
L 234.789813 182.150505 
L 235.033255 183.675758 
L 235.276697 179.1 
L 235.763582 186.726263 
L 236.007024 185.20101 
L 236.250466 185.20101 
L 236.493908 180.625253 
L 236.737351 189.776768 
L 236.980793 185.20101 
L 237.224235 183.675758 
L 237.467677 185.20101 
L 237.71112 177.574747 
L 237.954562 186.726263 
L 238.198004 183.675758 
L 238.441446 185.20101 
L 238.928331 185.20101 
L 239.171773 182.150505 
L 239.415215 185.20101 
L 239.658657 182.150505 
L 239.9021 182.150505 
L 240.145542 180.625253 
L 240.388984 172.99899 
L 240.875868 182.150505 
L 241.119311 177.574747 
L 241.362753 177.574747 
L 241.606195 180.625253 
L 241.849637 185.20101 
L 242.09308 185.20101 
L 242.336522 182.150505 
L 242.579964 183.675758 
L 242.823406 186.726263 
L 243.066848 177.574747 
L 243.310291 177.574747 
L 243.553733 185.20101 
L 243.797175 180.625253 
L 244.040617 179.1 
L 244.28406 183.675758 
L 244.28406 183.675758 
" style="fill:none;stroke:#2ca02c;stroke-linecap:square;stroke-width:1.5;"/>
   </g>
   <g id="line2d_21">
    <path clip-path="url(#pebe34ccda7)" d="M 80.204003 216.795527 
L 82.638425 213.527128 
L 85.072847 204.920346 
L 87.507269 207.099278 
L 89.941692 209.278211 
L 92.376114 206.990332 
L 94.810536 205.465079 
L 97.244958 206.445599 
L 99.67938 206.990332 
L 102.113803 205.465079 
L 104.548225 208.733478 
L 106.982647 207.535065 
L 109.417069 206.118759 
L 111.851492 205.900866 
L 114.285914 211.23925 
L 116.720336 208.515584 
L 119.154758 204.266667 
L 121.58918 205.247186 
L 124.023603 205.574026 
L 126.458025 209.713997 
L 128.892447 207.317172 
L 131.326869 206.009812 
L 133.761291 208.079798 
L 136.195714 204.48456 
L 138.630136 206.663492 
L 141.064558 208.624531 
L 143.49898 202.959307 
L 145.933402 206.772439 
L 148.367825 203.286147 
L 150.802247 204.593506 
L 153.236669 203.83088 
L 155.671091 204.702453 
L 158.105513 205.247186 
L 160.539936 203.068254 
L 162.974358 202.632468 
L 165.40878 201.869841 
L 167.843202 204.15772 
L 170.277624 204.266667 
L 172.712047 202.414574 
L 175.146469 204.266667 
L 177.580891 204.593506 
L 180.015313 205.247186 
L 182.449736 203.612987 
L 184.884158 206.445599 
L 187.31858 200.017749 
L 189.753002 202.523521 
L 192.187424 203.50404 
L 194.621847 206.772439 
L 197.056269 205.682973 
L 199.490691 205.356133 
L 201.925113 202.305628 
L 204.359535 202.632468 
L 206.793958 203.395094 
L 209.22838 201.543001 
L 211.662802 206.663492 
L 214.097224 206.009812 
L 216.531646 200.017749 
L 218.966069 202.196681 
L 221.400491 203.068254 
L 223.834913 202.523521 
L 226.269335 200.671429 
L 228.703757 202.523521 
L 231.13818 206.009812 
L 233.572602 197.838817 
L 236.007024 204.15772 
L 238.441446 199.473016 
L 240.875868 204.15772 
L 243.310291 203.83088 
" style="fill:none;stroke:#d62728;stroke-linecap:square;stroke-width:1.5;"/>
   </g>
   <g id="line2d_22">
    <path clip-path="url(#pebe34ccda7)" d="M 80.204003 55.554545 
L 82.638425 55.554545 
L 85.072847 55.554545 
L 87.507269 55.554545 
L 89.941692 55.554545 
L 92.376114 55.554545 
L 94.810536 55.554545 
L 97.244958 55.554545 
L 99.67938 55.554545 
L 102.113803 55.554545 
L 104.548225 55.554545 
L 106.982647 55.554545 
L 109.417069 55.554545 
L 111.851492 55.554545 
L 114.285914 55.554545 
L 116.720336 55.554545 
L 119.154758 55.554545 
L 121.58918 55.554545 
L 124.023603 55.554545 
L 126.458025 55.554545 
L 128.892447 55.554545 
L 131.326869 55.554545 
L 133.761291 55.554545 
L 136.195714 55.554545 
L 138.630136 55.554545 
L 141.064558 55.554545 
L 143.49898 55.554545 
L 145.933402 55.554545 
L 148.367825 55.554545 
L 150.802247 55.554545 
L 153.236669 55.554545 
L 155.671091 55.554545 
L 158.105513 55.554545 
L 160.539936 55.554545 
L 162.974358 55.554545 
L 165.40878 55.554545 
L 167.843202 55.554545 
L 170.277624 55.554545 
L 172.712047 55.554545 
L 175.146469 55.554545 
L 177.580891 55.554545 
L 180.015313 55.554545 
L 182.449736 55.554545 
L 184.884158 55.554545 
L 187.31858 55.554545 
L 189.753002 55.554545 
L 192.187424 55.554545 
L 194.621847 55.554545 
L 197.056269 55.554545 
L 199.490691 55.554545 
L 201.925113 55.554545 
L 204.359535 55.554545 
L 206.793958 55.554545 
L 209.22838 55.554545 
L 211.662802 55.554545 
L 214.097224 55.554545 
L 216.531646 55.554545 
L 218.966069 55.554545 
L 221.400491 55.554545 
L 223.834913 55.554545 
L 226.269335 55.554545 
L 228.703757 55.554545 
L 231.13818 55.554545 
L 233.572602 55.554545 
L 236.007024 55.554545 
L 238.441446 55.554545 
L 240.875868 55.554545 
L 243.310291 55.554545 
" style="fill:none;stroke:#9467bd;stroke-linecap:square;stroke-width:1.5;"/>
   </g>
   <g id="patch_3">
    <path d="M 72 315 
L 72 43.2 
" style="fill:none;stroke:#000000;stroke-linecap:square;stroke-linejoin:miter;stroke-width:0.8;"/>
   </g>
   <g id="patch_4">
    <path d="M 518.4 315 
L 518.4 43.2 
" style="fill:none;stroke:#000000;stroke-linecap:square;stroke-linejoin:miter;stroke-width:0.8;"/>
   </g>
   <g id="patch_5">
    <path d="M 72 315 
L 518.4 315 
" style="fill:none;stroke:#000000;stroke-linecap:square;stroke-linejoin:miter;stroke-width:0.8;"/>
   </g>
   <g id="patch_6">
    <path d="M 72 43.2 
L 518.4 43.2 
" style="fill:none;stroke:#000000;stroke-linecap:square;stroke-linejoin:miter;stroke-width:0.8;"/>
   </g>
   <g id="text_20">
    <!-- Boxing-v0.cma.16.7 -->
    <g transform="translate(235.400625 37.2)scale(0.12 -0.12)">
     <defs>
      <path d="M 19.671875 34.8125 
L 19.671875 8.109375 
L 35.5 8.109375 
Q 43.453125 8.109375 47.28125 11.40625 
Q 51.125 14.703125 51.125 21.484375 
Q 51.125 28.328125 47.28125 31.5625 
Q 43.453125 34.8125 35.5 34.8125 
z
M 19.671875 64.796875 
L 19.671875 42.828125 
L 34.28125 42.828125 
Q 41.5 42.828125 45.03125 45.53125 
Q 48.578125 48.25 48.578125 53.8125 
Q 48.578125 59.328125 45.03125 62.0625 
Q 41.5 64.796875 34.28125 64.796875 
z
M 9.8125 72.90625 
L 35.015625 72.90625 
Q 46.296875 72.90625 52.390625 68.21875 
Q 58.5 63.53125 58.5 54.890625 
Q 58.5 48.1875 55.375 44.234375 
Q 52.25 40.28125 46.1875 39.3125 
Q 53.46875 37.75 57.5 32.78125 
Q 61.53125 27.828125 61.53125 20.40625 
Q 61.53125 10.640625 54.890625 5.3125 
Q 48.25 0 35.984375 0 
L 9.8125 0 
z
" id="DejaVuSans-66"/>
      <path d="M 54.890625 54.6875 
L 35.109375 28.078125 
L 55.90625 0 
L 45.3125 0 
L 29.390625 21.484375 
L 13.484375 0 
L 2.875 0 
L 24.125 28.609375 
L 4.6875 54.6875 
L 15.28125 54.6875 
L 29.78125 35.203125 
L 44.28125 54.6875 
z
" id="DejaVuSans-120"/>
      <path d="M 4.890625 31.390625 
L 31.203125 31.390625 
L 31.203125 23.390625 
L 4.890625 23.390625 
z
" id="DejaVuSans-45"/>
      <path d="M 10.6875 12.40625 
L 21 12.40625 
L 21 0 
L 10.6875 0 
z
" id="DejaVuSans-46"/>
     </defs>
     <use xlink:href="#DejaVuSans-66"/>
     <use x="68.603516" xlink:href="#DejaVuSans-111"/>
     <use x="126.660156" xlink:href="#DejaVuSans-120"/>
     <use x="185.839844" xlink:href="#DejaVuSans-105"/>
     <use x="213.623047" xlink:href="#DejaVuSans-110"/>
     <use x="277.001953" xlink:href="#DejaVuSans-103"/>
     <use x="340.478516" xlink:href="#DejaVuSans-45"/>
     <use x="373.9375" xlink:href="#DejaVuSans-118"/>
     <use x="433.117188" xlink:href="#DejaVuSans-48"/>
     <use x="496.740234" xlink:href="#DejaVuSans-46"/>
     <use x="528.527344" xlink:href="#DejaVuSans-99"/>
     <use x="583.507812" xlink:href="#DejaVuSans-109"/>
     <use x="680.919922" xlink:href="#DejaVuSans-97"/>
     <use x="742.199219" xlink:href="#DejaVuSans-46"/>
     <use x="773.986328" xlink:href="#DejaVuSans-49"/>
     <use x="837.609375" xlink:href="#DejaVuSans-54"/>
     <use x="901.232422" xlink:href="#DejaVuSans-46"/>
     <use x="933.019531" xlink:href="#DejaVuSans-55"/>
    </g>
   </g>
   <g id="legend_1">
    <g id="patch_7">
     <path d="M 406.151562 124.590625 
L 511.4 124.590625 
Q 513.4 124.590625 513.4 122.590625 
L 513.4 50.2 
Q 513.4 48.2 511.4 48.2 
L 406.151562 48.2 
Q 404.151562 48.2 404.151562 50.2 
L 404.151562 122.590625 
Q 404.151562 124.590625 406.151562 124.590625 
z
" style="fill:#ffffff;opacity:0.8;stroke:#cccccc;stroke-linejoin:miter;"/>
    </g>
    <g id="line2d_23">
     <path d="M 408.151562 56.298437 
L 428.151562 56.298437 
" style="fill:none;stroke:#1f77b4;stroke-linecap:square;stroke-width:1.5;"/>
    </g>
    <g id="line2d_24"/>
    <g id="text_21">
     <!-- mean -->
     <g transform="translate(436.151562 59.798437)scale(0.1 -0.1)">
      <use xlink:href="#DejaVuSans-109"/>
      <use x="97.412109" xlink:href="#DejaVuSans-101"/>
      <use x="158.935547" xlink:href="#DejaVuSans-97"/>
      <use x="220.214844" xlink:href="#DejaVuSans-110"/>
     </g>
    </g>
    <g id="line2d_25">
     <path d="M 408.151562 70.976562 
L 428.151562 70.976562 
" style="fill:none;stroke:#ff7f0e;stroke-linecap:square;stroke-width:1.5;"/>
    </g>
    <g id="line2d_26"/>
    <g id="text_22">
     <!-- min -->
     <g transform="translate(436.151562 74.476562)scale(0.1 -0.1)">
      <use xlink:href="#DejaVuSans-109"/>
      <use x="97.412109" xlink:href="#DejaVuSans-105"/>
      <use x="125.195312" xlink:href="#DejaVuSans-110"/>
     </g>
    </g>
    <g id="line2d_27">
     <path d="M 408.151562 85.654687 
L 428.151562 85.654687 
" style="fill:none;stroke:#2ca02c;stroke-linecap:square;stroke-width:1.5;"/>
    </g>
    <g id="line2d_28"/>
    <g id="text_23">
     <!-- max -->
     <g transform="translate(436.151562 89.154687)scale(0.1 -0.1)">
      <use xlink:href="#DejaVuSans-109"/>
      <use x="97.412109" xlink:href="#DejaVuSans-97"/>
      <use x="158.691406" xlink:href="#DejaVuSans-120"/>
     </g>
    </g>
    <g id="line2d_29">
     <path d="M 408.151562 100.332812 
L 428.151562 100.332812 
" style="fill:none;stroke:#9467bd;stroke-linecap:square;stroke-width:1.5;"/>
    </g>
    <g id="line2d_30"/>
    <g id="text_24">
     <!-- requirement -->
     <g transform="translate(436.151562 103.832812)scale(0.1 -0.1)">
      <defs>
       <path d="M 14.796875 27.296875 
Q 14.796875 17.390625 18.875 11.75 
Q 22.953125 6.109375 30.078125 6.109375 
Q 37.203125 6.109375 41.296875 11.75 
Q 45.40625 17.390625 45.40625 27.296875 
Q 45.40625 37.203125 41.296875 42.84375 
Q 37.203125 48.484375 30.078125 48.484375 
Q 22.953125 48.484375 18.875 42.84375 
Q 14.796875 37.203125 14.796875 27.296875 
z
M 45.40625 8.203125 
Q 42.578125 3.328125 38.25 0.953125 
Q 33.9375 -1.421875 27.875 -1.421875 
Q 17.96875 -1.421875 11.734375 6.484375 
Q 5.515625 14.40625 5.515625 27.296875 
Q 5.515625 40.1875 11.734375 48.09375 
Q 17.96875 56 27.875 56 
Q 33.9375 56 38.25 53.625 
Q 42.578125 51.265625 45.40625 46.390625 
L 45.40625 54.6875 
L 54.390625 54.6875 
L 54.390625 -20.796875 
L 45.40625 -20.796875 
z
" id="DejaVuSans-113"/>
      </defs>
      <use xlink:href="#DejaVuSans-114"/>
      <use x="38.863281" xlink:href="#DejaVuSans-101"/>
      <use x="100.386719" xlink:href="#DejaVuSans-113"/>
      <use x="163.863281" xlink:href="#DejaVuSans-117"/>
      <use x="227.242188" xlink:href="#DejaVuSans-105"/>
      <use x="255.025391" xlink:href="#DejaVuSans-114"/>
      <use x="293.888672" xlink:href="#DejaVuSans-101"/>
      <use x="355.412109" xlink:href="#DejaVuSans-109"/>
      <use x="452.824219" xlink:href="#DejaVuSans-101"/>
      <use x="514.347656" xlink:href="#DejaVuSans-110"/>
      <use x="577.726562" xlink:href="#DejaVuSans-116"/>
     </g>
    </g>
    <g id="line2d_31">
     <path d="M 408.151562 115.010937 
L 428.151562 115.010937 
" style="fill:none;stroke:#d62728;stroke-linecap:square;stroke-width:1.5;"/>
    </g>
    <g id="line2d_32"/>
    <g id="text_25">
     <!-- best avg score -->
     <g transform="translate(436.151562 118.510937)scale(0.1 -0.1)">
      <defs>
       <path d="M 48.6875 27.296875 
Q 48.6875 37.203125 44.609375 42.84375 
Q 40.53125 48.484375 33.40625 48.484375 
Q 26.265625 48.484375 22.1875 42.84375 
Q 18.109375 37.203125 18.109375 27.296875 
Q 18.109375 17.390625 22.1875 11.75 
Q 26.265625 6.109375 33.40625 6.109375 
Q 40.53125 6.109375 44.609375 11.75 
Q 48.6875 17.390625 48.6875 27.296875 
z
M 18.109375 46.390625 
Q 20.953125 51.265625 25.265625 53.625 
Q 29.59375 56 35.59375 56 
Q 45.5625 56 51.78125 48.09375 
Q 58.015625 40.1875 58.015625 27.296875 
Q 58.015625 14.40625 51.78125 6.484375 
Q 45.5625 -1.421875 35.59375 -1.421875 
Q 29.59375 -1.421875 25.265625 0.953125 
Q 20.953125 3.328125 18.109375 8.203125 
L 18.109375 0 
L 9.078125 0 
L 9.078125 75.984375 
L 18.109375 75.984375 
z
" id="DejaVuSans-98"/>
       <path d="M 44.28125 53.078125 
L 44.28125 44.578125 
Q 40.484375 46.53125 36.375 47.5 
Q 32.28125 48.484375 27.875 48.484375 
Q 21.1875 48.484375 17.84375 46.4375 
Q 14.5 44.390625 14.5 40.28125 
Q 14.5 37.15625 16.890625 35.375 
Q 19.28125 33.59375 26.515625 31.984375 
L 29.59375 31.296875 
Q 39.15625 29.25 43.1875 25.515625 
Q 47.21875 21.78125 47.21875 15.09375 
Q 47.21875 7.46875 41.1875 3.015625 
Q 35.15625 -1.421875 24.609375 -1.421875 
Q 20.21875 -1.421875 15.453125 -0.5625 
Q 10.6875 0.296875 5.421875 2 
L 5.421875 11.28125 
Q 10.40625 8.6875 15.234375 7.390625 
Q 20.0625 6.109375 24.8125 6.109375 
Q 31.15625 6.109375 34.5625 8.28125 
Q 37.984375 10.453125 37.984375 14.40625 
Q 37.984375 18.0625 35.515625 20.015625 
Q 33.0625 21.96875 24.703125 23.78125 
L 21.578125 24.515625 
Q 13.234375 26.265625 9.515625 29.90625 
Q 5.8125 33.546875 5.8125 39.890625 
Q 5.8125 47.609375 11.28125 51.796875 
Q 16.75 56 26.8125 56 
Q 31.78125 56 36.171875 55.265625 
Q 40.578125 54.546875 44.28125 53.078125 
z
" id="DejaVuSans-115"/>
      </defs>
      <use xlink:href="#DejaVuSans-98"/>
      <use x="63.476562" xlink:href="#DejaVuSans-101"/>
      <use x="125" xlink:href="#DejaVuSans-115"/>
      <use x="177.099609" xlink:href="#DejaVuSans-116"/>
      <use x="216.308594" xlink:href="#DejaVuSans-32"/>
      <use x="248.095703" xlink:href="#DejaVuSans-97"/>
      <use x="309.375" xlink:href="#DejaVuSans-118"/>
      <use x="368.554688" xlink:href="#DejaVuSans-103"/>
      <use x="432.03125" xlink:href="#DejaVuSans-32"/>
      <use x="463.818359" xlink:href="#DejaVuSans-115"/>
      <use x="515.917969" xlink:href="#DejaVuSans-99"/>
      <use x="570.898438" xlink:href="#DejaVuSans-111"/>
      <use x="632.080078" xlink:href="#DejaVuSans-114"/>
      <use x="670.943359" xlink:href="#DejaVuSans-101"/>
     </g>
    </g>
   </g>
  </g>
 </g>
 <defs>
  <clipPath id="pebe34ccda7">
   <rect height="271.8" width="446.4" x="72" y="43.2"/>
  </clipPath>
 </defs>
</svg>
