<?xml version="1.0" encoding="utf-8" standalone="no"?>
<!DOCTYPE svg PUBLIC "-//W3C//DTD SVG 1.1//EN"
  "http://www.w3.org/Graphics/SVG/1.1/DTD/svg11.dtd">
<!-- Created with matplotlib (https://matplotlib.org/) -->
<svg height="360pt" version="1.1" viewBox="0 0 576 360" width="576pt" xmlns="http://www.w3.org/2000/svg" xmlns:xlink="http://www.w3.org/1999/xlink">
 <metadata>
  <rdf:RDF xmlns:cc="http://creativecommons.org/ns#" xmlns:dc="http://purl.org/dc/elements/1.1/" xmlns:rdf="http://www.w3.org/1999/02/22-rdf-syntax-ns#">
   <cc:Work>
    <dc:type rdf:resource="http://purl.org/dc/dcmitype/StillImage"/>
    <dc:date>2021-03-02T22:11:22.835698</dc:date>
    <dc:format>image/svg+xml</dc:format>
    <dc:creator>
     <cc:Agent>
      <dc:title>Matplotlib v3.3.3, https://matplotlib.org/</dc:title>
     </cc:Agent>
    </dc:creator>
   </cc:Work>
  </rdf:RDF>
 </metadata>
 <defs>
  <style type="text/css">*{stroke-linecap:butt;stroke-linejoin:round;}</style>
 </defs>
 <g id="figure_1">
  <g id="patch_1">
   <path d="M 0 360 
L 576 360 
L 576 0 
L 0 0 
z
" style="fill:#ffffff;"/>
  </g>
  <g id="axes_1">
   <g id="patch_2">
    <path d="M 72 315 
L 518.4 315 
L 518.4 43.2 
L 72 43.2 
z
" style="fill:#ffffff;"/>
   </g>
   <g id="matplotlib.axis_1">
    <g id="xtick_1">
     <g id="line2d_1">
      <defs>
       <path d="M 0 0 
L 0 3.5 
" id="m14f371c9a8" style="stroke:#000000;stroke-width:0.8;"/>
      </defs>
      <g>
       <use style="stroke:#000000;stroke-width:0.8;" x="82.367875" xlink:href="#m14f371c9a8" y="315"/>
      </g>
     </g>
     <g id="text_1">
      <!-- 0 -->
      <g transform="translate(79.186625 329.598437)scale(0.1 -0.1)">
       <defs>
        <path d="M 31.78125 66.40625 
Q 24.171875 66.40625 20.328125 58.90625 
Q 16.5 51.421875 16.5 36.375 
Q 16.5 21.390625 20.328125 13.890625 
Q 24.171875 6.390625 31.78125 6.390625 
Q 39.453125 6.390625 43.28125 13.890625 
Q 47.125 21.390625 47.125 36.375 
Q 47.125 51.421875 43.28125 58.90625 
Q 39.453125 66.40625 31.78125 66.40625 
z
M 31.78125 74.21875 
Q 44.046875 74.21875 50.515625 64.515625 
Q 56.984375 54.828125 56.984375 36.375 
Q 56.984375 17.96875 50.515625 8.265625 
Q 44.046875 -1.421875 31.78125 -1.421875 
Q 19.53125 -1.421875 13.0625 8.265625 
Q 6.59375 17.96875 6.59375 36.375 
Q 6.59375 54.828125 13.0625 64.515625 
Q 19.53125 74.21875 31.78125 74.21875 
z
" id="DejaVuSans-48"/>
       </defs>
       <use xlink:href="#DejaVuSans-48"/>
      </g>
     </g>
    </g>
    <g id="xtick_2">
     <g id="line2d_2">
      <g>
       <use style="stroke:#000000;stroke-width:0.8;" x="130.815889" xlink:href="#m14f371c9a8" y="315"/>
      </g>
     </g>
     <g id="text_2">
      <!-- 200 -->
      <g transform="translate(121.272139 329.598437)scale(0.1 -0.1)">
       <defs>
        <path d="M 19.1875 8.296875 
L 53.609375 8.296875 
L 53.609375 0 
L 7.328125 0 
L 7.328125 8.296875 
Q 12.9375 14.109375 22.625 23.890625 
Q 32.328125 33.6875 34.8125 36.53125 
Q 39.546875 41.84375 41.421875 45.53125 
Q 43.3125 49.21875 43.3125 52.78125 
Q 43.3125 58.59375 39.234375 62.25 
Q 35.15625 65.921875 28.609375 65.921875 
Q 23.96875 65.921875 18.8125 64.3125 
Q 13.671875 62.703125 7.8125 59.421875 
L 7.8125 69.390625 
Q 13.765625 71.78125 18.9375 73 
Q 24.125 74.21875 28.421875 74.21875 
Q 39.75 74.21875 46.484375 68.546875 
Q 53.21875 62.890625 53.21875 53.421875 
Q 53.21875 48.921875 51.53125 44.890625 
Q 49.859375 40.875 45.40625 35.40625 
Q 44.1875 33.984375 37.640625 27.21875 
Q 31.109375 20.453125 19.1875 8.296875 
z
" id="DejaVuSans-50"/>
       </defs>
       <use xlink:href="#DejaVuSans-50"/>
       <use x="63.623047" xlink:href="#DejaVuSans-48"/>
       <use x="127.246094" xlink:href="#DejaVuSans-48"/>
      </g>
     </g>
    </g>
    <g id="xtick_3">
     <g id="line2d_3">
      <g>
       <use style="stroke:#000000;stroke-width:0.8;" x="179.263903" xlink:href="#m14f371c9a8" y="315"/>
      </g>
     </g>
     <g id="text_3">
      <!-- 400 -->
      <g transform="translate(169.720153 329.598437)scale(0.1 -0.1)">
       <defs>
        <path d="M 37.796875 64.3125 
L 12.890625 25.390625 
L 37.796875 25.390625 
z
M 35.203125 72.90625 
L 47.609375 72.90625 
L 47.609375 25.390625 
L 58.015625 25.390625 
L 58.015625 17.1875 
L 47.609375 17.1875 
L 47.609375 0 
L 37.796875 0 
L 37.796875 17.1875 
L 4.890625 17.1875 
L 4.890625 26.703125 
z
" id="DejaVuSans-52"/>
       </defs>
       <use xlink:href="#DejaVuSans-52"/>
       <use x="63.623047" xlink:href="#DejaVuSans-48"/>
       <use x="127.246094" xlink:href="#DejaVuSans-48"/>
      </g>
     </g>
    </g>
    <g id="xtick_4">
     <g id="line2d_4">
      <g>
       <use style="stroke:#000000;stroke-width:0.8;" x="227.711917" xlink:href="#m14f371c9a8" y="315"/>
      </g>
     </g>
     <g id="text_4">
      <!-- 600 -->
      <g transform="translate(218.168167 329.598437)scale(0.1 -0.1)">
       <defs>
        <path d="M 33.015625 40.375 
Q 26.375 40.375 22.484375 35.828125 
Q 18.609375 31.296875 18.609375 23.390625 
Q 18.609375 15.53125 22.484375 10.953125 
Q 26.375 6.390625 33.015625 6.390625 
Q 39.65625 6.390625 43.53125 10.953125 
Q 47.40625 15.53125 47.40625 23.390625 
Q 47.40625 31.296875 43.53125 35.828125 
Q 39.65625 40.375 33.015625 40.375 
z
M 52.59375 71.296875 
L 52.59375 62.3125 
Q 48.875 64.0625 45.09375 64.984375 
Q 41.3125 65.921875 37.59375 65.921875 
Q 27.828125 65.921875 22.671875 59.328125 
Q 17.53125 52.734375 16.796875 39.40625 
Q 19.671875 43.65625 24.015625 45.921875 
Q 28.375 48.1875 33.59375 48.1875 
Q 44.578125 48.1875 50.953125 41.515625 
Q 57.328125 34.859375 57.328125 23.390625 
Q 57.328125 12.15625 50.6875 5.359375 
Q 44.046875 -1.421875 33.015625 -1.421875 
Q 20.359375 -1.421875 13.671875 8.265625 
Q 6.984375 17.96875 6.984375 36.375 
Q 6.984375 53.65625 15.1875 63.9375 
Q 23.390625 74.21875 37.203125 74.21875 
Q 40.921875 74.21875 44.703125 73.484375 
Q 48.484375 72.75 52.59375 71.296875 
z
" id="DejaVuSans-54"/>
       </defs>
       <use xlink:href="#DejaVuSans-54"/>
       <use x="63.623047" xlink:href="#DejaVuSans-48"/>
       <use x="127.246094" xlink:href="#DejaVuSans-48"/>
      </g>
     </g>
    </g>
    <g id="xtick_5">
     <g id="line2d_5">
      <g>
       <use style="stroke:#000000;stroke-width:0.8;" x="276.159931" xlink:href="#m14f371c9a8" y="315"/>
      </g>
     </g>
     <g id="text_5">
      <!-- 800 -->
      <g transform="translate(266.616181 329.598437)scale(0.1 -0.1)">
       <defs>
        <path d="M 31.78125 34.625 
Q 24.75 34.625 20.71875 30.859375 
Q 16.703125 27.09375 16.703125 20.515625 
Q 16.703125 13.921875 20.71875 10.15625 
Q 24.75 6.390625 31.78125 6.390625 
Q 38.8125 6.390625 42.859375 10.171875 
Q 46.921875 13.96875 46.921875 20.515625 
Q 46.921875 27.09375 42.890625 30.859375 
Q 38.875 34.625 31.78125 34.625 
z
M 21.921875 38.8125 
Q 15.578125 40.375 12.03125 44.71875 
Q 8.5 49.078125 8.5 55.328125 
Q 8.5 64.0625 14.71875 69.140625 
Q 20.953125 74.21875 31.78125 74.21875 
Q 42.671875 74.21875 48.875 69.140625 
Q 55.078125 64.0625 55.078125 55.328125 
Q 55.078125 49.078125 51.53125 44.71875 
Q 48 40.375 41.703125 38.8125 
Q 48.828125 37.15625 52.796875 32.3125 
Q 56.78125 27.484375 56.78125 20.515625 
Q 56.78125 9.90625 50.3125 4.234375 
Q 43.84375 -1.421875 31.78125 -1.421875 
Q 19.734375 -1.421875 13.25 4.234375 
Q 6.78125 9.90625 6.78125 20.515625 
Q 6.78125 27.484375 10.78125 32.3125 
Q 14.796875 37.15625 21.921875 38.8125 
z
M 18.3125 54.390625 
Q 18.3125 48.734375 21.84375 45.5625 
Q 25.390625 42.390625 31.78125 42.390625 
Q 38.140625 42.390625 41.71875 45.5625 
Q 45.3125 48.734375 45.3125 54.390625 
Q 45.3125 60.0625 41.71875 63.234375 
Q 38.140625 66.40625 31.78125 66.40625 
Q 25.390625 66.40625 21.84375 63.234375 
Q 18.3125 60.0625 18.3125 54.390625 
z
" id="DejaVuSans-56"/>
       </defs>
       <use xlink:href="#DejaVuSans-56"/>
       <use x="63.623047" xlink:href="#DejaVuSans-48"/>
       <use x="127.246094" xlink:href="#DejaVuSans-48"/>
      </g>
     </g>
    </g>
    <g id="xtick_6">
     <g id="line2d_6">
      <g>
       <use style="stroke:#000000;stroke-width:0.8;" x="324.607944" xlink:href="#m14f371c9a8" y="315"/>
      </g>
     </g>
     <g id="text_6">
      <!-- 1000 -->
      <g transform="translate(311.882944 329.598437)scale(0.1 -0.1)">
       <defs>
        <path d="M 12.40625 8.296875 
L 28.515625 8.296875 
L 28.515625 63.921875 
L 10.984375 60.40625 
L 10.984375 69.390625 
L 28.421875 72.90625 
L 38.28125 72.90625 
L 38.28125 8.296875 
L 54.390625 8.296875 
L 54.390625 0 
L 12.40625 0 
z
" id="DejaVuSans-49"/>
       </defs>
       <use xlink:href="#DejaVuSans-49"/>
       <use x="63.623047" xlink:href="#DejaVuSans-48"/>
       <use x="127.246094" xlink:href="#DejaVuSans-48"/>
       <use x="190.869141" xlink:href="#DejaVuSans-48"/>
      </g>
     </g>
    </g>
    <g id="xtick_7">
     <g id="line2d_7">
      <g>
       <use style="stroke:#000000;stroke-width:0.8;" x="373.055958" xlink:href="#m14f371c9a8" y="315"/>
      </g>
     </g>
     <g id="text_7">
      <!-- 1200 -->
      <g transform="translate(360.330958 329.598437)scale(0.1 -0.1)">
       <use xlink:href="#DejaVuSans-49"/>
       <use x="63.623047" xlink:href="#DejaVuSans-50"/>
       <use x="127.246094" xlink:href="#DejaVuSans-48"/>
       <use x="190.869141" xlink:href="#DejaVuSans-48"/>
      </g>
     </g>
    </g>
    <g id="xtick_8">
     <g id="line2d_8">
      <g>
       <use style="stroke:#000000;stroke-width:0.8;" x="421.503972" xlink:href="#m14f371c9a8" y="315"/>
      </g>
     </g>
     <g id="text_8">
      <!-- 1400 -->
      <g transform="translate(408.778972 329.598437)scale(0.1 -0.1)">
       <use xlink:href="#DejaVuSans-49"/>
       <use x="63.623047" xlink:href="#DejaVuSans-52"/>
       <use x="127.246094" xlink:href="#DejaVuSans-48"/>
       <use x="190.869141" xlink:href="#DejaVuSans-48"/>
      </g>
     </g>
    </g>
    <g id="xtick_9">
     <g id="line2d_9">
      <g>
       <use style="stroke:#000000;stroke-width:0.8;" x="469.951986" xlink:href="#m14f371c9a8" y="315"/>
      </g>
     </g>
     <g id="text_9">
      <!-- 1600 -->
      <g transform="translate(457.226986 329.598437)scale(0.1 -0.1)">
       <use xlink:href="#DejaVuSans-49"/>
       <use x="63.623047" xlink:href="#DejaVuSans-54"/>
       <use x="127.246094" xlink:href="#DejaVuSans-48"/>
       <use x="190.869141" xlink:href="#DejaVuSans-48"/>
      </g>
     </g>
    </g>
    <g id="xtick_10">
     <g id="line2d_10">
      <g>
       <use style="stroke:#000000;stroke-width:0.8;" x="518.4" xlink:href="#m14f371c9a8" y="315"/>
      </g>
     </g>
     <g id="text_10">
      <!-- 1800 -->
      <g transform="translate(505.675 329.598437)scale(0.1 -0.1)">
       <use xlink:href="#DejaVuSans-49"/>
       <use x="63.623047" xlink:href="#DejaVuSans-56"/>
       <use x="127.246094" xlink:href="#DejaVuSans-48"/>
       <use x="190.869141" xlink:href="#DejaVuSans-48"/>
      </g>
     </g>
    </g>
    <g id="text_11">
     <!-- generation -->
     <g transform="translate(268.007031 343.276563)scale(0.1 -0.1)">
      <defs>
       <path d="M 45.40625 27.984375 
Q 45.40625 37.75 41.375 43.109375 
Q 37.359375 48.484375 30.078125 48.484375 
Q 22.859375 48.484375 18.828125 43.109375 
Q 14.796875 37.75 14.796875 27.984375 
Q 14.796875 18.265625 18.828125 12.890625 
Q 22.859375 7.515625 30.078125 7.515625 
Q 37.359375 7.515625 41.375 12.890625 
Q 45.40625 18.265625 45.40625 27.984375 
z
M 54.390625 6.78125 
Q 54.390625 -7.171875 48.1875 -13.984375 
Q 42 -20.796875 29.203125 -20.796875 
Q 24.46875 -20.796875 20.265625 -20.09375 
Q 16.0625 -19.390625 12.109375 -17.921875 
L 12.109375 -9.1875 
Q 16.0625 -11.328125 19.921875 -12.34375 
Q 23.78125 -13.375 27.78125 -13.375 
Q 36.625 -13.375 41.015625 -8.765625 
Q 45.40625 -4.15625 45.40625 5.171875 
L 45.40625 9.625 
Q 42.625 4.78125 38.28125 2.390625 
Q 33.9375 0 27.875 0 
Q 17.828125 0 11.671875 7.65625 
Q 5.515625 15.328125 5.515625 27.984375 
Q 5.515625 40.671875 11.671875 48.328125 
Q 17.828125 56 27.875 56 
Q 33.9375 56 38.28125 53.609375 
Q 42.625 51.21875 45.40625 46.390625 
L 45.40625 54.6875 
L 54.390625 54.6875 
z
" id="DejaVuSans-103"/>
       <path d="M 56.203125 29.59375 
L 56.203125 25.203125 
L 14.890625 25.203125 
Q 15.484375 15.921875 20.484375 11.0625 
Q 25.484375 6.203125 34.421875 6.203125 
Q 39.59375 6.203125 44.453125 7.46875 
Q 49.3125 8.734375 54.109375 11.28125 
L 54.109375 2.78125 
Q 49.265625 0.734375 44.1875 -0.34375 
Q 39.109375 -1.421875 33.890625 -1.421875 
Q 20.796875 -1.421875 13.15625 6.1875 
Q 5.515625 13.8125 5.515625 26.8125 
Q 5.515625 40.234375 12.765625 48.109375 
Q 20.015625 56 32.328125 56 
Q 43.359375 56 49.78125 48.890625 
Q 56.203125 41.796875 56.203125 29.59375 
z
M 47.21875 32.234375 
Q 47.125 39.59375 43.09375 43.984375 
Q 39.0625 48.390625 32.421875 48.390625 
Q 24.90625 48.390625 20.390625 44.140625 
Q 15.875 39.890625 15.1875 32.171875 
z
" id="DejaVuSans-101"/>
       <path d="M 54.890625 33.015625 
L 54.890625 0 
L 45.90625 0 
L 45.90625 32.71875 
Q 45.90625 40.484375 42.875 44.328125 
Q 39.84375 48.1875 33.796875 48.1875 
Q 26.515625 48.1875 22.3125 43.546875 
Q 18.109375 38.921875 18.109375 30.90625 
L 18.109375 0 
L 9.078125 0 
L 9.078125 54.6875 
L 18.109375 54.6875 
L 18.109375 46.1875 
Q 21.34375 51.125 25.703125 53.5625 
Q 30.078125 56 35.796875 56 
Q 45.21875 56 50.046875 50.171875 
Q 54.890625 44.34375 54.890625 33.015625 
z
" id="DejaVuSans-110"/>
       <path d="M 41.109375 46.296875 
Q 39.59375 47.171875 37.8125 47.578125 
Q 36.03125 48 33.890625 48 
Q 26.265625 48 22.1875 43.046875 
Q 18.109375 38.09375 18.109375 28.8125 
L 18.109375 0 
L 9.078125 0 
L 9.078125 54.6875 
L 18.109375 54.6875 
L 18.109375 46.1875 
Q 20.953125 51.171875 25.484375 53.578125 
Q 30.03125 56 36.53125 56 
Q 37.453125 56 38.578125 55.875 
Q 39.703125 55.765625 41.0625 55.515625 
z
" id="DejaVuSans-114"/>
       <path d="M 34.28125 27.484375 
Q 23.390625 27.484375 19.1875 25 
Q 14.984375 22.515625 14.984375 16.5 
Q 14.984375 11.71875 18.140625 8.90625 
Q 21.296875 6.109375 26.703125 6.109375 
Q 34.1875 6.109375 38.703125 11.40625 
Q 43.21875 16.703125 43.21875 25.484375 
L 43.21875 27.484375 
z
M 52.203125 31.203125 
L 52.203125 0 
L 43.21875 0 
L 43.21875 8.296875 
Q 40.140625 3.328125 35.546875 0.953125 
Q 30.953125 -1.421875 24.3125 -1.421875 
Q 15.921875 -1.421875 10.953125 3.296875 
Q 6 8.015625 6 15.921875 
Q 6 25.140625 12.171875 29.828125 
Q 18.359375 34.515625 30.609375 34.515625 
L 43.21875 34.515625 
L 43.21875 35.40625 
Q 43.21875 41.609375 39.140625 45 
Q 35.0625 48.390625 27.6875 48.390625 
Q 23 48.390625 18.546875 47.265625 
Q 14.109375 46.140625 10.015625 43.890625 
L 10.015625 52.203125 
Q 14.9375 54.109375 19.578125 55.046875 
Q 24.21875 56 28.609375 56 
Q 40.484375 56 46.34375 49.84375 
Q 52.203125 43.703125 52.203125 31.203125 
z
" id="DejaVuSans-97"/>
       <path d="M 18.3125 70.21875 
L 18.3125 54.6875 
L 36.8125 54.6875 
L 36.8125 47.703125 
L 18.3125 47.703125 
L 18.3125 18.015625 
Q 18.3125 11.328125 20.140625 9.421875 
Q 21.96875 7.515625 27.59375 7.515625 
L 36.8125 7.515625 
L 36.8125 0 
L 27.59375 0 
Q 17.1875 0 13.234375 3.875 
Q 9.28125 7.765625 9.28125 18.015625 
L 9.28125 47.703125 
L 2.6875 47.703125 
L 2.6875 54.6875 
L 9.28125 54.6875 
L 9.28125 70.21875 
z
" id="DejaVuSans-116"/>
       <path d="M 9.421875 54.6875 
L 18.40625 54.6875 
L 18.40625 0 
L 9.421875 0 
z
M 9.421875 75.984375 
L 18.40625 75.984375 
L 18.40625 64.59375 
L 9.421875 64.59375 
z
" id="DejaVuSans-105"/>
       <path d="M 30.609375 48.390625 
Q 23.390625 48.390625 19.1875 42.75 
Q 14.984375 37.109375 14.984375 27.296875 
Q 14.984375 17.484375 19.15625 11.84375 
Q 23.34375 6.203125 30.609375 6.203125 
Q 37.796875 6.203125 41.984375 11.859375 
Q 46.1875 17.53125 46.1875 27.296875 
Q 46.1875 37.015625 41.984375 42.703125 
Q 37.796875 48.390625 30.609375 48.390625 
z
M 30.609375 56 
Q 42.328125 56 49.015625 48.375 
Q 55.71875 40.765625 55.71875 27.296875 
Q 55.71875 13.875 49.015625 6.21875 
Q 42.328125 -1.421875 30.609375 -1.421875 
Q 18.84375 -1.421875 12.171875 6.21875 
Q 5.515625 13.875 5.515625 27.296875 
Q 5.515625 40.765625 12.171875 48.375 
Q 18.84375 56 30.609375 56 
z
" id="DejaVuSans-111"/>
      </defs>
      <use xlink:href="#DejaVuSans-103"/>
      <use x="63.476562" xlink:href="#DejaVuSans-101"/>
      <use x="125" xlink:href="#DejaVuSans-110"/>
      <use x="188.378906" xlink:href="#DejaVuSans-101"/>
      <use x="249.902344" xlink:href="#DejaVuSans-114"/>
      <use x="291.015625" xlink:href="#DejaVuSans-97"/>
      <use x="352.294922" xlink:href="#DejaVuSans-116"/>
      <use x="391.503906" xlink:href="#DejaVuSans-105"/>
      <use x="419.287109" xlink:href="#DejaVuSans-111"/>
      <use x="480.46875" xlink:href="#DejaVuSans-110"/>
     </g>
    </g>
   </g>
   <g id="matplotlib.axis_2">
    <g id="ytick_1">
     <g id="line2d_11">
      <defs>
       <path d="M 0 0 
L -3.5 0 
" id="m8ebb1be593" style="stroke:#000000;stroke-width:0.8;"/>
      </defs>
      <g>
       <use style="stroke:#000000;stroke-width:0.8;" x="72" xlink:href="#m8ebb1be593" y="315"/>
      </g>
     </g>
     <g id="text_12">
      <!-- −100 -->
      <g transform="translate(37.532812 318.799219)scale(0.1 -0.1)">
       <defs>
        <path d="M 10.59375 35.5 
L 73.1875 35.5 
L 73.1875 27.203125 
L 10.59375 27.203125 
z
" id="DejaVuSans-8722"/>
       </defs>
       <use xlink:href="#DejaVuSans-8722"/>
       <use x="83.789062" xlink:href="#DejaVuSans-49"/>
       <use x="147.412109" xlink:href="#DejaVuSans-48"/>
       <use x="211.035156" xlink:href="#DejaVuSans-48"/>
      </g>
     </g>
    </g>
    <g id="ytick_2">
     <g id="line2d_12">
      <g>
       <use style="stroke:#000000;stroke-width:0.8;" x="72" xlink:href="#m8ebb1be593" y="260.64"/>
      </g>
     </g>
     <g id="text_13">
      <!-- −50 -->
      <g transform="translate(43.895313 264.439219)scale(0.1 -0.1)">
       <defs>
        <path d="M 10.796875 72.90625 
L 49.515625 72.90625 
L 49.515625 64.59375 
L 19.828125 64.59375 
L 19.828125 46.734375 
Q 21.96875 47.46875 24.109375 47.828125 
Q 26.265625 48.1875 28.421875 48.1875 
Q 40.625 48.1875 47.75 41.5 
Q 54.890625 34.8125 54.890625 23.390625 
Q 54.890625 11.625 47.5625 5.09375 
Q 40.234375 -1.421875 26.90625 -1.421875 
Q 22.3125 -1.421875 17.546875 -0.640625 
Q 12.796875 0.140625 7.71875 1.703125 
L 7.71875 11.625 
Q 12.109375 9.234375 16.796875 8.0625 
Q 21.484375 6.890625 26.703125 6.890625 
Q 35.15625 6.890625 40.078125 11.328125 
Q 45.015625 15.765625 45.015625 23.390625 
Q 45.015625 31 40.078125 35.4375 
Q 35.15625 39.890625 26.703125 39.890625 
Q 22.75 39.890625 18.8125 39.015625 
Q 14.890625 38.140625 10.796875 36.28125 
z
" id="DejaVuSans-53"/>
       </defs>
       <use xlink:href="#DejaVuSans-8722"/>
       <use x="83.789062" xlink:href="#DejaVuSans-53"/>
       <use x="147.412109" xlink:href="#DejaVuSans-48"/>
      </g>
     </g>
    </g>
    <g id="ytick_3">
     <g id="line2d_13">
      <g>
       <use style="stroke:#000000;stroke-width:0.8;" x="72" xlink:href="#m8ebb1be593" y="206.28"/>
      </g>
     </g>
     <g id="text_14">
      <!-- 0 -->
      <g transform="translate(58.6375 210.079219)scale(0.1 -0.1)">
       <use xlink:href="#DejaVuSans-48"/>
      </g>
     </g>
    </g>
    <g id="ytick_4">
     <g id="line2d_14">
      <g>
       <use style="stroke:#000000;stroke-width:0.8;" x="72" xlink:href="#m8ebb1be593" y="151.92"/>
      </g>
     </g>
     <g id="text_15">
      <!-- 50 -->
      <g transform="translate(52.275 155.719219)scale(0.1 -0.1)">
       <use xlink:href="#DejaVuSans-53"/>
       <use x="63.623047" xlink:href="#DejaVuSans-48"/>
      </g>
     </g>
    </g>
    <g id="ytick_5">
     <g id="line2d_15">
      <g>
       <use style="stroke:#000000;stroke-width:0.8;" x="72" xlink:href="#m8ebb1be593" y="97.56"/>
      </g>
     </g>
     <g id="text_16">
      <!-- 100 -->
      <g transform="translate(45.9125 101.359219)scale(0.1 -0.1)">
       <use xlink:href="#DejaVuSans-49"/>
       <use x="63.623047" xlink:href="#DejaVuSans-48"/>
       <use x="127.246094" xlink:href="#DejaVuSans-48"/>
      </g>
     </g>
    </g>
    <g id="ytick_6">
     <g id="line2d_16">
      <g>
       <use style="stroke:#000000;stroke-width:0.8;" x="72" xlink:href="#m8ebb1be593" y="43.2"/>
      </g>
     </g>
     <g id="text_17">
      <!-- 150 -->
      <g transform="translate(45.9125 46.999219)scale(0.1 -0.1)">
       <use xlink:href="#DejaVuSans-49"/>
       <use x="63.623047" xlink:href="#DejaVuSans-53"/>
       <use x="127.246094" xlink:href="#DejaVuSans-48"/>
      </g>
     </g>
    </g>
    <g id="text_18">
     <!-- cumulative reward -->
     <g transform="translate(31.453125 225.799219)rotate(-90)scale(0.1 -0.1)">
      <defs>
       <path d="M 48.78125 52.59375 
L 48.78125 44.1875 
Q 44.96875 46.296875 41.140625 47.34375 
Q 37.3125 48.390625 33.40625 48.390625 
Q 24.65625 48.390625 19.8125 42.84375 
Q 14.984375 37.3125 14.984375 27.296875 
Q 14.984375 17.28125 19.8125 11.734375 
Q 24.65625 6.203125 33.40625 6.203125 
Q 37.3125 6.203125 41.140625 7.25 
Q 44.96875 8.296875 48.78125 10.40625 
L 48.78125 2.09375 
Q 45.015625 0.34375 40.984375 -0.53125 
Q 36.96875 -1.421875 32.421875 -1.421875 
Q 20.0625 -1.421875 12.78125 6.34375 
Q 5.515625 14.109375 5.515625 27.296875 
Q 5.515625 40.671875 12.859375 48.328125 
Q 20.21875 56 33.015625 56 
Q 37.15625 56 41.109375 55.140625 
Q 45.0625 54.296875 48.78125 52.59375 
z
" id="DejaVuSans-99"/>
       <path d="M 8.5 21.578125 
L 8.5 54.6875 
L 17.484375 54.6875 
L 17.484375 21.921875 
Q 17.484375 14.15625 20.5 10.265625 
Q 23.53125 6.390625 29.59375 6.390625 
Q 36.859375 6.390625 41.078125 11.03125 
Q 45.3125 15.671875 45.3125 23.6875 
L 45.3125 54.6875 
L 54.296875 54.6875 
L 54.296875 0 
L 45.3125 0 
L 45.3125 8.40625 
Q 42.046875 3.421875 37.71875 1 
Q 33.40625 -1.421875 27.6875 -1.421875 
Q 18.265625 -1.421875 13.375 4.4375 
Q 8.5 10.296875 8.5 21.578125 
z
M 31.109375 56 
z
" id="DejaVuSans-117"/>
       <path d="M 52 44.1875 
Q 55.375 50.25 60.0625 53.125 
Q 64.75 56 71.09375 56 
Q 79.640625 56 84.28125 50.015625 
Q 88.921875 44.046875 88.921875 33.015625 
L 88.921875 0 
L 79.890625 0 
L 79.890625 32.71875 
Q 79.890625 40.578125 77.09375 44.375 
Q 74.3125 48.1875 68.609375 48.1875 
Q 61.625 48.1875 57.5625 43.546875 
Q 53.515625 38.921875 53.515625 30.90625 
L 53.515625 0 
L 44.484375 0 
L 44.484375 32.71875 
Q 44.484375 40.625 41.703125 44.40625 
Q 38.921875 48.1875 33.109375 48.1875 
Q 26.21875 48.1875 22.15625 43.53125 
Q 18.109375 38.875 18.109375 30.90625 
L 18.109375 0 
L 9.078125 0 
L 9.078125 54.6875 
L 18.109375 54.6875 
L 18.109375 46.1875 
Q 21.1875 51.21875 25.484375 53.609375 
Q 29.78125 56 35.6875 56 
Q 41.65625 56 45.828125 52.96875 
Q 50 49.953125 52 44.1875 
z
" id="DejaVuSans-109"/>
       <path d="M 9.421875 75.984375 
L 18.40625 75.984375 
L 18.40625 0 
L 9.421875 0 
z
" id="DejaVuSans-108"/>
       <path d="M 2.984375 54.6875 
L 12.5 54.6875 
L 29.59375 8.796875 
L 46.6875 54.6875 
L 56.203125 54.6875 
L 35.6875 0 
L 23.484375 0 
z
" id="DejaVuSans-118"/>
       <path id="DejaVuSans-32"/>
       <path d="M 4.203125 54.6875 
L 13.1875 54.6875 
L 24.421875 12.015625 
L 35.59375 54.6875 
L 46.1875 54.6875 
L 57.421875 12.015625 
L 68.609375 54.6875 
L 77.59375 54.6875 
L 63.28125 0 
L 52.6875 0 
L 40.921875 44.828125 
L 29.109375 0 
L 18.5 0 
z
" id="DejaVuSans-119"/>
       <path d="M 45.40625 46.390625 
L 45.40625 75.984375 
L 54.390625 75.984375 
L 54.390625 0 
L 45.40625 0 
L 45.40625 8.203125 
Q 42.578125 3.328125 38.25 0.953125 
Q 33.9375 -1.421875 27.875 -1.421875 
Q 17.96875 -1.421875 11.734375 6.484375 
Q 5.515625 14.40625 5.515625 27.296875 
Q 5.515625 40.1875 11.734375 48.09375 
Q 17.96875 56 27.875 56 
Q 33.9375 56 38.25 53.625 
Q 42.578125 51.265625 45.40625 46.390625 
z
M 14.796875 27.296875 
Q 14.796875 17.390625 18.875 11.75 
Q 22.953125 6.109375 30.078125 6.109375 
Q 37.203125 6.109375 41.296875 11.75 
Q 45.40625 17.390625 45.40625 27.296875 
Q 45.40625 37.203125 41.296875 42.84375 
Q 37.203125 48.484375 30.078125 48.484375 
Q 22.953125 48.484375 18.875 42.84375 
Q 14.796875 37.203125 14.796875 27.296875 
z
" id="DejaVuSans-100"/>
      </defs>
      <use xlink:href="#DejaVuSans-99"/>
      <use x="54.980469" xlink:href="#DejaVuSans-117"/>
      <use x="118.359375" xlink:href="#DejaVuSans-109"/>
      <use x="215.771484" xlink:href="#DejaVuSans-117"/>
      <use x="279.150391" xlink:href="#DejaVuSans-108"/>
      <use x="306.933594" xlink:href="#DejaVuSans-97"/>
      <use x="368.212891" xlink:href="#DejaVuSans-116"/>
      <use x="407.421875" xlink:href="#DejaVuSans-105"/>
      <use x="435.205078" xlink:href="#DejaVuSans-118"/>
      <use x="494.384766" xlink:href="#DejaVuSans-101"/>
      <use x="555.908203" xlink:href="#DejaVuSans-32"/>
      <use x="587.695312" xlink:href="#DejaVuSans-114"/>
      <use x="626.558594" xlink:href="#DejaVuSans-101"/>
      <use x="688.082031" xlink:href="#DejaVuSans-119"/>
      <use x="769.869141" xlink:href="#DejaVuSans-97"/>
      <use x="831.148438" xlink:href="#DejaVuSans-114"/>
      <use x="870.511719" xlink:href="#DejaVuSans-100"/>
     </g>
    </g>
   </g>
   <g id="line2d_17">
    <path clip-path="url(#p8c62b7d9da)" d="M 82.367875 211.802976 
L 82.610115 218.141352 
L 83.094595 213.379416 
L 83.336835 213.02064 
L 83.579075 210.889728 
L 84.063555 211.194144 
L 84.305796 212.216112 
L 84.548036 212.487912 
L 84.790276 213.248952 
L 85.032516 212.2596 
L 85.274756 212.292216 
L 85.516996 214.803648 
L 85.759236 212.346576 
L 86.001476 213.18372 
L 86.243716 211.00932 
L 86.485956 210.9006 
L 86.728196 212.977152 
L 86.970436 210.6288 
L 87.212676 211.465944 
L 87.697157 209.856888 
L 87.939397 209.48724 
L 88.181637 211.194144 
L 88.423877 210.237408 
L 88.666117 209.92212 
L 88.908357 210.443976 
L 89.150597 210.617928 
L 89.392837 211.705128 
L 89.635077 211.205016 
L 89.877317 210.226536 
L 90.119557 211.683384 
L 90.361797 211.020192 
L 90.846277 211.650768 
L 91.088517 213.259824 
L 91.330758 212.270472 
L 91.572998 210.617928 
L 91.815238 210.607056 
L 92.057478 211.563792 
L 92.299718 213.825168 
L 92.541958 211.531176 
L 92.784198 211.650768 
L 93.026438 211.49856 
L 93.268678 211.107168 
L 93.510918 210.313512 
L 93.753158 211.378968 
L 93.995398 211.041936 
L 94.237638 211.618152 
L 94.479878 210.824496 
L 94.722119 212.226984 
L 94.964359 210.13956 
L 95.206599 211.955184 
L 95.448839 211.574664 
L 95.691079 212.618376 
L 95.933319 212.890176 
L 96.175559 211.639896 
L 96.417799 212.346576 
L 96.660039 212.237856 
L 96.902279 212.8032 
L 97.144519 211.411584 
L 97.386759 213.227208 
L 97.628999 212.172624 
L 98.113479 214.05348 
L 98.35572 211.922568 
L 99.08244 211.672512 
L 99.32468 211.00932 
L 99.56692 211.1724 
L 100.77812 213.99912 
L 101.02036 213.18372 
L 101.2626 215.184168 
L 101.50484 212.988024 
L 101.747081 212.835816 
L 101.989321 213.520752 
L 102.231561 213.379416 
L 102.473801 213.585984 
L 102.716041 212.618376 
L 102.958281 212.357448 
L 103.200521 210.498336 
L 103.442761 211.77036 
L 103.685001 212.433552 
L 103.927241 212.47704 
L 104.169481 213.857784 
L 104.411721 212.727096 
L 104.653961 213.281568 
L 104.896201 212.574888 
L 105.138442 212.977152 
L 105.380682 212.944536 
L 105.622922 211.215888 
L 106.107402 213.042384 
L 106.591882 212.650992 
L 106.834122 211.1724 
L 107.076362 212.161752 
L 107.318602 211.487688 
L 107.560842 212.346576 
L 107.803082 212.781456 
L 108.045322 212.074776 
L 108.287562 212.955408 
L 108.529802 212.596632 
L 108.772043 213.78168 
L 109.014283 213.50988 
L 109.256523 215.771256 
L 109.498763 212.09652 
L 109.741003 212.607504 
L 110.225483 214.629696 
L 110.467723 212.335704 
L 110.709963 212.5314 
L 110.952203 211.629024 
L 111.194443 211.705128 
L 111.436683 213.259824 
L 111.678923 212.107392 
L 112.405644 211.563792 
L 112.647884 211.531176 
L 112.890124 211.759488 
L 113.132364 212.487912 
L 113.374604 212.226984 
L 113.616844 211.06368 
L 114.101324 213.161976 
L 114.343564 213.161976 
L 114.585804 212.31396 
L 114.828044 212.433552 
L 115.070284 213.444648 
L 115.312524 212.433552 
L 115.554764 212.074776 
L 115.797005 212.063904 
L 116.039245 213.814296 
L 116.281485 213.151104 
L 116.523725 213.042384 
L 116.765965 211.1724 
L 117.008205 212.216112 
L 117.250445 211.726872 
L 117.492685 211.585536 
L 117.734925 212.161752 
L 117.977165 213.412032 
L 118.219405 213.107616 
L 118.461645 213.803424 
L 118.703885 211.60728 
L 118.946125 212.520528 
L 119.188366 214.129584 
L 119.430606 212.183496 
L 119.672846 211.802976 
L 119.915086 212.09652 
L 120.157326 214.27092 
L 120.641806 210.9006 
L 120.884046 212.129136 
L 121.126286 212.270472 
L 121.368526 211.998672 
L 121.610766 212.2596 
L 121.853006 211.411584 
L 122.337486 211.574664 
L 122.579727 212.944536 
L 122.821967 211.585536 
L 123.064207 212.335704 
L 123.306447 212.063904 
L 123.548687 212.15088 
L 123.790927 213.390288 
L 124.033167 213.770808 
L 124.275407 212.161752 
L 124.517647 212.270472 
L 124.759887 212.140008 
L 125.002127 212.955408 
L 125.244367 213.161976 
L 125.728847 212.792328 
L 125.971087 212.520528 
L 126.213328 213.075 
L 126.455568 212.487912 
L 126.940048 213.575112 
L 127.182288 212.933664 
L 127.424528 212.835816 
L 127.666768 212.96628 
L 127.909008 212.074776 
L 128.151248 211.629024 
L 128.393488 213.422904 
L 128.635728 211.11804 
L 128.877968 211.509432 
L 129.120208 212.683608 
L 129.362448 213.096744 
L 129.604689 214.879752 
L 129.846929 212.737968 
L 130.089169 213.56424 
L 130.573649 213.683832 
L 130.815889 213.3468 
L 131.058129 212.781456 
L 131.300369 213.172848 
L 131.542609 212.09652 
L 131.784849 213.988248 
L 132.027089 213.977376 
L 132.269329 213.792552 
L 132.511569 213.151104 
L 132.753809 213.151104 
L 132.996049 214.009992 
L 133.48053 212.564016 
L 133.72277 213.977376 
L 133.96501 212.716224 
L 134.20725 214.357896 
L 134.44949 213.118488 
L 134.69173 213.444648 
L 134.93397 213.270696 
L 135.17621 212.455296 
L 135.41845 212.814072 
L 135.66069 213.499008 
L 135.90293 214.629696 
L 136.14517 214.10784 
L 136.38741 214.629696 
L 136.871891 212.824944 
L 137.114131 212.814072 
L 137.356371 213.792552 
L 137.598611 213.78168 
L 137.840851 212.69448 
L 138.083091 212.31396 
L 138.325331 212.650992 
L 138.809811 214.607952 
L 139.052051 213.379416 
L 139.294291 213.923016 
L 139.536531 212.683608 
L 140.021012 213.379416 
L 140.263252 215.325504 
L 140.505492 214.140456 
L 140.747732 213.988248 
L 140.989972 214.7058 
L 141.232212 214.227432 
L 141.474452 214.738416 
L 141.716692 214.37964 
L 141.958932 213.50988 
L 142.201172 214.59708 
L 142.443412 214.999344 
L 142.685652 213.770808 
L 143.170132 215.977824 
L 143.412372 215.966952 
L 143.654613 213.433776 
L 143.896853 213.8904 
L 144.139093 214.10784 
L 144.381333 215.260272 
L 144.623573 214.390512 
L 144.865813 214.48836 
L 145.350293 215.869104 
L 145.592533 215.46684 
L 145.834773 214.281792 
L 146.077013 214.9776 
L 146.319253 215.19504 
L 146.561493 214.618824 
L 146.803733 214.673184 
L 147.045974 214.59708 
L 147.288214 215.814744 
L 147.530454 215.390736 
L 147.772694 213.792552 
L 148.014934 214.227432 
L 148.257174 216.575784 
L 148.499414 215.129808 
L 148.741654 216.77148 
L 148.983894 215.836488 
L 149.226134 217.36944 
L 149.468374 214.781904 
L 149.710614 214.836264 
L 149.952854 215.5212 
L 150.195094 215.227656 
L 150.437334 216.075672 
L 150.679575 215.912592 
L 150.921815 216.260496 
L 151.406295 216.271368 
L 151.648535 217.325952 
L 151.890775 215.260272 
L 152.133015 215.966952 
L 152.375255 216.22788 
L 152.617495 216.912816 
L 152.859735 216.793224 
L 153.586455 218.054376 
L 153.828695 218.228328 
L 154.070936 218.902392 
L 154.313176 218.282688 
L 154.555416 217.119384 
L 154.797656 216.858456 
L 155.039896 216.793224 
L 155.282136 217.391184 
L 155.524376 216.543168 
L 155.766616 216.3366 
L 156.008856 217.4238 
L 156.251096 216.923688 
L 156.493336 215.542944 
L 156.977816 216.532296 
L 157.220056 218.391408 
L 157.462297 216.347472 
L 157.704537 216.6084 
L 157.946777 215.923464 
L 158.189017 216.673632 
L 158.431257 216.869328 
L 158.673497 217.64124 
L 158.915737 217.499904 
L 159.157977 216.6084 
L 159.400217 217.499904 
L 159.642457 217.630368 
L 159.884697 217.271592 
L 160.126937 217.445544 
L 160.369177 216.651888 
L 161.095898 215.923464 
L 161.338138 217.282464 
L 161.580378 217.238976 
L 161.822618 216.804096 
L 162.064858 217.652112 
L 162.307098 216.238752 
L 162.549338 216.999792 
L 162.791578 217.217232 
L 163.033818 215.782128 
L 163.518298 217.869552 
L 163.760538 216.28224 
L 164.002778 216.836712 
L 164.245018 216.521424 
L 164.487259 216.401832 
L 164.729499 216.858456 
L 165.213979 216.021312 
L 165.456219 217.162872 
L 165.698459 216.814968 
L 165.940699 216.086544 
L 166.182939 217.141128 
L 166.425179 216.01044 
L 166.667419 216.727992 
L 166.909659 215.966952 
L 167.151899 218.587104 
L 167.394139 216.706248 
L 167.636379 216.727992 
L 167.878619 216.358344 
L 168.12086 215.41248 
L 168.3631 216.0648 
L 168.60534 215.129808 
L 168.84758 215.292888 
L 169.08982 215.597304 
L 169.33206 214.434 
L 169.5743 214.781904 
L 169.81654 216.695376 
L 170.05878 216.978048 
L 170.54326 215.03196 
L 171.02774 214.48836 
L 171.26998 214.727544 
L 171.512221 216.162648 
L 171.754461 215.597304 
L 171.996701 214.607952 
L 172.238941 215.5212 
L 172.481181 214.9776 
L 172.723421 216.260496 
L 172.965661 215.5212 
L 173.207901 216.727992 
L 173.450141 216.575784 
L 173.692381 216.206136 
L 173.934621 215.282016 
L 174.419101 214.999344 
L 174.661341 215.73864 
L 174.903582 215.706024 
L 175.145822 215.30376 
L 175.388062 215.5212 
L 175.630302 214.455744 
L 175.872542 217.521648 
L 176.114782 215.95608 
L 176.357022 216.695376 
L 176.599262 216.532296 
L 176.841502 215.292888 
L 177.083742 215.532072 
L 177.325982 216.641016 
L 177.568222 215.30376 
L 177.810462 215.216784 
L 178.052702 213.248952 
L 178.294942 215.542944 
L 178.779423 216.3366 
L 179.021663 215.30376 
L 179.506143 216.401832 
L 179.748383 216.369216 
L 179.990623 215.727768 
L 180.232863 216.271368 
L 180.475103 216.44532 
L 180.717343 216.477936 
L 180.959583 217.010664 
L 181.201823 216.053928 
L 181.444063 216.130032 
L 181.686303 214.716672 
L 182.170784 216.836712 
L 182.413024 215.84736 
L 182.655264 215.782128 
L 182.897504 215.064576 
L 183.139744 216.130032 
L 183.381984 215.608176 
L 183.624224 215.662536 
L 183.866464 216.130032 
L 184.108704 215.064576 
L 184.350944 216.260496 
L 184.593184 215.5212 
L 184.835424 215.499456 
L 185.077664 216.39096 
L 185.319904 216.0648 
L 185.562145 215.336376 
L 185.804385 215.19504 
L 186.046625 215.619048 
L 186.288865 216.467064 
L 186.531105 216.575784 
L 186.773345 217.195488 
L 187.015585 215.727768 
L 187.500065 216.49968 
L 187.742305 216.923688 
L 187.984545 216.206136 
L 188.226785 216.238752 
L 188.469025 215.988696 
L 188.711265 216.151776 
L 188.953506 215.988696 
L 189.195746 216.043056 
L 189.437986 215.108064 
L 189.680226 216.727992 
L 189.922466 216.706248 
L 190.406946 215.379864 
L 190.649186 215.46684 
L 190.891426 216.401832 
L 191.375906 215.108064 
L 191.618146 215.477712 
L 191.860386 215.19504 
L 192.102626 216.6084 
L 192.344867 214.520976 
L 192.587107 214.879752 
L 192.829347 214.988472 
L 193.071587 216.238752 
L 193.313827 216.641016 
L 193.556067 215.988696 
L 194.040547 215.532072 
L 194.282787 216.17352 
L 194.525027 215.608176 
L 195.009507 216.206136 
L 195.251747 215.238528 
L 195.493987 215.108064 
L 195.736227 215.597304 
L 195.978468 216.380088 
L 196.220708 216.151776 
L 196.462948 214.901496 
L 196.705188 214.694928 
L 196.947428 215.46684 
L 197.189668 216.641016 
L 197.431908 215.803872 
L 197.674148 217.065024 
L 197.916388 214.618824 
L 198.158628 215.673408 
L 198.643108 215.184168 
L 198.885348 214.54272 
L 199.127588 214.575336 
L 199.369829 216.630144 
L 199.612069 215.423352 
L 199.854309 216.380088 
L 200.096549 216.434448 
L 200.581029 215.41248 
L 200.823269 215.999568 
L 201.065509 215.977824 
L 201.307749 214.825392 
L 201.549989 216.151776 
L 201.792229 214.59708 
L 202.034469 215.57556 
L 202.276709 215.260272 
L 202.518949 214.607952 
L 202.761189 215.608176 
L 203.00343 215.879976 
L 203.24567 216.8802 
L 203.48791 216.22788 
L 203.73015 216.108288 
L 203.97239 215.434224 
L 204.21463 216.238752 
L 204.45687 215.390736 
L 204.69911 216.641016 
L 204.94135 216.11916 
L 205.42583 217.162872 
L 205.66807 217.162872 
L 205.91031 217.652112 
L 206.394791 217.173744 
L 206.637031 215.999568 
L 206.879271 217.499904 
L 207.121511 216.130032 
L 207.363751 216.488808 
L 207.605991 217.869552 
L 207.848231 217.684728 
L 208.090471 217.282464 
L 208.332711 216.423576 
L 208.574951 216.651888 
L 208.817191 217.162872 
L 209.059431 216.912816 
L 209.301671 218.652336 
L 209.543911 217.152 
L 209.786152 216.8802 
L 210.028392 217.499904 
L 210.270632 216.151776 
L 210.755112 216.869328 
L 210.997352 218.043504 
L 211.481832 215.727768 
L 211.724072 216.412704 
L 211.966312 217.510776 
L 212.208552 216.032184 
L 212.450792 219.174192 
L 212.693032 216.738864 
L 212.935272 217.80432 
L 213.177512 217.130256 
L 213.419753 217.456416 
L 213.661993 219.261168 
L 213.904233 217.543392 
L 214.146473 217.249848 
L 214.388713 216.6084 
L 214.630953 218.173968 
L 214.873193 216.738864 
L 215.115433 217.4238 
L 215.599913 216.488808 
L 215.842153 216.423576 
L 216.084393 216.814968 
L 216.568873 216.293112 
L 216.811114 216.0648 
L 217.053354 217.36944 
L 217.295594 217.282464 
L 217.537834 215.90172 
L 217.780074 217.6956 
L 218.022314 215.814744 
L 218.264554 217.228104 
L 218.506794 216.82584 
L 218.749034 215.825616 
L 218.991274 216.891072 
L 219.233514 216.314856 
L 219.475754 217.565136 
L 219.717994 217.282464 
L 219.960234 215.966952 
L 220.202474 217.576008 
L 220.444715 217.6956 
L 220.686955 216.28224 
L 220.929195 216.521424 
L 221.171435 217.304208 
L 221.413675 215.771256 
L 221.655915 216.217008 
L 221.898155 215.95608 
L 222.382635 215.08632 
L 222.867115 217.054152 
L 223.109355 216.3366 
L 223.593835 215.695152 
L 223.836076 216.108288 
L 224.078316 215.73864 
L 224.562796 216.760608 
L 224.805036 217.293336 
L 225.047276 215.923464 
L 225.289516 216.412704 
L 225.531756 216.0648 
L 225.773996 216.467064 
L 226.016236 219.087216 
L 226.258476 217.760832 
L 226.742956 217.228104 
L 226.985196 218.326176 
L 227.227437 217.782576 
L 227.469677 216.836712 
L 227.711917 217.847808 
L 228.196397 216.98892 
L 228.438637 217.880424 
L 228.680877 217.6956 
L 228.923117 216.858456 
L 229.165357 217.619496 
L 229.407597 216.260496 
L 229.649837 217.717344 
L 229.892077 217.347696 
L 230.134317 218.000016 
L 230.376557 217.782576 
L 230.618797 217.271592 
L 230.861038 216.217008 
L 231.103278 215.966952 
L 231.345518 217.065024 
L 231.587758 216.271368 
L 231.829998 217.325952 
L 232.072238 217.09764 
L 232.314478 217.36944 
L 232.556718 217.445544 
L 232.798958 217.152 
L 233.041198 217.325952 
L 233.283438 218.413152 
L 233.525678 218.543616 
L 233.767918 218.282688 
L 234.010158 219.141576 
L 234.252399 218.489256 
L 234.494639 218.380536 
L 234.736879 218.413152 
L 234.979119 217.80432 
L 235.221359 218.206584 
L 235.463599 216.238752 
L 235.705839 216.217008 
L 235.948079 218.793672 
L 236.190319 216.55404 
L 236.432559 218.18484 
L 236.674799 216.021312 
L 236.917039 216.891072 
L 237.159279 215.84736 
L 237.401519 218.511 
L 237.643759 216.238752 
L 237.886 217.80432 
L 238.12824 217.347696 
L 238.37048 217.293336 
L 238.61272 216.01044 
L 238.85496 216.98892 
L 239.0972 217.152 
L 239.33944 215.95608 
L 239.58168 218.304432 
L 239.82392 218.750184 
L 240.06616 217.6956 
L 240.55064 217.032408 
L 240.79288 217.956528 
L 241.03512 218.010888 
L 241.277361 217.054152 
L 241.519601 217.74996 
L 241.761841 217.597752 
L 242.004081 217.26072 
L 242.246321 219.413376 
L 242.730801 218.413152 
L 242.973041 219.195936 
L 243.215281 219.011112 
L 243.699761 216.760608 
L 243.942001 217.543392 
L 244.184241 217.510776 
L 244.426481 216.412704 
L 244.910962 219.195936 
L 245.395442 218.630592 
L 245.637682 217.576008 
L 246.122162 218.543616 
L 246.364402 219.967848 
L 246.606642 219.532968 
L 246.848882 218.2392 
L 247.091122 217.728216 
L 247.333362 218.597976 
L 247.575602 220.065696 
L 247.817842 218.641464 
L 248.060082 218.010888 
L 248.302323 218.282688 
L 248.544563 217.630368 
L 248.786803 218.40228 
L 249.029043 218.652336 
L 249.271283 217.684728 
L 249.755763 219.402504 
L 249.998003 218.641464 
L 250.240243 217.325952 
L 250.482483 217.032408 
L 250.724723 217.325952 
L 250.966963 218.097864 
L 251.209203 219.522096 
L 251.451443 219.445992 
L 251.693684 219.783024 
L 251.935924 218.07612 
L 252.178164 218.141352 
L 252.420404 216.93456 
L 252.662644 218.7828 
L 252.904884 218.521872 
L 253.147124 217.9674 
L 253.389364 218.424024 
L 253.631604 218.315304 
L 253.873844 217.619496 
L 254.116084 217.293336 
L 254.358324 218.826288 
L 254.600564 217.6956 
L 254.842804 219.141576 
L 255.085044 217.054152 
L 255.327285 217.108512 
L 255.811765 218.521872 
L 256.054005 217.510776 
L 256.296245 217.402056 
L 256.538485 217.141128 
L 256.780725 217.336824 
L 257.022965 218.56536 
L 257.265205 216.423576 
L 257.507445 218.173968 
L 257.749685 216.8802 
L 257.991925 216.586656 
L 258.234165 216.749736 
L 258.960886 219.391632 
L 259.203126 218.956752 
L 259.687606 217.826064 
L 259.929846 217.434672 
L 260.172086 219.0546 
L 260.898806 220.1418 
L 261.141046 220.03308 
L 261.383286 219.783024 
L 261.625526 217.249848 
L 261.867766 218.83716 
L 262.110007 218.815416 
L 262.352247 218.967624 
L 262.594487 217.902168 
L 262.836727 219.913488 
L 263.078967 218.424024 
L 263.321207 220.217904 
L 263.805687 218.40228 
L 264.047927 218.445768 
L 264.290167 218.195712 
L 264.532407 222.446664 
L 264.774647 219.16332 
L 265.016887 219.282912 
L 265.259127 218.89152 
L 265.501367 220.207032 
L 265.743608 219.228552 
L 265.985848 219.032856 
L 266.228088 219.369888 
L 266.470328 218.597976 
L 266.712568 219.696048 
L 266.954808 220.1418 
L 267.197048 217.6956 
L 267.439288 220.79412 
L 267.681528 218.739312 
L 268.166008 220.30488 
L 268.408248 221.109408 
L 268.650488 220.772376 
L 268.892728 219.76128 
L 269.134969 220.859352 
L 269.377209 220.315752 
L 269.619449 220.652784 
L 269.861689 221.424696 
L 270.103929 221.315976 
L 270.346169 220.761504 
L 270.588409 219.391632 
L 270.830649 219.902616 
L 271.072889 219.956976 
L 271.315129 218.880648 
L 271.557369 220.1418 
L 271.799609 220.011336 
L 272.041849 220.924584 
L 272.284089 218.804544 
L 272.526329 219.587328 
L 272.76857 219.500352 
L 273.01081 219.532968 
L 273.25305 219.348144 
L 273.49529 218.271816 
L 273.73753 220.000464 
L 273.97977 218.413152 
L 274.22201 218.869776 
L 274.46425 218.163096 
L 274.70649 218.369664 
L 274.94873 219.119832 
L 275.19097 218.815416 
L 275.43321 220.435344 
L 275.67545 218.597976 
L 275.91769 218.163096 
L 276.159931 218.413152 
L 276.402171 219.413376 
L 276.644411 218.935008 
L 276.886651 219.772152 
L 277.128891 219.282912 
L 277.371131 218.369664 
L 277.613371 218.054376 
L 277.855611 218.826288 
L 278.097851 220.043952 
L 278.340091 218.380536 
L 278.582331 219.478608 
L 278.824571 217.880424 
L 279.066811 219.478608 
L 279.309051 219.076344 
L 279.551292 217.489032 
L 279.793532 218.010888 
L 280.035772 218.228328 
L 280.278012 216.98892 
L 280.762492 218.935008 
L 281.246972 217.467288 
L 281.489212 218.000016 
L 281.731452 216.8802 
L 281.973692 217.934784 
L 282.215932 217.706472 
L 282.458172 219.3264 
L 282.700412 219.087216 
L 282.942652 216.8802 
L 283.184893 217.119384 
L 283.427133 218.869776 
L 283.669373 218.141352 
L 283.911613 219.609072 
L 284.153853 219.478608 
L 284.396093 220.57668 
L 284.638333 218.478384 
L 284.880573 218.13048 
L 285.122813 218.467512 
L 285.607293 219.956976 
L 285.849533 219.282912 
L 286.576254 218.250072 
L 286.818494 218.434896 
L 287.060734 217.554264 
L 287.302974 218.521872 
L 287.545214 217.521648 
L 287.787454 219.739536 
L 288.029694 219.478608 
L 288.271934 218.45664 
L 288.514174 219.837384 
L 288.756414 218.358792 
L 288.998654 218.739312 
L 289.240894 219.532968 
L 289.483134 218.424024 
L 289.725374 218.141352 
L 289.725374 218.141352 
" style="fill:none;stroke:#1f77b4;stroke-linecap:square;stroke-width:1.5;"/>
   </g>
   <g id="line2d_18">
    <path clip-path="url(#p8c62b7d9da)" d="M 82.367875 249.768 
L 82.610115 270.4248 
L 82.852355 272.5992 
L 83.336835 238.896 
L 83.579075 234.5472 
L 83.821315 249.768 
L 84.063555 233.46 
L 84.548036 242.1576 
L 84.790276 248.6808 
L 85.032516 235.6344 
L 85.516996 247.5936 
L 85.759236 239.9832 
L 86.001476 255.204 
L 86.243716 249.768 
L 86.485956 238.896 
L 86.728196 245.4192 
L 86.970436 236.7216 
L 87.212676 235.6344 
L 87.454916 235.6344 
L 87.697157 232.3728 
L 87.939397 236.7216 
L 88.181637 246.5064 
L 88.423877 236.7216 
L 88.666117 235.6344 
L 88.908357 235.6344 
L 89.150597 234.5472 
L 89.392837 235.6344 
L 89.635077 234.5472 
L 89.877317 245.4192 
L 90.361797 228.024 
L 90.604037 233.46 
L 91.088517 250.8552 
L 91.330758 238.896 
L 91.572998 235.6344 
L 91.815238 230.1984 
L 92.057478 241.0704 
L 92.299718 239.9832 
L 92.541958 243.2448 
L 92.784198 230.1984 
L 93.026438 241.0704 
L 93.268678 246.5064 
L 93.510918 228.024 
L 93.995398 235.6344 
L 94.237638 235.6344 
L 94.479878 248.6808 
L 94.722119 234.5472 
L 94.964359 236.7216 
L 95.206599 236.7216 
L 95.448839 243.2448 
L 95.691079 239.9832 
L 95.933319 246.5064 
L 96.417799 231.2856 
L 96.660039 236.7216 
L 96.902279 238.896 
L 97.144519 230.1984 
L 97.386759 237.8088 
L 97.628999 234.5472 
L 97.871239 239.9832 
L 98.113479 230.1984 
L 98.35572 229.1112 
L 98.59796 231.2856 
L 98.8402 229.1112 
L 99.08244 231.2856 
L 99.32468 241.0704 
L 99.56692 229.1112 
L 99.80916 228.024 
L 100.0514 236.7216 
L 100.29364 229.1112 
L 100.53588 242.1576 
L 100.77812 239.9832 
L 101.2626 244.332 
L 101.747081 231.2856 
L 101.989321 232.3728 
L 102.231561 235.6344 
L 102.473801 241.0704 
L 102.716041 241.0704 
L 103.200521 223.6752 
L 103.442761 231.2856 
L 103.685001 245.4192 
L 103.927241 238.896 
L 104.169481 246.5064 
L 104.411721 242.1576 
L 104.653961 241.0704 
L 104.896201 233.46 
L 105.138442 243.2448 
L 105.380682 239.9832 
L 105.622922 229.1112 
L 105.865162 237.8088 
L 106.107402 233.46 
L 106.349642 245.4192 
L 106.834122 225.8496 
L 107.076362 233.46 
L 107.318602 233.46 
L 107.560842 234.5472 
L 107.803082 229.1112 
L 108.045322 238.896 
L 108.287562 232.3728 
L 108.772043 251.9424 
L 109.014283 251.9424 
L 109.741003 233.46 
L 109.983243 238.896 
L 110.225483 233.46 
L 110.467723 234.5472 
L 110.709963 229.1112 
L 110.952203 236.7216 
L 111.194443 230.1984 
L 111.436683 234.5472 
L 111.678923 229.1112 
L 111.921163 228.024 
L 112.163404 228.024 
L 112.405644 233.46 
L 112.890124 233.46 
L 113.132364 236.7216 
L 113.374604 234.5472 
L 113.616844 233.46 
L 113.859084 229.1112 
L 114.101324 234.5472 
L 114.343564 234.5472 
L 114.585804 231.2856 
L 115.070284 238.896 
L 115.312524 233.46 
L 115.554764 235.6344 
L 115.797005 239.9832 
L 116.039245 232.3728 
L 116.281485 243.2448 
L 116.523725 232.3728 
L 116.765965 230.1984 
L 117.008205 233.46 
L 117.250445 230.1984 
L 117.492685 239.9832 
L 117.734925 228.024 
L 117.977165 235.6344 
L 118.219405 235.6344 
L 118.461645 241.0704 
L 118.703885 232.3728 
L 118.946125 238.896 
L 119.188366 256.2912 
L 119.672846 232.3728 
L 119.915086 236.7216 
L 120.157326 250.8552 
L 120.399566 234.5472 
L 120.641806 235.6344 
L 120.884046 246.5064 
L 121.126286 231.2856 
L 121.368526 238.896 
L 121.610766 239.9832 
L 121.853006 233.46 
L 122.095246 233.46 
L 122.337486 232.3728 
L 122.579727 236.7216 
L 122.821967 247.5936 
L 123.064207 228.024 
L 123.306447 233.46 
L 123.548687 243.2448 
L 123.790927 234.5472 
L 124.033167 243.2448 
L 124.275407 242.1576 
L 124.517647 233.46 
L 124.759887 230.1984 
L 125.002127 229.1112 
L 125.244367 243.2448 
L 125.486607 235.6344 
L 125.728847 237.8088 
L 125.971087 231.2856 
L 126.213328 236.7216 
L 126.455568 231.2856 
L 126.697808 232.3728 
L 126.940048 248.6808 
L 127.182288 237.8088 
L 127.424528 245.4192 
L 127.666768 237.8088 
L 127.909008 234.5472 
L 128.151248 224.7624 
L 128.393488 234.5472 
L 128.635728 225.8496 
L 128.877968 236.7216 
L 129.120208 230.1984 
L 129.362448 244.332 
L 129.604689 244.332 
L 129.846929 235.6344 
L 130.089169 239.9832 
L 130.331409 238.896 
L 130.573649 239.9832 
L 130.815889 233.46 
L 131.058129 231.2856 
L 131.300369 234.5472 
L 131.542609 232.3728 
L 131.784849 241.0704 
L 132.027089 233.46 
L 132.269329 241.0704 
L 132.511569 241.0704 
L 132.753809 232.3728 
L 132.996049 245.4192 
L 133.23829 235.6344 
L 133.48053 248.6808 
L 133.96501 235.6344 
L 134.44949 242.1576 
L 134.69173 234.5472 
L 134.93397 238.896 
L 135.17621 236.7216 
L 135.41845 244.332 
L 135.66069 239.9832 
L 135.90293 238.896 
L 136.14517 241.0704 
L 136.38741 242.1576 
L 136.629651 242.1576 
L 137.114131 236.7216 
L 137.356371 238.896 
L 137.598611 231.2856 
L 138.083091 249.768 
L 138.325331 235.6344 
L 138.567571 233.46 
L 138.809811 242.1576 
L 139.052051 233.46 
L 139.294291 237.8088 
L 139.536531 226.9368 
L 139.778771 237.8088 
L 140.021012 234.5472 
L 140.263252 235.6344 
L 140.505492 241.0704 
L 140.747732 231.2856 
L 140.989972 247.5936 
L 141.232212 242.1576 
L 141.474452 233.46 
L 141.716692 236.7216 
L 141.958932 244.332 
L 142.201172 245.4192 
L 142.443412 238.896 
L 142.685652 236.7216 
L 142.927892 235.6344 
L 143.170132 235.6344 
L 143.412372 244.332 
L 143.654613 233.46 
L 143.896853 237.8088 
L 144.139093 233.46 
L 144.381333 246.5064 
L 144.865813 233.46 
L 145.108053 241.0704 
L 145.350293 237.8088 
L 145.592533 241.0704 
L 145.834773 232.3728 
L 146.077013 234.5472 
L 146.319253 239.9832 
L 146.561493 233.46 
L 146.803733 234.5472 
L 147.045974 245.4192 
L 147.288214 238.896 
L 147.530454 236.7216 
L 148.014934 238.896 
L 148.257174 245.4192 
L 148.499414 234.5472 
L 148.983894 253.0296 
L 149.468374 235.6344 
L 149.710614 237.8088 
L 149.952854 237.8088 
L 150.195094 238.896 
L 150.437334 236.7216 
L 150.679575 237.8088 
L 150.921815 241.0704 
L 151.164055 246.5064 
L 151.406295 244.332 
L 151.648535 238.896 
L 151.890775 250.8552 
L 152.375255 244.332 
L 152.617495 244.332 
L 152.859735 237.8088 
L 153.101975 245.4192 
L 153.586455 247.5936 
L 153.828695 258.4656 
L 154.070936 241.0704 
L 154.313176 238.896 
L 154.555416 243.2448 
L 154.797656 244.332 
L 155.039896 238.896 
L 155.282136 238.896 
L 155.524376 243.2448 
L 155.766616 236.7216 
L 156.008856 237.8088 
L 156.251096 249.768 
L 156.493336 236.7216 
L 156.735576 243.2448 
L 156.977816 237.8088 
L 157.220056 248.6808 
L 157.462297 248.6808 
L 157.704537 238.896 
L 157.946777 245.4192 
L 158.431257 239.9832 
L 158.673497 239.9832 
L 158.915737 235.6344 
L 159.157977 237.8088 
L 159.400217 253.0296 
L 159.642457 242.1576 
L 159.884697 236.7216 
L 160.126937 242.1576 
L 160.369177 242.1576 
L 160.611417 246.5064 
L 160.853657 234.5472 
L 161.338138 245.4192 
L 161.580378 243.2448 
L 161.822618 235.6344 
L 162.064858 242.1576 
L 162.307098 238.896 
L 162.549338 241.0704 
L 162.791578 260.64 
L 163.033818 239.9832 
L 163.276058 246.5064 
L 163.518298 241.0704 
L 163.760538 238.896 
L 164.002778 238.896 
L 164.245018 236.7216 
L 164.487259 237.8088 
L 164.729499 235.6344 
L 164.971739 242.1576 
L 165.213979 242.1576 
L 165.456219 247.5936 
L 165.698459 243.2448 
L 165.940699 250.8552 
L 166.182939 236.7216 
L 166.425179 239.9832 
L 166.667419 239.9832 
L 166.909659 249.768 
L 167.151899 250.8552 
L 167.394139 235.6344 
L 167.636379 230.1984 
L 167.878619 244.332 
L 168.12086 242.1576 
L 168.3631 242.1576 
L 168.60534 232.3728 
L 168.84758 246.5064 
L 169.08982 242.1576 
L 169.33206 243.2448 
L 169.5743 243.2448 
L 169.81654 239.9832 
L 170.05878 241.0704 
L 170.30102 237.8088 
L 170.54326 241.0704 
L 170.7855 232.3728 
L 171.02774 239.9832 
L 171.26998 241.0704 
L 171.512221 246.5064 
L 171.754461 241.0704 
L 171.996701 232.3728 
L 172.238941 234.5472 
L 172.481181 229.1112 
L 172.723421 238.896 
L 172.965661 236.7216 
L 173.207901 233.46 
L 173.450141 249.768 
L 173.692381 246.5064 
L 173.934621 237.8088 
L 174.176861 237.8088 
L 174.661341 247.5936 
L 174.903582 241.0704 
L 175.145822 239.9832 
L 175.388062 244.332 
L 175.630302 242.1576 
L 176.114782 235.6344 
L 176.357022 246.5064 
L 176.599262 244.332 
L 176.841502 237.8088 
L 177.083742 239.9832 
L 177.568222 251.9424 
L 177.810462 235.6344 
L 178.052702 242.1576 
L 178.294942 253.0296 
L 178.537183 241.0704 
L 178.779423 239.9832 
L 179.021663 237.8088 
L 179.263903 236.7216 
L 179.506143 245.4192 
L 179.748383 238.896 
L 179.990623 242.1576 
L 180.232863 248.6808 
L 180.475103 247.5936 
L 180.717343 242.1576 
L 181.201823 242.1576 
L 181.686303 230.1984 
L 181.928544 242.1576 
L 182.170784 244.332 
L 182.413024 236.7216 
L 182.655264 242.1576 
L 182.897504 243.2448 
L 183.139744 248.6808 
L 183.381984 239.9832 
L 183.624224 235.6344 
L 183.866464 244.332 
L 184.108704 243.2448 
L 184.350944 247.5936 
L 184.593184 239.9832 
L 184.835424 247.5936 
L 185.077664 237.8088 
L 185.319904 236.7216 
L 185.562145 234.5472 
L 185.804385 236.7216 
L 186.046625 232.3728 
L 186.288865 245.4192 
L 186.531105 248.6808 
L 186.773345 255.204 
L 187.015585 237.8088 
L 187.257825 235.6344 
L 187.500065 237.8088 
L 187.742305 245.4192 
L 187.984545 243.2448 
L 188.226785 247.5936 
L 188.469025 238.896 
L 188.711265 237.8088 
L 188.953506 237.8088 
L 189.195746 238.896 
L 189.437986 232.3728 
L 189.680226 241.0704 
L 189.922466 241.0704 
L 190.164706 238.896 
L 190.406946 246.5064 
L 190.649186 235.6344 
L 190.891426 245.4192 
L 191.133666 237.8088 
L 191.375906 247.5936 
L 191.618146 238.896 
L 191.860386 239.9832 
L 192.102626 246.5064 
L 192.344867 239.9832 
L 192.587107 237.8088 
L 192.829347 237.8088 
L 193.071587 244.332 
L 193.313827 243.2448 
L 193.556067 245.4192 
L 193.798307 244.332 
L 194.040547 237.8088 
L 194.282787 242.1576 
L 194.525027 237.8088 
L 194.767267 244.332 
L 195.009507 234.5472 
L 195.251747 237.8088 
L 195.493987 232.3728 
L 195.736227 236.7216 
L 195.978468 247.5936 
L 196.220708 243.2448 
L 196.462948 242.1576 
L 196.705188 239.9832 
L 196.947428 234.5472 
L 197.189668 237.8088 
L 197.431908 243.2448 
L 198.158628 236.7216 
L 198.400868 241.0704 
L 198.643108 238.896 
L 198.885348 239.9832 
L 199.127588 238.896 
L 199.369829 250.8552 
L 199.612069 237.8088 
L 199.854309 236.7216 
L 200.096549 242.1576 
L 200.338789 242.1576 
L 200.581029 237.8088 
L 200.823269 243.2448 
L 201.065509 235.6344 
L 201.307749 242.1576 
L 201.549989 256.2912 
L 201.792229 237.8088 
L 202.034469 235.6344 
L 202.276709 245.4192 
L 202.518949 237.8088 
L 202.761189 245.4192 
L 203.24567 237.8088 
L 203.48791 242.1576 
L 203.73015 233.46 
L 203.97239 234.5472 
L 204.21463 237.8088 
L 204.45687 236.7216 
L 204.69911 237.8088 
L 204.94135 235.6344 
L 205.18359 243.2448 
L 205.42583 245.4192 
L 205.66807 239.9832 
L 205.91031 242.1576 
L 206.15255 241.0704 
L 206.394791 244.332 
L 206.637031 236.7216 
L 206.879271 236.7216 
L 207.121511 237.8088 
L 207.363751 245.4192 
L 207.605991 243.2448 
L 207.848231 238.896 
L 208.090471 245.4192 
L 208.332711 241.0704 
L 208.574951 244.332 
L 208.817191 238.896 
L 209.059431 243.2448 
L 209.543911 247.5936 
L 209.786152 236.7216 
L 210.028392 239.9832 
L 210.270632 234.5472 
L 210.755112 242.1576 
L 210.997352 251.9424 
L 211.239592 231.2856 
L 211.481832 238.896 
L 211.724072 234.5472 
L 211.966312 244.332 
L 212.208552 239.9832 
L 212.450792 242.1576 
L 212.693032 254.1168 
L 213.177512 239.9832 
L 213.661993 246.5064 
L 213.904233 242.1576 
L 214.146473 241.0704 
L 214.388713 238.896 
L 214.630953 244.332 
L 214.873193 233.46 
L 215.115433 246.5064 
L 215.357673 239.9832 
L 215.599913 239.9832 
L 215.842153 238.896 
L 216.084393 246.5064 
L 216.326633 234.5472 
L 216.568873 239.9832 
L 216.811114 241.0704 
L 217.053354 238.896 
L 217.295594 241.0704 
L 217.537834 231.2856 
L 217.780074 234.5472 
L 218.022314 234.5472 
L 218.264554 235.6344 
L 218.506794 234.5472 
L 219.475754 247.5936 
L 219.960234 234.5472 
L 220.202474 242.1576 
L 220.444715 239.9832 
L 220.686955 241.0704 
L 220.929195 234.5472 
L 221.413675 244.332 
L 221.655915 246.5064 
L 221.898155 236.7216 
L 222.382635 234.5472 
L 222.624875 249.768 
L 223.109355 242.1576 
L 223.351595 233.46 
L 223.593835 243.2448 
L 223.836076 235.6344 
L 224.078316 236.7216 
L 224.320556 236.7216 
L 224.562796 242.1576 
L 224.805036 243.2448 
L 225.047276 230.1984 
L 225.289516 250.8552 
L 225.531756 244.332 
L 225.773996 241.0704 
L 226.016236 244.332 
L 226.258476 241.0704 
L 226.500716 239.9832 
L 226.742956 245.4192 
L 226.985196 244.332 
L 227.227437 244.332 
L 227.469677 239.9832 
L 227.711917 243.2448 
L 228.196397 235.6344 
L 228.438637 246.5064 
L 228.680877 237.8088 
L 228.923117 235.6344 
L 229.165357 239.9832 
L 229.407597 241.0704 
L 229.649837 239.9832 
L 229.892077 243.2448 
L 230.134317 250.8552 
L 230.376557 237.8088 
L 230.618797 242.1576 
L 230.861038 237.8088 
L 231.103278 235.6344 
L 231.345518 238.896 
L 231.587758 238.896 
L 231.829998 242.1576 
L 232.072238 247.5936 
L 232.314478 245.4192 
L 232.556718 241.0704 
L 232.798958 247.5936 
L 233.041198 243.2448 
L 233.283438 245.4192 
L 233.525678 237.8088 
L 233.767918 256.2912 
L 234.010158 245.4192 
L 234.252399 239.9832 
L 234.494639 241.0704 
L 234.736879 247.5936 
L 234.979119 237.8088 
L 235.221359 239.9832 
L 235.463599 233.46 
L 235.705839 236.7216 
L 235.948079 253.0296 
L 236.190319 236.7216 
L 236.432559 246.5064 
L 236.674799 236.7216 
L 236.917039 238.896 
L 237.159279 233.46 
L 237.401519 244.332 
L 237.643759 238.896 
L 237.886 238.896 
L 238.12824 241.0704 
L 238.37048 245.4192 
L 238.61272 243.2448 
L 238.85496 244.332 
L 239.0972 246.5064 
L 239.33944 241.0704 
L 239.58168 244.332 
L 239.82392 254.1168 
L 240.06616 237.8088 
L 240.3084 247.5936 
L 240.55064 234.5472 
L 240.79288 244.332 
L 241.03512 241.0704 
L 241.277361 244.332 
L 241.519601 253.0296 
L 241.761841 238.896 
L 242.004081 237.8088 
L 242.246321 251.9424 
L 242.488561 249.768 
L 242.730801 242.1576 
L 242.973041 245.4192 
L 243.215281 243.2448 
L 243.457521 247.5936 
L 243.699761 241.0704 
L 244.184241 247.5936 
L 244.426481 236.7216 
L 244.910962 249.768 
L 245.153202 236.7216 
L 245.395442 237.8088 
L 245.637682 258.4656 
L 245.879922 254.1168 
L 246.122162 251.9424 
L 246.364402 247.5936 
L 246.606642 258.4656 
L 247.091122 233.46 
L 247.333362 234.5472 
L 247.575602 251.9424 
L 247.817842 244.332 
L 248.060082 243.2448 
L 248.302323 236.7216 
L 248.544563 237.8088 
L 248.786803 246.5064 
L 249.029043 248.6808 
L 249.513523 233.46 
L 249.998003 253.0296 
L 250.240243 236.7216 
L 250.482483 235.6344 
L 250.724723 250.8552 
L 250.966963 250.8552 
L 251.209203 242.1576 
L 251.451443 241.0704 
L 251.693684 247.5936 
L 251.935924 249.768 
L 252.178164 235.6344 
L 252.662644 241.0704 
L 252.904884 247.5936 
L 253.147124 239.9832 
L 253.389364 245.4192 
L 253.631604 239.9832 
L 253.873844 248.6808 
L 254.116084 244.332 
L 254.358324 248.6808 
L 254.600564 237.8088 
L 254.842804 244.332 
L 255.085044 233.46 
L 255.327285 239.9832 
L 255.811765 237.8088 
L 256.054005 244.332 
L 256.296245 236.7216 
L 256.538485 244.332 
L 256.780725 239.9832 
L 257.022965 237.8088 
L 257.265205 255.204 
L 257.507445 239.9832 
L 257.749685 245.4192 
L 257.991925 232.3728 
L 258.476405 243.2448 
L 258.718646 248.6808 
L 258.960886 246.5064 
L 259.203126 255.204 
L 259.445366 254.1168 
L 259.687606 238.896 
L 259.929846 243.2448 
L 260.172086 242.1576 
L 260.414326 247.5936 
L 260.656566 246.5064 
L 260.898806 255.204 
L 261.141046 247.5936 
L 261.383286 250.8552 
L 261.625526 248.6808 
L 261.867766 238.896 
L 262.110007 241.0704 
L 262.352247 253.0296 
L 262.594487 249.768 
L 262.836727 248.6808 
L 263.078967 238.896 
L 263.321207 248.6808 
L 263.563447 249.768 
L 263.805687 238.896 
L 264.047927 246.5064 
L 264.290167 243.2448 
L 264.532407 251.9424 
L 265.016887 246.5064 
L 265.259127 251.9424 
L 265.501367 243.2448 
L 265.743608 241.0704 
L 265.985848 250.8552 
L 266.228088 253.0296 
L 266.470328 245.4192 
L 266.712568 242.1576 
L 266.954808 255.204 
L 267.197048 236.7216 
L 267.439288 254.1168 
L 267.681528 236.7216 
L 268.166008 258.4656 
L 268.408248 250.8552 
L 268.650488 264.9888 
L 268.892728 249.768 
L 269.134969 245.4192 
L 269.377209 247.5936 
L 269.619449 254.1168 
L 269.861689 250.8552 
L 270.103929 250.8552 
L 270.346169 255.204 
L 270.588409 243.2448 
L 270.830649 259.5528 
L 271.072889 241.0704 
L 271.315129 243.2448 
L 271.557369 251.9424 
L 271.799609 245.4192 
L 272.041849 248.6808 
L 272.284089 244.332 
L 272.526329 244.332 
L 272.76857 243.2448 
L 273.01081 245.4192 
L 273.25305 243.2448 
L 273.49529 238.896 
L 273.73753 249.768 
L 273.97977 249.768 
L 274.22201 241.0704 
L 274.46425 242.1576 
L 274.70649 238.896 
L 274.94873 254.1168 
L 275.19097 245.4192 
L 275.43321 251.9424 
L 275.67545 239.9832 
L 275.91769 239.9832 
L 276.159931 243.2448 
L 276.402171 248.6808 
L 276.644411 245.4192 
L 276.886651 248.6808 
L 277.128891 245.4192 
L 277.371131 244.332 
L 277.613371 245.4192 
L 277.855611 244.332 
L 278.097851 246.5064 
L 278.340091 236.7216 
L 278.824571 251.9424 
L 279.066811 249.768 
L 279.309051 237.8088 
L 279.551292 235.6344 
L 279.793532 243.2448 
L 280.035772 241.0704 
L 280.278012 233.46 
L 280.520252 247.5936 
L 280.762492 237.8088 
L 281.004732 241.0704 
L 281.246972 239.9832 
L 281.489212 241.0704 
L 281.731452 253.0296 
L 281.973692 246.5064 
L 282.215932 243.2448 
L 282.458172 245.4192 
L 282.700412 250.8552 
L 282.942652 237.8088 
L 283.184893 243.2448 
L 283.427133 258.4656 
L 283.669373 247.5936 
L 283.911613 243.2448 
L 284.153853 248.6808 
L 284.396093 247.5936 
L 284.638333 249.768 
L 284.880573 250.8552 
L 285.122813 241.0704 
L 285.365053 243.2448 
L 285.607293 247.5936 
L 285.849533 246.5064 
L 286.091773 256.2912 
L 286.334013 254.1168 
L 286.576254 245.4192 
L 286.818494 246.5064 
L 287.060734 239.9832 
L 287.302974 243.2448 
L 287.545214 239.9832 
L 288.029694 249.768 
L 288.271934 248.6808 
L 288.514174 250.8552 
L 288.756414 244.332 
L 288.998654 242.1576 
L 289.240894 251.9424 
L 289.483134 243.2448 
L 289.725374 247.5936 
L 289.725374 247.5936 
" style="fill:none;stroke:#ff7f0e;stroke-linecap:square;stroke-width:1.5;"/>
   </g>
   <g id="line2d_19">
    <path clip-path="url(#p8c62b7d9da)" d="M 82.367875 195.408 
L 82.610115 196.4952 
L 82.852355 199.7568 
L 83.094595 194.3208 
L 83.336835 195.408 
L 83.579075 200.844 
L 83.821315 200.844 
L 84.063555 199.7568 
L 84.305796 200.844 
L 84.548036 196.4952 
L 84.790276 198.6696 
L 85.032516 197.5824 
L 85.274756 199.7568 
L 85.516996 199.7568 
L 85.759236 200.844 
L 86.001476 198.6696 
L 86.243716 193.2336 
L 86.485956 200.844 
L 86.970436 200.844 
L 87.212676 199.7568 
L 87.454916 195.408 
L 87.697157 199.7568 
L 88.423877 193.2336 
L 88.908357 199.7568 
L 89.150597 198.6696 
L 89.392837 198.6696 
L 89.635077 200.844 
L 89.877317 197.5824 
L 90.119557 196.4952 
L 90.361797 197.5824 
L 90.604037 201.9312 
L 90.846277 197.5824 
L 91.088517 198.6696 
L 91.330758 198.6696 
L 91.572998 200.844 
L 92.299718 197.5824 
L 92.541958 194.3208 
L 92.784198 203.0184 
L 93.026438 196.4952 
L 93.268678 199.7568 
L 93.510918 199.7568 
L 93.753158 201.9312 
L 93.995398 198.6696 
L 94.237638 201.9312 
L 94.479878 197.5824 
L 94.722119 199.7568 
L 94.964359 187.7976 
L 95.206599 198.6696 
L 95.448839 198.6696 
L 95.691079 200.844 
L 95.933319 197.5824 
L 96.175559 198.6696 
L 96.417799 197.5824 
L 96.902279 203.0184 
L 97.386759 200.844 
L 97.628999 195.408 
L 98.113479 203.0184 
L 98.35572 201.9312 
L 98.59796 201.9312 
L 98.8402 198.6696 
L 99.08244 199.7568 
L 99.32468 199.7568 
L 99.56692 200.844 
L 100.0514 200.844 
L 100.29364 199.7568 
L 100.53588 194.3208 
L 101.02036 201.9312 
L 101.2626 204.1056 
L 101.50484 204.1056 
L 101.747081 199.7568 
L 101.989321 204.1056 
L 102.231561 199.7568 
L 102.473801 200.844 
L 102.716041 198.6696 
L 103.200521 198.6696 
L 103.442761 195.408 
L 103.927241 203.0184 
L 104.169481 203.0184 
L 104.411721 200.844 
L 104.653961 193.2336 
L 104.896201 198.6696 
L 105.138442 200.844 
L 105.380682 200.844 
L 105.622922 197.5824 
L 105.865162 197.5824 
L 106.107402 201.9312 
L 106.349642 204.1056 
L 106.591882 198.6696 
L 106.834122 197.5824 
L 107.076362 199.7568 
L 107.318602 199.7568 
L 107.560842 203.0184 
L 107.803082 203.0184 
L 108.045322 194.3208 
L 108.287562 197.5824 
L 108.529802 203.0184 
L 108.772043 199.7568 
L 109.014283 201.9312 
L 109.256523 199.7568 
L 109.498763 199.7568 
L 109.741003 204.1056 
L 109.983243 200.844 
L 110.225483 204.1056 
L 110.467723 198.6696 
L 110.709963 201.9312 
L 111.194443 196.4952 
L 111.436683 203.0184 
L 111.678923 198.6696 
L 111.921163 201.9312 
L 112.163404 197.5824 
L 112.405644 201.9312 
L 112.647884 199.7568 
L 112.890124 203.0184 
L 113.374604 200.844 
L 113.616844 200.844 
L 113.859084 199.7568 
L 114.101324 196.4952 
L 114.343564 201.9312 
L 114.585804 204.1056 
L 115.312524 200.844 
L 115.797005 200.844 
L 116.039245 199.7568 
L 116.281485 201.9312 
L 116.523725 199.7568 
L 116.765965 199.7568 
L 117.008205 200.844 
L 117.250445 199.7568 
L 117.492685 197.5824 
L 117.734925 203.0184 
L 117.977165 203.0184 
L 118.219405 195.408 
L 118.461645 203.0184 
L 118.703885 197.5824 
L 118.946125 199.7568 
L 119.188366 204.1056 
L 119.430606 203.0184 
L 119.672846 200.844 
L 119.915086 200.844 
L 120.157326 192.1464 
L 120.399566 200.844 
L 120.641806 200.844 
L 120.884046 196.4952 
L 121.126286 203.0184 
L 121.368526 201.9312 
L 121.610766 203.0184 
L 121.853006 201.9312 
L 122.095246 199.7568 
L 122.337486 199.7568 
L 122.579727 201.9312 
L 123.064207 196.4952 
L 123.306447 200.844 
L 123.548687 198.6696 
L 123.790927 203.0184 
L 124.033167 199.7568 
L 124.275407 203.0184 
L 124.517647 199.7568 
L 124.759887 194.3208 
L 125.002127 203.0184 
L 125.244367 200.844 
L 125.486607 203.0184 
L 125.728847 198.6696 
L 125.971087 203.0184 
L 126.213328 203.0184 
L 126.455568 201.9312 
L 126.940048 204.1056 
L 127.182288 198.6696 
L 127.424528 197.5824 
L 127.666768 200.844 
L 128.635728 200.844 
L 128.877968 201.9312 
L 129.120208 200.844 
L 129.362448 201.9312 
L 129.604689 199.7568 
L 129.846929 200.844 
L 130.089169 204.1056 
L 130.331409 200.844 
L 130.573649 199.7568 
L 131.058129 201.9312 
L 131.300369 199.7568 
L 131.542609 205.1928 
L 131.784849 201.9312 
L 132.027089 201.9312 
L 132.269329 203.0184 
L 132.511569 199.7568 
L 132.753809 198.6696 
L 132.996049 201.9312 
L 133.23829 201.9312 
L 133.48053 197.5824 
L 133.96501 203.0184 
L 134.20725 203.0184 
L 134.44949 201.9312 
L 134.69173 199.7568 
L 135.17621 201.9312 
L 135.41845 199.7568 
L 135.66069 198.6696 
L 136.38741 201.9312 
L 136.629651 204.1056 
L 136.871891 199.7568 
L 137.114131 200.844 
L 137.356371 204.1056 
L 137.598611 199.7568 
L 137.840851 199.7568 
L 138.083091 204.1056 
L 138.325331 197.5824 
L 138.567571 199.7568 
L 138.809811 200.844 
L 139.052051 204.1056 
L 139.294291 195.408 
L 139.536531 200.844 
L 139.778771 203.0184 
L 140.021012 197.5824 
L 140.263252 203.0184 
L 140.505492 200.844 
L 140.747732 200.844 
L 140.989972 194.3208 
L 141.232212 205.1928 
L 141.474452 204.1056 
L 141.716692 196.4952 
L 141.958932 204.1056 
L 142.201172 203.0184 
L 142.443412 204.1056 
L 142.685652 201.9312 
L 142.927892 205.1928 
L 143.170132 204.1056 
L 143.412372 204.1056 
L 143.654613 199.7568 
L 143.896853 205.1928 
L 144.139093 205.1928 
L 144.381333 198.6696 
L 144.623573 200.844 
L 144.865813 200.844 
L 145.108053 198.6696 
L 145.350293 201.9312 
L 145.834773 201.9312 
L 146.077013 200.844 
L 146.319253 205.1928 
L 146.561493 206.28 
L 146.803733 204.1056 
L 147.045974 204.1056 
L 147.288214 205.1928 
L 147.530454 204.1056 
L 147.772694 204.1056 
L 148.014934 198.6696 
L 148.257174 205.1928 
L 148.499414 201.9312 
L 148.741654 200.844 
L 148.983894 204.1056 
L 149.226134 200.844 
L 149.468374 201.9312 
L 149.710614 204.1056 
L 149.952854 204.1056 
L 150.195094 201.9312 
L 150.437334 204.1056 
L 150.679575 197.5824 
L 150.921815 204.1056 
L 151.164055 204.1056 
L 151.406295 205.1928 
L 151.648535 204.1056 
L 151.890775 204.1056 
L 152.133015 203.0184 
L 152.375255 205.1928 
L 152.617495 206.28 
L 152.859735 203.0184 
L 153.101975 203.0184 
L 153.344215 204.1056 
L 153.586455 206.28 
L 153.828695 203.0184 
L 154.070936 206.28 
L 154.313176 206.28 
L 154.555416 204.1056 
L 154.797656 204.1056 
L 155.282136 201.9312 
L 155.524376 206.28 
L 155.766616 205.1928 
L 156.008856 200.844 
L 156.251096 201.9312 
L 156.493336 205.1928 
L 156.735576 200.844 
L 156.977816 204.1056 
L 157.220056 204.1056 
L 157.462297 205.1928 
L 157.704537 205.1928 
L 157.946777 204.1056 
L 158.189017 204.1056 
L 158.431257 201.9312 
L 158.673497 205.1928 
L 158.915737 203.0184 
L 159.157977 204.1056 
L 159.400217 204.1056 
L 159.642457 207.3672 
L 160.369177 204.1056 
L 160.611417 205.1928 
L 161.095898 205.1928 
L 161.338138 204.1056 
L 161.580378 206.28 
L 161.822618 204.1056 
L 162.064858 204.1056 
L 162.307098 203.0184 
L 162.549338 206.28 
L 162.791578 203.0184 
L 163.033818 204.1056 
L 163.518298 204.1056 
L 163.760538 201.9312 
L 164.245018 204.1056 
L 164.487259 204.1056 
L 164.729499 205.1928 
L 164.971739 204.1056 
L 165.213979 204.1056 
L 165.456219 203.0184 
L 165.698459 204.1056 
L 165.940699 204.1056 
L 166.182939 205.1928 
L 166.425179 205.1928 
L 166.667419 203.0184 
L 166.909659 204.1056 
L 167.151899 204.1056 
L 167.394139 205.1928 
L 167.636379 205.1928 
L 167.878619 200.844 
L 168.12086 205.1928 
L 168.3631 205.1928 
L 168.60534 203.0184 
L 168.84758 201.9312 
L 169.08982 205.1928 
L 169.33206 203.0184 
L 169.5743 204.1056 
L 169.81654 203.0184 
L 170.05878 203.0184 
L 170.54326 205.1928 
L 170.7855 201.9312 
L 171.02774 203.0184 
L 171.26998 200.844 
L 171.512221 203.0184 
L 171.996701 203.0184 
L 172.238941 205.1928 
L 172.481181 204.1056 
L 172.723421 205.1928 
L 172.965661 205.1928 
L 173.207901 201.9312 
L 173.692381 204.1056 
L 174.176861 204.1056 
L 174.419101 197.5824 
L 174.661341 204.1056 
L 174.903582 203.0184 
L 175.145822 204.1056 
L 175.388062 198.6696 
L 175.630302 205.1928 
L 176.114782 203.0184 
L 176.357022 205.1928 
L 176.599262 205.1928 
L 176.841502 201.9312 
L 177.083742 204.1056 
L 177.325982 203.0184 
L 177.568222 203.0184 
L 178.052702 200.844 
L 178.294942 201.9312 
L 178.537183 198.6696 
L 178.779423 203.0184 
L 179.021663 204.1056 
L 179.506143 204.1056 
L 179.990623 201.9312 
L 180.232863 204.1056 
L 181.201823 204.1056 
L 181.444063 201.9312 
L 181.686303 204.1056 
L 181.928544 200.844 
L 182.170784 203.0184 
L 182.413024 197.5824 
L 182.655264 205.1928 
L 182.897504 199.7568 
L 183.381984 205.1928 
L 183.624224 203.0184 
L 183.866464 201.9312 
L 184.108704 204.1056 
L 184.350944 200.844 
L 184.835424 200.844 
L 185.077664 204.1056 
L 185.319904 203.0184 
L 185.562145 203.0184 
L 185.804385 204.1056 
L 186.046625 203.0184 
L 186.288865 205.1928 
L 186.531105 200.844 
L 186.773345 204.1056 
L 187.015585 204.1056 
L 187.257825 206.28 
L 187.500065 204.1056 
L 187.984545 206.28 
L 188.226785 205.1928 
L 188.469025 205.1928 
L 188.711265 204.1056 
L 188.953506 204.1056 
L 189.195746 203.0184 
L 189.437986 203.0184 
L 189.680226 206.28 
L 189.922466 204.1056 
L 190.164706 205.1928 
L 190.406946 205.1928 
L 190.649186 204.1056 
L 190.891426 201.9312 
L 191.133666 197.5824 
L 191.375906 205.1928 
L 191.618146 203.0184 
L 191.860386 203.0184 
L 192.102626 204.1056 
L 192.344867 203.0184 
L 192.587107 198.6696 
L 192.829347 204.1056 
L 193.071587 205.1928 
L 193.313827 204.1056 
L 193.556067 205.1928 
L 193.798307 204.1056 
L 194.040547 204.1056 
L 194.282787 203.0184 
L 194.767267 205.1928 
L 195.009507 200.844 
L 195.251747 204.1056 
L 195.493987 205.1928 
L 195.736227 201.9312 
L 195.978468 204.1056 
L 196.220708 198.6696 
L 196.462948 203.0184 
L 196.705188 199.7568 
L 196.947428 205.1928 
L 197.189668 204.1056 
L 197.431908 204.1056 
L 197.674148 206.28 
L 197.916388 203.0184 
L 198.158628 205.1928 
L 198.643108 205.1928 
L 198.885348 201.9312 
L 199.127588 201.9312 
L 199.369829 200.844 
L 199.612069 203.0184 
L 199.854309 204.1056 
L 200.096549 200.844 
L 200.338789 203.0184 
L 200.581029 203.0184 
L 200.823269 204.1056 
L 201.065509 204.1056 
L 201.307749 203.0184 
L 201.549989 200.844 
L 201.792229 197.5824 
L 202.034469 206.28 
L 202.276709 203.0184 
L 202.761189 203.0184 
L 203.00343 201.9312 
L 203.24567 206.28 
L 203.48791 205.1928 
L 203.73015 206.28 
L 203.97239 203.0184 
L 204.21463 205.1928 
L 204.45687 203.0184 
L 204.69911 205.1928 
L 205.42583 201.9312 
L 205.66807 206.28 
L 205.91031 204.1056 
L 206.394791 204.1056 
L 206.637031 206.28 
L 207.363751 203.0184 
L 207.605991 205.1928 
L 208.090471 203.0184 
L 208.332711 200.844 
L 208.574951 201.9312 
L 208.817191 201.9312 
L 209.059431 204.1056 
L 209.301671 203.0184 
L 209.543911 205.1928 
L 209.786152 203.0184 
L 210.028392 205.1928 
L 210.512872 200.844 
L 210.755112 203.0184 
L 210.997352 204.1056 
L 211.239592 203.0184 
L 211.481832 205.1928 
L 211.724072 204.1056 
L 211.966312 204.1056 
L 212.208552 201.9312 
L 212.450792 206.28 
L 212.693032 204.1056 
L 212.935272 204.1056 
L 213.177512 203.0184 
L 213.419753 203.0184 
L 213.661993 204.1056 
L 213.904233 201.9312 
L 214.146473 204.1056 
L 214.388713 204.1056 
L 214.630953 201.9312 
L 214.873193 205.1928 
L 215.115433 206.28 
L 215.357673 206.28 
L 215.599913 203.0184 
L 215.842153 206.28 
L 216.084393 204.1056 
L 216.326633 203.0184 
L 216.568873 204.1056 
L 216.811114 203.0184 
L 217.053354 205.1928 
L 217.295594 204.1056 
L 217.537834 204.1056 
L 217.780074 203.0184 
L 218.264554 203.0184 
L 218.749034 205.1928 
L 218.991274 205.1928 
L 219.233514 204.1056 
L 219.475754 205.1928 
L 219.717994 201.9312 
L 219.960234 206.28 
L 220.444715 204.1056 
L 220.686955 205.1928 
L 220.929195 205.1928 
L 221.171435 206.28 
L 221.413675 204.1056 
L 221.655915 203.0184 
L 221.898155 204.1056 
L 222.140395 201.9312 
L 222.382635 204.1056 
L 222.624875 201.9312 
L 222.867115 205.1928 
L 223.351595 205.1928 
L 223.593835 201.9312 
L 223.836076 204.1056 
L 224.078316 198.6696 
L 224.320556 205.1928 
L 224.562796 204.1056 
L 224.805036 205.1928 
L 225.289516 203.0184 
L 225.531756 200.844 
L 225.773996 204.1056 
L 226.258476 201.9312 
L 226.500716 204.1056 
L 226.742956 200.844 
L 226.985196 205.1928 
L 227.227437 201.9312 
L 227.711917 206.28 
L 227.954157 199.7568 
L 228.196397 203.0184 
L 228.923117 199.7568 
L 229.165357 205.1928 
L 229.407597 204.1056 
L 229.892077 204.1056 
L 230.134317 206.28 
L 230.376557 205.1928 
L 230.618797 205.1928 
L 230.861038 203.0184 
L 231.103278 203.0184 
L 231.345518 205.1928 
L 231.587758 205.1928 
L 231.829998 204.1056 
L 232.072238 205.1928 
L 232.314478 203.0184 
L 232.556718 206.28 
L 232.798958 205.1928 
L 233.041198 199.7568 
L 233.283438 205.1928 
L 233.767918 203.0184 
L 234.010158 206.28 
L 234.252399 203.0184 
L 234.494639 206.28 
L 234.736879 203.0184 
L 234.979119 204.1056 
L 235.221359 206.28 
L 235.705839 201.9312 
L 235.948079 206.28 
L 236.432559 201.9312 
L 236.674799 204.1056 
L 236.917039 203.0184 
L 237.159279 205.1928 
L 237.401519 205.1928 
L 237.643759 201.9312 
L 237.886 204.1056 
L 238.12824 200.844 
L 238.37048 205.1928 
L 239.58168 205.1928 
L 239.82392 201.9312 
L 240.06616 205.1928 
L 240.3084 205.1928 
L 240.55064 206.28 
L 240.79288 204.1056 
L 241.03512 204.1056 
L 241.277361 201.9312 
L 241.519601 206.28 
L 241.761841 205.1928 
L 242.488561 205.1928 
L 242.730801 203.0184 
L 242.973041 205.1928 
L 243.215281 205.1928 
L 243.457521 200.844 
L 243.699761 204.1056 
L 243.942001 205.1928 
L 244.184241 203.0184 
L 244.426481 205.1928 
L 244.668722 205.1928 
L 244.910962 206.28 
L 245.153202 206.28 
L 245.395442 207.3672 
L 245.637682 205.1928 
L 245.879922 205.1928 
L 246.122162 201.9312 
L 246.364402 200.844 
L 246.848882 206.28 
L 247.333362 206.28 
L 247.575602 205.1928 
L 248.302323 205.1928 
L 248.544563 206.28 
L 248.786803 204.1056 
L 249.029043 206.28 
L 249.271283 205.1928 
L 249.513523 206.28 
L 249.755763 205.1928 
L 249.998003 205.1928 
L 250.240243 203.0184 
L 250.724723 205.1928 
L 250.966963 205.1928 
L 251.209203 204.1056 
L 251.451443 207.3672 
L 251.693684 206.28 
L 251.935924 203.0184 
L 252.178164 205.1928 
L 252.420404 199.7568 
L 252.662644 205.1928 
L 252.904884 203.0184 
L 253.147124 201.9312 
L 253.389364 205.1928 
L 253.631604 205.1928 
L 253.873844 203.0184 
L 254.358324 205.1928 
L 254.600564 200.844 
L 254.842804 198.6696 
L 255.085044 205.1928 
L 255.327285 205.1928 
L 255.569525 204.1056 
L 255.811765 204.1056 
L 256.054005 205.1928 
L 256.296245 200.844 
L 256.538485 206.28 
L 256.780725 205.1928 
L 257.022965 200.844 
L 257.265205 205.1928 
L 257.507445 205.1928 
L 257.749685 203.0184 
L 257.991925 206.28 
L 258.234165 205.1928 
L 258.476405 201.9312 
L 258.718646 204.1056 
L 259.687606 204.1056 
L 259.929846 203.0184 
L 260.172086 203.0184 
L 260.414326 205.1928 
L 260.656566 204.1056 
L 260.898806 204.1056 
L 261.141046 207.3672 
L 261.383286 205.1928 
L 261.625526 204.1056 
L 261.867766 205.1928 
L 262.594487 205.1928 
L 262.836727 204.1056 
L 263.078967 205.1928 
L 263.321207 205.1928 
L 263.805687 200.844 
L 264.047927 204.1056 
L 264.290167 205.1928 
L 264.532407 205.1928 
L 264.774647 204.1056 
L 265.016887 204.1056 
L 265.259127 199.7568 
L 265.501367 207.3672 
L 265.743608 205.1928 
L 266.228088 205.1928 
L 266.470328 203.0184 
L 266.712568 205.1928 
L 266.954808 204.1056 
L 267.197048 204.1056 
L 267.439288 205.1928 
L 267.681528 203.0184 
L 267.923768 204.1056 
L 268.166008 199.7568 
L 268.408248 205.1928 
L 268.892728 205.1928 
L 269.134969 204.1056 
L 269.377209 206.28 
L 269.861689 204.1056 
L 270.103929 204.1056 
L 270.346169 207.3672 
L 270.588409 205.1928 
L 270.830649 205.1928 
L 271.072889 206.28 
L 271.315129 205.1928 
L 272.284089 205.1928 
L 272.526329 203.0184 
L 272.76857 205.1928 
L 273.01081 200.844 
L 273.49529 206.28 
L 273.73753 206.28 
L 273.97977 204.1056 
L 274.22201 205.1928 
L 274.46425 203.0184 
L 274.70649 201.9312 
L 274.94873 204.1056 
L 275.19097 205.1928 
L 275.43321 204.1056 
L 275.67545 204.1056 
L 275.91769 203.0184 
L 276.159931 203.0184 
L 276.402171 206.28 
L 276.644411 206.28 
L 276.886651 205.1928 
L 277.855611 205.1928 
L 278.097851 207.3672 
L 278.340091 205.1928 
L 278.582331 201.9312 
L 278.824571 206.28 
L 279.309051 204.1056 
L 279.793532 206.28 
L 280.035772 205.1928 
L 280.278012 206.28 
L 280.520252 200.844 
L 280.762492 199.7568 
L 281.004732 205.1928 
L 281.246972 205.1928 
L 281.489212 201.9312 
L 281.731452 204.1056 
L 282.215932 204.1056 
L 282.458172 203.0184 
L 282.700412 204.1056 
L 282.942652 204.1056 
L 283.184893 205.1928 
L 283.427133 203.0184 
L 283.669373 206.28 
L 283.911613 206.28 
L 284.153853 205.1928 
L 284.396093 206.28 
L 284.880573 204.1056 
L 285.122813 206.28 
L 285.365053 204.1056 
L 285.607293 203.0184 
L 285.849533 205.1928 
L 286.091773 206.28 
L 286.334013 206.28 
L 286.576254 205.1928 
L 286.818494 205.1928 
L 287.060734 206.28 
L 287.302974 204.1056 
L 287.545214 206.28 
L 287.787454 206.28 
L 288.029694 205.1928 
L 288.271934 205.1928 
L 288.514174 206.28 
L 288.756414 204.1056 
L 288.998654 204.1056 
L 289.240894 205.1928 
L 289.725374 205.1928 
L 289.725374 205.1928 
" style="fill:none;stroke:#2ca02c;stroke-linecap:square;stroke-width:1.5;"/>
   </g>
   <g id="line2d_20">
    <path clip-path="url(#p8c62b7d9da)" d="M 82.367875 210.706457 
L 84.790276 207.755486 
L 87.212676 209.619257 
L 89.635077 210.6288 
L 92.057478 209.308629 
L 94.479878 209.852229 
L 96.902279 211.716 
L 99.32468 209.463943 
L 101.747081 213.8904 
L 104.169481 209.852229 
L 106.591882 210.395829 
L 109.014283 212.181943 
L 111.436683 214.201029 
L 113.859084 211.871314 
L 116.281485 215.288229 
L 118.703885 214.434 
L 121.126286 213.3468 
L 123.548687 213.113829 
L 125.971087 212.725543 
L 128.393488 209.774571 
L 130.815889 210.162857 
L 133.23829 210.939429 
L 135.66069 212.026629 
L 138.083091 211.560686 
L 140.505492 214.899943 
L 142.927892 215.210571 
L 145.350293 217.152 
L 147.772694 214.434 
L 150.195094 217.074343 
L 152.617495 216.530743 
L 155.039896 216.453086 
L 157.462297 217.773257 
L 159.884697 220.491257 
L 162.307098 218.083886 
L 164.729499 218.394514 
L 167.151899 215.754171 
L 169.5743 217.462629 
L 171.996701 214.744629 
L 174.419101 213.036171 
L 176.841502 212.492571 
L 179.263903 212.880857 
L 181.686303 213.191486 
L 184.108704 213.657429 
L 186.531105 216.453086 
L 188.953506 215.5212 
L 191.375906 214.434 
L 193.798307 216.375429 
L 196.220708 213.113829 
L 198.643108 214.666971 
L 201.065509 216.841371 
L 203.48791 215.132914 
L 205.91031 218.006229 
L 208.332711 216.919029 
L 210.755112 218.2392 
L 213.177512 219.404057 
L 215.599913 215.909486 
L 218.022314 213.812743 
L 220.444715 217.229657 
L 222.867115 218.549829 
L 225.289516 216.686057 
L 227.711917 221.5008 
L 230.134317 214.201029 
L 232.556718 217.229657 
L 234.979119 220.4136 
L 237.401519 216.220114 
L 239.82392 215.443543 
L 242.246321 215.909486 
L 244.668722 217.540286 
L 247.091122 218.627486 
L 249.513523 215.443543 
L 251.935924 220.258286 
L 254.358324 216.996686 
L 256.780725 219.093429 
L 259.203126 218.2392 
L 261.625526 218.938114 
L 264.047927 218.2392 
L 266.470328 220.4136 
L 268.892728 220.335943 
L 271.315129 220.4136 
L 273.73753 221.578457 
L 276.159931 216.297771 
L 278.582331 216.530743 
L 281.004732 215.909486 
L 283.427133 216.142457 
L 285.849533 219.171086 
L 288.271934 219.87 
" style="fill:none;stroke:#d62728;stroke-linecap:square;stroke-width:1.5;"/>
   </g>
   <g id="line2d_21">
    <path clip-path="url(#p8c62b7d9da)" d="M 82.367875 97.56 
L 84.790276 97.56 
L 87.212676 97.56 
L 89.635077 97.56 
L 92.057478 97.56 
L 94.479878 97.56 
L 96.902279 97.56 
L 99.32468 97.56 
L 101.747081 97.56 
L 104.169481 97.56 
L 106.591882 97.56 
L 109.014283 97.56 
L 111.436683 97.56 
L 113.859084 97.56 
L 116.281485 97.56 
L 118.703885 97.56 
L 121.126286 97.56 
L 123.548687 97.56 
L 125.971087 97.56 
L 128.393488 97.56 
L 130.815889 97.56 
L 133.23829 97.56 
L 135.66069 97.56 
L 138.083091 97.56 
L 140.505492 97.56 
L 142.927892 97.56 
L 145.350293 97.56 
L 147.772694 97.56 
L 150.195094 97.56 
L 152.617495 97.56 
L 155.039896 97.56 
L 157.462297 97.56 
L 159.884697 97.56 
L 162.307098 97.56 
L 164.729499 97.56 
L 167.151899 97.56 
L 169.5743 97.56 
L 171.996701 97.56 
L 174.419101 97.56 
L 176.841502 97.56 
L 179.263903 97.56 
L 181.686303 97.56 
L 184.108704 97.56 
L 186.531105 97.56 
L 188.953506 97.56 
L 191.375906 97.56 
L 193.798307 97.56 
L 196.220708 97.56 
L 198.643108 97.56 
L 201.065509 97.56 
L 203.48791 97.56 
L 205.91031 97.56 
L 208.332711 97.56 
L 210.755112 97.56 
L 213.177512 97.56 
L 215.599913 97.56 
L 218.022314 97.56 
L 220.444715 97.56 
L 222.867115 97.56 
L 225.289516 97.56 
L 227.711917 97.56 
L 230.134317 97.56 
L 232.556718 97.56 
L 234.979119 97.56 
L 237.401519 97.56 
L 239.82392 97.56 
L 242.246321 97.56 
L 244.668722 97.56 
L 247.091122 97.56 
L 249.513523 97.56 
L 251.935924 97.56 
L 254.358324 97.56 
L 256.780725 97.56 
L 259.203126 97.56 
L 261.625526 97.56 
L 264.047927 97.56 
L 266.470328 97.56 
L 268.892728 97.56 
L 271.315129 97.56 
L 273.73753 97.56 
L 276.159931 97.56 
L 278.582331 97.56 
L 281.004732 97.56 
L 283.427133 97.56 
L 285.849533 97.56 
L 288.271934 97.56 
" style="fill:none;stroke:#9467bd;stroke-linecap:square;stroke-width:1.5;"/>
   </g>
   <g id="patch_3">
    <path d="M 72 315 
L 72 43.2 
" style="fill:none;stroke:#000000;stroke-linecap:square;stroke-linejoin:miter;stroke-width:0.8;"/>
   </g>
   <g id="patch_4">
    <path d="M 518.4 315 
L 518.4 43.2 
" style="fill:none;stroke:#000000;stroke-linecap:square;stroke-linejoin:miter;stroke-width:0.8;"/>
   </g>
   <g id="patch_5">
    <path d="M 72 315 
L 518.4 315 
" style="fill:none;stroke:#000000;stroke-linecap:square;stroke-linejoin:miter;stroke-width:0.8;"/>
   </g>
   <g id="patch_6">
    <path d="M 72 43.2 
L 518.4 43.2 
" style="fill:none;stroke:#000000;stroke-linecap:square;stroke-linejoin:miter;stroke-width:0.8;"/>
   </g>
   <g id="text_19">
    <!-- Boxing-v0.cma.16.7 -->
    <g transform="translate(235.400625 37.2)scale(0.12 -0.12)">
     <defs>
      <path d="M 19.671875 34.8125 
L 19.671875 8.109375 
L 35.5 8.109375 
Q 43.453125 8.109375 47.28125 11.40625 
Q 51.125 14.703125 51.125 21.484375 
Q 51.125 28.328125 47.28125 31.5625 
Q 43.453125 34.8125 35.5 34.8125 
z
M 19.671875 64.796875 
L 19.671875 42.828125 
L 34.28125 42.828125 
Q 41.5 42.828125 45.03125 45.53125 
Q 48.578125 48.25 48.578125 53.8125 
Q 48.578125 59.328125 45.03125 62.0625 
Q 41.5 64.796875 34.28125 64.796875 
z
M 9.8125 72.90625 
L 35.015625 72.90625 
Q 46.296875 72.90625 52.390625 68.21875 
Q 58.5 63.53125 58.5 54.890625 
Q 58.5 48.1875 55.375 44.234375 
Q 52.25 40.28125 46.1875 39.3125 
Q 53.46875 37.75 57.5 32.78125 
Q 61.53125 27.828125 61.53125 20.40625 
Q 61.53125 10.640625 54.890625 5.3125 
Q 48.25 0 35.984375 0 
L 9.8125 0 
z
" id="DejaVuSans-66"/>
      <path d="M 54.890625 54.6875 
L 35.109375 28.078125 
L 55.90625 0 
L 45.3125 0 
L 29.390625 21.484375 
L 13.484375 0 
L 2.875 0 
L 24.125 28.609375 
L 4.6875 54.6875 
L 15.28125 54.6875 
L 29.78125 35.203125 
L 44.28125 54.6875 
z
" id="DejaVuSans-120"/>
      <path d="M 4.890625 31.390625 
L 31.203125 31.390625 
L 31.203125 23.390625 
L 4.890625 23.390625 
z
" id="DejaVuSans-45"/>
      <path d="M 10.6875 12.40625 
L 21 12.40625 
L 21 0 
L 10.6875 0 
z
" id="DejaVuSans-46"/>
      <path d="M 8.203125 72.90625 
L 55.078125 72.90625 
L 55.078125 68.703125 
L 28.609375 0 
L 18.3125 0 
L 43.21875 64.59375 
L 8.203125 64.59375 
z
" id="DejaVuSans-55"/>
     </defs>
     <use xlink:href="#DejaVuSans-66"/>
     <use x="68.603516" xlink:href="#DejaVuSans-111"/>
     <use x="126.660156" xlink:href="#DejaVuSans-120"/>
     <use x="185.839844" xlink:href="#DejaVuSans-105"/>
     <use x="213.623047" xlink:href="#DejaVuSans-110"/>
     <use x="277.001953" xlink:href="#DejaVuSans-103"/>
     <use x="340.478516" xlink:href="#DejaVuSans-45"/>
     <use x="373.9375" xlink:href="#DejaVuSans-118"/>
     <use x="433.117188" xlink:href="#DejaVuSans-48"/>
     <use x="496.740234" xlink:href="#DejaVuSans-46"/>
     <use x="528.527344" xlink:href="#DejaVuSans-99"/>
     <use x="583.507812" xlink:href="#DejaVuSans-109"/>
     <use x="680.919922" xlink:href="#DejaVuSans-97"/>
     <use x="742.199219" xlink:href="#DejaVuSans-46"/>
     <use x="773.986328" xlink:href="#DejaVuSans-49"/>
     <use x="837.609375" xlink:href="#DejaVuSans-54"/>
     <use x="901.232422" xlink:href="#DejaVuSans-46"/>
     <use x="933.019531" xlink:href="#DejaVuSans-55"/>
    </g>
   </g>
   <g id="legend_1">
    <g id="patch_7">
     <path d="M 406.151562 124.590625 
L 511.4 124.590625 
Q 513.4 124.590625 513.4 122.590625 
L 513.4 50.2 
Q 513.4 48.2 511.4 48.2 
L 406.151562 48.2 
Q 404.151562 48.2 404.151562 50.2 
L 404.151562 122.590625 
Q 404.151562 124.590625 406.151562 124.590625 
z
" style="fill:#ffffff;opacity:0.8;stroke:#cccccc;stroke-linejoin:miter;"/>
    </g>
    <g id="line2d_22">
     <path d="M 408.151562 56.298437 
L 428.151562 56.298437 
" style="fill:none;stroke:#1f77b4;stroke-linecap:square;stroke-width:1.5;"/>
    </g>
    <g id="line2d_23"/>
    <g id="text_20">
     <!-- mean -->
     <g transform="translate(436.151562 59.798437)scale(0.1 -0.1)">
      <use xlink:href="#DejaVuSans-109"/>
      <use x="97.412109" xlink:href="#DejaVuSans-101"/>
      <use x="158.935547" xlink:href="#DejaVuSans-97"/>
      <use x="220.214844" xlink:href="#DejaVuSans-110"/>
     </g>
    </g>
    <g id="line2d_24">
     <path d="M 408.151562 70.976562 
L 428.151562 70.976562 
" style="fill:none;stroke:#ff7f0e;stroke-linecap:square;stroke-width:1.5;"/>
    </g>
    <g id="line2d_25"/>
    <g id="text_21">
     <!-- min -->
     <g transform="translate(436.151562 74.476562)scale(0.1 -0.1)">
      <use xlink:href="#DejaVuSans-109"/>
      <use x="97.412109" xlink:href="#DejaVuSans-105"/>
      <use x="125.195312" xlink:href="#DejaVuSans-110"/>
     </g>
    </g>
    <g id="line2d_26">
     <path d="M 408.151562 85.654687 
L 428.151562 85.654687 
" style="fill:none;stroke:#2ca02c;stroke-linecap:square;stroke-width:1.5;"/>
    </g>
    <g id="line2d_27"/>
    <g id="text_22">
     <!-- max -->
     <g transform="translate(436.151562 89.154687)scale(0.1 -0.1)">
      <use xlink:href="#DejaVuSans-109"/>
      <use x="97.412109" xlink:href="#DejaVuSans-97"/>
      <use x="158.691406" xlink:href="#DejaVuSans-120"/>
     </g>
    </g>
    <g id="line2d_28">
     <path d="M 408.151562 100.332812 
L 428.151562 100.332812 
" style="fill:none;stroke:#9467bd;stroke-linecap:square;stroke-width:1.5;"/>
    </g>
    <g id="line2d_29"/>
    <g id="text_23">
     <!-- requirement -->
     <g transform="translate(436.151562 103.832812)scale(0.1 -0.1)">
      <defs>
       <path d="M 14.796875 27.296875 
Q 14.796875 17.390625 18.875 11.75 
Q 22.953125 6.109375 30.078125 6.109375 
Q 37.203125 6.109375 41.296875 11.75 
Q 45.40625 17.390625 45.40625 27.296875 
Q 45.40625 37.203125 41.296875 42.84375 
Q 37.203125 48.484375 30.078125 48.484375 
Q 22.953125 48.484375 18.875 42.84375 
Q 14.796875 37.203125 14.796875 27.296875 
z
M 45.40625 8.203125 
Q 42.578125 3.328125 38.25 0.953125 
Q 33.9375 -1.421875 27.875 -1.421875 
Q 17.96875 -1.421875 11.734375 6.484375 
Q 5.515625 14.40625 5.515625 27.296875 
Q 5.515625 40.1875 11.734375 48.09375 
Q 17.96875 56 27.875 56 
Q 33.9375 56 38.25 53.625 
Q 42.578125 51.265625 45.40625 46.390625 
L 45.40625 54.6875 
L 54.390625 54.6875 
L 54.390625 -20.796875 
L 45.40625 -20.796875 
z
" id="DejaVuSans-113"/>
      </defs>
      <use xlink:href="#DejaVuSans-114"/>
      <use x="38.863281" xlink:href="#DejaVuSans-101"/>
      <use x="100.386719" xlink:href="#DejaVuSans-113"/>
      <use x="163.863281" xlink:href="#DejaVuSans-117"/>
      <use x="227.242188" xlink:href="#DejaVuSans-105"/>
      <use x="255.025391" xlink:href="#DejaVuSans-114"/>
      <use x="293.888672" xlink:href="#DejaVuSans-101"/>
      <use x="355.412109" xlink:href="#DejaVuSans-109"/>
      <use x="452.824219" xlink:href="#DejaVuSans-101"/>
      <use x="514.347656" xlink:href="#DejaVuSans-110"/>
      <use x="577.726562" xlink:href="#DejaVuSans-116"/>
     </g>
    </g>
    <g id="line2d_30">
     <path d="M 408.151562 115.010937 
L 428.151562 115.010937 
" style="fill:none;stroke:#d62728;stroke-linecap:square;stroke-width:1.5;"/>
    </g>
    <g id="line2d_31"/>
    <g id="text_24">
     <!-- best avg score -->
     <g transform="translate(436.151562 118.510937)scale(0.1 -0.1)">
      <defs>
       <path d="M 48.6875 27.296875 
Q 48.6875 37.203125 44.609375 42.84375 
Q 40.53125 48.484375 33.40625 48.484375 
Q 26.265625 48.484375 22.1875 42.84375 
Q 18.109375 37.203125 18.109375 27.296875 
Q 18.109375 17.390625 22.1875 11.75 
Q 26.265625 6.109375 33.40625 6.109375 
Q 40.53125 6.109375 44.609375 11.75 
Q 48.6875 17.390625 48.6875 27.296875 
z
M 18.109375 46.390625 
Q 20.953125 51.265625 25.265625 53.625 
Q 29.59375 56 35.59375 56 
Q 45.5625 56 51.78125 48.09375 
Q 58.015625 40.1875 58.015625 27.296875 
Q 58.015625 14.40625 51.78125 6.484375 
Q 45.5625 -1.421875 35.59375 -1.421875 
Q 29.59375 -1.421875 25.265625 0.953125 
Q 20.953125 3.328125 18.109375 8.203125 
L 18.109375 0 
L 9.078125 0 
L 9.078125 75.984375 
L 18.109375 75.984375 
z
" id="DejaVuSans-98"/>
       <path d="M 44.28125 53.078125 
L 44.28125 44.578125 
Q 40.484375 46.53125 36.375 47.5 
Q 32.28125 48.484375 27.875 48.484375 
Q 21.1875 48.484375 17.84375 46.4375 
Q 14.5 44.390625 14.5 40.28125 
Q 14.5 37.15625 16.890625 35.375 
Q 19.28125 33.59375 26.515625 31.984375 
L 29.59375 31.296875 
Q 39.15625 29.25 43.1875 25.515625 
Q 47.21875 21.78125 47.21875 15.09375 
Q 47.21875 7.46875 41.1875 3.015625 
Q 35.15625 -1.421875 24.609375 -1.421875 
Q 20.21875 -1.421875 15.453125 -0.5625 
Q 10.6875 0.296875 5.421875 2 
L 5.421875 11.28125 
Q 10.40625 8.6875 15.234375 7.390625 
Q 20.0625 6.109375 24.8125 6.109375 
Q 31.15625 6.109375 34.5625 8.28125 
Q 37.984375 10.453125 37.984375 14.40625 
Q 37.984375 18.0625 35.515625 20.015625 
Q 33.0625 21.96875 24.703125 23.78125 
L 21.578125 24.515625 
Q 13.234375 26.265625 9.515625 29.90625 
Q 5.8125 33.546875 5.8125 39.890625 
Q 5.8125 47.609375 11.28125 51.796875 
Q 16.75 56 26.8125 56 
Q 31.78125 56 36.171875 55.265625 
Q 40.578125 54.546875 44.28125 53.078125 
z
" id="DejaVuSans-115"/>
      </defs>
      <use xlink:href="#DejaVuSans-98"/>
      <use x="63.476562" xlink:href="#DejaVuSans-101"/>
      <use x="125" xlink:href="#DejaVuSans-115"/>
      <use x="177.099609" xlink:href="#DejaVuSans-116"/>
      <use x="216.308594" xlink:href="#DejaVuSans-32"/>
      <use x="248.095703" xlink:href="#DejaVuSans-97"/>
      <use x="309.375" xlink:href="#DejaVuSans-118"/>
      <use x="368.554688" xlink:href="#DejaVuSans-103"/>
      <use x="432.03125" xlink:href="#DejaVuSans-32"/>
      <use x="463.818359" xlink:href="#DejaVuSans-115"/>
      <use x="515.917969" xlink:href="#DejaVuSans-99"/>
      <use x="570.898438" xlink:href="#DejaVuSans-111"/>
      <use x="632.080078" xlink:href="#DejaVuSans-114"/>
      <use x="670.943359" xlink:href="#DejaVuSans-101"/>
     </g>
    </g>
   </g>
  </g>
 </g>
 <defs>
  <clipPath id="p8c62b7d9da">
   <rect height="271.8" width="446.4" x="72" y="43.2"/>
  </clipPath>
 </defs>
</svg>
